<?xml version="1.0" encoding="utf-8"?>
<!-- Generator: Adobe Illustrator 19.2.1, SVG Export Plug-In . SVG Version: 6.00 Build 0)  -->
<!DOCTYPE svg PUBLIC "-//W3C//DTD SVG 1.1//EN" "http://www.w3.org/Graphics/SVG/1.1/DTD/svg11.dtd">
<svg version="1.1" id="Layer_1" xmlns="http://www.w3.org/2000/svg" xmlns:xlink="http://www.w3.org/1999/xlink" x="0px" y="0px"
	 viewBox="0 0 221.7 139.7" enable-background="new 0 0 221.7 139.7" xml:space="preserve">
<g>
	<polygon fill="#FFFFFF" points="96.1,95 96.1,98.6 96.1,105.6 96.1,108.1 108.5,119.7 120.9,108.1 120.9,105.5 120.9,98.6 
		120.9,95 108.5,95 	"/>
	<path fill="#FFFFFF" d="M164.3,34.8c-21.4-14.5-45-15.9-53.6-15.9c-1,0-1.8,0-2.2,0c-0.4,0-1.2,0-2.2,0c-7.1,0-24.6,1-42.6,9.7l0,0
		l0,0c-3.7,1.8-7.3,3.8-10.9,6.3l-9.8,0L42.8,35c-1.1-0.2-2.2-0.3-3.4-0.3H27.3c-4.1,0-7.9,1.1-11.2,3.3c-3.4,2.2-5.8,5.3-7.3,9.2
		L1.2,66.3c-2.7,6.9-0.5,11.8,1.1,14.1c1.6,2.3,5.4,6.2,13,6.2l37.4,0l22.5,21.4l3.7,3.6l1.6,1.5l27.9,26.5l28.3-26.9l1.8-1.7
		l3.8-3.6l1.5-1.4l20.4-19.4h27.3v-0.1h1.4l9.2-23.4h8.5l11.1-28.5H164.3z M108.5,25.7c0,0,20.4-1.2,41.6,9l-60.4,0l-4.1,5.5
		c-2.6-3.4-6.7-5.3-11.5-5.5l-7.3,0C88.1,24.5,108.5,25.7,108.5,25.7z M139.2,101.4l-1.5,1.4l-4,3.8l-1.8,1.7l-23.5,22.3l-23.1-22
		l-1.6-1.5l-4-3.8L62.4,86.6l13.9,0l16.3,15.5l0,0l0.1,0.1V102v-6.8l-9-8.6l5.2,0v0.1h4.2h32.3h8.1l-8.9,8.4v7l16.2-15.4h13.9
		L139.2,101.4z M207.3,58.5h-8.5L189.6,82h-8.2V82h-12.3h-9.6h-13.9h-7.3H122H99.8H78.7h-7.3H57.5h-9.6H25.1V82h-9.7
		c-5.2,0-7.8-2.3-9.1-4.2C5,75.9,3.8,72.7,5.6,68L13.1,49c1.1-2.9,3-5.3,5.6-7c2.5-1.7,5.4-2.5,8.6-2.5h12.1c0.3,0,0.6,0,0.9,0h5.8
		l0,0h0.3h0l5.3,0l0,0l8.9,0h0.1l13.2,0c4.7,0.1,7.1,2.4,8.3,4.3c1,1.5,1.9,3.8,1.4,7l8.4-11.3h19.6v0h0.5l0,0H152l0,0h14.3h4.3
		h44.2L207.3,58.5z"/>
	<path fill="#FFFFFF" d="M45.8,33.5c5-3.8,10.2-6.9,15.4-9.4c-5.6-5.4-10.9-10.4-15.7-14.6c-0.8-0.7-2.1,1.1-3,2
		c-2.6,2.6-5.1,4.2-5.7,3.6c-0.1-0.1-0.1-0.3-0.1-0.5c1.1-0.3,3-1.7,5-3.6c2.1-2.1,3.5-4.2,3.7-5.2c0.3-0.1,0.5-0.1,0.7,0
		c0.2,0.1,0.8,0.4,1.9,1.5l0,0c0.2,0.2,6.8,6.5,15.8,15.6c2.1-1,4.3-1.8,6.4-2.6c-9.5-9.6-16.6-16.5-17.2-17C50.7,1,48.7,0,46.4,0
		c-2.2,0-3.9,1-5.2,1.9C38.3,3.7,35,7,33,10c-2.1,3.2-3.8,6.8,1.3,11.9C34.4,21.9,38.9,26.6,45.8,33.5z"/>
	<path fill="#FFFFFF" d="M170.1,7.2L170.1,7.2c1.1-1.1,1.7-1.4,2-1.5c0.2-0.1,0.4-0.1,0.7,0c0.2,1,1.6,3.1,3.7,5.2
		c1.9,1.9,3.9,3.3,5,3.6c0,0.2,0,0.4-0.1,0.5c-0.6,0.6-3.2-1-5.7-3.6c-0.9-0.9-2.3-2.7-3-2c-4.8,4.3-10.3,9.4-16,14.9
		c5.1,2.5,10.3,5.7,15.3,9.5h0c0.4-0.4,0.9-0.9,1.3-1.3c0,0,0,0,0.1-0.1c0.8-0.8,1.6-1.6,2.4-2.4c0,0,0,0,0,0
		c0.7-0.8,1.4-1.5,2.1-2.1c0.5-0.5,0.9-0.9,1.3-1.4c0.3-0.3,0.5-0.5,0.8-0.8c1.6-1.6,2.8-2.8,3.4-3.5c0,0,0,0,0,0
		c0.3-0.3,0.5-0.5,0.5-0.5c2.5-2.5,3.4-4.7,3.4-6.6c0-1.9-1-3.6-2-5.2c-1.9-3-5.3-6.3-8.1-8.1c-1.3-0.8-3-1.9-5.2-1.9
		c-2.2,0-4.3,1-6.5,3.2c-0.1,0-0.2,0.1-0.3,0.3c-0.1,0.1-0.1,0.1-0.2,0.2c0,0,0,0-0.1,0.1c-0.1,0.1-0.3,0.3-0.4,0.4c0,0,0,0-0.1,0
		c-0.2,0.2-0.4,0.4-0.6,0.6c0,0,0,0,0,0c-0.2,0.2-0.5,0.5-0.7,0.7c0,0,0,0,0,0c-0.3,0.3-0.5,0.5-0.8,0.8c0,0,0,0-0.1,0.1
		c-3.1,3.1-8.2,8.1-14.2,14.1c0,0,0,0,0,0c2.1,0.8,4.2,1.7,6.3,2.6C163.2,13.9,170,7.4,170.1,7.2z"/>
	<path fill="#FFFFFF" d="M166.1,124.1c-1.1,0-2.3,0.4-3.4,0.9c-2.3-2.2-8-7.7-15.4-15.2l-6.9,6.5c7.6,7.4,13.1,13.2,15.4,15.6
		c-1.2,2.7-1.2,4.6,0.1,5.8c0.5,0.5,1.4,1.1,2.8,1.1c2.1,0,4.8-1.4,7.2-3.8c3.7-3.7,4.9-7.8,2.7-10
		C168.1,124.6,167.3,124.1,166.1,124.1z"/>
	<path fill="#FFFFFF" d="M55.1,125c-1.1-0.5-2.3-0.9-3.4-0.9c-1.2,0-2,0.5-2.4,0.9c-2.1,2.1-1,6.2,2.7,10c2.4,2.4,5.1,3.8,7.2,3.8
		c1.4,0,2.3-0.6,2.8-1.1c1.2-1.2,1.3-3.1,0.1-5.8c2.2-2.3,7.6-7.9,15-15.2l-6.9-6.5C62.9,117.5,57.4,122.8,55.1,125z"/>
	<path fill="#FFFFFF" d="M29.4,64.4L29.4,64.4L27.8,68h-2h-3.6l1-2.5L28,53.5h5h0.2l-1.5,3.6h7.5h3.1l2.1-5.6
		c0.1-0.3,0.2-0.5,0.3-0.7c0.5-1.7,0.4-3.1-0.3-4.1c-0.7-1.1-2-1.7-3.8-1.9c-0.4,0-0.8-0.1-1.3-0.1h-5.6h-5.2h-1.2
		c-2.2,0-4.1,0.6-5.7,1.7c-1.7,1.1-2.9,2.6-3.6,4.6l-7.5,19c-0.8,2.1-0.8,3.8,0,5c0.9,1.3,2.5,1.9,4.8,1.9h13.2c0.2,0,0.4,0,0.7,0
		c1.7-0.1,3.1-0.5,4.4-1.3c1.3-0.9,2.4-2.2,3.3-3.9c0.2-0.3,0.3-0.7,0.5-1.1l2.1-5.6l0.2-0.4H39H29.4z"/>
	<path fill="#FFFFFF" d="M71.8,75.5l-0.7,1l-0.3-2L69.5,66c2.4-0.7,4-2.1,4.9-4.2l3.7-10.2c0.8-2,0.8-3.7-0.1-4.9
		c-0.8-1.2-2.2-1.9-4.1-1.9H51.3h-1.7l-0.9,2.2l-2.5,6.3H50c0.2,0,0.3,0,0.3,0.1c0,0.1,0,0.2,0,0.3l-4.6,11.7l-1.5,4L41.6,76
		l-0.3,0.8h1.1h9.3l0.1-0.2l3.7-9.7l0.2-0.4h3.6l0.4,4.5l0.6,5.9h5.6h5.3l0,0h2h9.4l3.7-5.1h9.8v5.1h10.4V44.6H94.7L71.8,75.5z
		 M60.6,53.3h6.6l-1.8,4.6h-6.6L60.6,53.3z M96.1,63.3h-3.8l3.8-5.7V63.3z"/>
	<path fill="#FFFFFF" d="M141,53.3l3.4-8.7h-28.6l-3.4,8.7h3.8c0.2,0,0.3,0,0.3,0.1c0,0.1,0,0.2,0,0.3l-9,23.1h11.1l4-10.2h12.4
		l3.4-8.7h-12.4l1.8-4.6H141z"/>
	<path fill="#FFFFFF" d="M147.7,44.6l-3.4,8.7h8.8c0.2,0,0.3,0,0.3,0.1c0,0.1,0,0.2,0,0.3l-8.6,22l-0.4,0.9h6.7h3.5l2.1-5.3l0.2-0.6
		l6.5-16.5c0.3-0.7,0.8-1.1,1.5-1.1h7.3l0.7-1.9l2.7-6.8h-9.9H147.7z"/>
	<path fill="#FFFFFF" d="M183.3,44.6h-4.1l-0.8,2.1l-2.6,6.6h8.1h0.7c0.2,0,0.3,0,0.3,0.1c0,0.1,0,0.2,0,0.3l-0.2,0.6l-8,20.5
		l-0.7,1.9h6.1h4.1l2.4-6.2l4.8-12.3l1.5-3.8c0.1-0.2,0.2-0.4,0.4-0.6c0.3-0.3,0.7-0.5,1.2-0.5h7.3l3.4-8.7h-18.6H183.3z"/>
</g>
</svg>
