<svg id="Layer_1" data-name="Layer 1" xmlns="http://www.w3.org/2000/svg" viewBox="0 0 173.11 173.11"><defs><style>.cls-1{fill:#fff;}</style></defs><title>24-logo</title><polygon class="cls-1" points="153.61 130.88 153.61 91.71 126.91 130.88 153.61 130.88"/><path class="cls-1" d="M-222.72,214H-343.39a26.23,26.23,0,0,0-26.22,26.23V360.93a26.21,26.21,0,0,0,25.17,26.17v-8.25L-308.29,342q13.11-13.27,17.44-21.33t4.33-14.58A15,15,0,0,0-291,294.9a15.81,15.81,0,0,0-11.56-4.41,15.33,15.33,0,0,0-11.92,5.33q-4.77,5.32-5.08,14.46h-21.69q0.87-18.9,11.88-29.75t28.25-10.85a38.32,38.32,0,0,1,18.79,4.49,33.63,33.63,0,0,1,13,13,34,34,0,0,1,4.88,17.2q0,10.4-5.92,22.4T-292,355.09l-13.12,13.83h41.65v18.23h40.76a26.16,26.16,0,0,0,6.72-.9V365.49h-51V344.92l50.6-75.24h19.91V240.26A26.23,26.23,0,0,0-222.72,214" transform="translate(369.61 -214.03)"/></svg>