<svg id="Layer_1" data-name="Layer 1" xmlns="http://www.w3.org/2000/svg" viewBox="0 0 116.71 43.17"><defs><style>.cls-1{fill:#fff;}</style></defs><title>Track-logo</title><path class="cls-1" d="M-282.67,390.66a13.06,13.06,0,0,0-.86-1.37v-0.06a6.93,6.93,0,0,0,3.41-6.21c0-3.31-1.62-5.63-4.2-6.62a11.76,11.76,0,0,0-4.42-.54h-3.15a17.43,17.43,0,0,1,.74,5,17.37,17.37,0,0,1-.82,5.29h-4.7v12.45h5.57v-7.67h2.61l4,7.67h6.21Zm-6-4.49h-2.42v-5.54h1.88c2.8,0,3.44,1,3.44,2.74A2.61,2.61,0,0,1-288.68,386.17Z" transform="translate(331.28 -363.44)"/><path class="cls-1" d="M-263.47,393.84h-7.1l-1.37,4.77h-5.73l7.73-22.76h5.86l7.73,22.76h-5.73ZM-267,381s-0.51,2.48-.92,3.92l-1.31,4.42h4.49l-1.27-4.42c-0.41-1.43-.92-3.92-0.92-3.92H-267Z" transform="translate(331.28 -363.44)"/><path class="cls-1" d="M-245.52,375.48a11.86,11.86,0,0,1,8.53,3.22l-2.58,4.2a9.55,9.55,0,0,0-5.7-2.32c-4.36,0-6.43,3.22-6.43,6.49s2.23,6.84,6.43,6.84c3.44,0,6-2.8,6-2.8l2.86,4.07a12.49,12.49,0,0,1-9.17,3.82c-7.13,0-11.94-5.06-11.94-11.81A11.58,11.58,0,0,1-245.52,375.48Z" transform="translate(331.28 -363.44)"/><path class="cls-1" d="M-311.38,380.63h-6.91v-4.78h19.39v4.78h-6.91v18h-5.57v-18Z" transform="translate(331.28 -363.44)"/><path class="cls-1" d="M-311.37,381.1v-0.42h-0.42A0.42,0.42,0,0,1-311.37,381.1Z" transform="translate(331.28 -363.44)"/><path class="cls-1" d="M-296.63,402.53h0.29l0.76,2.09c0.05,0.14.11,0.36,0.11,0.36h0s0.05-.22.11-0.36l0.76-2.09h0.29l-1,2.75h-0.28Z" transform="translate(331.28 -363.44)"/><path class="cls-1" d="M-292.45,402.53h1.55v0.24h-1.28v1h1V404h-1v1h1.35v0.24h-1.62v-2.75Z" transform="translate(331.28 -363.44)"/><path class="cls-1" d="M-288.81,402.53h0.27v1.25h1.6v-1.25h0.27v2.75h-0.27V404h-1.6v1.26h-0.27v-2.75Z" transform="translate(331.28 -363.44)"/><path class="cls-1" d="M-284.47,402.53h0.27v2.75h-0.27v-2.75Z" transform="translate(331.28 -363.44)"/><path class="cls-1" d="M-280.79,402.48a1.4,1.4,0,0,1,1,.36l-0.14.2a1.29,1.29,0,0,0-.84-0.3,1.1,1.1,0,0,0-1.11,1.15,1.13,1.13,0,0,0,1.12,1.19,1.29,1.29,0,0,0,.89-0.37l0.16,0.19a1.47,1.47,0,0,1-1.05.43,1.39,1.39,0,0,1-1.39-1.44A1.36,1.36,0,0,1-280.79,402.48Z" transform="translate(331.28 -363.44)"/><path class="cls-1" d="M-277.73,402.53h0.27V405h1.28v0.24h-1.55v-2.75Z" transform="translate(331.28 -363.44)"/><path class="cls-1" d="M-274.3,402.53h1.55v0.24H-274v1h1V404h-1v1h1.35v0.24h-1.62v-2.75Z" transform="translate(331.28 -363.44)"/><path class="cls-1" d="M-268.07,402.53h0.28l0.72,1.62c0.06,0.14.13,0.34,0.13,0.34h0s0.07-.2.14-0.34l0.72-1.62h0.28l0.22,2.75h-0.27l-0.15-1.93c0-.15,0-0.38,0-0.38h0s-0.08.24-.14,0.38l-0.65,1.41h-0.25l-0.65-1.41c-0.06-.14-0.15-0.39-0.15-0.39h0s0,0.24,0,.39l-0.15,1.93h-0.27Z" transform="translate(331.28 -363.44)"/><path class="cls-1" d="M-262.09,404.4h-1.11l-0.31.88h-0.29l1-2.75h0.29l1,2.75h-0.29Zm-0.56-1.59s-0.06.23-.11,0.36l-0.37,1h0.95l-0.36-1c0-.13-0.11-0.36-0.11-0.36h0Z" transform="translate(331.28 -363.44)"/><path class="cls-1" d="M-259.63,402.53h0.26l1.41,2c0.09,0.14.23,0.37,0.23,0.37h0s0-.23,0-0.37v-2h0.27v2.75h-0.26l-1.41-2c-0.09-.14-0.23-0.37-0.23-0.37h0s0,0.23,0,.37v2h-0.27v-2.75Z" transform="translate(331.28 -363.44)"/><path class="cls-1" d="M-253.92,404.4H-255l-0.31.88h-0.29l1-2.75h0.29l1,2.75h-0.29Zm-0.56-1.59s-0.06.23-.11,0.36l-0.37,1H-254l-0.36-1c0-.13-0.11-0.36-0.11-0.36h0Z" transform="translate(331.28 -363.44)"/><path class="cls-1" d="M-250.28,402.48a1.49,1.49,0,0,1,1,.32l-0.14.2a1.36,1.36,0,0,0-.82-0.27,1.11,1.11,0,0,0-1.12,1.17,1.11,1.11,0,0,0,1.09,1.18,1.2,1.2,0,0,0,.86-0.4v-0.47h-0.47V404h0.73v1.32h-0.25v-0.21c0-.06,0-0.12,0-0.12h0a1.23,1.23,0,0,1-.9.37,1.36,1.36,0,0,1-1.35-1.42A1.38,1.38,0,0,1-250.28,402.48Z" transform="translate(331.28 -363.44)"/><path class="cls-1" d="M-247.11,402.53h1.55v0.24h-1.28v1h1V404h-1v1h1.35v0.24h-1.62v-2.75Z" transform="translate(331.28 -363.44)"/><path class="cls-1" d="M-243.33,402.53h0.28l0.72,1.62c0.06,0.14.13,0.34,0.13,0.34h0s0.07-.2.14-0.34l0.72-1.62h0.28l0.22,2.75h-0.27l-0.15-1.93c0-.15,0-0.38,0-0.38h0s-0.08.24-.14,0.38l-0.65,1.41h-0.25l-0.65-1.41c-0.06-.14-0.15-0.39-0.15-0.39h0s0,0.24,0,.39l-0.15,1.93h-0.27Z" transform="translate(331.28 -363.44)"/><path class="cls-1" d="M-238.72,402.53h1.55v0.24h-1.28v1h1V404h-1v1h1.35v0.24h-1.62v-2.75Z" transform="translate(331.28 -363.44)"/><path class="cls-1" d="M-235.08,402.53h0.26l1.41,2c0.09,0.14.23,0.37,0.23,0.37h0s0-.23,0-0.37v-2h0.27v2.75h-0.26l-1.41-2c-0.09-.14-0.23-0.37-0.23-0.37h0s0,0.23,0,.37v2h-0.27v-2.75Z" transform="translate(331.28 -363.44)"/><path class="cls-1" d="M-230.11,402.77h-1v-0.24h2.25v0.24h-1v2.51h-0.27v-2.51Z" transform="translate(331.28 -363.44)"/><path class="cls-1" d="M-215.15,397.17l-1.34.75-1.14-2.07-5-9v-0.06l6.14-10.89h-6l-4.49,8.38h-2.51v-8.38H-228c0.48,0,.61-0.29.28-0.64l-3.91-4.25a0.8,0.8,0,0,0-1.19,0l-3.91,4.25c-0.33.35-.2,0.64,0.28,0.64H-235v22.76h5.57v-8.9H-227l4.59,8.81,1.09,2.1-1.21.68c-0.42.24-.39,0.55,0.07,0.7l2.26,0.73,3.23,1a0.8,0.8,0,0,0,1-.58l0.59-2.5,0.1-.41h0l0.64-2.71C-214.48,397.12-214.73,396.93-215.15,397.17Z" transform="translate(331.28 -363.44)"/><path class="cls-1" d="M-331.11,390.53l0,0,0,0h0Z" transform="translate(331.28 -363.44)"/><path class="cls-1" d="M-294.08,390.53h0l0,0Z" transform="translate(331.28 -363.44)"/><path class="cls-1" d="M-294.11,390.57l0,0,0.14-.23-1.13,1.35Z" transform="translate(331.28 -363.44)"/><polygon class="cls-1" points="0 26.82 0.01 26.83 0 26.82 0 26.82"/><path class="cls-1" d="M-293.91,390.26h0l0,0Z" transform="translate(331.28 -363.44)"/><path class="cls-1" d="M-330.16,391.61l0,0Z" transform="translate(331.28 -363.44)"/><path class="cls-1" d="M-310.58,405.49l0.1,0.12Z" transform="translate(331.28 -363.44)"/><path class="cls-1" d="M-308.59,363.44A17.45,17.45,0,0,0-326,380.89a17.37,17.37,0,0,0,1.11,6.11,18.52,18.52,0,0,0,2.75,4.57l0,0,11.57,13.88h0l0.1,0.12a2.32,2.32,0,0,0,3.88-.12h0L-295,391.61l0,0a18.52,18.52,0,0,0,2.75-4.57,17.37,17.37,0,0,0,1.11-6.11A17.45,17.45,0,0,0-308.59,363.44Zm8.37,26.82a12.71,12.71,0,0,1-1,.85,12.51,12.51,0,0,1-7.32,2.36,12.51,12.51,0,0,1-7.32-2.36,12.71,12.71,0,0,1-1-.85,12.53,12.53,0,0,1-4.21-9.37,12.58,12.58,0,0,1,12.58-12.58A12.58,12.58,0,0,1-296,380.89,12.53,12.53,0,0,1-300.22,390.26Z" transform="translate(331.28 -363.44)"/><polygon class="cls-1" points="20.7 42.05 20.7 42.05 20.7 42.05 20.7 42.05"/></svg>