<svg id="Layer_2" data-name="Layer 2" xmlns="http://www.w3.org/2000/svg" viewBox="0 0 218.88 104.13"><defs><style>.cls-1{fill:#fff;}</style></defs><title>atec-logo</title><polygon class="cls-1" points="196.32 41.39 189.55 41.39 166.98 41.39 163.97 46.89 149.85 72.64 146.84 78.14 169.4 78.14 176.17 78.14 198.74 78.14 201.75 72.64 209.19 59.05 186.63 59.05 179.19 72.64 172.42 72.64 179.86 59.05 182.07 55.02 186.53 46.89 193.3 46.89 188.84 55.02 211.41 55.02 215.86 46.89 218.88 41.39 196.32 41.39"/><path class="cls-1" d="M-475.11,366.94l2.21-4,3.35-6.11,3-5.5h-51.89l-3,5.5-3.35,6.11h22.56l3.35-6.11h6.77l-3.35,6.11-2.21,4H-527L-529.8,372l-5.76,10.51-3,5.5h51.89l3-5.5L-477.9,372Zm-31.11,15.6H-513l5.76-10.51h6.77Z" transform="translate(538.57 -309.9)"/><path class="cls-1" d="M-418.05,382.54h-6.69l3.55-6.47,2.21-4h29.25l2.79-5.09,5.56-10.15,3-5.5h-51.81l-3,5.5-14.11,25.75-3,5.5h51.81l3-5.5,3.55-6.47H-414.5Zm7.43-25.75h6.69l-5.56,10.15h-6.69Z" transform="translate(538.57 -309.9)"/><polygon class="cls-1" points="101.06 42.3 104.17 36.64 121.81 36.64 128.31 26.39 109.79 26.39 113.54 19.54 101.69 0 87.22 26.39 77.44 26.39 70.94 36.64 81.61 36.64 78.5 42.3 78.52 42.3 55.35 84.58 55.34 84.59 55.35 84.61 67.19 104.13 77.89 84.61 79.72 81.27 101.08 42.3 101.06 42.3"/></svg>