<svg id="Layer_1" data-name="Layer 1" xmlns="http://www.w3.org/2000/svg" viewBox="0 0 127.8 148.57"><defs><style>.cls-1,.cls-2,.cls-3,.cls-4,.cls-5{fill:#fff;}.cls-2{opacity:0.8;}.cls-3{opacity:0.6;}.cls-4{stroke:#b7b7b7;stroke-miterlimit:10;stroke-width:0.25px;}.cls-5{opacity:0.4;}</style></defs><title>grundy-logo</title><path class="cls-1" d="M-80.88,92.19v6.14a7.09,7.09,0,0,0,3.1,5.46l6.52,3.76,8.5-4.91Z" transform="translate(153.98 -44.11)"/><polygon class="cls-1" points="73.1 33.75 73.1 43.56 95.14 56.28 103.63 51.38 73.1 33.75"/><polygon class="cls-1" points="103.65 65.7 103.63 65.71 103.65 65.72 103.65 65.7"/><path class="cls-2" d="M-50.35,109.82l-8.5,4.91L-66,118.88l-8.5,4.91,8.5,4.91,8.5-4.91,4.45-2.57a6.89,6.89,0,0,0,1.85-2.12,6.51,6.51,0,0,0,.94-3.13v-6.14h0Z" transform="translate(153.98 -44.11)"/><polygon class="cls-1" points="103.65 51.36 103.63 51.38 103.65 51.39 103.65 51.36"/><polygon class="cls-2" points="103.63 51.38 95.14 56.28 91.22 58.54 82.72 63.45 75.52 67.61 67.02 72.51 75.52 77.42 84.01 72.51 91.22 68.35 99.71 63.45 103.63 61.19 103.65 61.17 103.65 51.39 103.63 51.38"/><path class="cls-1" d="M-90.93,133.25L-94.85,131l-8.5-4.91-28.14-16.25V116a7.09,7.09,0,0,0,3.1,5.46l16.55,9.55,8.5,4.91,3.92,2.26,5.42,3.13a7.18,7.18,0,0,0,5.85.17l5.72-3.3Z" transform="translate(153.98 -44.11)"/><polygon class="cls-1" points="43.38 35.35 43.38 35.84 43.42 35.82 43.42 35.33 43.38 35.35"/><polygon class="cls-1" points="83.99 35.36 83.99 35.35 68.01 26.14 68.01 26.14 83.99 35.36"/><polygon class="cls-1" points="83.96 86.88 75.46 81.97 71.54 79.71 63.05 74.81 37.06 59.8 34.88 58.54 31.03 56.32 22.49 51.39 22.49 59.8 22.49 61.2 54.55 79.71 63.05 84.62 66.97 86.88 75.46 91.78 75.49 91.8 83.99 86.9 83.96 86.88"/><polygon class="cls-3" points="75.49 6.09 75.46 6.1 66.97 11.01 63.05 13.27 55.59 17.57 54.55 18.18 43.42 24.6 34.88 29.53 34.88 39.34 34.88 43.13 34.88 52.57 34.88 54.04 37.06 55.3 43.38 58.95 43.38 57.48 43.38 54.44 43.38 52.95 43.38 52.82 43.38 52.49 43.38 51.33 43.38 43.13 43.38 37.07 43.38 35.58 43.38 35.44 43.38 34.44 43.38 33.95 43.42 33.93 43.42 34.41 63.05 23.08 71.54 18.18 75.46 15.91 83.96 11.01 83.99 10.99 75.49 6.09"/><path class="cls-3" d="M-88.15,44.65a7.18,7.18,0,0,0-5.85.17l-5.42,3.13-3.92,2.26-7.46,4.31-1,.6-16.39,9.46-0.12.07-0.11.07-0.22.15-0.09.07-0.22.17-0.09.08-0.21.19-0.09.09-0.2.21-0.09.1-0.18.21-0.09.12-0.16.21-0.1.14-0.14.21-0.11.17-0.12.19-0.11.21-0.09.17-0.11.24-0.07.14-0.11.27,0,0.12-0.1.31,0,0.09c0,0.11-.06.23-0.09,0.34l0,0.06c0,0.12-.05.24-0.07,0.36v0a4.87,4.87,0,0,0-.06.78V91l8.54,4.93V71.34l3.85-2.22,7.86-4.54,7.89-4.56,1-.6,7.46-4.3,3.92-2.26,8.5-4.91Z" transform="translate(153.98 -44.11)"/><path class="cls-4" d="M-153.57,182.17h1v9.31h4.74v0.9h-5.74V182.17Z" transform="translate(153.98 -44.11)"/><path class="cls-4" d="M-136.64,189.13h-4.11l-1.16,3.25H-143l3.75-10.21h1.08l3.75,10.21h-1.06Zm-2.06-5.9s-0.22.84-.39,1.32l-1.37,3.7h3.52l-1.34-3.7c-0.17-.48-0.39-1.32-0.39-1.32h0Z" transform="translate(153.98 -44.11)"/><path class="cls-4" d="M-128.37,182.17h1l5.21,7.35c0.35,0.51.84,1.38,0.84,1.38h0s-0.09-.84-0.09-1.38v-7.35h1v10.21h-1l-5.21-7.35c-0.35-.51-0.84-1.38-0.84-1.38h0s0.09,0.84.09,1.38v7.35h-1V182.17Z" transform="translate(153.98 -44.11)"/><path class="cls-4" d="M-113.07,182.17h3.3a4.75,4.75,0,0,1,5.13,5.1,4.75,4.75,0,0,1-5.13,5.11h-3.3V182.17Zm3.2,9.31a3.86,3.86,0,0,0,4.18-4.21,3.87,3.87,0,0,0-4.18-4.2h-2.19v8.41h2.19Z" transform="translate(153.98 -44.11)"/><path class="cls-4" d="M-88.72,182a5.52,5.52,0,0,1,3.63,1.19l-0.54.75a5,5,0,0,0-3.05-1,4.1,4.1,0,0,0-4.14,4.33,4.11,4.11,0,0,0,4.05,4.37,4.46,4.46,0,0,0,3.21-1.5V188.4H-87.3v-0.9h2.7v4.88h-0.93v-0.77c0-.22,0-0.44,0-0.44h0a4.57,4.57,0,0,1-3.33,1.38,5.06,5.06,0,0,1-5-5.29A5.13,5.13,0,0,1-88.72,182Z" transform="translate(153.98 -44.11)"/><path class="cls-4" d="M-77.81,182.17h3a4.55,4.55,0,0,1,1.92.28,2.73,2.73,0,0,1,1.54,2.63,2.73,2.73,0,0,1-1.93,2.76v0a4.06,4.06,0,0,1,.26.41l2.22,4.11h-1.15l-2.31-4.3H-76.8v4.3h-1V182.17Zm3.43,5a1.91,1.91,0,0,0,2-2.08,1.89,1.89,0,0,0-.93-1.79,2.93,2.93,0,0,0-1.45-.25H-76.8v4.11h2.43Z" transform="translate(153.98 -44.11)"/><path class="cls-4" d="M-59.82,182a5.16,5.16,0,0,1,5.2,5.21,5.24,5.24,0,0,1-5.2,5.35,5.24,5.24,0,0,1-5.2-5.35A5.16,5.16,0,0,1-59.82,182Zm0,9.63a4.25,4.25,0,0,0,4.16-4.42,4.17,4.17,0,0,0-4.16-4.29A4.17,4.17,0,0,0-64,187.21,4.24,4.24,0,0,0-59.82,191.63Z" transform="translate(153.98 -44.11)"/><path class="cls-4" d="M-48.12,182.17h1v6.64a2.65,2.65,0,0,0,2.89,2.82,2.67,2.67,0,0,0,2.91-2.85v-6.61h1v6.65a3.6,3.6,0,0,1-3.89,3.73,3.62,3.62,0,0,1-3.92-3.73v-6.65Z" transform="translate(153.98 -44.11)"/><path class="cls-4" d="M-33.69,182.17h3.53A3,3,0,0,1-27,185.25a3,3,0,0,1-3.15,3.12h-2.53v4h-1V182.17Zm3.4,5.3A2.08,2.08,0,0,0-28,185.25a2,2,0,0,0-2.24-2.18h-2.41v4.4h2.4Z" transform="translate(153.98 -44.11)"/><path class="cls-1" d="M-142.84,153.69c5.44,0,8.17,2.82,8.17,2.82l-2.5,3.89a8.46,8.46,0,0,0-5.17-2c-4.46,0-6.27,2.85-6.27,6,0,4,2.79,6.45,6.09,6.45a7.27,7.27,0,0,0,4.31-1.54v-1.63h-3v-4.43h7.61v12h-4.34v-0.59c0-.45,0-0.89,0-0.89H-138a8.81,8.81,0,0,1-5.59,1.84c-5.44,0-10.43-4.07-10.43-11A10.75,10.75,0,0,1-142.84,153.69Z" transform="translate(153.98 -44.11)"/><path class="cls-1" d="M-129.67,154h7.4a11,11,0,0,1,4.13.5,6.18,6.18,0,0,1,3.92,6.18,6.47,6.47,0,0,1-3.18,5.79v0.06a12.27,12.27,0,0,1,.8,1.28l4.13,7.43h-5.79l-3.77-7.16h-2.44v7.16h-5.2V154Zm7.46,9.63a2.43,2.43,0,0,0,2.7-2.61c0-1.6-.59-2.56-3.21-2.56h-1.75v5.17h2.26Z" transform="translate(153.98 -44.11)"/><path class="cls-1" d="M-109.88,154h5.2v13.43c0,2.23,1.46,3.42,3.68,3.42s3.68-1.19,3.68-3.42V154h5.2v13.43c0,4.78-3.51,8.17-8.85,8.17s-8.91-3.39-8.91-8.17V154Z" transform="translate(153.98 -44.11)"/><path class="cls-1" d="M-87.42,154h5.26l5.88,9.92a38.22,38.22,0,0,1,1.78,3.62h0.06s-0.24-2.29-.24-3.62V154h5.2v21.24H-74.7l-5.91-9.89a38,38,0,0,1-1.78-3.62h-0.06s0.24,2.29.24,3.62v9.89h-5.2V154Z" transform="translate(153.98 -44.11)"/><path class="cls-1" d="M-64.48,154h7.55c6.68,0,11,3.89,11,10.58s-4.28,10.67-11,10.67h-7.55V154Zm7.34,16.79c3.59,0,5.79-2.14,5.79-6.21s-2.29-6.12-5.79-6.12h-2.14v12.33h2.14Z" transform="translate(153.98 -44.11)"/><path class="cls-1" d="M-38.39,166.58l-7-12.54h5.91l2.41,5.11c0.68,1.46,1.28,3.06,1.28,3.06h0.06s0.59-1.6,1.28-3.06l2.38-5.11h5.91l-7,12.54v8.71h-5.2v-8.71Z" transform="translate(153.98 -44.11)"/><path class="cls-5" d="M-51.26,67a6.89,6.89,0,0,0-1.85-2.12l-4.45-2.57L-66,57.41h0l-0.06,0h0L-70,55.13-78.52,60l0,0,4.26,2.46,7.21,4.16,8.5,4.91h0L-57.88,72h0l6.8,3.92h0l0.71,0.41h0V70.13A6.51,6.51,0,0,0-51.26,67Z" transform="translate(153.98 -44.11)"/><polygon class="cls-5" points="101.87 35.84 93.37 30.94 86.17 26.78 77.67 21.87 77.66 21.88 76.53 21.22 76.52 21.23 71.79 18.49 71.78 18.5 71.38 18.27 63.05 23.08 62.88 23.18 66.68 25.36 73.88 29.52 82.38 34.43 86.3 36.69 92.66 40.37 92.66 40.35 97.77 43.3 97.77 43.3 98.54 43.74 98.54 43.73 103.65 46.68 103.65 41.91 103.65 36.98 103.65 36.87 101.87 35.84"/></svg>