<svg id="Layer_1" data-name="Layer 1" xmlns="http://www.w3.org/2000/svg" viewBox="0 0 1505.53 923.19"><defs><style>.cls-1{fill:#fff;}</style></defs><title>Newtons-logo</title><path class="cls-1" d="M8989,6471.36l-126.49-152.9v123.06a25.39,25.39,0,0,0,1.19,8.05,12.09,12.09,0,0,0,4.36,5.94,22.33,22.33,0,0,0,8.85,3.57,73.8,73.8,0,0,0,14.66,1.19l1.06,2.11-1.06,9h-68.39v-11.09q13.47,0,18.48-4.75t5-14V6315.3q0-8.18-5-12.94t-18.48-4.75v-11.09h59.42l104.31,128.87v-99a25.41,25.41,0,0,0-1.19-8.05,12.09,12.09,0,0,0-4.36-5.94,22.23,22.23,0,0,0-8.71-3.57,68.49,68.49,0,0,0-14-1.19v-11.09H9027l1.06,9-1.06,2.11q-14.26,0-19.14,4.75t-4.89,14v155h-14Z" transform="translate(-8823.12 -5767.76)"/><path class="cls-1" d="M9058.93,6471.36v-11.09q13.47,0,18.48-4.75t5-14V6316.35q0-9.24-5-14t-18.48-4.75v-11.09h146l3.43,2.38-9.24,40.4-2.11,1.32h-5.55q-1.85-17.43-10.69-25.22t-25.48-7.79h-14.79q-13.21,0-18,4.89t-4.75,13.86v56h34.86q9.77,0,14.66-5.55t4.89-22.18h11.09v63.64l-9,1.06-2.11-1.06q0-14-4.89-19t-14.66-5h-34.86v57.3q0,9,4.36,13.86t15.71,4.89h25.61a54.21,54.21,0,0,0,10.83-1.32,49.69,49.69,0,0,0,13.07-4.89,58.11,58.11,0,0,0,13.34-10,59.08,59.08,0,0,0,11.62-17l5.28,1.85,1.06,2.38-10.56,40.14h-149.2Z" transform="translate(-8823.12 -5767.76)"/><path class="cls-1" d="M9568.66,6471.36V6460q14.79,0,20.07-4.75t5.28-14V6298.93a107,107,0,0,0-17.3,1.45,68,68,0,0,0-17,5.15,49.25,49.25,0,0,0-14.92,10.56,52.22,52.22,0,0,0-11,17.43l-5.81-1.85-1.06-2.38,6.34-42.78h157.12l6.07,42.78-1.06,2.38-5.81,1.85a52.29,52.29,0,0,0-11-17.43,49.84,49.84,0,0,0-14.79-10.56,66,66,0,0,0-17-5.15,109.45,109.45,0,0,0-17.43-1.45v142.33q0,9.25,5.15,14t20.73,4.75l1.06,2.11-1.06,9.24h-86.62Z" transform="translate(-8823.12 -5767.76)"/><path class="cls-1" d="M9805.25,6475.32a105.39,105.39,0,0,1-38.69-6.87,87.87,87.87,0,0,1-30.24-19.41,86.83,86.83,0,0,1-19.67-30.24q-7-17.69-7-39.35,0-21.92,7-39.74a86.57,86.57,0,0,1,49.91-50.17,110.43,110.43,0,0,1,77.37,0,86.57,86.57,0,0,1,49.91,50.17q7,17.82,7,39.74,0,21.66-7,39.35a86.88,86.88,0,0,1-19.67,30.24,87.91,87.91,0,0,1-30.24,19.41A105.42,105.42,0,0,1,9805.25,6475.32Zm0-12.68a46.31,46.31,0,0,0,24.29-6.34,53.5,53.5,0,0,0,17.69-17.56,85.14,85.14,0,0,0,10.7-26.41,155.22,155.22,0,0,0,0-66.15,86.82,86.82,0,0,0-10.7-26.67,54.44,54.44,0,0,0-17.69-17.82,45.59,45.59,0,0,0-24.29-6.47q-14,0-24.43,6.47a53.65,53.65,0,0,0-17.43,17.82,88.79,88.79,0,0,0-10.56,26.8,147.16,147.16,0,0,0-3.56,33.14,143.66,143.66,0,0,0,3.56,32.88,87.18,87.18,0,0,0,10.56,26.41,52.71,52.71,0,0,0,17.43,17.56Q9791.25,6462.65,9805.25,6462.65Z" transform="translate(-8823.12 -5767.76)"/><path class="cls-1" d="M10077,6471.36l-126.49-152.9v123.06a25.39,25.39,0,0,0,1.19,8.05,12.09,12.09,0,0,0,4.36,5.94,22.32,22.32,0,0,0,8.85,3.57,73.79,73.79,0,0,0,14.66,1.19l1.06,2.11-1.06,9H9911.2v-11.09q13.47,0,18.48-4.75t5-14V6315.3q0-8.18-5-12.94t-18.48-4.75v-11.09h59.42l104.31,128.87v-99a25.42,25.42,0,0,0-1.19-8.05,12.09,12.09,0,0,0-4.36-5.94,22.23,22.23,0,0,0-8.71-3.57,68.5,68.5,0,0,0-14-1.19v-11.09h68.39l1.06,9-1.06,2.11q-14.26,0-19.15,4.75t-4.89,14v155h-14Z" transform="translate(-8823.12 -5767.76)"/><path class="cls-1" d="M10146.43,6356.76v-1.06a62.69,62.69,0,0,0,17.82-23.11,54.44,54.44,0,0,0,4.62-27.6,21.63,21.63,0,0,1-9.24,1.85,21.22,21.22,0,0,1-15.18-6.21,21.52,21.52,0,0,1,0-30.76,21,21,0,0,1,15.18-6.34,19.25,19.25,0,0,1,11.88,3.57,27.1,27.1,0,0,1,7.66,9,40.44,40.44,0,0,1,4.09,11.88,68.08,68.08,0,0,1,1.19,12.28,76.17,76.17,0,0,1-8.32,34.2,79,79,0,0,1-24.43,28.65Z" transform="translate(-8823.12 -5767.76)"/><path class="cls-1" d="M10200.31,6421.19l2.64-2.38,12.68-.79a41.32,41.32,0,0,0,4.09,18.75,43.91,43.91,0,0,0,10.7,13.86,45.75,45.75,0,0,0,14.92,8.58,51.25,51.25,0,0,0,17,2.91,41.64,41.64,0,0,0,11.22-1.58,31.26,31.26,0,0,0,10.43-5.15,27.3,27.3,0,0,0,7.79-9.37,30.52,30.52,0,0,0,3-14.26q0-10.82-6.6-17.82a70.31,70.31,0,0,0-16.64-12.68q-10-5.68-21.65-11.09a125.91,125.91,0,0,1-21.65-12.81,63.89,63.89,0,0,1-16.64-18.09q-6.6-10.69-6.6-26.8a43.61,43.61,0,0,1,5.28-21.79,49.48,49.48,0,0,1,13.6-15.58,60.8,60.8,0,0,1,18.62-9.37,69.72,69.72,0,0,1,20.6-3.17q4.22,0,10.17.53t11.49,1.32q5.55,0.79,9.9,1.32a59,59,0,0,0,5.94.53q3.69,0,8.85-.4a15.71,15.71,0,0,0,8.58-3l3.43,2.38-9.24,42-1.85,1.32h-6.07a27.92,27.92,0,0,0-2.64-11.62,33.85,33.85,0,0,0-7.66-10.56,39.86,39.86,0,0,0-12.41-7.79,44.23,44.23,0,0,0-16.9-3,39.62,39.62,0,0,0-9.37,1.19,24.31,24.31,0,0,0-15.84,12.28q-2.77,5-2.77,12.68,0,11.62,6.87,19a68.58,68.58,0,0,0,17,13.07q10.16,5.68,22,11a125.84,125.84,0,0,1,22,12.54,66.62,66.62,0,0,1,17,17.69q6.86,10.43,6.87,26.27a44.87,44.87,0,0,1-5.55,22.31,56.53,56.53,0,0,1-14.66,17,68,68,0,0,1-20.6,11,72.76,72.76,0,0,1-23.11,3.83q-3.17,0-9.37-.26t-14.39-1.45a135.13,135.13,0,0,1-17.82-4,111.06,111.06,0,0,1-19.94-8.05Z" transform="translate(-8823.12 -5767.76)"/><path class="cls-1" d="M9431.39,6299q2-1.35,9.81-3.83,3.62-1.15,8.48-2.55l0.28-.71,0.35-5.27v-0.12h-53.59c0,0.61-.07,1.13-0.07,1.56q0,1.42.28,4.11a84.23,84.23,0,0,1,12,3.69,11.63,11.63,0,0,1,3.12,2.55v0.85a8.63,8.63,0,0,1-.43,2.41q-2.13,6.66-8.93,20.84l-9.92,20.55q-3.83-8.36-10.92-26.51-2.13-5.53-3.4-8.22-3-6.09-3-10.35a3.82,3.82,0,0,1,1.49-3q1.49-1.28,5.17-1.56a47.92,47.92,0,0,0,7.65-1.28,6.56,6.56,0,0,0,.57-2.27v-1.7l0-1.7h-73.85l-0.38,5.67q11.26,2.69,14.25,4.47a11.28,11.28,0,0,1,4.42,4.54q1.43,2.76,2.28,4.18,1,2.69,2.42,5.67,4.27,9.07,10.06,23.11l20.73,49.9q-15.31,31.9-22.54,45.36L9311,6343.78q-11.2-26.79-13.61-33.74c-0.63-1.83-1.18-3.3-1.64-4.41v0c-0.21-.48-3-7.39,2.4-10.44l1.24-.71,0.66-.34c1.49-.77,3-1.65,4.59-2.64l0.86-5h-71v11.09q13.47,0,18.48,4.75a15.38,15.38,0,0,1,1.67,1.88q2.41,4.65,5.63,11.9l45.78,107.17q14.88,32.32,20,47.91l14.46-.14q6.83-15.59,21.57-43.31t15-28.42q0.71,1.28,1.13,2,2.41,4.4,6.24,13.47l15.74,36.29q0.71,2.41,4.82,11.62a53,53,0,0,1,3.12,8.65l14.15-.14q25.93-67.19,39-98t25.44-63.93c0.65-1.79,1.25-3.33,1.8-4.64a14,14,0,0,1,1.84-2.22q4.88-4.75,19.14-4.75l1.06-2.11-1.06-9h-48.55a2.39,2.39,0,0,0,0,.31q0,1.14.43,5.81a18.62,18.62,0,0,0,5.32,2.2c0.79,0.2,1.68.45,2.65,0.73a8.56,8.56,0,0,1,2.58,1.4c0.13,0.13.26,0.27,0.39,0.43h0c1.23,1.48,2.5,4.14,1.13,8.23l-2.71,8.12-24.95,63.65L9428,6424.3q-1-2.55-3.4-7.94l-15.45-36.43-9.07-21-0.57-1.28q19.14-39.69,26.22-52.17A19.82,19.82,0,0,1,9431.39,6299Z" transform="translate(-8823.12 -5767.76)"/><polygon class="cls-1" points="308.69 921.16 356.13 921.16 356.13 907.72 322.88 907.72 322.88 868.13 350.04 868.13 350.04 854.69 322.88 854.69 322.88 815.29 356.13 815.29 356.13 801.84 308.69 801.84 308.69 921.16"/><polygon class="cls-1" points="521.8 888.08 507.29 801.84 492.22 801.84 477.7 888.08 465.01 801.84 450.55 801.84 470.41 921.16 484.37 921.16 499.75 831.38 515.13 921.16 529.09 921.16 548.95 801.84 534.5 801.84 521.8 888.08"/><polygon class="cls-1" points="643.37 921.16 690.81 921.16 690.81 907.72 657.55 907.72 657.55 868.13 684.71 868.13 684.71 854.69 657.55 854.69 657.55 815.29 690.81 815.29 690.81 801.84 643.37 801.84 643.37 921.16"/><polygon class="cls-1" points="825.91 801.84 811.72 801.84 811.72 921.16 857.13 921.16 857.13 907.72 825.91 907.72 825.91 801.84"/><polygon class="cls-1" points="978.04 921.16 1025.49 921.16 1025.49 907.72 992.23 907.72 992.23 868.13 1019.39 868.13 1019.39 854.69 992.23 854.69 992.23 815.29 1025.49 815.29 1025.49 801.84 978.04 801.84 978.04 921.16"/><path class="cls-1" d="M10016.26,6604.41c0-22.45-11.25-34.81-31.67-34.81h-20.77v119.32H9978v-46.75l9.74-1,18.06,47.72h14.82l-19.6-51.84C10010.6,6631.5,10016.26,6619.44,10016.26,6604.41ZM9978,6583h5.84c12.35,0,17.85,6.7,17.85,21.73,0,10.28-3,22.72-17.43,23.58l-6.27.42V6583Z" transform="translate(-8823.12 -5767.76)"/><path class="cls-1" d="M10164,6622.61c-10.34-7.29-16.74-14.08-16.74-25.41,0-9.95,5.77-16.37,14.71-16.37,5.76,0,11.39,3.15,15.86,8.87l2.26,2.89,4.55-14.71-0.73-.81a29.81,29.81,0,0,0-22.31-9.51c-13.65,0-28.16,10.52-28.16,30,0,14.25,7.29,26.07,22.26,36.13,9.93,6.92,16.55,13.95,16.55,25.77,0,11-6,18-15.27,18-6.29,0-12.22-3.27-17.16-9.44l-2.26-2.83-4.53,14.67,0.73,0.81A31.37,31.37,0,0,0,10157,6691c17.12,0,29.08-13,29.08-31.67C10186.09,6644.94,10178.65,6632.6,10164,6622.61Z" transform="translate(-8823.12 -5767.76)"/><path class="cls-1" d="M9001.62,6569.6h-13.43V6583h8.33v77.53c0,15.46-5.12,16.74-10.83,16.74-4.21,0-10.56-3.45-14.45-7.85l-2.59-2.93-3,15.61,0.79,0.72c4.08,3.73,11.8,8.08,20.14,8.08,16,0,24.09-10.34,24.09-30.74V6569.6h-9.08Z" transform="translate(-8823.12 -5767.76)"/><polygon class="cls-1" points="960.47 82.33 933.15 47.34 896.2 0 848.9 0 836.14 0 668.24 0 668.01 0 608.18 0 571.22 47.34 537.99 89.93 598.05 89.93 631.28 47.34 873.09 47.34 929.16 119.18 792.23 280.38 792.23 353.51 958.91 157.29 990.21 120.45 960.47 82.33"/><path class="cls-1" d="M9576.1,5886.23h-50.57v15.16a95.55,95.55,0,0,1,19.33,1.62q7.66,1.62,12,4.87a16.53,16.53,0,0,1,6,8.12,32.46,32.46,0,0,1,1.55,8.37l0,0.36c0,0.75.07,1.51,0.07,2.29v135.37L9425.24,5892l-4.75-5.8h-81.67l-0.39.5v14.66q18.6,0,25.53,6.5a22,22,0,0,1,6.76,14.41,32.7,32.7,0,0,1,.17,3.28v4.34h0v168.22a34.38,34.38,0,0,1-1.64,11,16.16,16.16,0,0,1-1.64,3.46,19.57,19.57,0,0,1-3.65,4.66q-6.93,6.5-25.53,6.5v15.16h94.46l1.46-12.27-1.46-2.89a102.94,102.94,0,0,1-20.24-1.62q-7.85-1.63-12.22-4.87a17.22,17.22,0,0,1-4.38-4.66,16.15,16.15,0,0,1-1.64-3.46,34.38,34.38,0,0,1-1.64-11V5929.91h0L9553,6121.57l14.5,17.35h19.33v-0.44h0v-56.74h0v-16.23h0V5927c0-.78,0-1.54.06-2.29v-0.36a32.45,32.45,0,0,1,1.55-8.37,16.53,16.53,0,0,1,6-8.12q4.38-3.25,12-4.87a95.55,95.55,0,0,1,19.33-1.62v-15.16h-49.7Z" transform="translate(-8823.12 -5767.76)"/></svg>