<svg id="Layer_1" data-name="Layer 1" xmlns="http://www.w3.org/2000/svg" viewBox="0 0 61.67 61.67"><defs><style>.cls-1{fill:#fff;}</style></defs><title>CK-logo</title><path class="cls-1" d="M-223.16,305.73l-2.76-3.86-2.3-3.22-3.75.79-4.25.89-0.08,0-4.35,4.62-0.89.95v-5.58h-4.05v3.79a5.79,5.79,0,0,0-.4-0.88,6,6,0,0,0-1.53-1.79,6.72,6.72,0,0,0-2.08-1.1,7.93,7.93,0,0,0-2.45-.37,7.94,7.94,0,0,0-3.23.64,7,7,0,0,0-2.44,1.77,7.86,7.86,0,0,0-1.51,2.62,9.74,9.74,0,0,0-.52,3.23,9.42,9.42,0,0,0,.52,3.17,7.67,7.67,0,0,0,1.52,2.58,7,7,0,0,0,2.44,1.73,8.06,8.06,0,0,0,3.23.63,7.76,7.76,0,0,0,2.66-.44,6.26,6.26,0,0,0,2.13-1.29,6.46,6.46,0,0,0,1.47-2q0.11-.23.2-0.48V316h4.05v-5l1.43-1.44,4.33,6.47h5.07l-6.63-9.36,3-3,4.7-1,3.29,4.77-4.47,2.41L-232,309l-0.86.65,3.24,4.65h6.36l1-2.55v-1.51a2.46,2.46,0,0,0,1.13-2.07A2.47,2.47,0,0,0-223.16,305.73Zm-22.44,3.76H-249l0,0.34A3.88,3.88,0,0,1-250,312a2.64,2.64,0,0,1-2.06.79,3.46,3.46,0,0,1-1.69-.38,3.21,3.21,0,0,1-1.12-1,4.56,4.56,0,0,1-.64-1.47,7.22,7.22,0,0,1-.21-1.73,7.8,7.8,0,0,1,.21-1.81,4.66,4.66,0,0,1,.64-1.51,3.17,3.17,0,0,1,1.12-1,3.46,3.46,0,0,1,1.69-.38,3,3,0,0,1,1,.18,3,3,0,0,1,.88.49,2.93,2.93,0,0,1,.64.73,2.3,2.3,0,0,1,.32.88l0,0.33h3.54v3.37Zm22-.15a1.19,1.19,0,0,1-1.19-1.19,1.19,1.19,0,0,1,1.19-1.19,1.19,1.19,0,0,1,1.19,1.19A1.19,1.19,0,0,1-223.56,309.34Z" transform="translate(271.27 -276.89)"/><path class="cls-1" d="M-209.6,338.56h-61.67V276.89h61.67v61.67Zm-57.6-4.08h53.52V281H-267.2v53.52Z" transform="translate(271.27 -276.89)"/></svg>