<svg id="Layer_1" data-name="Layer 1" xmlns="http://www.w3.org/2000/svg" viewBox="0 0 373.68 172.78"><defs><style>.cls-1{fill:#fff;}</style></defs><title>Renuva-logo</title><path class="cls-1" d="M-574.15,319.35a2.06,2.06,0,0,1-.2.93,1.55,1.55,0,0,1-.86.66,7.46,7.46,0,0,1-1.85.4,30.58,30.58,0,0,1-3.18.13,24.48,24.48,0,0,1-2.81-.13,6.05,6.05,0,0,1-1.76-.43,2.44,2.44,0,0,1-1-.83,5.09,5.09,0,0,1-.63-1.33l-7.89-20.2q-1.39-3.45-2.89-6.33a20.29,20.29,0,0,0-3.54-5,14.57,14.57,0,0,0-4.83-3.25,17.43,17.43,0,0,0-6.7-1.16h-7.62v36.5a1.49,1.49,0,0,1-.3.93,2,2,0,0,1-.93.63,9,9,0,0,1-1.72.4,18.8,18.8,0,0,1-2.75.17,18.85,18.85,0,0,1-2.75-.17,9.78,9.78,0,0,1-1.75-.4,1.8,1.8,0,0,1-.93-0.63,1.62,1.62,0,0,1-.26-0.93V240a4.28,4.28,0,0,1,1.36-3.62,4.71,4.71,0,0,1,2.88-1h18.22c2.17,0,4,.06,5.4.17s2.73,0.23,3.88.37a32.71,32.71,0,0,1,8.78,2.71,20.81,20.81,0,0,1,6.39,4.71,19,19,0,0,1,3.87,6.52,24.37,24.37,0,0,1,1.29,8.12,24,24,0,0,1-1.16,7.72,18.66,18.66,0,0,1-3.35,6,22,22,0,0,1-5.23,4.54,33.31,33.31,0,0,1-6.83,3.24,16,16,0,0,1,3.84,2.36,19.85,19.85,0,0,1,3.21,3.41,31.71,31.71,0,0,1,2.82,4.57q1.32,2.58,2.65,5.83l7.69,18.88q0.93,2.38,1.19,3.35A6.08,6.08,0,0,1-574.15,319.35Zm-17.16-60.22a15.37,15.37,0,0,0-2.25-8.52q-2.25-3.47-7.55-5a22.2,22.2,0,0,0-3.75-.66q-2.09-.2-5.47-0.2h-9.6v28.89h11.13a24.79,24.79,0,0,0,7.79-1.09,15.44,15.44,0,0,0,5.46-3,11.86,11.86,0,0,0,3.21-4.6A15.84,15.84,0,0,0-591.31,259.13Z" transform="translate(631.46 -186.23)"/><path class="cls-1" d="M-510.42,287a4.56,4.56,0,0,1-1.29,3.67,4.48,4.48,0,0,1-3,1.1h-39.27a36.73,36.73,0,0,0,1,8.94,17.19,17.19,0,0,0,3.33,6.82,15,15,0,0,0,6.06,4.37,24.07,24.07,0,0,0,9.12,1.52,36.91,36.91,0,0,0,7.59-.7,44.49,44.49,0,0,0,5.76-1.56q2.43-.86,4-1.55a6.49,6.49,0,0,1,2.36-.7,1.53,1.53,0,0,1,.83.23,1.5,1.5,0,0,1,.57.7,4.76,4.76,0,0,1,.3,1.29,17.28,17.28,0,0,1,.1,2,14.82,14.82,0,0,1-.07,1.49c0,0.42-.1.79-0.17,1.13a2.89,2.89,0,0,1-.33.89,3.62,3.62,0,0,1-.6.76,9.56,9.56,0,0,1-2.15,1.19,31.34,31.34,0,0,1-4.64,1.62,65,65,0,0,1-6.59,1.43,48.29,48.29,0,0,1-8,.63,37,37,0,0,1-12.89-2.05,24,24,0,0,1-9.31-6.09,26.11,26.11,0,0,1-5.7-10.14,47.34,47.34,0,0,1-1.92-14.18,44.65,44.65,0,0,1,2-13.81,29.18,29.18,0,0,1,5.73-10.4,25,25,0,0,1,9-6.56,29.67,29.67,0,0,1,11.86-2.28,28.75,28.75,0,0,1,12,2.25,22.65,22.65,0,0,1,8.12,6.06,24.44,24.44,0,0,1,4.67,8.95,39.31,39.31,0,0,1,1.49,11v2Zm-11-3.24q0.2-8.61-3.83-13.52t-12-4.9a15.82,15.82,0,0,0-7.13,1.52,15.35,15.35,0,0,0-5.13,4,18.41,18.41,0,0,0-3.2,5.87,24.42,24.42,0,0,0-1.27,7h32.53Z" transform="translate(631.46 -186.23)"/><path class="cls-1" d="M-442.44,319.42a1.5,1.5,0,0,1-.27.89,2,2,0,0,1-.86.63,6.17,6.17,0,0,1-1.66.4,22.25,22.25,0,0,1-2.65.13,22.83,22.83,0,0,1-2.71-.13,6.16,6.16,0,0,1-1.66-.4,2,2,0,0,1-.86-0.63,1.48,1.48,0,0,1-.26-0.89V284.51a34.33,34.33,0,0,0-.8-8.22,16.94,16.94,0,0,0-2.32-5.36,10.07,10.07,0,0,0-3.94-3.45,12.52,12.52,0,0,0-5.6-1.19,14.12,14.12,0,0,0-8.22,2.92,44.36,44.36,0,0,0-8.62,8.55v41.67a1.51,1.51,0,0,1-.26.89,2,2,0,0,1-.86.63,6.17,6.17,0,0,1-1.65.4,23,23,0,0,1-2.72.13,22.2,22.2,0,0,1-2.65-.13,6.63,6.63,0,0,1-1.69-.4,1.79,1.79,0,0,1-.86-0.63,1.65,1.65,0,0,1-.23-0.89V259.8a1.85,1.85,0,0,1,.2-0.9,1.78,1.78,0,0,1,.79-0.66,4.54,4.54,0,0,1,1.53-.4c0.62-.06,1.44-0.1,2.45-0.1s1.78,0,2.42.1a3.93,3.93,0,0,1,1.49.4,2.13,2.13,0,0,1,.77.66,1.64,1.64,0,0,1,.23.9v7.88a36.62,36.62,0,0,1,10-8.25,21.59,21.59,0,0,1,10.1-2.62,22.5,22.5,0,0,1,10,2,18,18,0,0,1,6.59,5.4,21.49,21.49,0,0,1,3.61,7.92,46.91,46.91,0,0,1,1.1,10.89v36.38Z" transform="translate(631.46 -186.23)"/><path class="cls-1" d="M-371.42,319.42a1.64,1.64,0,0,1-.23.89,1.78,1.78,0,0,1-.83.63,6.07,6.07,0,0,1-1.56.4,17.84,17.84,0,0,1-2.35.13,19.16,19.16,0,0,1-2.49-.13,5.43,5.43,0,0,1-1.52-.4,1.56,1.56,0,0,1-.76-0.63,1.83,1.83,0,0,1-.2-0.89v-7.88a37.2,37.2,0,0,1-10.07,8.21,21.6,21.6,0,0,1-10.07,2.58,22.81,22.81,0,0,1-10-2,17.55,17.55,0,0,1-6.59-5.4,21.75,21.75,0,0,1-3.61-8,47.6,47.6,0,0,1-1.09-11V259.8a1.64,1.64,0,0,1,.23-0.9,2,2,0,0,1,.89-0.66,5.57,5.57,0,0,1,1.72-.4c0.71-.06,1.59-0.1,2.65-0.1s1.95,0,2.65.1a5.16,5.16,0,0,1,1.69.4,2.32,2.32,0,0,1,.89.66,1.45,1.45,0,0,1,.27.9v34.71a37.11,37.11,0,0,0,.76,8.38,15.67,15.67,0,0,0,2.32,5.36,10.75,10.75,0,0,0,3.94,3.45,12.06,12.06,0,0,0,5.57,1.22,14,14,0,0,0,8.18-2.92,46.36,46.36,0,0,0,8.65-8.54V259.8a1.58,1.58,0,0,1,.23-0.9,2,2,0,0,1,.89-0.66,5.49,5.49,0,0,1,1.69-.4q1-.1,2.68-0.1t2.65,0.1a4.82,4.82,0,0,1,1.65.4,2.78,2.78,0,0,1,.9.66,1.37,1.37,0,0,1,.29.9v59.63Z" transform="translate(631.46 -186.23)"/><path class="cls-1" d="M-257.79,319.49a1.42,1.42,0,0,1-.53,1.19,3.79,3.79,0,0,1-1.46.59,13.74,13.74,0,0,1-2.72.2,14.89,14.89,0,0,1-2.74-.2,3.3,3.3,0,0,1-1.5-.59,1.5,1.5,0,0,1-.46-1.19v-6a29.44,29.44,0,0,1-8.71,6.49,23.09,23.09,0,0,1-10.17,2.32,27.92,27.92,0,0,1-8.51-1.22,18.39,18.39,0,0,1-6.49-3.55,15.77,15.77,0,0,1-4.17-5.7,18.82,18.82,0,0,1-1.5-7.69,17.75,17.75,0,0,1,2.06-8.74,17,17,0,0,1,5.9-6.17,29.07,29.07,0,0,1,9.41-3.68,58.46,58.46,0,0,1,12.52-1.23h8.21v-4.64a23,23,0,0,0-.73-6.1,10.51,10.51,0,0,0-2.35-4.41,10.12,10.12,0,0,0-4.21-2.65,19.58,19.58,0,0,0-6.36-.9,25.27,25.27,0,0,0-7.25,1,37.93,37.93,0,0,0-5.63,2.12c-1.62.77-3,1.48-4,2.12a5.59,5.59,0,0,1-2.42,1,1.62,1.62,0,0,1-.93-0.27,2.23,2.23,0,0,1-.69-0.8,4.15,4.15,0,0,1-.44-1.36,11.78,11.78,0,0,1-.13-1.82,11.46,11.46,0,0,1,.23-2.62,3.75,3.75,0,0,1,1.13-1.82,14.53,14.53,0,0,1,3.08-2,34.41,34.41,0,0,1,5-2.12,45.92,45.92,0,0,1,6.23-1.59,37.39,37.39,0,0,1,6.82-.63,35.91,35.91,0,0,1,10.94,1.46,17.74,17.74,0,0,1,7.28,4.28,16.51,16.51,0,0,1,4,7,33.73,33.73,0,0,1,1.26,9.74v40.22Zm-10.87-27.23H-278a35.08,35.08,0,0,0-7.82.76,16.18,16.18,0,0,0-5.5,2.25,9.31,9.31,0,0,0-3.21,3.58,10.7,10.7,0,0,0-1,4.8,9.63,9.63,0,0,0,2.95,7.39q3,2.75,8.25,2.75a15.33,15.33,0,0,0,8-2.19,34.36,34.36,0,0,0,7.72-6.69V292.26Z" transform="translate(631.46 -186.23)"/><path class="cls-1" d="M-631.46,358.34V339.1h5.71a4.77,4.77,0,0,1,4.64,4.85,5.58,5.58,0,0,1-1.73,3.82c2,1.46,2.85,3,2.85,5,0,3.33-2.58,5.58-5.95,5.58h-5.53Zm1.82-17.54V347l3.88,0a3,3,0,0,0,3-3.1,3.08,3.08,0,0,0-3-3.15h-3.88Zm0,8v7.83l3.7,0c2.18,0,4.31-1.25,4.31-3.85s-2.06-3.95-4.31-3.95h-3.7Z" transform="translate(631.46 -186.23)"/><path class="cls-1" d="M-601.33,351.88h-7.53l-2.7,6.46h-2l8.44-20.24,8.44,20.24h-2ZM-608.1,350h6l-3-7.23Z" transform="translate(631.46 -186.23)"/><path class="cls-1" d="M-591.51,348.66a9.84,9.84,0,0,1,9.62-10,9.45,9.45,0,0,1,6.13,2.27l-1.3,1.33a7.78,7.78,0,0,0-4.83-1.73,8,8,0,0,0-7.8,8.13,8,8,0,0,0,7.8,8.13,7.78,7.78,0,0,0,4.83-1.72l1.3,1.33a9.44,9.44,0,0,1-6.13,2.28A9.85,9.85,0,0,1-591.51,348.66Z" transform="translate(631.46 -186.23)"/><path class="cls-1" d="M-565.57,349.6l-0.7.7v8h-1.82V339.1h1.82v8.65L-557,339l1.15,1.43-8.37,8,9.16,8.62-1.18,1.4Z" transform="translate(631.46 -186.23)"/><path class="cls-1" d="M-522.51,355.51c-1.91,1.55-4.16,3.22-6.74,3.22a4.71,4.71,0,0,1-4.64-4.46c0-2.88,2.4-5.4,4.49-7.11-1.25-1.33-2.43-2.76-2.43-4.67,0-2.37,1.7-3.67,4-3.67a3.71,3.71,0,0,1,3.89,3.73c0,2-1.7,3.52-3.09,4.7l4.61,6.07a22.66,22.66,0,0,0,2.25-3.64l1.33,0.67a21.21,21.21,0,0,1-2.52,4l2.58,2.73-1.15,1.09Zm-9.41-1.54a3.2,3.2,0,0,0,3.12,3.12c1.92,0,3.64-1.45,4.92-2.73l-4.34-5.77C-529.76,350-531.92,351.66-531.92,354Zm1.67-11.41c0,1.27,1.15,2.73,2,3.61,1.25-1.09,2.67-2,2.67-3.89a2,2,0,0,0-2.25-2A2.25,2.25,0,0,0-530.25,342.56Z" transform="translate(631.46 -186.23)"/><path class="cls-1" d="M-495.41,351.45v6.89h-1.82V339.1h5.52a6.1,6.1,0,0,1,6,6.22,6,6,0,0,1-6,6.16Zm0-10.65v9l3.7,0a4.39,4.39,0,0,0,4.31-4.43,4.45,4.45,0,0,0-4.31-4.49Z" transform="translate(631.46 -186.23)"/><path class="cls-1" d="M-470,351.88h-7.53l-2.7,6.46h-2l8.44-20.24,8.44,20.24h-2Zm-6.77-1.85h6l-3-7.23Z" transform="translate(631.46 -186.23)"/><path class="cls-1" d="M-457.28,339.1h1.82v19.24h-1.82V339.1Z" transform="translate(631.46 -186.23)"/><path class="cls-1" d="M-442.32,358.31h-1.82V338.82l13.2,14.6V339.13h1.82v19l-13.2-14.59v14.75Z" transform="translate(631.46 -186.23)"/><path class="cls-1" d="M-408.15,348.66a9.84,9.84,0,0,1,9.62-10,9.45,9.45,0,0,1,6.13,2.27l-1.3,1.33a7.78,7.78,0,0,0-4.83-1.73,8,8,0,0,0-7.8,8.13,8,8,0,0,0,7.8,8.13,7.78,7.78,0,0,0,4.83-1.72l1.3,1.33a9.43,9.43,0,0,1-6.13,2.28A9.84,9.84,0,0,1-408.15,348.66Z" transform="translate(631.46 -186.23)"/><path class="cls-1" d="M-382.13,339.1h11.32V341h-9.5v8.25h7.74v1.91h-7.74v5.31h9.5v1.88h-11.32V339.1Z" transform="translate(631.46 -186.23)"/><path class="cls-1" d="M-358.61,358.31h-1.82V338.82l13.2,14.6V339.13h1.82v19l-13.2-14.59v14.75Z" transform="translate(631.46 -186.23)"/><path class="cls-1" d="M-327.68,358.34h-1.82V341h-5.71V339.1H-322V341h-5.71v17.36Z" transform="translate(631.46 -186.23)"/><path class="cls-1" d="M-311.63,339.1h11.32V341h-9.5v8.25h7.74v1.91h-7.74v5.31h9.5v1.88h-11.32V339.1Z" transform="translate(631.46 -186.23)"/><path class="cls-1" d="M-285.83,350.69c0.82-.42,2.58-1.27,2.95-1.46a4.46,4.46,0,0,0,2.33-3.95,4.42,4.42,0,0,0-4.31-4.46l-3.7,0v17.51h-1.83V339.1h5.53a6.09,6.09,0,0,1,5.95,6.19c0,2.43-1.36,4.55-4.13,5.95l5.12,6.43-1.27,1.34Z" transform="translate(631.46 -186.23)"/><path class="cls-1" d="M-289,198c-2.22,5.37-6,9.27-11.36,12.51-9.4,5.66-16.2,10.56-18.73,21.58-2.81,12.26,2.53,17.19,1.3,19.44-1.34,2.44-5.07,11.34-8.58,22.53-5.36,17.09-13.72,50.87-13.72,50.87l7.86,0c7.58-40.45,16.59-70.48,21.45-79.84,5.44-10.46,9-11.24,14.23-20.49-2.94,9.39-8,17.12-14.73,25.72,5.09-1.08,14.56-7.41,19.65-19C-284.32,214.69-289,198-289,198Z" transform="translate(631.46 -186.23)"/><path class="cls-1" d="M-388.31,186.23c2.42,5.87,6.55,10.13,12.41,13.66,10.27,6.18,17.7,11.55,20.46,23.58,3.07,13.39-2.76,18.79-1.42,21.24,1.47,2.67,5.54,12.39,9.37,24.61,5.86,18.67,15,55.57,15,55.57l-8.59,0c-8.28-44.2-18.13-77-23.45-87.23-5.94-11.43-9.88-12.28-15.55-22.38,3.21,10.26,8.78,18.71,16.1,28.11-5.56-1.18-15.91-8.09-21.46-20.73C-393.45,204.49-388.31,186.23-388.31,186.23Z" transform="translate(631.46 -186.23)"/><path class="cls-1" d="M-264,358.71c-2.29,0-4.14-.62-5.7-3.66l-0.52-1,1.77-.91,0.43,0.9c1.06,2.07,2.25,2.84,4.21,2.69a4.11,4.11,0,0,0,3.95-3.6c0.17-1.66-.71-2.48-2.28-3.34l-4.34-2.25a4.2,4.2,0,0,1-2.43-3.6,5,5,0,0,1,1.29-3.84,4.91,4.91,0,0,1,3.58-1.6h0.24a5.3,5.3,0,0,1,4.51,2.12l0.71,0.91-1.44,1.26-0.84-1.06a3.58,3.58,0,0,0-3.3-1.36,3.11,3.11,0,0,0-2.8,3.32,3,3,0,0,0,1.66,2.3l4.4,2.26c2,1,3,2.44,3.09,4.3a5.82,5.82,0,0,1-1.66,4.19,6.31,6.31,0,0,1-4.42,1.93H-264Z" transform="translate(631.46 -186.23)"/></svg>