<svg id="Layer_1" data-name="Layer 1" xmlns="http://www.w3.org/2000/svg" viewBox="0 0 670.38 249.21"><defs><style>.cls-1{fill:#fff;}</style></defs><title>IBM-logo</title><path class="cls-1" d="M-728.15,1231v17.69h-89.47l6.23-17.69h83.24Zm34.14-66.54h-93.7l-6.48,17.69H-694v-17.69Zm-273.88,17.69H-869l-6.23-17.69h-92.71v17.69Zm-207.6-17.69v17.69h172.71q-16.7-15.45-40.87-17.69h-131.84Zm-15.7,0h-120.12v17.69h120.12v-17.69ZM-694,1197.87H-799.67q-0.5,1.25-6,17.7H-694v-17.7Zm-169.46,0H-967.89v17.7h110.65Zm-312,0v17.45h191.15q0-4.74-5-17.45h-186.16Zm-15.7,0h-120.12v17.45h120.12v-17.45ZM-934.25,1231v17.69h89l-6.48-17.69h-82.49Zm-103.42,0v17.69h52.33A51.36,51.36,0,0,0-982.6,1231h-55.07Zm-188.41,0h-51.83v17.69h51.83V1231Zm136.82,0h-51.59v17.69h51.59V1231Zm260.43,50.34h45.6l4.74-13.46v13.46h50.34v-17.7h-94.7Zm-49.84,0h44.86l-6.23-17.7h-94.2v17.7h50.84v-13.46Zm-262.18,0h133.33a62.93,62.93,0,0,0,14.71-17.7h-148v17.7Zm-85.23-17.7h-51.83v17.7h51.83v-17.7Zm497.93,33.4h-50.34v17.44h50.34v-17.44Zm-155.26,4.48v13h-50.84v-17.69h50.84v4.73Zm10.22-4.73,6.23,17.69h72q3.24-8.72,6.23-17.69h-84.48Zm-267.66,17.69h149a86,86,0,0,0-15.95-17.69h-133.08v17.69Zm-136.82,0v-17.69h51.59v17.69h-51.59Zm549.52,15.7h-50.34v17.7h50.34v-17.7Zm-155.26,0h-50.84v17.7h50.84v-17.7Zm28.16,17.7q-6.48-17.69-6.23-17.7h61.06q-0.5,1.25-6.23,17.7h-48.6Zm-233.26,0v-17.7h-52.34v17.7h52.34Zm51.83-17.7v17.7h55.33q-1-13.21-3.24-17.7h-52.09Zm-189.4,0h-51.59v17.7h51.59v-17.7ZM-694,1362.85h-84.48v17.45H-694v-17.45Zm-189.4,0h-84.48v17.45h84.48v-17.45Zm71.28,0H-850l6,17.45h25.92Zm-379.06,0v17.45h-120.12v-17.45h120.12Zm15.7,0v17.45h185.42a22.55,22.55,0,0,0,4.48-8.23q0.5-2.24,2-9.22h-191.9ZM-823.6,1396h-14.7l6.23,17.69h2.24Zm129.59,0h-84.48v17.69H-694V1396Zm-481.48,17.69h129.09q26.16,0,44.61-17.69h-173.7v17.69ZM-883.41,1396h-84.48v17.69h84.48V1396Zm-427.9,0v17.69h120.12V1396h-120.12Zm641.1,12.21a16.74,16.74,0,0,0,12.09,5,16.61,16.61,0,0,0,12.21-5,16.33,16.33,0,0,0,5-12,16.61,16.61,0,0,0-5-12.21,16.61,16.61,0,0,0-12.21-5,16.75,16.75,0,0,0-12.09,5,16.39,16.39,0,0,0-5.11,12.21A16.11,16.11,0,0,0-670.21,1408.21Zm22.43-1.49a13.81,13.81,0,0,1-10.34,4.23,13.81,13.81,0,0,1-10.34-4.23,14.45,14.45,0,0,1-4.11-10.47,14.76,14.76,0,0,1,4.11-10.71,13.82,13.82,0,0,1,10.34-4.24,13.82,13.82,0,0,1,10.34,4.24,14.76,14.76,0,0,1,4.12,10.71A14.45,14.45,0,0,1-647.78,1406.72Zm-7.6-9.72q6-.24,6-5.23,0-5.23-6.73-5.24h-8.22v19.19h2.24V1397h4.24l5.48,8.72h2.74Zm-6.73-2v-6.73h5.48q4.73,0,4.73,3.25,0,3.49-6.73,3.49h-3.49Z" transform="translate(1311.31 -1164.48)"/></svg>