<svg id="Layer_1" data-name="Layer 1" xmlns="http://www.w3.org/2000/svg" viewBox="0 0 89.66 25.59"><defs><style>.cls-1{font-size:6.94px;font-family:Museo Sans;letter-spacing:3px;}.cls-1,.cls-2{fill:#fff;}</style></defs><title>PILR-logo</title><text class="cls-1" transform="translate(30.42 14.38)">PILR<tspan x="28.21" y="0">T</tspan><tspan x="35.49" y="0">E</tspan><tspan x="42.6" y="0">CH</tspan></text><path class="cls-2" d="M-61.75-307.11a12.8,12.8,0,0,0-12.8,12.8,12.8,12.8,0,0,0,12.8,12.8A12.8,12.8,0,0,0-49-294.31,12.8,12.8,0,0,0-61.75-307.11Zm-1.35,18.74-2.46-1.6,2.46-1.15v2.75Zm5.16-5.84-0.82.38-0.59.28-0.32.15-0.63.3-1,.46-0.86.4-0.05,0-0.9.42-0.77.36-0.91.43-0.77.36v-6.51h7.62v2.95Zm0.32-3.51h-8.26v-1.58h8.26v1.58Z" transform="translate(74.55 307.11)"/></svg>