<svg id="Layer_1" data-name="Layer 1" xmlns="http://www.w3.org/2000/svg" viewBox="0 0 578 237.89"><defs><style>.cls-1,.cls-3{fill:#fff;}.cls-2{fill:none;}.cls-2,.cls-3{stroke:#fff;stroke-miterlimit:10;}</style></defs><title>fab-rehab-logo</title><path class="cls-1" d="M-150.44-40.21c-2.78,3.61-4.92,6.81-8,9.22-6.14,4.88-11.64,4.36-16.25-1.89-1.37-1.86-1.85-2-3.55-.35-7.89,7.53-13.38,6.8-19.47-2.68-2.33,2.09-4.18,4.66-6.87,6.25-7.22,4.29-14,1.06-14.73-7.31-0.36-4.13,0-8.32,0-12.48,0-1.28.46-2.92-1-3.6-1.71-.78-2.78.74-3.71,1.81C-228-46.54-230.8-41-233.7-35.59l-1.4,2.65c-1.33,2.55-2.73,5.49-6.12,4.9-3.67-.64-3.32-4-3.43-6.85,0-.5-0.1-1-0.31-2.93-4.53,6.12-9.33,10.75-16.44,10.84-7.51.1-12.48-3.89-15.42-11.07L-280-34a24,24,0,0,1-9.26,7.42c-9.37,4.09-16.49.12-18.32-9.92-1-5.26-.17-10.69-1.71-15.86A56.14,56.14,0,0,0-311.69-60c-3.32-7.19-5.52-8.13-13.06-6.36-2.59.61-5.31,1.68-7.82,1.36-6.38-.82-6.91,2.72-6.87,7.58A40.35,40.35,0,0,1-340.63-48c-6.43,27.7-35.24,26.54-48.07,14.39a25,25,0,0,1-3.24-3.78c-1-1.47-2.46-3.3-.4-4.8s3.25,0.2,4.43,1.77c6.38,8.47,15.13,11.22,25.2,9.44,10.89-1.92,17.31-10.56,18.26-24.27,0.3-4.32,2-9.1-3.14-12.55-2-1.32-1.39-4.68.77-6.12,2.51-1.67,2.73-3.86,3-6.38a43.69,43.69,0,0,1,2.64-12.65,28.77,28.77,0,0,1,8.68-12c1.45-1.16,3.18-2.47,4.72-.38,1.25,1.7.1,3-1.36,4.17-6.61,5.26-8.94,12.5-9.59,20.6-0.2,2.54.55,3.25,2.94,3.1a36.33,36.33,0,0,1,16.53,3.07,3.17,3.17,0,0,0,2.81.33c8.26-3.67,15-8.85,17.07-18.18,1.92-8.78-1.46-16-9.17-20.93a43.06,43.06,0,0,0-20.31-6.27c-17.75-1.32-34.86,1.37-50.75,9.82-7.48,4-14,9.17-17.62,17.09-3.47,7.69-4.14,15.62,1.5,22.64,5.45,6.77,13.14,7.26,21,5.91A24.55,24.55,0,0,0-363-69.11c1.17-1,2.62-1.9,4-.37,1.47,1.69.36,3-1,4.22-8.94,8.55-28.25,9-37.51.79-7.2-6.36-9.34-17.5-5.29-27.62a33.25,33.25,0,0,1,10.5-14.37c24.25-18.52,51.3-22.9,80.13-13.9,14.33,4.47,20.41,15.64,17.68,28.9-1.75,8.51-7.09,14.58-14.42,18.86-2.76,1.61-3.84,2.52-1.25,5.56,4.7,5.5,6.1,12.43,6.74,19.48,0.29,3.15.46,6.31,0.84,9.45,0.92,7.63,6.58,10.38,13.21,6.22s9.66-10.82,12-17.85c0.85-2.56,1.65-5.09,3.54-7.05,3.05-3.17,6.72-4.52,10.82-2.36s5.22,5.94,4.31,10.24a17,17,0,0,1-8.44,11.28c-3,1.81-2.44,3.06.22,4.3,4.09,1.91,8.26,1.89,11.77-1,6.29-5.09,10.49-11.38,10.57-20,0.15-17.14-.41-34.33,2.28-51.36,0.65-4.12,1.58-8.19,3.82-11.78,3-4.82,8.61-5.05,11.93-.43,2.19,3,2.93,6.62,3.18,10.35,1.27,18.93-4.35,36.21-13.11,52.54-3,5.68-3.46,11.25-3,17.51,2-.61,2.27-2.44,3-3.71,2.7-4.79,5.42-9.58,9.07-13.72,2.28-2.58,5.1-4.56,8.79-3.21s4.42,4.67,4.39,8.18-0.21,7-.23,10.49c0,2.34,0,4.88,2.49,6.08,2.75,1.32,4.82-.56,6.66-2.18,3.67-3.25,5.95-7.51,8.33-11.74,4-7.08,9-12.89,18.25-12.43a12.87,12.87,0,0,1,7.32,2.81,2.62,2.62,0,0,1,.83,3.55c-0.81,1.45-2.09,1.18-3.47.64C-184.83-56.85-193.59-50.3-192.4-39c0.24,2.27.95,4.36,3.21,5.23a5.81,5.81,0,0,0,6.42-1.55,16.5,16.5,0,0,0,4.72-9.15c0.3-1.61.73-3.51,3-3.29s2.31,2.06,2.51,3.74c0,0.17,0,.33,0,0.5,0.37,4.17.37,9.09,5.18,10.38,5,1.34,7.47-3.26,10.28-6.47,4.9-5.6,5.19-12.11,4.59-19.17-1.41-16.47-1.12-32.94,2.18-49.23a23.51,23.51,0,0,1,4-9.59c3.71-4.95,9.41-4.79,12.8.4,2.15,3.28,2.84,7,3.11,10.9,1.14,16.79-4.42,32.1-10.35,47.34a67.56,67.56,0,0,1-3.37,7.77c-3.35,6.17-1.14,11.66,2.09,16.84,2.51,4,7.1,4.28,10.77,1.11,4.68-4,6.39-13,3.49-18.41-1.21-2.27-3.09-4.08-5.59-2.66s-2,3.91-.13,5.91c1.32,1.44,1.81,3,0,4.25s-3.15.08-4.36-1.19a9.15,9.15,0,0,1,.21-12.25c3-2.94,8.53-2.88,11.78.27a14.73,14.73,0,0,1,4.29,11.84c-0.2,3.64,1,6.21,4.34,7.55s6.23,0.2,8.41-2.53c1.76-2.2,3.4-4.51,5-6.86,1.06-1.6,2.05-3.44,4.24-2.11s0.92,3.22,0,4.79a34.22,34.22,0,0,1-7.8,9.67c-3.1,2.59-7.05,3.76-10.24,2-4.6-2.51-6.59-1.2-9.75,2.41-6.45,7.36-15.39,5.84-20.05-2.78C-148.4-35.32-149.21-37.47-150.44-40.21Zm3.53-17.5a131.27,131.27,0,0,0,8.74-23.88c2.28-8.59,3.63-17.28,2.67-26.13-0.32-3-.28-7.39-4-7.8-3.94-.44-3.93,4.1-5.1,6.84a12.09,12.09,0,0,0-.73,2.38C-148.47-90.21-148.24-74-146.91-57.71ZM-239-61.33a91,91,0,0,0,10.57-34.11c0.53-5.58,1-11.31-.83-16.85-0.53-1.61-1.06-3.3-3.06-3.5-2.44-.25-2.9,1.84-3.58,3.47a17.36,17.36,0,0,0-1,3.35C-240-93.22-239.45-77.29-239-61.33Zm-33.53,16.47c0.15,1-.56,3.06.71,3.75,1.68,0.92,2.91-1,4.11-2a12,12,0,0,0,4-6.67c0.49-2.07.43-4.09-1.85-5s-3.83.21-5.08,2C-272.29-50.51-272.55-47.91-272.55-44.86ZM-325.6-71c-4.09-2.12-7.74-1.62-11.34-1.58-1.05,0-2,.35-2.08,1.6,0,1.41,1.13,1.37,2.09,1.42A40.8,40.8,0,0,0-325.6-71Z" transform="translate(662.07 124.88)"/><path class="cls-1" d="M-521.12-76.21c3.5,0.16,7,.31,10.49.48,1.53,0.08,3.18.18,3.27,2.24,0.1,2.28-1.5,2.73-3.33,2.72-6.33,0-12.67,0-19-.2-3-.1-3.84.89-4,4-1.28,26.11-16,40.06-42.13,40.42-8.75.12-17.29-.54-25.42-4a36.74,36.74,0,0,1-20.32-20.25c-0.8-1.92-2.33-4.37.6-5.53,2.65-1.05,3.1,1.58,3.88,3.4,6,14,17.79,19.64,32,21.2a56.19,56.19,0,0,0,26.57-3c13.11-5,21.22-18.85,20-33.2-0.25-2.79-1.78-2.76-3.69-2.63q-10.71.74-21.42,1.53c-1.33.1-2.65,0.27-4,.36-1.92.13-4.09,0.06-4.25-2.32s2.1-2.58,4-2.71c8.47-.62,16.93-1.37,25.41-1.73,3-.13,4.13-1.1,4.1-4.07a62,62,0,0,1,2-16.81c0.58-2.15-.39-2.88-2.46-3.29-20.86-4.14-41.66-8.58-62.57-12.48-9.21-1.72-18.59-1.73-27.62,1.57-5.65,2.07-10.59,5.23-12.67,11.19-2.34,6.71-.3,12.41,5,17,1.5,1.29,3.67,2.63,1.67,4.81s-3.63,0-5.06-1.21c-10.67-9.06-10.14-23.94,1.25-32.12,9-6.45,19.3-7.91,30-7,19.29,1.66,37.83,7.29,56.76,10.91,4.73,0.9,9.53,1.52,14.22,2.59,2.77,0.63,4-.18,5.39-2.66,6.4-11.69,22.94-18.27,35.8-14.51,3.69,1.08,6.8,2.86,7.72,7s-0.7,7.56-3.73,10.25c-5.37,4.78-12,6.33-18.93,6.63a127.28,127.28,0,0,1-16-.36c-2.57-.21-3.46.39-4,2.89a78.57,78.57,0,0,0-1.88,16.33c0,2.29.9,2.85,3,2.77,3.16-.12,6.33,0,9.49,0v-0.08Zm3.51-26.37c7.06,0.27,14-.34,20.08-4.34,2.31-1.52,4-3.63,3.38-6.67-0.61-2.83-3.24-3.36-5.44-3.59-10.29-1.08-19.43,1.41-26.5,9.47-1,1.1-2.51,2.45-2,3.81,0.7,1.77,2.89,1.17,4.47,1.29C-521.61-102.47-519.6-102.59-517.61-102.59Z" transform="translate(662.07 124.88)"/><path class="cls-1" d="M-474.11-39.73c-14.47,14.72-19.11,15.6-25.78,4.65a62.58,62.58,0,0,1-5,4.6c-6,4.43-13.21,2.14-15.67-4.89-4.05-11.57,6.17-25.13,18.27-24.29A12.89,12.89,0,0,1-495.43-57c1.33,1,2,2.36,1,3.89-0.92,1.31-2.17,1-3.55.41-10-4.28-19,2-18.32,12.89,0.15,2.57.76,5.13,3.48,6.12s5.21-.23,7.11-2.38a18.44,18.44,0,0,0,4-8.49c0.36-1.66.79-3.46,3.06-3.13,1.84,0.27,2.19,1.81,2.26,3.4,0,0.33,0,.67,0,1,0.58,4.09.5,9,5.41,10.25,4.53,1.15,7.2-2.73,9.58-5.89,3.61-4.8,6-9.64,5.38-16.37-1.51-17.26-1.69-34.61,1.77-51.75a41.8,41.8,0,0,1,2.71-8c1.53-3.6,4.12-6.29,8.31-6s6.27,3.47,7.56,7.06c1.77,4.95,1.85,10.12,1.58,15.3C-455-82-461-66.64-467.78-51.62c-2.68,6-1.56,11,1.2,16.1,2.93,5.39,8.12,5.88,12.31,1.48s5.39-12.8,2.65-17.74c-1.25-2.26-3.13-4-5.63-2.44-2.28,1.39-1.79,3.73-.18,5.6,1.22,1.42,2,2.94.36,4.31-1.88,1.55-3.44.18-4.69-1.24a9.27,9.27,0,0,1,.29-11.91c3-3.06,8.38-3.09,11.75,0a14.1,14.1,0,0,1,4.34,11.78c-0.25,3.89,1.19,6.48,4.73,7.81s6.24-.17,8.34-2.84c1.95-2.47,3.59-5.18,5.4-7.76,0.84-1.21,2-1.81,3.43-1.14,1.09,0.5,1.21,1.47,1.15,2.52-0.38,6.15-11.17,16.24-16.87,14.24-6.46-2.26-9.64-.2-14,4-5.54,5.31-12.85,3.49-17-3.08A81.13,81.13,0,0,1-474.11-39.73Zm3.26-17.8c6.6-15.07,12.35-30.33,11.69-47.19a23.84,23.84,0,0,0-1.25-7.84c-0.61-1.57-1.3-3.24-3.32-3.25-1.78,0-2.44,1.55-3.1,2.88a33.93,33.93,0,0,0-2.65,8.53C-472.51-88.9-471.52-73.26-470.85-57.53Z" transform="translate(662.07 124.88)"/><polygon class="cls-2" points="0.5 128.47 577.5 128.47 577.5 204.16 289 190.27 0.5 204.16 0.5 128.47"/><path class="cls-1" d="M-593.46,36.35v5.08h-2.42v-13h4a8.23,8.23,0,0,1,2.27.27,4.34,4.34,0,0,1,1.56.77,3,3,0,0,1,.9,1.18,3.89,3.89,0,0,1,.29,1.52,3.93,3.93,0,0,1-.19,1.24,3.6,3.6,0,0,1-.56,1.06,3.76,3.76,0,0,1-.9.84,4.72,4.72,0,0,1-1.22.58,2.39,2.39,0,0,1,.79.75l3.26,4.81h-2.19a1,1,0,0,1-.9-0.49l-2.74-4.17a1,1,0,0,0-.34-0.33,1.19,1.19,0,0,0-.54-0.1h-1Zm0-1.74H-592a3.74,3.74,0,0,0,1.19-.17,2.3,2.3,0,0,0,.84-0.47,1.89,1.89,0,0,0,.49-0.71,2.48,2.48,0,0,0,.16-0.91,1.85,1.85,0,0,0-.65-1.52,3.12,3.12,0,0,0-2-.53h-1.55v4.32Z" transform="translate(662.07 124.88)"/><path class="cls-1" d="M-564.24,28.42v1.93H-570V34h4.55v1.86H-570V39.5h5.78v1.93h-8.21v-13h8.21Z" transform="translate(662.07 124.88)"/><path class="cls-1" d="M-547.81,36.85v4.58h-2.42v-13H-546a7.43,7.43,0,0,1,2.26.31,4.35,4.35,0,0,1,1.58.86,3.39,3.39,0,0,1,.92,1.31,4.53,4.53,0,0,1,.3,1.67,4.62,4.62,0,0,1-.31,1.73,3.59,3.59,0,0,1-.94,1.35,4.38,4.38,0,0,1-1.58.88,7,7,0,0,1-2.22.32h-1.81Zm0-1.89H-546a3.64,3.64,0,0,0,1.16-.17,2.19,2.19,0,0,0,.82-0.48,1.93,1.93,0,0,0,.49-0.76,2.89,2.89,0,0,0,.16-1,2.61,2.61,0,0,0-.16-0.94A1.87,1.87,0,0,0-544,30.9a2.17,2.17,0,0,0-.82-0.45,3.86,3.86,0,0,0-1.17-.16h-1.81V35Z" transform="translate(662.07 124.88)"/><path class="cls-1" d="M-522,39.48a3.21,3.21,0,0,0,1.26-.23,2.57,2.57,0,0,0,.93-0.66,2.91,2.91,0,0,0,.58-1,4.23,4.23,0,0,0,.2-1.35V28.42h2.42v7.79a6,6,0,0,1-.37,2.15,4.88,4.88,0,0,1-1.07,1.7,4.86,4.86,0,0,1-1.7,1.12,6,6,0,0,1-2.25.4,6,6,0,0,1-2.26-.4,4.86,4.86,0,0,1-1.7-1.12,4.88,4.88,0,0,1-1.07-1.7,6,6,0,0,1-.37-2.15V28.42H-525v7.79a4.22,4.22,0,0,0,.2,1.35,2.9,2.9,0,0,0,.58,1,2.59,2.59,0,0,0,.94.66A3.21,3.21,0,0,0-522,39.48Z" transform="translate(662.07 124.88)"/><path class="cls-1" d="M-499.58,36.35v5.08H-502v-13h4a8.23,8.23,0,0,1,2.27.27,4.34,4.34,0,0,1,1.56.77,3,3,0,0,1,.9,1.18,3.89,3.89,0,0,1,.29,1.52,3.93,3.93,0,0,1-.19,1.24,3.6,3.6,0,0,1-.56,1.06,3.76,3.76,0,0,1-.9.84,4.72,4.72,0,0,1-1.22.58,2.39,2.39,0,0,1,.79.75l3.26,4.81H-494a1,1,0,0,1-.9-0.49l-2.74-4.17a1,1,0,0,0-.34-0.33,1.19,1.19,0,0,0-.54-0.1h-1Zm0-1.74h1.51a3.74,3.74,0,0,0,1.19-.17A2.3,2.3,0,0,0-496,34a1.89,1.89,0,0,0,.49-0.71,2.48,2.48,0,0,0,.16-0.91,1.85,1.85,0,0,0-.65-1.52,3.12,3.12,0,0,0-2-.53h-1.55v4.32Z" transform="translate(662.07 124.88)"/><path class="cls-1" d="M-476.15,36.85v4.58h-2.42v-13h4.23a7.43,7.43,0,0,1,2.26.31,4.35,4.35,0,0,1,1.58.86,3.39,3.39,0,0,1,.92,1.31,4.53,4.53,0,0,1,.3,1.67,4.62,4.62,0,0,1-.31,1.73,3.59,3.59,0,0,1-.94,1.35,4.38,4.38,0,0,1-1.58.88,7,7,0,0,1-2.22.32h-1.81Zm0-1.89h1.81a3.64,3.64,0,0,0,1.16-.17,2.19,2.19,0,0,0,.82-0.48,1.93,1.93,0,0,0,.49-0.76,2.89,2.89,0,0,0,.16-1,2.61,2.61,0,0,0-.16-0.94,1.87,1.87,0,0,0-.49-0.72,2.17,2.17,0,0,0-.82-0.45,3.86,3.86,0,0,0-1.17-.16h-1.81V35Z" transform="translate(662.07 124.88)"/><path class="cls-1" d="M-443.15,34.93a7.28,7.28,0,0,1-.47,2.65A6.22,6.22,0,0,1-445,39.69,6.07,6.07,0,0,1-447,41.08a7,7,0,0,1-2.7.5,7,7,0,0,1-2.69-.5,6.12,6.12,0,0,1-2.08-1.39,6.23,6.23,0,0,1-1.35-2.11,7.22,7.22,0,0,1-.48-2.65,7.21,7.21,0,0,1,.48-2.65,6.23,6.23,0,0,1,1.35-2.11,6.11,6.11,0,0,1,2.08-1.39,7,7,0,0,1,2.69-.5,7.33,7.33,0,0,1,1.86.23,6.54,6.54,0,0,1,1.6.65,5.9,5.9,0,0,1,1.31,1,6.19,6.19,0,0,1,1,1.34,6.57,6.57,0,0,1,.62,1.6A7.62,7.62,0,0,1-443.15,34.93Zm-2.48,0a6,6,0,0,0-.29-1.92,4.13,4.13,0,0,0-.82-1.44,3.51,3.51,0,0,0-1.29-.91,4.44,4.44,0,0,0-1.71-.31,4.44,4.44,0,0,0-1.71.31,3.55,3.55,0,0,0-1.3.91,4.08,4.08,0,0,0-.82,1.44,6,6,0,0,0-.29,1.92,6,6,0,0,0,.29,1.92,4,4,0,0,0,.82,1.44,3.57,3.57,0,0,0,1.3.9,4.44,4.44,0,0,0,1.71.32,4.44,4.44,0,0,0,1.71-.32,3.53,3.53,0,0,0,1.29-.9,4.07,4.07,0,0,0,.82-1.44A6,6,0,0,0-445.63,34.93Z" transform="translate(662.07 124.88)"/><path class="cls-1" d="M-422.23,30.79a0.84,0.84,0,0,1-.23.28,0.51,0.51,0,0,1-.3.08,0.77,0.77,0,0,1-.41-0.14l-0.53-.31a4.47,4.47,0,0,0-.72-0.31,3,3,0,0,0-1-.14,2.89,2.89,0,0,0-.88.12,1.85,1.85,0,0,0-.63.34,1.35,1.35,0,0,0-.38.52,1.7,1.7,0,0,0-.13.66,1.15,1.15,0,0,0,.26.76,2.15,2.15,0,0,0,.68.52,6.37,6.37,0,0,0,1,.39l1.11,0.36a10.42,10.42,0,0,1,1.11.45,3.8,3.8,0,0,1,1,.65,2.93,2.93,0,0,1,.68,1,3.33,3.33,0,0,1,.26,1.38,4.49,4.49,0,0,1-.3,1.65,3.81,3.81,0,0,1-.88,1.34,4.14,4.14,0,0,1-1.42.9,5.23,5.23,0,0,1-1.92.33,6.18,6.18,0,0,1-1.22-.12,6.41,6.41,0,0,1-1.16-.35,6.18,6.18,0,0,1-1-.54,5,5,0,0,1-.86-0.7l0.71-1.16a0.76,0.76,0,0,1,.23-0.21,0.59,0.59,0,0,1,.31-0.09,0.86,0.86,0,0,1,.49.18l0.62,0.41a4.93,4.93,0,0,0,.84.41,3.24,3.24,0,0,0,1.16.18,2.37,2.37,0,0,0,1.6-.49,1.76,1.76,0,0,0,.57-1.41,1.31,1.31,0,0,0-.26-0.84,2.06,2.06,0,0,0-.68-0.54,5.09,5.09,0,0,0-1-.37l-1.1-.33a9.47,9.47,0,0,1-1.1-.43,3.55,3.55,0,0,1-1-.66,3,3,0,0,1-.68-1,3.85,3.85,0,0,1-.26-1.5,3.55,3.55,0,0,1,.28-1.39,3.57,3.57,0,0,1,.82-1.2,4,4,0,0,1,1.33-.84,4.9,4.9,0,0,1,1.82-.32,6.07,6.07,0,0,1,2.12.36,4.8,4.8,0,0,1,1.66,1Z" transform="translate(662.07 124.88)"/><path class="cls-1" d="M-399.22,28.42v1.93H-405V34h4.55v1.86H-405V39.5h5.78v1.93h-8.21v-13h8.21Z" transform="translate(662.07 124.88)"/><path class="cls-1" d="M-373.66,34.93a7,7,0,0,1-.48,2.63,6,6,0,0,1-1.34,2.06A6,6,0,0,1-377.55,41a7.34,7.34,0,0,1-2.7.48h-5v-13h5a7.26,7.26,0,0,1,2.7.48,6.07,6.07,0,0,1,2.08,1.34,6,6,0,0,1,1.34,2.06A7,7,0,0,1-373.66,34.93Zm-2.48,0a6.07,6.07,0,0,0-.28-1.92,4,4,0,0,0-.82-1.44,3.58,3.58,0,0,0-1.3-.91,4.45,4.45,0,0,0-1.71-.31h-2.53v9.16h2.53a4.45,4.45,0,0,0,1.71-.32,3.58,3.58,0,0,0,1.3-.9,4,4,0,0,0,.82-1.44A6.05,6.05,0,0,0-376.14,34.93Z" transform="translate(662.07 124.88)"/><path class="cls-1" d="M-335.22,28.42v1.93H-341V34.2h4.88v1.94H-341v5.3h-2.43v-13h8.21Z" transform="translate(662.07 124.88)"/><path class="cls-1" d="M-316.14,39.48a3.21,3.21,0,0,0,1.26-.23,2.57,2.57,0,0,0,.93-0.66,2.91,2.91,0,0,0,.58-1,4.23,4.23,0,0,0,.2-1.35V28.42h2.42v7.79a6,6,0,0,1-.37,2.15,4.88,4.88,0,0,1-1.07,1.7,4.86,4.86,0,0,1-1.7,1.12,6,6,0,0,1-2.25.4,6,6,0,0,1-2.26-.4,4.86,4.86,0,0,1-1.7-1.12,4.88,4.88,0,0,1-1.07-1.7,6,6,0,0,1-.37-2.15V28.42h2.42v7.79a4.22,4.22,0,0,0,.2,1.35,2.9,2.9,0,0,0,.58,1,2.59,2.59,0,0,0,.94.66A3.21,3.21,0,0,0-316.14,39.48Z" transform="translate(662.07 124.88)"/><path class="cls-1" d="M-293.73,36.35v5.08h-2.42v-13h4a8.23,8.23,0,0,1,2.27.27,4.34,4.34,0,0,1,1.56.77,3,3,0,0,1,.9,1.18,3.89,3.89,0,0,1,.29,1.52,3.93,3.93,0,0,1-.19,1.24,3.6,3.6,0,0,1-.56,1.06,3.76,3.76,0,0,1-.9.84,4.72,4.72,0,0,1-1.22.58,2.39,2.39,0,0,1,.79.75l3.26,4.81h-2.19a1,1,0,0,1-.9-0.49l-2.74-4.17a1,1,0,0,0-.34-0.33,1.19,1.19,0,0,0-.54-0.1h-1Zm0-1.74h1.51a3.74,3.74,0,0,0,1.19-.17,2.3,2.3,0,0,0,.84-0.47,1.89,1.89,0,0,0,.49-0.71,2.48,2.48,0,0,0,.16-0.91,1.85,1.85,0,0,0-.65-1.52,3.12,3.12,0,0,0-2-.53h-1.55v4.32Z" transform="translate(662.07 124.88)"/><path class="cls-1" d="M-271.18,28.43a0.65,0.65,0,0,1,.2.05,0.63,0.63,0,0,1,.17.12l0.18,0.2,6.82,8.71q0-.31,0-0.62c0-.2,0-0.39,0-0.57V28.42h2.13v13H-263a1.09,1.09,0,0,1-.48-0.09,1.11,1.11,0,0,1-.37-0.32l-6.8-8.67q0,0.29,0,.57c0,0.19,0,.36,0,0.52v8h-2.13v-13h1.53Z" transform="translate(662.07 124.88)"/><path class="cls-1" d="M-244.55,41.44H-247v-13h2.43v13Z" transform="translate(662.07 124.88)"/><path class="cls-1" d="M-220.69,28.42v2h-3.92v11H-227v-11H-231v-2h10.27Z" transform="translate(662.07 124.88)"/><path class="cls-1" d="M-201.88,39.48a3.21,3.21,0,0,0,1.26-.23,2.57,2.57,0,0,0,.93-0.66,2.91,2.91,0,0,0,.58-1,4.23,4.23,0,0,0,.2-1.35V28.42h2.42v7.79a6,6,0,0,1-.37,2.15,4.88,4.88,0,0,1-1.07,1.7,4.86,4.86,0,0,1-1.7,1.12,6,6,0,0,1-2.25.4,6,6,0,0,1-2.26-.4,4.86,4.86,0,0,1-1.7-1.12,4.88,4.88,0,0,1-1.07-1.7,6,6,0,0,1-.37-2.15V28.42h2.42v7.79a4.22,4.22,0,0,0,.2,1.35,2.9,2.9,0,0,0,.58,1,2.59,2.59,0,0,0,.94.66A3.21,3.21,0,0,0-201.88,39.48Z" transform="translate(662.07 124.88)"/><path class="cls-1" d="M-179.47,36.35v5.08h-2.42v-13h4a8.23,8.23,0,0,1,2.27.27,4.34,4.34,0,0,1,1.56.77,3,3,0,0,1,.9,1.18,3.89,3.89,0,0,1,.29,1.52,3.93,3.93,0,0,1-.19,1.24,3.6,3.6,0,0,1-.56,1.06,3.76,3.76,0,0,1-.9.84,4.72,4.72,0,0,1-1.22.58,2.39,2.39,0,0,1,.79.75l3.26,4.81h-2.19a1,1,0,0,1-.9-0.49l-2.74-4.17a1,1,0,0,0-.34-0.33,1.19,1.19,0,0,0-.54-0.1h-1Zm0-1.74H-178a3.74,3.74,0,0,0,1.19-.17,2.3,2.3,0,0,0,.84-0.47,1.89,1.89,0,0,0,.49-0.71,2.48,2.48,0,0,0,.16-0.91,1.85,1.85,0,0,0-.65-1.52,3.12,3.12,0,0,0-2-.53h-1.55v4.32Z" transform="translate(662.07 124.88)"/><path class="cls-1" d="M-150.25,28.42v1.93H-156V34h4.55v1.86H-156V39.5h5.78v1.93h-8.21v-13h8.21Z" transform="translate(662.07 124.88)"/><path class="cls-1" d="M-453.41,102a0.67,0.67,0,0,1-.18.2,0.38,0.38,0,0,1-.23.07,0.64,0.64,0,0,1-.36-0.15q-0.21-.15-0.52-0.34a4.16,4.16,0,0,0-.75-0.34,3.21,3.21,0,0,0-1.06-.15,3.09,3.09,0,0,0-1,.16,2.21,2.21,0,0,0-.75.43,1.75,1.75,0,0,0-.45.63,2,2,0,0,0-.15.79,1.45,1.45,0,0,0,.27.9,2.28,2.28,0,0,0,.7.61,5.38,5.38,0,0,0,1,.44l1.13,0.38q0.58,0.2,1.13.45a4,4,0,0,1,1,.63,2.85,2.85,0,0,1,.7.93,3.09,3.09,0,0,1,.27,1.35,4.35,4.35,0,0,1-.29,1.59,3.66,3.66,0,0,1-.84,1.29,3.94,3.94,0,0,1-1.36.86A5,5,0,0,1-457,113a5.58,5.58,0,0,1-2.29-.45,5.36,5.36,0,0,1-1.75-1.23l0.5-.83a0.67,0.67,0,0,1,.18-0.17,0.41,0.41,0,0,1,.23-0.07,0.51,0.51,0,0,1,.27.09l0.34,0.24,0.43,0.31a3.53,3.53,0,0,0,.55.31,3.73,3.73,0,0,0,.71.24,3.85,3.85,0,0,0,.89.09,3.32,3.32,0,0,0,1.11-.17,2.35,2.35,0,0,0,.82-0.48,2.09,2.09,0,0,0,.52-0.74,2.49,2.49,0,0,0,.18-1,1.62,1.62,0,0,0-.27-1,2.2,2.2,0,0,0-.7-0.63,4.83,4.83,0,0,0-1-.43l-1.13-.36a11.85,11.85,0,0,1-1.13-.43,3.67,3.67,0,0,1-1-.63,2.89,2.89,0,0,1-.7-1,3.44,3.44,0,0,1-.27-1.44,3.41,3.41,0,0,1,.27-1.32,3.37,3.37,0,0,1,.77-1.13,3.79,3.79,0,0,1,1.25-.79,4.57,4.57,0,0,1,1.71-.3,5.43,5.43,0,0,1,2,.34,4.66,4.66,0,0,1,1.56,1Z" transform="translate(662.07 124.88)"/><path class="cls-1" d="M-439.85,112.87h-1.75V100h1.75v12.9Z" transform="translate(662.07 124.88)"/><path class="cls-1" d="M-426.82,100l0.14,0,0.13,0.09,0.13,0.15L-419,110c0-.16,0-0.31,0-0.45s0-.29,0-0.42V100h1.53v12.9h-0.87a0.75,0.75,0,0,1-.35-0.07,0.88,0.88,0,0,1-.27-0.24l-7.46-9.71c0,0.15,0,.3,0,0.44s0,0.28,0,.4v9.19h-1.53V100h1.1Z" transform="translate(662.07 124.88)"/><path class="cls-1" d="M-396.48,110.21a0.33,0.33,0,0,1,.25.12l0.69,0.75a5.52,5.52,0,0,1-1.92,1.43,6.57,6.57,0,0,1-2.73.51,6.39,6.39,0,0,1-2.52-.48,5.53,5.53,0,0,1-1.94-1.35,6.1,6.1,0,0,1-1.24-2.08,7.79,7.79,0,0,1-.44-2.67,7.51,7.51,0,0,1,.46-2.67,6.12,6.12,0,0,1,1.29-2.09,5.78,5.78,0,0,1,2-1.35,6.64,6.64,0,0,1,2.56-.48,6.25,6.25,0,0,1,2.43.44,6.12,6.12,0,0,1,1.85,1.2l-0.58.8a0.47,0.47,0,0,1-.14.15,0.4,0.4,0,0,1-.23.06,0.72,0.72,0,0,1-.4-0.18,6,6,0,0,0-.61-0.39,4.75,4.75,0,0,0-.95-0.39,4.77,4.77,0,0,0-1.4-.18,4.69,4.69,0,0,0-1.83.35,4,4,0,0,0-1.43,1,4.63,4.63,0,0,0-.93,1.6,6.39,6.39,0,0,0-.33,2.13,6.22,6.22,0,0,0,.35,2.15,4.74,4.74,0,0,0,.95,1.6,4,4,0,0,0,1.41,1,4.5,4.5,0,0,0,1.76.34,7.27,7.27,0,0,0,1-.07,4.27,4.27,0,0,0,.85-0.21,3.59,3.59,0,0,0,.73-0.36,5.23,5.23,0,0,0,.67-0.53A0.46,0.46,0,0,1-396.48,110.21Z" transform="translate(662.07 124.88)"/><path class="cls-1" d="M-376.92,100v1.42h-6.2v4.28h5V107h-5v4.4h6.21v1.42h-7.95V100h7.95Z" transform="translate(662.07 124.88)"/><path class="cls-1" d="M-348.92,99.83a4.7,4.7,0,0,1,1.53.24,3.57,3.57,0,0,1,1.23.71,3.27,3.27,0,0,1,.82,1.13,3.67,3.67,0,0,1,.3,1.51,4,4,0,0,1-.22,1.34,5.31,5.31,0,0,1-.58,1.17,9.1,9.1,0,0,1-.85,1.09q-0.48.53-1,1.07l-3.4,3.47a6.72,6.72,0,0,1,.73-0.16,4.53,4.53,0,0,1,.71-0.06h4.32a0.56,0.56,0,0,1,.41.15,0.54,0.54,0,0,1,.15.4v1h-8.6v-0.55a0.94,0.94,0,0,1,.07-0.35,1,1,0,0,1,.23-0.33l4.13-4.15q0.51-.52.94-1a7,7,0,0,0,.72-1,4.65,4.65,0,0,0,.46-1,3.44,3.44,0,0,0,.16-1.07,2.55,2.55,0,0,0-.18-1,2,2,0,0,0-.49-0.71,2,2,0,0,0-.73-0.42,2.88,2.88,0,0,0-.91-0.14,2.76,2.76,0,0,0-.91.14,2.44,2.44,0,0,0-.73.4,2.35,2.35,0,0,0-.54.61,2.43,2.43,0,0,0-.31.77,0.72,0.72,0,0,1-.29.42,0.83,0.83,0,0,1-.52.06l-0.84-.14a4.67,4.67,0,0,1,.49-1.56,3.77,3.77,0,0,1,.92-1.14,3.91,3.91,0,0,1,1.26-.7A4.82,4.82,0,0,1-348.92,99.83Z" transform="translate(662.07 124.88)"/><path class="cls-1" d="M-325.26,106.43a10.44,10.44,0,0,1-.36,2.93,6.12,6.12,0,0,1-1,2,4,4,0,0,1-1.49,1.21,4.34,4.34,0,0,1-1.84.4,4.3,4.3,0,0,1-1.84-.4,4,4,0,0,1-1.48-1.21,6.06,6.06,0,0,1-1-2,10.56,10.56,0,0,1-.36-2.93,10.62,10.62,0,0,1,.36-2.93,6.1,6.1,0,0,1,1-2.06,4,4,0,0,1,1.48-1.21,4.3,4.3,0,0,1,1.84-.4,4.34,4.34,0,0,1,1.84.4,4,4,0,0,1,1.49,1.21,6.17,6.17,0,0,1,1,2.06A10.49,10.49,0,0,1-325.26,106.43Zm-1.67,0a10.54,10.54,0,0,0-.25-2.48,5,5,0,0,0-.67-1.62,2.52,2.52,0,0,0-1-.88,2.6,2.6,0,0,0-1.14-.27,2.6,2.6,0,0,0-1.14.27,2.49,2.49,0,0,0-1,.88,5,5,0,0,0-.66,1.62,10.54,10.54,0,0,0-.25,2.48,10.47,10.47,0,0,0,.25,2.47,5,5,0,0,0,.66,1.61,2.48,2.48,0,0,0,1,.88,2.59,2.59,0,0,0,1.14.27,2.59,2.59,0,0,0,1.14-.27,2.51,2.51,0,0,0,1-.88,5,5,0,0,0,.67-1.61A10.47,10.47,0,0,0-326.92,106.43Z" transform="translate(662.07 124.88)"/><path class="cls-1" d="M-313.83,111.65h2.76v-8.79q0-.38,0-0.8l-2.29,2a0.51,0.51,0,0,1-.23.12,0.58,0.58,0,0,1-.22,0,0.51,0.51,0,0,1-.18-0.07,0.45,0.45,0,0,1-.13-0.12l-0.5-.69,3.84-3.32h1.31v11.7h2.54v1.22h-6.91v-1.22Z" transform="translate(662.07 124.88)"/><path class="cls-1" d="M-289,108.22h2v0.92a0.36,0.36,0,0,1-.09.24,0.33,0.33,0,0,1-.27.1H-289v3.39h-1.4v-3.39h-5.72a0.48,0.48,0,0,1-.31-0.1,0.45,0.45,0,0,1-.17-0.26l-0.16-.82,6.27-8.33H-289v8.24Zm-1.4-5.32c0-.16,0-0.33,0-0.51a5.21,5.21,0,0,1,.06-0.56l-4.7,6.39h4.63V102.9Z" transform="translate(662.07 124.88)"/><line class="cls-3" x1="180.6" y1="231.29" x2="101.1" y2="231.29"/><circle class="cls-1" cx="101.1" cy="231.29" r="2.75"/><line class="cls-3" x1="397.4" y1="231.29" x2="476.9" y2="231.29"/><circle class="cls-1" cx="476.9" cy="231.29" r="2.75"/></svg>