<svg id="Layer_1" data-name="Layer 1" xmlns="http://www.w3.org/2000/svg" viewBox="0 0 255.06 150.1"><defs><style>.cls-1{fill:#fff;}</style></defs><title>BM-logo</title><path class="cls-1" d="M-202,100.67a11.9,11.9,0,0,0-4.09-2.12,17.91,17.91,0,0,0-5.37-.77h-4.77v15.76a8.85,8.85,0,0,0,.33,2.63,3.34,3.34,0,0,0,1.82,1.83,10.36,10.36,0,0,0,4.58.77q6.41,0,9.13-4a10.83,10.83,0,0,0,1.86-6.2,10.65,10.65,0,0,0-.93-4.51A9.48,9.48,0,0,0-202,100.67Z" transform="translate(313.38 -43.56)"/><path class="cls-1" d="M-207.87,95.73a11.67,11.67,0,0,0,2.1-1.31,8.37,8.37,0,0,0,2.09-2.61,8.7,8.7,0,0,0,1-4.3,10.52,10.52,0,0,0-.66-3.73,9.48,9.48,0,0,0-1.93-3.13,9.05,9.05,0,0,0-3-2.14,9.23,9.23,0,0,0-3.79-.77,15.63,15.63,0,0,0-4.14.65v18h3A14.06,14.06,0,0,0-207.87,95.73Z" transform="translate(313.38 -43.56)"/><path class="cls-1" d="M-242.08,43.56V152.91h109.35V43.56H-242.08Zm47.08,71a13.3,13.3,0,0,1-4.25,3.74q-3.38,1.75-9.32,1.75H-226v-0.48h0.63a4.3,4.3,0,0,0,3-1.2,4.72,4.72,0,0,0,1.28-3.61v-33a5.19,5.19,0,0,0-1.18-3.64,4.14,4.14,0,0,0-3.21-1.29H-226v-0.5h15.2a17.92,17.92,0,0,1,5.53.82A12.93,12.93,0,0,1-201,79.44a10.47,10.47,0,0,1,2.7,3.27,8.47,8.47,0,0,1,.95,4A8.25,8.25,0,0,1-200,93.08a16.77,16.77,0,0,1-7.3,3.62v0.12a35.83,35.83,0,0,1,4,.62,15.64,15.64,0,0,1,3.48,1.16,12.85,12.85,0,0,1,2.91,1.93,11.73,11.73,0,0,1,2.08,2.34,10.12,10.12,0,0,1,1.3,2.78,10.82,10.82,0,0,1,.44,3.07A9.41,9.41,0,0,1-195,114.61Zm46.15,5.49h-15.07v-0.47q3-.3,4-1.62a6,6,0,0,0,.88-4.11l-1.61-33.6h-0.13l-16.43,39.81-15.54-38.35h-0.13l-0.06-.13a13,13,0,0,0-3.33-4A13.74,13.74,0,0,0-198,76.37h8.27l14.41,35.77,14.63-35.77h9.76v0.5q-1.33.15-1.9,0.25a3.23,3.23,0,0,0-1.26.61,3.66,3.66,0,0,0-1.34,1.45,8.06,8.06,0,0,0-.33,2.37,0.78,0.78,0,0,0,0,.53l1.61,32.48a6.65,6.65,0,0,0,1,3.53q1,1.49,4.27,1.51v0.47Z" transform="translate(313.38 -43.56)"/><g id="_Group_" data-name="&lt;Group&gt;"><path id="_Compound_Path_" data-name="&lt;Compound Path&gt;" class="cls-1" d="M-306.76,193.2h-6.62V193h0.24a1.58,1.58,0,0,0,1.16-.49,2,2,0,0,0,.49-1.46V177.7a2.18,2.18,0,0,0-.45-1.47,1.53,1.53,0,0,0-1.22-.52h-0.22v-0.2h5.78a6.42,6.42,0,0,1,2.1.33,4.81,4.81,0,0,1,1.63.91,4.19,4.19,0,0,1,1,1.32,3.61,3.61,0,0,1,.36,1.6,3.44,3.44,0,0,1-1,2.59,6.24,6.24,0,0,1-2.78,1.47v0a12.8,12.8,0,0,1,1.53.25,5.73,5.73,0,0,1,1.32.47,4.89,4.89,0,0,1,1.11.78,4.67,4.67,0,0,1,.79.95,4.21,4.21,0,0,1,.49,1.12,4.65,4.65,0,0,1,.17,1.24,4,4,0,0,1-.71,2.38,5.18,5.18,0,0,1-1.62,1.51A7.39,7.39,0,0,1-306.76,193.2Zm-2.91-9.58h1.15a5,5,0,0,0,2-.29,4.4,4.4,0,0,0,.8-0.53,3.37,3.37,0,0,0,.79-1.06,3.71,3.71,0,0,0,.38-1.74,4.49,4.49,0,0,0-.25-1.51,3.87,3.87,0,0,0-.73-1.27,3.45,3.45,0,0,0-1.14-.87,3.33,3.33,0,0,0-1.44-.31,5.59,5.59,0,0,0-1.57.26v7.31Zm1.81,0.54h-1.81v6.38a3.81,3.81,0,0,0,.13,1.06,1.32,1.32,0,0,0,.69.74,3.72,3.72,0,0,0,1.74.31,3.8,3.8,0,0,0,3.47-1.62,4.59,4.59,0,0,0,.71-2.51,4.54,4.54,0,0,0-.35-1.83,3.82,3.82,0,0,0-1-1.36,4.46,4.46,0,0,0-1.56-.86A6.43,6.43,0,0,0-307.85,184.16Z" transform="translate(313.38 -43.56)"/><path id="_Compound_Path_2" data-name="&lt;Compound Path&gt;" class="cls-1" d="M-284,175.7v-0.2h10.55v2.79h-0.17q0-2.24-3-2.24h-3.69v8h3.24a4.48,4.48,0,0,0,1.72-.31,1.55,1.55,0,0,0,.87-1.43h0.18v4h-0.18a2.18,2.18,0,0,0-.41-1.05,1.59,1.59,0,0,0-.59-0.49,1.41,1.41,0,0,0-.52-0.12,5.49,5.49,0,0,0-.9-0.07h-3.4v6.28a2.61,2.61,0,0,0,.27,1.23,1.29,1.29,0,0,0,1.26.52h2.63a3.81,3.81,0,0,0,1.56-.28,2.35,2.35,0,0,0,1-.77,4.57,4.57,0,0,0,.59-1.19h0.17l-0.61,2.78H-284V193h0.24a1.71,1.71,0,0,0,1.11-.46,1.85,1.85,0,0,0,.54-1.49V177.72a2.67,2.67,0,0,0-.37-1.42,1.38,1.38,0,0,0-1.28-.6H-284Z" transform="translate(313.38 -43.56)"/><path id="_Compound_Path_3" data-name="&lt;Compound Path&gt;" class="cls-1" d="M-256.19,193h0.24a1.56,1.56,0,0,0,1.15-.51,2,2,0,0,0,.5-1.44V177.7a1.84,1.84,0,0,0-.56-1.54,2.23,2.23,0,0,0-1.33-.46v-0.2h5.66v0.2a2.32,2.32,0,0,0-1.32.45,1.8,1.8,0,0,0-.58,1.55v12.92a1.91,1.91,0,0,0,.58,1.6,3.12,3.12,0,0,0,1.89.44h1.53a4.34,4.34,0,0,0,1.59-.24,2.08,2.08,0,0,0,.94-0.73,7,7,0,0,0,.71-1.39h0.2l-0.67,2.91h-10.53V193Z" transform="translate(313.38 -43.56)"/></g><g id="_Group_2" data-name="&lt;Group&gt;"><path id="_Compound_Path_4" data-name="&lt;Compound Path&gt;" class="cls-1" d="M-228.6,193h0.24a1.56,1.56,0,0,0,1.15-.51,2,2,0,0,0,.5-1.44V177.7a1.84,1.84,0,0,0-.56-1.54,2.23,2.23,0,0,0-1.33-.46v-0.2h5.66v0.2a2.32,2.32,0,0,0-1.32.45,1.8,1.8,0,0,0-.58,1.55v12.92a1.91,1.91,0,0,0,.58,1.6,3.12,3.12,0,0,0,1.89.44h1.53a4.34,4.34,0,0,0,1.59-.24,2.08,2.08,0,0,0,.94-0.73,7,7,0,0,0,.71-1.39h0.2l-0.67,2.91H-228.6V193Z" transform="translate(313.38 -43.56)"/></g><g id="_Group_3" data-name="&lt;Group&gt;"><path id="_Compound_Path_5" data-name="&lt;Compound Path&gt;" class="cls-1" d="M-168.2,175.5v0.2l-0.72.1a1.2,1.2,0,0,0-.48.25,1.46,1.46,0,0,0-.51.59,3.45,3.45,0,0,0-.12,1,0.32,0.32,0,0,0,0,.22l0.61,13.14a2.84,2.84,0,0,0,.4,1.43,1.81,1.81,0,0,0,1.62.61v0.19h-5.73V193a2.1,2.1,0,0,0,1.53-.65,2.57,2.57,0,0,0,.34-1.67l-0.61-13.6h0l-6.25,16.11-5.91-15.52h0l-0.64,12.54a5,5,0,0,0,.13,1.6,1.41,1.41,0,0,0,.56.82A3.05,3.05,0,0,0-183,193v0.19h-4.46V193a1.94,1.94,0,0,0,1.3-.41,1.86,1.86,0,0,0,.58-1,10.93,10.93,0,0,0,.21-1.63l0.71-13a0.58,0.58,0,0,0-.14-0.26,2.77,2.77,0,0,0-.35-0.37,2.39,2.39,0,0,0-.4-0.29,1.92,1.92,0,0,0-.71-0.29l-0.84-.08v-0.2H-183l5.48,14.48,5.56-14.48h3.71Z" transform="translate(313.38 -43.56)"/><path id="_Compound_Path_6" data-name="&lt;Compound Path&gt;" class="cls-1" d="M-134.53,179.17h-0.19a4,4,0,0,0-2-2.69,7.44,7.44,0,0,0-3.78-1,9.11,9.11,0,0,0-2.37.34,7.27,7.27,0,0,0-2.47,1.24,6.69,6.69,0,0,0-2,2.61,10.25,10.25,0,0,0-.79,4.31,10.47,10.47,0,0,0,1.93,6.61q1.93,2.47,6.19,2.47a9.74,9.74,0,0,0,2.48-.23,1.62,1.62,0,0,0,1-.62,2.2,2.2,0,0,0,.22-1.07V188a1.83,1.83,0,0,0-.5-1.53,3.15,3.15,0,0,0-1.5-.49v-0.2h5.75v0.2a3.07,3.07,0,0,0-1.23.34,1.27,1.27,0,0,0-.58.67,3.31,3.31,0,0,0-.14,1.08V193a21,21,0,0,1-5.46.71,17.16,17.16,0,0,1-2.87-.24,9.66,9.66,0,0,1-3-1.07,8.15,8.15,0,0,1-2.72-2.45,9.17,9.17,0,0,1-1.77-5.52,9.44,9.44,0,0,1,.67-3.48,9.46,9.46,0,0,1,1.92-3,9,9,0,0,1,3.07-2.11,10.15,10.15,0,0,1,4-.78,12,12,0,0,1,1.67.11q0.82,0.11,2.44.46a4.79,4.79,0,0,0,.91.14,0.91,0.91,0,0,0,.87-0.59h0.19v4.06Z" transform="translate(313.38 -43.56)"/><path id="_Compound_Path_7" data-name="&lt;Compound Path&gt;" class="cls-1" d="M-97.48,175.5v0.2l-0.72.1a1.2,1.2,0,0,0-.48.25,1.46,1.46,0,0,0-.51.59,3.45,3.45,0,0,0-.13,1,0.33,0.33,0,0,0,0,.22L-98.71,191a2.83,2.83,0,0,0,.4,1.43,1.81,1.81,0,0,0,1.62.61v0.19h-5.73V193a2.1,2.1,0,0,0,1.53-.65,2.57,2.57,0,0,0,.34-1.67l-0.61-13.6h0l-6.25,16.11-5.91-15.52h0l-0.64,12.54a5,5,0,0,0,.13,1.6,1.41,1.41,0,0,0,.56.82,3.05,3.05,0,0,0,1.14.37v0.19h-4.46V193a1.93,1.93,0,0,0,1.3-.41,1.87,1.87,0,0,0,.58-1,10.93,10.93,0,0,0,.21-1.63l0.71-13a0.58,0.58,0,0,0-.14-0.26,2.71,2.71,0,0,0-.35-0.37,2.37,2.37,0,0,0-.4-0.29,1.92,1.92,0,0,0-.71-0.29l-0.84-.08v-0.2h4.11l5.48,14.48,5.56-14.48h3.71Z" transform="translate(313.38 -43.56)"/></g><g id="_Group_4" data-name="&lt;Group&gt;"><path id="_Compound_Path_8" data-name="&lt;Compound Path&gt;" class="cls-1" d="M-64.84,178.95H-65a2.65,2.65,0,0,0-1-2.24,4.23,4.23,0,0,0-2.16-.51h-3.52v14.86A1.74,1.74,0,0,0-69.8,193v0.19h-5.63V193a2.18,2.18,0,0,0,1.34-.46,1.79,1.79,0,0,0,.55-1.48V176.2h-3.52a4.2,4.2,0,0,0-2.16.51,2.68,2.68,0,0,0-1,2.24h-0.19v-4.33h0.19a2.73,2.73,0,0,0,.34.44,1.22,1.22,0,0,0,.37.25,2,2,0,0,0,.53.14,5.4,5.4,0,0,0,.73,0h11.46a2.07,2.07,0,0,0,1.78-.88h0.19v4.33Z" transform="translate(313.38 -43.56)"/></g><g id="_Group_5" data-name="&lt;Group&gt;"><path id="_Compound_Path_9" data-name="&lt;Compound Path&gt;" class="cls-1" d="M-59.43,193.67a1,1,0,0,1-.77-0.31,1,1,0,0,1-.31-0.77,1.09,1.09,0,0,1,.31-0.79,1,1,0,0,1,.78-0.32,1.1,1.1,0,0,1,.79.31,1.06,1.06,0,0,1,.32.79,1,1,0,0,1-.33.78A1.12,1.12,0,0,1-59.43,193.67Z" transform="translate(313.38 -43.56)"/></g></svg>