<svg id="Layer_1" data-name="Layer 1" xmlns="http://www.w3.org/2000/svg" viewBox="0 0 219.09 67.11"><defs><style>.cls-1{fill:#fff;}</style></defs><title>runaround-logo</title><path class="cls-1" d="M379.82,451.2a33.4,33.4,0,0,0-10.65,1.74c-0.84.28-1.67,0.59-2.48,0.94l0.12-.26h0l0.14-.42h0a0.82,0.82,0,1,0-1.56-.51h0l-0.74,2.25-0.17.52h0a0.82,0.82,0,0,0,.53,1l0.65,0.21h0l2.09,0.68h0a0.82,0.82,0,0,0,.51-1.56h0l-0.13,0h0l-0.41-.13h0l-0.31-.11a31.71,31.71,0,0,1,29,56.2,3,3,0,0,1,.55.74,3,3,0,0,1,.29.89A33.55,33.55,0,0,0,379.82,451.2Zm-13.13,4.08-0.08-.16,0.08,0.16,0.62,0.22Z" transform="translate(-346.27 -451.2)"/><path class="cls-1" d="M394.58,513.07l-0.65-.21h0l-2.09-.67h0a0.82,0.82,0,0,0-.5,1.57h0l0.13,0h0l0.41,0.13h0l0.25,0.09a32,32,0,0,1-12.25,2.46,31.71,31.71,0,0,1-16.72-58.66,2.89,2.89,0,0,1-.83-1.63h0a33.54,33.54,0,0,0,28.17,60.4c0.85-.28,1.68-0.59,2.5-0.94l-0.14.32h0l-0.13.42h0a0.82,0.82,0,0,0,1.57.51h0l0.73-2.25,0.17-.52h0A0.82,0.82,0,0,0,394.58,513.07Z" transform="translate(-346.27 -451.2)"/><path class="cls-1" d="M357.14,485.88c0.56,0.1,3.21.1,4,.12a8.19,8.19,0,0,1,1.72.24,8.69,8.69,0,0,1,.9.25,8.21,8.21,0,0,1,1.58.72l0.25,0.15,0.4,0.24,0.78,0.52c1.09,0.76,2.11,1.61,3.2,2.37l0.08,0.06,0.73,0.48a8.28,8.28,0,0,0,1.17.53l0.13,0a2.62,2.62,0,0,0,1.62,0l0.11,0,0.16-.07a5.07,5.07,0,0,0,1.35-.81,4,4,0,0,0,.44-0.44,13.56,13.56,0,0,0,1.89-3.31,11.25,11.25,0,0,0,.9-2.95,3.29,3.29,0,0,0-.29-2.3h-0.79a4.43,4.43,0,0,1-2-.68,4.48,4.48,0,0,1-1.18-1.1q-0.12-.16-0.23-0.34h0a4.45,4.45,0,0,1-.21-0.39L372,475.8h0a0.42,0.42,0,0,1,.37-0.64l2.64-.08,0.68,0,0.77,0h0a2,2,0,0,1,.36,0h0.06a2.61,2.61,0,0,1,1.09.4l0.35,0.22,0.12,0.09a8.26,8.26,0,0,1,.92.71l0.86,0.76c0.18,0.16.37,0.31,0.56,0.46a5.24,5.24,0,0,0,.83.55,5.67,5.67,0,0,0,.12-0.65q0-.18,0-0.36a4.1,4.1,0,0,0-.12-1.25,4.33,4.33,0,0,0-1.27-2.07,4.45,4.45,0,0,0-.48-0.39l-0.05,0h0l-0.47-.32q-0.27-.16-0.55-0.31a7.35,7.35,0,0,0-3.34-.79,7.73,7.73,0,0,0-1.48.17,16.25,16.25,0,0,0-3.41,1.25c-0.78.36-1.55,0.73-2.34,1-0.3.12-.6,0.22-0.91,0.31h0l-0.56.19h0a8.94,8.94,0,0,1-2.22.45l-0.68,0a8.93,8.93,0,0,1-5.5-1.88l-0.18-.14h0l-0.17-.15a35.55,35.55,0,0,0-2.87-2.3,28,28,0,0,0-3.51,13.62v0l0.11,0Z" transform="translate(-346.27 -451.2)"/><path class="cls-1" d="M379.79,456.52a28.13,28.13,0,0,0-23,11.91l0.47,0.3,0.92,0.67,0.15,0.11c0.62,0.47,1.22.94,1.85,1.39l0.42,0.29,0.07,0a5.57,5.57,0,0,0,4.92.6l0.54-.23c0.41-.19.82-0.4,1.22-0.62,0.75-.42,1.49-0.88,2.23-1.25l1-.47a12.62,12.62,0,0,1,5.56-1.28h0.05a12.53,12.53,0,0,1,9.09,3.89l0.29,0.31a17,17,0,0,0,6.79,4.16l0.23,0.11,0.13,0.1a1.27,1.27,0,0,1,.46,1s0,0.05,0,.08a1.28,1.28,0,0,1,0,.19,14.84,14.84,0,0,0-.21,2.68c0,0.19,0,.37,0,0.56l0.15,0.12c0.22,0.14.45,0.23,0.67,0.36h0a5.59,5.59,0,0,1,1.13,1c0.46,0.46,1,.79,1.49,1.21s0.72,0.74,1.08,1.11a16.57,16.57,0,0,0,2.9,2l0.45,0.3h0a2.83,2.83,0,0,1-1.42,5.28h-0.11a2.83,2.83,0,0,1-.61-0.09l-0.25-.08h0l-0.2-.08h0a2,2,0,0,0-.28-0.11l-0.25-.06-0.25,0h-0.08a4.51,4.51,0,0,0-.62,0,4.48,4.48,0,0,0-4.48,4.48,4.53,4.53,0,0,0,0,.5,4.45,4.45,0,0,1-.78-0.18h0a4.49,4.49,0,0,1-2.37-1.89h0A45.73,45.73,0,0,1,372.88,512,28.16,28.16,0,1,0,379.79,456.52Z" transform="translate(-346.27 -451.2)"/><path class="cls-1" d="M422,499.64v2.31h-0.37v-5.1h1.3a2.13,2.13,0,0,1,1.32.34,1.19,1.19,0,0,1,.44,1,1.37,1.37,0,0,1-.1.53,1.24,1.24,0,0,1-.29.42,1.55,1.55,0,0,1-.46.3,2,2,0,0,1-.6.15,0.58,0.58,0,0,1,.15.14l1.76,2.21h-0.32l-0.1,0a0.26,0.26,0,0,1-.08-0.07L423,499.78a0.37,0.37,0,0,0-.13-0.11,0.55,0.55,0,0,0-.22,0H422Zm0-.27h0.89a2.1,2.1,0,0,0,.61-0.08,1.31,1.31,0,0,0,.45-0.23,1,1,0,0,0,.28-0.36,1.14,1.14,0,0,0,.1-0.48,0.94,0.94,0,0,0-.36-0.81,1.73,1.73,0,0,0-1-.26H422v2.23Z" transform="translate(-346.27 -451.2)"/><path class="cls-1" d="M430.46,501.68a1.61,1.61,0,0,0,.66-0.13,1.41,1.41,0,0,0,.49-0.36,1.56,1.56,0,0,0,.31-0.54A2,2,0,0,0,432,500v-3.16h0.37V500a2.29,2.29,0,0,1-.13.79,1.88,1.88,0,0,1-.38.64,1.77,1.77,0,0,1-.61.43,2.17,2.17,0,0,1-1.61,0,1.77,1.77,0,0,1-.61-0.43,1.88,1.88,0,0,1-.38-0.64,2.29,2.29,0,0,1-.13-0.79v-3.16h0.37V500a2,2,0,0,0,.11.67,1.59,1.59,0,0,0,.31.54,1.41,1.41,0,0,0,.49.36A1.59,1.59,0,0,0,430.46,501.68Z" transform="translate(-346.27 -451.2)"/><path class="cls-1" d="M436.72,496.86l0.06,0.06,3.3,4.42a2.06,2.06,0,0,1,0-.21v-4.28h0.32v5.1h-0.18a0.15,0.15,0,0,1-.13-0.07l-3.32-4.43c0,0.07,0,.14,0,0.21v4.3h-0.32v-5.1h0.26Z" transform="translate(-346.27 -451.2)"/><path class="cls-1" d="M444.77,496.86l0.06,0.06,3.3,4.42a2.06,2.06,0,0,1,0-.21v-4.28h0.32v5.1h-0.18a0.15,0.15,0,0,1-.13-0.07l-3.32-4.43c0,0.07,0,.14,0,0.21v4.3h-0.32v-5.1h0.26Z" transform="translate(-346.27 -451.2)"/><path class="cls-1" d="M453.06,501.95h-0.37v-5.1h0.37v5.1Z" transform="translate(-346.27 -451.2)"/><path class="cls-1" d="M457.57,496.86l0.06,0.06,3.3,4.42a2.06,2.06,0,0,1,0-.21v-4.28h0.32v5.1h-0.18a0.15,0.15,0,0,1-.13-0.07l-3.32-4.43c0,0.07,0,.14,0,0.21v4.3h-0.32v-5.1h0.26Z" transform="translate(-346.27 -451.2)"/><path class="cls-1" d="M467.56,501.71l0.48,0a2.63,2.63,0,0,0,.4-0.08l0.35-.13,0.34-.17v-1.37h-1a0.09,0.09,0,0,1-.07,0,0.08,0.08,0,0,1,0-.06v-0.2h1.41v1.81a3.34,3.34,0,0,1-.4.24,2.64,2.64,0,0,1-.44.17,3.38,3.38,0,0,1-.51.11,4.31,4.31,0,0,1-.59,0,2.65,2.65,0,0,1-1-.19,2.24,2.24,0,0,1-.78-0.53,2.38,2.38,0,0,1-.51-0.82,3.29,3.29,0,0,1,0-2.15,2.34,2.34,0,0,1,.51-0.82,2.26,2.26,0,0,1,.81-0.53,2.89,2.89,0,0,1,1.06-.19,3.39,3.39,0,0,1,.54,0,2.51,2.51,0,0,1,.46.12,2.16,2.16,0,0,1,.4.19,2.68,2.68,0,0,1,.35.26l-0.1.16a0.1,0.1,0,0,1-.09.05h-0.06l-0.16-.1a1.67,1.67,0,0,0-.28-0.17,2.3,2.3,0,0,0-.44-0.15,2.57,2.57,0,0,0-.64-0.07,2.42,2.42,0,0,0-.9.16,1.91,1.91,0,0,0-.68.45,2,2,0,0,0-.44.72,2.81,2.81,0,0,0-.15,1,2.84,2.84,0,0,0,.15,1,2.08,2.08,0,0,0,.43.73,1.87,1.87,0,0,0,.67.46A2.28,2.28,0,0,0,467.56,501.71Z" transform="translate(-346.27 -451.2)"/><path class="cls-1" d="M479,496.79a1.27,1.27,0,0,1,.46.08,1.23,1.23,0,0,1,.38.22,1.1,1.1,0,0,1,.26.33,0.91,0.91,0,0,1,.1.39l-0.09,0-0.13,0-0.05,0a0.12,0.12,0,0,1,0-.06,1.23,1.23,0,0,0-.09-0.22,0.93,0.93,0,0,0-.17-0.23,0.9,0.9,0,0,0-.26-0.18,0.84,0.84,0,0,0-.37-0.08,1.1,1.1,0,0,0-.39.07,0.88,0.88,0,0,0-.3.19,0.85,0.85,0,0,0-.2.29,0.93,0.93,0,0,0-.07.36,1.14,1.14,0,0,0,.15.57,2.67,2.67,0,0,0,.47.58l1.61,1.59a2.6,2.6,0,0,0,.26-0.54,2.57,2.57,0,0,0,.12-0.54,0.15,0.15,0,0,1,0-.07,0.08,0.08,0,0,1,.06,0h0.2a2.34,2.34,0,0,1-.13.7,2.82,2.82,0,0,1-.34.69l1.07,1.05h-0.43l-0.1-.06-0.74-.72a2.85,2.85,0,0,1-.36.35,2.28,2.28,0,0,1-.42.27,2.36,2.36,0,0,1-.49.18,2.21,2.21,0,0,1-.54.06,1.63,1.63,0,0,1-.53-0.09,1.44,1.44,0,0,1-.47-0.27,1.35,1.35,0,0,1-.34-0.43,1.27,1.27,0,0,1-.13-0.58,1.33,1.33,0,0,1,.09-0.5,1.6,1.6,0,0,1,.26-0.43,1.9,1.9,0,0,1,.39-0.35,2.2,2.2,0,0,1,.48-0.25,2.39,2.39,0,0,1-.38-0.56,1.35,1.35,0,0,1-.13-0.58,1.17,1.17,0,0,1,.09-0.47,1.09,1.09,0,0,1,.26-0.37,1.22,1.22,0,0,1,.41-0.25A1.47,1.47,0,0,1,479,496.79Zm-1.64,3.83a1,1,0,0,0,.11.48,1.08,1.08,0,0,0,.28.34,1.17,1.17,0,0,0,.38.21,1.3,1.3,0,0,0,.41.07,1.91,1.91,0,0,0,.48-0.06,2,2,0,0,0,.42-0.16,1.88,1.88,0,0,0,.36-0.24,2.37,2.37,0,0,0,.3-0.31l-1.66-1.63,0,0a2.15,2.15,0,0,0-.43.24,1.64,1.64,0,0,0-.33.31,1.36,1.36,0,0,0-.21.37A1.2,1.2,0,0,0,477.32,500.62Z" transform="translate(-346.27 -451.2)"/><path class="cls-1" d="M489.29,501.63h2.42v0.31h-2.79v-5.1h0.37v4.79Z" transform="translate(-346.27 -451.2)"/><path class="cls-1" d="M495.71,501.95h-0.37v-5.1h0.37v5.1Z" transform="translate(-346.27 -451.2)"/><path class="cls-1" d="M503,496.84v0.31h-2.69v2.15h2.33v0.31h-2.33v2.34H500v-5.1H503Z" transform="translate(-346.27 -451.2)"/><path class="cls-1" d="M509.74,496.84v0.31h-2.69v2.06h2.24v0.3h-2.24v2.13h2.69v0.31h-3.06v-5.1h3.06Z" transform="translate(-346.27 -451.2)"/><path class="cls-1" d="M516,497.46a0.1,0.1,0,0,1-.09.06,0.21,0.21,0,0,1-.12-0.07l-0.2-.15a1.57,1.57,0,0,0-.32-0.15,1.6,1.6,0,0,0-1,0,1,1,0,0,0-.35.22,0.92,0.92,0,0,0-.22.32,1,1,0,0,0-.07.38,0.77,0.77,0,0,0,.11.43,1,1,0,0,0,.29.29,1.87,1.87,0,0,0,.41.2l0.47,0.16,0.47,0.18a1.7,1.7,0,0,1,.41.24,1.1,1.1,0,0,1,.29.36,1.13,1.13,0,0,1,.11.52,1.66,1.66,0,0,1-.11.6,1.4,1.4,0,0,1-.32.49,1.49,1.49,0,0,1-.51.33,1.86,1.86,0,0,1-.69.12,2,2,0,0,1-.87-0.18,2,2,0,0,1-.64-0.49l0.1-.16a0.13,0.13,0,0,1,.1-0.05,0.15,0.15,0,0,1,.08,0l0.12,0.11,0.17,0.14a1.4,1.4,0,0,0,.23.14,1.68,1.68,0,0,0,.31.11,1.64,1.64,0,0,0,.39,0,1.5,1.5,0,0,0,.54-0.09,1.18,1.18,0,0,0,.4-0.25,1.07,1.07,0,0,0,.25-0.38,1.26,1.26,0,0,0,.09-0.47,0.82,0.82,0,0,0-.11-0.45,0.94,0.94,0,0,0-.29-0.29,1.86,1.86,0,0,0-.41-0.2l-0.47-.16-0.47-.17a1.65,1.65,0,0,1-.41-0.24,1.1,1.1,0,0,1-.29-0.36,1.21,1.21,0,0,1-.11-0.55,1.29,1.29,0,0,1,.1-0.49,1.22,1.22,0,0,1,.29-0.42,1.4,1.4,0,0,1,.46-0.29,1.69,1.69,0,0,1,.63-0.11,1.91,1.91,0,0,1,.71.13,1.71,1.71,0,0,1,.58.39Z" transform="translate(-346.27 -451.2)"/><path class="cls-1" d="M523.24,496.84v0.31h-1.79v4.79h-0.37v-4.79h-1.8v-0.31h4Z" transform="translate(-346.27 -451.2)"/><path class="cls-1" d="M528.31,499.84v2.11h-0.37v-2.11l-1.89-3h0.32l0.08,0,0.06,0.07,1.46,2.34,0.09,0.16,0.06,0.16,0.06-.16,0.09-.16,1.46-2.34,0.05-.06a0.13,0.13,0,0,1,.08,0h0.32Z" transform="translate(-346.27 -451.2)"/><path class="cls-1" d="M534,501.63h2.42v0.31h-2.79v-5.1H534v4.79Z" transform="translate(-346.27 -451.2)"/><path class="cls-1" d="M543,496.84v0.31H540.3v2.06h2.24v0.3H540.3v2.13H543v0.31h-3.06v-5.1H543Z" transform="translate(-346.27 -451.2)"/><path class="cls-1" d="M554.49,501.09l0.06,0,0.14,0.15a2.34,2.34,0,0,1-.35.3,2.13,2.13,0,0,1-.41.23,2.4,2.4,0,0,1-.49.15,3,3,0,0,1-.58.05,2.48,2.48,0,0,1-1-.19,2.16,2.16,0,0,1-.76-0.53,2.41,2.41,0,0,1-.49-0.82,3.11,3.11,0,0,1-.18-1.08,3,3,0,0,1,.18-1.06,2.42,2.42,0,0,1,.51-0.82A2.28,2.28,0,0,1,552,497a2.64,2.64,0,0,1,1-.19,2.88,2.88,0,0,1,.51,0,2.3,2.3,0,0,1,.43.12,2,2,0,0,1,.38.19,2.84,2.84,0,0,1,.35.27l-0.11.16a0.1,0.1,0,0,1-.09,0l-0.08,0-0.13-.09-0.19-.12a1.52,1.52,0,0,0-.26-0.12,2.24,2.24,0,0,0-.35-0.09,2.43,2.43,0,0,0-.45,0,2.22,2.22,0,0,0-.86.16,1.91,1.91,0,0,0-.67.46,2.09,2.09,0,0,0-.44.72,2.72,2.72,0,0,0-.16,1,2.79,2.79,0,0,0,.16,1,2.09,2.09,0,0,0,.43.72,1.87,1.87,0,0,0,.65.45,2.07,2.07,0,0,0,.81.16,2.94,2.94,0,0,0,.49,0,1.93,1.93,0,0,0,.39-0.11,1.79,1.79,0,0,0,.34-0.18,2.56,2.56,0,0,0,.31-0.25l0,0h0Z" transform="translate(-346.27 -451.2)"/><path class="cls-1" d="M563,499.39a3.09,3.09,0,0,1-.18,1.07,2.38,2.38,0,0,1-.5.82,2.21,2.21,0,0,1-.77.53,2.72,2.72,0,0,1-2,0,2.19,2.19,0,0,1-.77-0.53,2.41,2.41,0,0,1-.5-0.82,3.3,3.3,0,0,1,0-2.14,2.41,2.41,0,0,1,.5-0.82,2.22,2.22,0,0,1,.77-0.53,2.52,2.52,0,0,1,1-.19,2.56,2.56,0,0,1,1,.19,2.2,2.2,0,0,1,.77.53,2.4,2.4,0,0,1,.5.82A3.08,3.08,0,0,1,563,499.39Zm-0.38,0a2.91,2.91,0,0,0-.15-1,2.07,2.07,0,0,0-.42-0.72,1.79,1.79,0,0,0-.65-0.45,2.18,2.18,0,0,0-.84-0.16,2.15,2.15,0,0,0-.83.16,1.83,1.83,0,0,0-.65.45,2.07,2.07,0,0,0-.42.72,3.17,3.17,0,0,0,0,1.92,2.07,2.07,0,0,0,.42.72,1.8,1.8,0,0,0,.65.45,2.17,2.17,0,0,0,.83.16,2.2,2.2,0,0,0,.84-0.16,1.76,1.76,0,0,0,.65-0.45,2.07,2.07,0,0,0,.42-0.72A2.9,2.9,0,0,0,562.62,499.39Z" transform="translate(-346.27 -451.2)"/><path class="cls-1" d="M564.69,501.67a0.35,0.35,0,0,1,0-.13,0.32,0.32,0,0,1,.07-0.11l0.1-.07a0.31,0.31,0,0,1,.13,0l0.13,0,0.11,0.07a0.33,0.33,0,0,1,.07.11,0.32,0.32,0,0,1,0,.13,0.32,0.32,0,0,1,0,.13,0.35,0.35,0,0,1-.07.1,0.33,0.33,0,0,1-.11.07L565,502A0.33,0.33,0,0,1,564.69,501.67Z" transform="translate(-346.27 -451.2)"/><path class="cls-1" d="M443.61,480.54a10.9,10.9,0,0,1-.25,3,2.84,2.84,0,0,1-1.05,1.43,3,3,0,0,1-1.73.49,2.88,2.88,0,0,1-1.71-.49,2.76,2.76,0,0,1-1-1.38,10.84,10.84,0,0,1-.31-3.17v-7.82h-4.12v6.76a20.13,20.13,0,0,0,.48,5.37,6.32,6.32,0,0,0,2.32,3.33,7.2,7.2,0,0,0,4.32,1.19,7.41,7.41,0,0,0,4.06-1,6.35,6.35,0,0,0,2.42-2.93,16.88,16.88,0,0,0,.67-5.82v-6.88h-4.08v8Z" transform="translate(-346.27 -451.2)"/><path class="cls-1" d="M462.93,473.85a5.58,5.58,0,0,0-4.1-1.69,6.09,6.09,0,0,0-2.3.46,9.79,9.79,0,0,0-2.51,1.63v-1.66h-4.07v16.24H454v-6.51a18.49,18.49,0,0,1,.18-3.3,4.42,4.42,0,0,1,1.23-2.29,3,3,0,0,1,2.12-.83,2.54,2.54,0,0,1,1.6.5,2.65,2.65,0,0,1,.91,1.45,17.92,17.92,0,0,1,.26,3.86v7.11h4V478.09A5.8,5.8,0,0,0,462.93,473.85Z" transform="translate(-346.27 -451.2)"/><path class="cls-1" d="M428.77,472.45a8.63,8.63,0,0,0-3.54,1.4v-1.11h-3.49v16.46h3.49v-0.88h0v-5.67a18.76,18.76,0,0,1,.34-4.28,5.23,5.23,0,0,1,3.34-2.5l0.36-.06a4.24,4.24,0,0,1,.93-0.07l0.21,0,0.59,0,1.11-3.25-0.9-.14A8.18,8.18,0,0,0,428.77,472.45Z" transform="translate(-346.27 -451.2)"/><path class="cls-1" d="M502.86,472.17a8,8,0,0,0-6.24,2.73,8.7,8.7,0,0,0,.13,11.8,8.58,8.58,0,0,0,12.2,0,8.72,8.72,0,0,0,.13-11.81A8,8,0,0,0,502.86,472.17Zm5.49,11.91a6,6,0,0,1-2.31,2.35,6.56,6.56,0,0,1-6.38,0,6,6,0,0,1-2.31-2.35,6.61,6.61,0,0,1-.85-3.28,6.44,6.44,0,0,1,1.87-4.66,6.16,6.16,0,0,1,9,0,6.42,6.42,0,0,1,1.88,4.66A6.61,6.61,0,0,1,508.35,484.08Z" transform="translate(-346.27 -451.2)"/><path class="cls-1" d="M494.81,474.22c0.15-.19.3-0.37,0.46-0.55a10.65,10.65,0,0,1,1.3-1.2,8.27,8.27,0,0,0-2.17-.32,8.75,8.75,0,0,0-5.55,2.05q-0.3.26-.58,0.54v-2.15h-2.13v16.24h2.13v-2.15h0v-4c0-.07,0-0.12,0-0.19a22.57,22.57,0,0,1,.38-4.81l0.05-.15a6.5,6.5,0,0,1,4.21-3.2l0.46-.08a6.5,6.5,0,0,1,1-.1C494.54,474.18,494.67,474.21,494.81,474.22Z" transform="translate(-346.27 -451.2)"/><path class="cls-1" d="M481.81,472.58V475a8.56,8.56,0,1,0-6.4,14.24,8.29,8.29,0,0,0,1.37-.13l-0.39.56h0a0.82,0.82,0,1,0,1.35.94h0l1.67-2.39h0a0.82,0.82,0,0,0-.21-1.14l-0.56-.39-1.83-1.27h0a0.82,0.82,0,0,0-.94,1.35h0l0.5,0.35a6.42,6.42,0,0,1-1,.09,6.53,6.53,0,1,1,6.4-7.81v9.4h2.06V472.58h-2.06Z" transform="translate(-346.27 -451.2)"/><path class="cls-1" d="M529.22,469.4h0l-1.52-1.51-0.47-.46a0.8,0.8,0,0,0-1.12,0l-0.47.46-1.52,1.51h0a0.79,0.79,0,0,0,1.11,1.12h0l0.36-.36h0v10a15.59,15.59,0,0,1-.31,4,4.3,4.3,0,0,1-1.68,2.22,5.09,5.09,0,0,1-3,.84,5.19,5.19,0,0,1-3-.87,4.26,4.26,0,0,1-1.71-2.36,16.2,16.2,0,0,1-.3-3.82v-7.58h-2.09v7.82a13.14,13.14,0,0,0,.78,5.19,5.93,5.93,0,0,0,2.37,2.69,7.53,7.53,0,0,0,4,1,7.45,7.45,0,0,0,3.95-1,6,6,0,0,0,2.36-2.66,12.61,12.61,0,0,0,.78-5.06V470.16l0.36,0.36h0A0.79,0.79,0,0,0,529.22,469.4Z" transform="translate(-346.27 -451.2)"/><path class="cls-1" d="M545.64,489.94a0.79,0.79,0,0,0-1.12,0h0l-0.36.35,0,0v-9.86a13.18,13.18,0,0,0-.67-4.88,5.51,5.51,0,0,0-2.08-2.49,5.76,5.76,0,0,0-3.23-.93,6.82,6.82,0,0,0-3.31.83,8.75,8.75,0,0,0-2.78,2.5v-2.91H530v16.24h2.09v-6a21.63,21.63,0,0,1,.3-4.42,5.88,5.88,0,0,1,2-3.11,5.15,5.15,0,0,1,3.4-1.25,4.2,4.2,0,0,1,2.69.81,4.12,4.12,0,0,1,1.39,2.43,19.1,19.1,0,0,1,.23,3.75v9.25l-0.06-.06-0.33-.33h0l-0.09-.08a0.79,0.79,0,0,0-1,1.2h0l1.52,1.51,0.47,0.46a0.8,0.8,0,0,0,1.12,0l0.47-.46,1.52-1.51h0A0.79,0.79,0,0,0,545.64,489.94Z" transform="translate(-346.27 -451.2)"/><path class="cls-1" d="M564.53,469.38h0L563,467.87l-0.47-.46a0.8,0.8,0,0,0-1.12,0l-0.47.46-1.52,1.51h0a0.79,0.79,0,0,0,1.11,1.12h0l0.36-.35,0,0,0,0h0v5.46A8.24,8.24,0,0,0,558.1,473a7.65,7.65,0,0,0-3.62-.85,8,8,0,0,0-5.93,2.49,8.24,8.24,0,0,0-2.46,6,8.38,8.38,0,0,0,2.44,6.08,8.24,8.24,0,0,0,9.46,1.69,9,9,0,0,0,2.95-2.4v2.79H563V470.09l0,0,0.05,0.05,0.33,0.33h0l0.09,0.08A0.79,0.79,0,0,0,564.53,469.38Zm-4.27,14.74a6,6,0,0,1-2.36,2.34,6.53,6.53,0,0,1-3.25.86,6.18,6.18,0,0,1-3.18-.87,6.4,6.4,0,0,1-2.36-2.44,6.57,6.57,0,0,1,0-6.56,6.3,6.3,0,0,1,5.57-3.27,6.15,6.15,0,0,1,4.57,1.89,6.46,6.46,0,0,1,1.86,4.71A6.68,6.68,0,0,1,560.25,484.11Z" transform="translate(-346.27 -451.2)"/></svg>