<svg id="Layer_1" data-name="Layer 1" xmlns="http://www.w3.org/2000/svg" viewBox="0 0 266.67 186.16"><defs><style>.cls-1{fill:#fff;}</style></defs><title>westbridge-logo</title><path class="cls-1" d="M-397.55,210.94H-500.06a1.42,1.42,0,0,1-1.42-1.42V107a1.42,1.42,0,0,1,1.42-1.42h102.51a1.42,1.42,0,0,1,1.42,1.42V209.51A1.42,1.42,0,0,1-397.55,210.94Zm-101.08-2.85H-399V108.43h-99.66v99.66Z" transform="translate(582.14 -105.58)"/><polygon class="cls-1" points="113.8 75.6 118.6 75.6 116.77 69.92 113.8 75.6"/><polygon class="cls-1" points="133.34 38.2 122.83 58.32 133.34 74.64 143.85 58.32 133.34 38.2"/><polygon class="cls-1" points="108.09 42.95 108.09 75.6 111.25 75.6 115.8 66.9 108.09 42.95"/><polygon class="cls-1" points="118.24 67.11 120.97 75.6 131.27 75.6 121.62 60.62 118.24 67.11"/><polygon class="cls-1" points="156 43.62 146.46 58.44 149.41 64.09 156 43.62"/><polygon class="cls-1" points="120.22 58.44 110.68 43.62 117.27 64.09 120.22 58.44"/><path class="cls-1" d="M-406,114.49h-85.64a1,1,0,0,0-.95.95v85.64a1,1,0,0,0,.95.95H-406a1,1,0,0,0,.95-0.95V115.44A1,1,0,0,0-406,114.49Zm-15.31,67.82a1.13,1.13,0,0,1-1.13,1.13h-52.75a1.13,1.13,0,0,1-1.13-1.13v-41a1.12,1.12,0,0,1,.07-0.38,1.1,1.1,0,0,1,.06-0.11,1.12,1.12,0,0,1,.12-0.21l0.11-.1a1.1,1.1,0,0,1,.17-0.14l0.15-.07,0.13-.06h0.08l0.06,0h0.09a1.08,1.08,0,0,1,.25,0l0.12,0a1.09,1.09,0,0,1,.23.09l0.12,0.07a1.13,1.13,0,0,1,.16.14l0.11,0.12,0,0,13.51,21,10.92-20.9a1.18,1.18,0,0,1,2,0l10.92,20.9,13.51-21,0,0,0.11-.12a1.12,1.12,0,0,1,.17-0.15l0.12-.07a1.1,1.1,0,0,1,.22-0.09l0.13,0h0.34l0.07,0h0.08l0.13,0.06,0.15,0.07a1.1,1.1,0,0,1,.17.14l0.11,0.11a1.12,1.12,0,0,1,.12.21,1.07,1.07,0,0,1,.06.11,1.12,1.12,0,0,1,.07.38v41Zm1.38-47h-57.77a1.13,1.13,0,0,1-1.13-1.13,1.13,1.13,0,0,1,1.13-1.13h57.77a1.13,1.13,0,0,1,1.13,1.13A1.13,1.13,0,0,1-419.92,135.33Z" transform="translate(582.14 -105.58)"/><polygon class="cls-1" points="145.05 60.62 135.41 75.6 145.7 75.6 148.44 67.11 145.05 60.62"/><polygon class="cls-1" points="155.42 75.6 158.58 75.6 158.58 42.95 150.88 66.9 155.42 75.6"/><polygon class="cls-1" points="148.07 75.6 152.87 75.6 149.9 69.92 148.07 75.6"/><path class="cls-1" d="M-547.51,281a0.38,0.38,0,0,1,.37-0.37,0.38,0.38,0,0,1,.39.37v10.11a0.38,0.38,0,0,1-.39.37,0.38,0.38,0,0,1-.37-0.37V281Z" transform="translate(582.14 -105.58)"/><path class="cls-1" d="M-547.14,291.72a0.62,0.62,0,0,1-.61-0.61V281a0.62,0.62,0,0,1,.61-0.61,0.62,0.62,0,0,1,.62.61v10.11A0.62,0.62,0,0,1-547.14,291.72Zm0-10.85a0.14,0.14,0,0,0-.14.14v10.11a0.14,0.14,0,0,0,.14.14,0.14,0.14,0,0,0,.15-0.14V281A0.14,0.14,0,0,0-547.14,280.87Z" transform="translate(582.14 -105.58)"/><path class="cls-1" d="M-533.41,282.23v8.88a0.38,0.38,0,0,1-.37.37,0.38,0.38,0,0,1-.37-0.37v-10a0.37,0.37,0,0,1,.14-0.42,0.39,0.39,0,0,1,.53.09l6.57,9.11v-8.84a0.38,0.38,0,0,1,.37-0.37,0.38,0.38,0,0,1,.39.37v10a0.38,0.38,0,0,1-.39.37,0.36,0.36,0,0,1-.29-0.14,0.25,0.25,0,0,1-.06-0.06Z" transform="translate(582.14 -105.58)"/><path class="cls-1" d="M-526.55,291.72a0.6,0.6,0,0,1-.48-0.22,0.26,0.26,0,0,1-.09-0.11l-6.06-8.42v8.15a0.62,0.62,0,0,1-.61.61,0.62,0.62,0,0,1-.61-0.61v-9.92a0.61,0.61,0,0,1,.23-0.64,0.62,0.62,0,0,1,.87.15l6.14,8.51v-8.1a0.62,0.62,0,0,1,.61-0.61,0.62,0.62,0,0,1,.62.61v10A0.62,0.62,0,0,1-526.55,291.72Zm-7.1-10.23,7,9.69a0.15,0.15,0,0,0,.27-0.08v-10a0.14,0.14,0,0,0-.15-0.13,0.14,0.14,0,0,0-.14.13v9.57l-7-9.71a0.13,0.13,0,0,0-.11-0.06l-0.09,0a0.13,0.13,0,0,0,0,.15v10a0.14,0.14,0,0,0,.14.14,0.14,0.14,0,0,0,.14-0.14v-9.62Z" transform="translate(582.14 -105.58)"/><path class="cls-1" d="M-513.28,282.23v8.88a0.38,0.38,0,0,1-.37.37,0.38,0.38,0,0,1-.37-0.37v-10a0.37,0.37,0,0,1,.14-0.42,0.39,0.39,0,0,1,.53.09l6.57,9.11v-8.84a0.38,0.38,0,0,1,.37-0.37,0.38,0.38,0,0,1,.39.37v10a0.38,0.38,0,0,1-.39.37,0.36,0.36,0,0,1-.29-0.14,0.25,0.25,0,0,1-.06-0.06Z" transform="translate(582.14 -105.58)"/><path class="cls-1" d="M-506.41,291.72a0.6,0.6,0,0,1-.48-0.22,0.25,0.25,0,0,1-.09-0.11L-513,283v8.15a0.62,0.62,0,0,1-.61.61,0.62,0.62,0,0,1-.61-0.61v-9.92a0.61,0.61,0,0,1,.23-0.64,0.62,0.62,0,0,1,.87.15l6.14,8.51v-8.1a0.62,0.62,0,0,1,.61-0.61,0.62,0.62,0,0,1,.62.61v10A0.62,0.62,0,0,1-506.41,291.72Zm-7.1-10.23,7,9.69a0.15,0.15,0,0,0,.27-0.08v-10a0.14,0.14,0,0,0-.15-0.13,0.14,0.14,0,0,0-.14.13v9.57l-7-9.71a0.13,0.13,0,0,0-.11-0.06l-0.09,0a0.13,0.13,0,0,0,0,.15v10a0.14,0.14,0,0,0,.14.14,0.14,0.14,0,0,0,.14-0.14v-9.62Z" transform="translate(582.14 -105.58)"/><path class="cls-1" d="M-481.58,285a2.56,2.56,0,0,1-.68-1.75,2.62,2.62,0,0,1,2.62-2.62,2.62,2.62,0,0,1,2.62,2.62,0.38,0.38,0,0,1-.39.37,0.38,0.38,0,0,1-.37-0.37,1.86,1.86,0,0,0-1.86-1.86,1.86,1.86,0,0,0-1.86,1.86,1.86,1.86,0,0,0,.79,1.5,0.37,0.37,0,0,1,.12.45,0.34,0.34,0,0,1-.14.19l-0.12.06a2.79,2.79,0,0,0-1.5,2.48,2.8,2.8,0,0,0,2.79,2.79,2.8,2.8,0,0,0,2.79-2.79,2.84,2.84,0,0,0-.08-0.63,2.47,2.47,0,0,0-.47,0,2.38,2.38,0,0,0-1.74.48,1.08,1.08,0,0,0-.31.79,1.17,1.17,0,0,0,0,.33,0.4,0.4,0,0,1-.25.48l-0.11,0a0.36,0.36,0,0,1-.37-0.27,1.58,1.58,0,0,1-.08-0.56,1.75,1.75,0,0,1,.54-1.32,3.07,3.07,0,0,1,2.26-.71,3.14,3.14,0,0,1,.54,0h0.25a1.1,1.1,0,0,0,.43-0.17,0.69,0.69,0,0,0,.22-0.57,2.05,2.05,0,0,0,0-.4,0.36,0.36,0,0,1,.28-0.45,0.4,0.4,0,0,1,.47.28,4,4,0,0,1,0,.57,1.31,1.31,0,0,1-.53,1.16,2.27,2.27,0,0,1-.45.25,3.75,3.75,0,0,1,.08.73,3.56,3.56,0,0,1-3.55,3.55,3.56,3.56,0,0,1-3.55-3.55A3.59,3.59,0,0,1-481.58,285Z" transform="translate(582.14 -105.58)"/><path class="cls-1" d="M-479.56,291.72a3.79,3.79,0,0,1-3.79-3.79,3.82,3.82,0,0,1,1.43-3,2.79,2.79,0,0,1-.58-1.71,2.86,2.86,0,0,1,2.86-2.86,2.86,2.86,0,0,1,2.86,2.86,0.62,0.62,0,0,1-.62.61,0.62,0.62,0,0,1-.61-0.61,1.63,1.63,0,0,0-1.62-1.62,1.63,1.63,0,0,0-1.62,1.62,1.63,1.63,0,0,0,.69,1.31,0.61,0.61,0,0,1,.21.72,0.6,0.6,0,0,1-.22.3,0.77,0.77,0,0,1-.2.1,2.54,2.54,0,0,0-1.34,2.25,2.56,2.56,0,0,0,2.55,2.55,2.56,2.56,0,0,0,2.55-2.55,2.44,2.44,0,0,0,0-.42h-0.27a2.16,2.16,0,0,0-1.57.41,0.83,0.83,0,0,0-.24.62,1,1,0,0,0,0,.26,0.65,0.65,0,0,1-.4.77,0.52,0.52,0,0,1-.18,0,0.59,0.59,0,0,1-.6-0.44,2.18,2.18,0,0,1-.09-0.62,2,2,0,0,1,.62-1.49,3.33,3.33,0,0,1,2.42-.78,3.36,3.36,0,0,1,.59,0h0.2a0.88,0.88,0,0,0,.29-0.13,0.45,0.45,0,0,0,.12-0.38,1.72,1.72,0,0,0,0-.36,0.55,0.55,0,0,1,.06-0.43,0.62,0.62,0,0,1,.4-0.3,0.64,0.64,0,0,1,.75.44,4.21,4.21,0,0,1,.06.65,1.54,1.54,0,0,1-.62,1.36,2.62,2.62,0,0,1-.32.19,3.9,3.9,0,0,1,0,.59A3.79,3.79,0,0,1-479.56,291.72Zm-0.08-10.85a2.38,2.38,0,0,0-2.38,2.38,2.32,2.32,0,0,0,.62,1.59l0.19,0.2-0.22.16a3.35,3.35,0,0,0-1.43,2.73,3.32,3.32,0,0,0,3.31,3.31,3.32,3.32,0,0,0,3.31-3.31,3.4,3.4,0,0,0-.07-0.68l0-.19,0.18-.07a2,2,0,0,0,.4-0.22,1.08,1.08,0,0,0,.42-1,3.79,3.79,0,0,0,0-.55,0.18,0.18,0,0,0-.15-0.09,0.16,0.16,0,0,0-.12.07,0.1,0.1,0,0,0,0,.08,2.23,2.23,0,0,1,0,.47,0.92,0.92,0,0,1-.29.74,1.34,1.34,0,0,1-.56.24h-0.29a3.31,3.31,0,0,0-.54,0,2.88,2.88,0,0,0-2.09.65,1.53,1.53,0,0,0-.47,1.15,1.84,1.84,0,0,0,0,.42h0l0,0.07a0.12,0.12,0,0,0,.14.09,0.17,0.17,0,0,0,.13-0.21,1.36,1.36,0,0,1-.05-0.38,1.31,1.31,0,0,1,.38-1,2.67,2.67,0,0,1,1.9-.55,2.68,2.68,0,0,1,.51,0l0.15,0,0,0.15a3.08,3.08,0,0,1,.08.69,3,3,0,0,1-3,3,3,3,0,0,1-3-3,3,3,0,0,1,1.63-2.69l0.11-.05,0,0a0.16,0.16,0,0,0,0-.21,2.11,2.11,0,0,1-.88-1.69,2.1,2.1,0,0,1,2.1-2.1,2.1,2.1,0,0,1,2.1,2.1,0.14,0.14,0,0,0,.14.14,0.14,0.14,0,0,0,.15-0.14A2.38,2.38,0,0,0-479.64,280.87Z" transform="translate(582.14 -105.58)"/><path class="cls-1" d="M-453,289.45a0.33,0.33,0,0,1,.48,0A6,6,0,0,0-449,290.8a4.08,4.08,0,0,0,2.39-.71,2,2,0,0,0,.93-1.61,1.73,1.73,0,0,0-.88-1.49,7.16,7.16,0,0,0-2.51-.88h0a6.82,6.82,0,0,1-2.56-.91,2.25,2.25,0,0,1-1.12-1.89,2.53,2.53,0,0,1,1.13-2,4.44,4.44,0,0,1,2.62-.79,6,6,0,0,1,3.35,1.26,0.35,0.35,0,0,1,.09.48,0.33,0.33,0,0,1-.47.09,5.39,5.39,0,0,0-3-1.15,3.86,3.86,0,0,0-2.22.65,1.88,1.88,0,0,0-.85,1.49,1.57,1.57,0,0,0,.8,1.32,6.39,6.39,0,0,0,2.33.82h0a7.37,7.37,0,0,1,2.76,1,2.43,2.43,0,0,1,1.19,2,2.73,2.73,0,0,1-1.23,2.17,4.76,4.76,0,0,1-2.79.85,6.77,6.77,0,0,1-4-1.57A0.36,0.36,0,0,1-453,289.45Z" transform="translate(582.14 -105.58)"/><path class="cls-1" d="M-449,291.74h0a7.07,7.07,0,0,1-4.14-1.62,0.6,0.6,0,0,1-.09-0.81,0.58,0.58,0,0,1,.83-0.08,5.89,5.89,0,0,0,3.37,1.33,3.89,3.89,0,0,0,2.29-.67,1.78,1.78,0,0,0,.83-1.42,1.49,1.49,0,0,0-.78-1.29,6.9,6.9,0,0,0-2.42-.85,7,7,0,0,1-2.68-1A2.47,2.47,0,0,1-453,283.3a2.74,2.74,0,0,1,1.23-2.22,4.71,4.71,0,0,1,2.76-.83,6.25,6.25,0,0,1,3.48,1.29,0.58,0.58,0,0,1,.16.8,0.58,0.58,0,0,1-.8.16A5.16,5.16,0,0,0-449,281.4a3.64,3.64,0,0,0-2.08.61,1.65,1.65,0,0,0-.75,1.29,1.35,1.35,0,0,0,.7,1.12,6.17,6.17,0,0,0,2.23.78,7.47,7.47,0,0,1,2.88,1,2.68,2.68,0,0,1,1.3,2.24,3,3,0,0,1-1.32,2.36A5,5,0,0,1-449,291.74Zm-3.78-2.18a0.1,0.1,0,0,0-.08,0,0.12,0.12,0,0,0,0,.16,6.61,6.61,0,0,0,3.84,1.5,4.53,4.53,0,0,0,2.65-.81,2.49,2.49,0,0,0,1.13-2,2.19,2.19,0,0,0-1.09-1.85,7,7,0,0,0-2.67-1,6.48,6.48,0,0,1-2.45-.86,1.82,1.82,0,0,1-.91-1.51,2.12,2.12,0,0,1,.95-1.68,4.12,4.12,0,0,1,2.36-.7,5.64,5.64,0,0,1,3.11,1.19l0.06,0a0.09,0.09,0,0,0,.07,0,0.11,0.11,0,0,0,0-.16,5.79,5.79,0,0,0-3.21-1.21,4.25,4.25,0,0,0-2.48.74,2.28,2.28,0,0,0-1,1.84,2,2,0,0,0,1,1.69,6.54,6.54,0,0,0,2.47.88,7.27,7.27,0,0,1,2.63.92,2,2,0,0,1,1,1.69,2.24,2.24,0,0,1-1,1.8A4.34,4.34,0,0,1-449,291a6.39,6.39,0,0,1-3.71-1.45A0.1,0.1,0,0,0-452.77,289.56Z" transform="translate(582.14 -105.58)"/><path class="cls-1" d="M-433.49,281a0.38,0.38,0,0,1,.37-0.37,0.38,0.38,0,0,1,.39.37v6.09a3.64,3.64,0,0,0,3.61,3.63,3.65,3.65,0,0,0,3.64-3.63V281a0.38,0.38,0,0,1,.37-0.37,0.38,0.38,0,0,1,.39.37v6.09a4.4,4.4,0,0,1-4.4,4.39,4.39,4.39,0,0,1-4.37-4.39V281Z" transform="translate(582.14 -105.58)"/><path class="cls-1" d="M-429.12,291.72a4.62,4.62,0,0,1-4.61-4.62V281a0.62,0.62,0,0,1,.61-0.61,0.62,0.62,0,0,1,.62.61v6.09a3.41,3.41,0,0,0,3.38,3.39,3.42,3.42,0,0,0,3.4-3.39V281a0.61,0.61,0,0,1,.61-0.61,0.62,0.62,0,0,1,.62.61v6.09A4.64,4.64,0,0,1-429.12,291.72Zm-4-10.85a0.14,0.14,0,0,0-.13.14v6.09a4.15,4.15,0,0,0,4.13,4.15A4.16,4.16,0,0,0-425,287.1V281c0-.14-0.28-0.16-0.28,0v6.09a3.9,3.9,0,0,1-3.88,3.86A3.88,3.88,0,0,1-433,287.1V281A0.14,0.14,0,0,0-433.12,280.87Z" transform="translate(582.14 -105.58)"/><path class="cls-1" d="M-412.86,281a0.38,0.38,0,0,1,.37-0.37,0.38,0.38,0,0,1,.39.37v10.11a0.38,0.38,0,0,1-.39.37,0.38,0.38,0,0,1-.37-0.37V281Z" transform="translate(582.14 -105.58)"/><path class="cls-1" d="M-412.49,291.72a0.62,0.62,0,0,1-.61-0.61V281a0.62,0.62,0,0,1,.61-0.61,0.62,0.62,0,0,1,.62.61v10.11A0.62,0.62,0,0,1-412.49,291.72Zm0-10.85a0.14,0.14,0,0,0-.14.14v10.11a0.14,0.14,0,0,0,.14.14,0.14,0.14,0,0,0,.15-0.14V281A0.14,0.14,0,0,0-412.49,280.87Z" transform="translate(582.14 -105.58)"/><path class="cls-1" d="M-396.75,281.39H-400a0.38,0.38,0,0,1-.37-0.39,0.38,0.38,0,0,1,.37-0.37h7.29a0.38,0.38,0,0,1,.37.37,0.38,0.38,0,0,1-.37.39H-396v9.72a0.38,0.38,0,0,1-.37.37,0.38,0.38,0,0,1-.37-0.37v-9.72Z" transform="translate(582.14 -105.58)"/><path class="cls-1" d="M-396.38,291.72a0.62,0.62,0,0,1-.61-0.61v-9.48h-3a0.62,0.62,0,0,1-.61-0.62,0.62,0.62,0,0,1,.61-0.61h7.29a0.62,0.62,0,0,1,.61.61,0.62,0.62,0,0,1-.61.62h-3v9.48A0.62,0.62,0,0,1-396.38,291.72ZM-400,280.87a0.14,0.14,0,0,0-.14.14,0.14,0.14,0,0,0,.14.15h3.51v10a0.14,0.14,0,0,0,.14.14,0.14,0.14,0,0,0,.14-0.14v-10h3.51a0.14,0.14,0,0,0,.13-0.15,0.14,0.14,0,0,0-.13-0.14H-400Z" transform="translate(582.14 -105.58)"/><path class="cls-1" d="M-380.82,281a0.38,0.38,0,0,1,.37-0.37h5.58a0.37,0.37,0,0,1,.37.37,0.37,0.37,0,0,1-.37.39h-5.19v4.29h4.54a0.38,0.38,0,0,1,.37.39,0.38,0.38,0,0,1-.37.37h-4.54v4.28h5.19a0.37,0.37,0,0,1,.37.39,0.37,0.37,0,0,1-.37.37h-5.61a0.37,0.37,0,0,1-.34-0.37V281Z" transform="translate(582.14 -105.58)"/><path class="cls-1" d="M-374.87,291.72h-5.63a0.61,0.61,0,0,1-.56-0.61V281a0.62,0.62,0,0,1,.61-0.61h5.58a0.6,0.6,0,0,1,.61.61,0.61,0.61,0,0,1-.61.62h-5v3.82h4.3a0.62,0.62,0,0,1,.61.62,0.62,0.62,0,0,1-.61.61h-4.3v3.8h5a0.61,0.61,0,0,1,.61.62A0.6,0.6,0,0,1-374.87,291.72Zm-5.55-10.85a0.15,0.15,0,0,0-.17.14v10.11a0.14,0.14,0,0,0,.12.14h5.59a0.13,0.13,0,0,0,.14-0.14,0.14,0.14,0,0,0-.14-0.15h-5.43v-4.75h4.78a0.14,0.14,0,0,0,.14-0.14,0.14,0.14,0,0,0-.14-0.15h-4.78v-4.77h5.43a0.14,0.14,0,0,0,.14-0.15,0.13,0.13,0,0,0-.14-0.14h-5.55Z" transform="translate(582.14 -105.58)"/><path class="cls-1" d="M-363.43,289.45a0.33,0.33,0,0,1,.48,0,6,6,0,0,0,3.57,1.39,4.08,4.08,0,0,0,2.39-.71,2,2,0,0,0,.93-1.61A1.73,1.73,0,0,0-357,287a7.16,7.16,0,0,0-2.51-.88h0a6.82,6.82,0,0,1-2.56-.91,2.25,2.25,0,0,1-1.12-1.89,2.53,2.53,0,0,1,1.13-2,4.44,4.44,0,0,1,2.62-.79,6,6,0,0,1,3.35,1.26,0.35,0.35,0,0,1,.09.48,0.33,0.33,0,0,1-.47.09,5.39,5.39,0,0,0-3-1.15,3.86,3.86,0,0,0-2.22.65,1.88,1.88,0,0,0-.85,1.49,1.57,1.57,0,0,0,.8,1.32,6.39,6.39,0,0,0,2.33.82h0a7.37,7.37,0,0,1,2.76,1,2.43,2.43,0,0,1,1.19,2,2.73,2.73,0,0,1-1.23,2.17,4.76,4.76,0,0,1-2.79.85,6.77,6.77,0,0,1-4-1.57A0.36,0.36,0,0,1-363.43,289.45Z" transform="translate(582.14 -105.58)"/><path class="cls-1" d="M-359.38,291.74h0a7.07,7.07,0,0,1-4.14-1.62,0.6,0.6,0,0,1-.09-0.81,0.58,0.58,0,0,1,.83-0.08,5.89,5.89,0,0,0,3.37,1.33,3.89,3.89,0,0,0,2.29-.67,1.78,1.78,0,0,0,.83-1.42,1.49,1.49,0,0,0-.78-1.29,6.9,6.9,0,0,0-2.42-.85,7,7,0,0,1-2.68-1,2.47,2.47,0,0,1-1.22-2.09,2.74,2.74,0,0,1,1.23-2.22,4.71,4.71,0,0,1,2.76-.83,6.25,6.25,0,0,1,3.48,1.29,0.58,0.58,0,0,1,.16.8,0.58,0.58,0,0,1-.8.16,5.16,5.16,0,0,0-2.84-1.11,3.64,3.64,0,0,0-2.08.61,1.65,1.65,0,0,0-.75,1.29,1.35,1.35,0,0,0,.7,1.12,6.17,6.17,0,0,0,2.23.78,7.47,7.47,0,0,1,2.88,1,2.68,2.68,0,0,1,1.3,2.24,3,3,0,0,1-1.32,2.36A5,5,0,0,1-359.38,291.74Zm-3.78-2.18a0.1,0.1,0,0,0-.08,0,0.12,0.12,0,0,0,0,.16,6.61,6.61,0,0,0,3.84,1.5,4.53,4.53,0,0,0,2.65-.81,2.49,2.49,0,0,0,1.13-2,2.19,2.19,0,0,0-1.09-1.85,7,7,0,0,0-2.67-1,6.48,6.48,0,0,1-2.45-.86,1.82,1.82,0,0,1-.91-1.51,2.12,2.12,0,0,1,.95-1.68,4.12,4.12,0,0,1,2.36-.7,5.64,5.64,0,0,1,3.11,1.19l0.06,0a0.09,0.09,0,0,0,.07,0,0.11,0.11,0,0,0,0-.16,5.79,5.79,0,0,0-3.21-1.21,4.25,4.25,0,0,0-2.48.74,2.28,2.28,0,0,0-1,1.84,2,2,0,0,0,1,1.69,6.54,6.54,0,0,0,2.47.88,7.27,7.27,0,0,1,2.63.92,2,2,0,0,1,1,1.69,2.24,2.24,0,0,1-1,1.8,4.34,4.34,0,0,1-2.53.76,6.39,6.39,0,0,1-3.71-1.45A0.1,0.1,0,0,0-363.17,289.56Z" transform="translate(582.14 -105.58)"/><path class="cls-1" d="M-572.36,263a0.9,0.9,0,0,1-.5-0.55L-582,240.58a1.21,1.21,0,0,1,.6-1.55,1.18,1.18,0,0,1,1.55.65l8.14,19.27,5.64-13.43a1.32,1.32,0,0,1,1.15-.75,1.33,1.33,0,0,1,1.2.75l5.64,13.43,8.09-19.27a1.21,1.21,0,0,1,1.55-.65,1.19,1.19,0,0,1,.65,1.55L-557,262.35a1.37,1.37,0,0,1-.45.6,1,1,0,0,1-.6.25h-0.25a1.15,1.15,0,0,1-.95-0.75l-0.05-.05L-565,248.87l-5.64,13.48a0.17,0.17,0,0,0-.05.1,1.18,1.18,0,0,1-1,.75,1.44,1.44,0,0,1-.45-0.1A0.26,0.26,0,0,1-572.36,263Z" transform="translate(582.14 -105.58)"/><path class="cls-1" d="M-539.82,251a12.06,12.06,0,0,1,11.88-12.28,12,12,0,0,1,11.78,11.38v0.2a1.13,1.13,0,0,1-1.2,1.1h-20.07a9.62,9.62,0,0,0,9.49,9.39,9.2,9.2,0,0,0,7.89-4.45,1.16,1.16,0,0,1,1.6-.4,1.27,1.27,0,0,1,.4,1.7,11.66,11.66,0,0,1-9.88,5.54A12,12,0,0,1-539.82,251Zm2.55-1.95h18.52a9.45,9.45,0,0,0-9.19-7.94A9.55,9.55,0,0,0-537.28,249.07Z" transform="translate(582.14 -105.58)"/><path class="cls-1" d="M-510.38,258.1a1.19,1.19,0,0,1,1.7-.15,13.09,13.09,0,0,0,7.49,2.85,7.39,7.39,0,0,0,4.64-1.5,3.71,3.71,0,0,0,1.85-3,3.86,3.86,0,0,0-1.75-3,12.15,12.15,0,0,0-5.19-1.8l-0.1-.05a13.9,13.9,0,0,1-5.54-1.9,5.11,5.11,0,0,1-2.65-4.39,6.07,6.07,0,0,1,2.65-4.79,10.52,10.52,0,0,1,6-1.65c3.15,0,5.39,1.45,7.29,2.65a1.27,1.27,0,0,1,.35,1.7,1.2,1.2,0,0,1-1.65.35c-1.8-1.2-3.6-2.45-6-2.45a7.36,7.36,0,0,0-4.64,1.4,3.68,3.68,0,0,0-1.55,2.8,3,3,0,0,0,1.4,2.45,12.28,12.28,0,0,0,5,1.7h0.1a17,17,0,0,1,5.94,2,6.11,6.11,0,0,1,2.75,5,6.22,6.22,0,0,1-2.8,4.94,10,10,0,0,1-6.09,1.95,14.85,14.85,0,0,1-9-3.5A1.12,1.12,0,0,1-510.38,258.1Z" transform="translate(582.14 -105.58)"/><path class="cls-1" d="M-476.58,239.93a1.29,1.29,0,0,1-1.2,1.2h-3.15V259a1.91,1.91,0,0,0,1.8,1.8,1.38,1.38,0,0,1,1.25,1.25,1.34,1.34,0,0,1-1.25,1.2,4.16,4.16,0,0,1-4.29-4.24V241.13h-3a1,1,0,0,1-1.2-1.2,1,1,0,0,1,1.2-1.2h3v-9.09a1.29,1.29,0,0,1,1.2-1.2,1.35,1.35,0,0,1,1.3,1.2v9.09h3.15A1.29,1.29,0,0,1-476.58,239.93Z" transform="translate(582.14 -105.58)"/><path class="cls-1" d="M-466.15,251.51V229.45a1.22,1.22,0,0,1,1.2-1.2,1.23,1.23,0,0,1,1.25,1.2v14.08a11.67,11.67,0,0,1,9.39-4.79A12,12,0,0,1-442.49,251a12,12,0,0,1-11.83,12.18,11.63,11.63,0,0,1-9.39-4.74V262a1.23,1.23,0,0,1-1.25,1.2,1.21,1.21,0,0,1-1.2-1.2V251.51Zm2.45-.5a9.58,9.58,0,0,0,9.39,9.74,9.55,9.55,0,0,0,9.39-9.74,9.61,9.61,0,0,0-9.39-9.84,9.62,9.62,0,0,0-9.39,9.44V251Z" transform="translate(582.14 -105.58)"/><path class="cls-1" d="M-434.21,240a1.19,1.19,0,0,1,1.25-1.2,1.17,1.17,0,0,1,1.15,1.2v5.39a3.76,3.76,0,0,1,.35-0.6c1.85-2.9,5.09-6,9.79-6a1.18,1.18,0,0,1,1.2,1.2,1.21,1.21,0,0,1-1.2,1.2c-3.2,0-5.39,1.8-7.09,4a22,22,0,0,0-2.94,5.69,0.75,0.75,0,0,0-.1.4V262a1.17,1.17,0,0,1-1.15,1.2,1.19,1.19,0,0,1-1.25-1.2V240Z" transform="translate(582.14 -105.58)"/><path class="cls-1" d="M-413.25,231.94a1.21,1.21,0,0,1,1.2-1.2,1.23,1.23,0,0,1,1.25,1.2v1.15a1.28,1.28,0,0,1-1.25,1.3,1.27,1.27,0,0,1-1.2-1.3v-1.15Zm0,8a1.18,1.18,0,0,1,1.2-1.2,1.19,1.19,0,0,1,1.25,1.2V262a1.23,1.23,0,0,1-1.25,1.2,1.21,1.21,0,0,1-1.2-1.2V239.93Z" transform="translate(582.14 -105.58)"/><path class="cls-1" d="M-380.7,258.45a11.63,11.63,0,0,1-9.39,4.74A12,12,0,0,1-401.92,251a12,12,0,0,1,11.83-12.28,11.67,11.67,0,0,1,9.39,4.79V229.45a1.23,1.23,0,0,1,1.25-1.2,1.22,1.22,0,0,1,1.2,1.2V262a1.21,1.21,0,0,1-1.2,1.2,1.23,1.23,0,0,1-1.25-1.2v-3.55Zm0-7v-0.8a9.62,9.62,0,0,0-9.39-9.44,9.64,9.64,0,0,0-9.39,9.84,9.58,9.58,0,0,0,9.39,9.74A9.56,9.56,0,0,0-380.7,251.41Z" transform="translate(582.14 -105.58)"/><path class="cls-1" d="M-347,261.25a11.5,11.5,0,0,1-11.53,11.48,12.65,12.65,0,0,1-5.09-1.15,1.29,1.29,0,0,1-.5-1.6,1.11,1.11,0,0,1,1.6-.55,8.85,8.85,0,0,0,4,.9,9.07,9.07,0,0,0,9.14-9.09v-3a11.08,11.08,0,0,1-9.14,4.79c-6.39,0-11.48-5.44-11.48-12.18,0-6.59,5.09-12.13,11.48-12.13a11.21,11.21,0,0,1,9.14,4.79v-3.6a1.23,1.23,0,0,1,1.25-1.2,1.21,1.21,0,0,1,1.15,1.2v21.32Zm-2.4-10.38c0-5.44-4.09-9.74-9.14-9.74s-9.08,4.29-9.08,9.74,4.09,9.84,9.08,9.84S-349.35,256.36-349.35,250.86Z" transform="translate(582.14 -105.58)"/><path class="cls-1" d="M-339.13,251a12.06,12.06,0,0,1,11.88-12.28,12,12,0,0,1,11.78,11.38v0.2a1.13,1.13,0,0,1-1.2,1.1h-20.07a9.62,9.62,0,0,0,9.49,9.39,9.2,9.2,0,0,0,7.89-4.45,1.16,1.16,0,0,1,1.6-.4,1.27,1.27,0,0,1,.4,1.7,11.66,11.66,0,0,1-9.88,5.54A12,12,0,0,1-339.13,251Zm2.55-1.95h18.52a9.45,9.45,0,0,0-9.19-7.94A9.55,9.55,0,0,0-336.58,249.07Z" transform="translate(582.14 -105.58)"/></svg>