<svg id="Layer_1" data-name="Layer 1" xmlns="http://www.w3.org/2000/svg" viewBox="0 0 320.71 320.67"><defs><style>.cls-1{fill:#fff;}</style></defs><title>Beljoy-logo</title><path class="cls-1" d="M-288.72,311.25l0-1.65,1.63,0,0,1.65Zm-6.61,0-1.65,0,0.06-1.65,1.63,0Zm14.85-.31-0.11-1.65,1.63-.12,0.13,1.64Zm-23.1-.11-1.65-.13,0.14-1.64,1.63,0.13Zm31.31-.65-0.19-1.64,1.62-.2,0.21,1.64Zm-39.53-.19-1.64-.22,0.22-1.63,1.62,0.21Zm47.7-1-0.28-1.63,1.61-.28,0.3,1.62Zm-55.86-.26-1.62-.3,0.31-1.62,1.61,0.3Zm64-1.34-0.36-1.61,1.59-.37,0.38,1.6Zm-72-.34-1.61-.38,0.39-1.6,1.59,0.38Zm80-1.68-0.44-1.59,1.57-.45,0.46,1.58Zm-88-.41-1.58-.47,0.48-1.58,1.57,0.46Zm95.93-2-0.53-1.56,1.54-.53,0.54,1.56Zm-103.81-.5-1.56-.55,0.56-1.55,1.55,0.55Zm111.57-2.34-0.61-1.53,1.52-.61,0.62,1.53Zm-119.32-.58-1.53-.63,0.64-1.52L-351,298Zm126.89-2.65-0.68-1.5,1.48-.68,0.7,1.49Zm-134.47-.67-1.5-.71L-360,294l1.48,0.7Zm141.88-2.94-0.76-1.46,1.44-.76,0.78,1.45Zm-149.28-.76-1.46-.79,0.79-1.45,1.44,0.78Zm156.48-3.23-0.84-1.42,1.4-.83,0.85,1.41Zm-163.68-.85-1.41-.86,0.86-1.4L-373,287Zm170.68-3.51-0.91-1.38,1.36-.9,0.92,1.37ZM-380.79,284l-1.37-.93,0.94-1.36,1.35,0.92Zm184.41-3.78-1-1.33,1.31-1,1,1.32Zm-191.14-1-1.32-1,1-1.31,1.3,1Zm197.66-4-1-1.28,1.26-1,1.06,1.27ZM-394,274.05l-1.26-1.07,1.07-1.25,1.25,1.05Zm210.39-4.29-1.1-1.22,1.2-1.1,1.12,1.21ZM-400.2,268.6l-1.21-1.13,1.13-1.2,1.19,1.12Zm222.56-4.54-1.17-1.16,1.15-1.16,1.18,1.15Zm-228.47-1.22-1.15-1.19,1.19-1.14,1.13,1.18ZM-172,258.06l-1.23-1.1,1.09-1.23,1.24,1.09Zm-239.76-1.28-1.08-1.24,1.25-1.08,1.07,1.23Zm245.12-5-1.28-1,1-1.28,1.3,1ZM-417,250.45l-1-1.3,1.3-1,1,1.28Zm255.44-5.22-1.34-1,1-1.33,1.34,1ZM-422,243.85l-1-1.35,1.35-.94,0.94,1.33Zm265.09-5.42-1.38-.9,0.89-1.37L-156,237ZM-426.57,237l-0.88-1.39,1.4-.87,0.87,1.38Zm274-5.63-1.43-.83,0.82-1.42,1.43,0.82ZM-430.83,230l-0.81-1.44,1.44-.8,0.8,1.42Zm282.26-5.82-1.47-.75,0.74-1.46,1.48,0.74Zm-286.14-1.45-0.73-1.48,1.48-.72,0.72,1.46Zm289.73-6-1.5-.68q0.34-.74.67-1.49l1.51,0.66Q-144.64,215.93-145,216.68Zm-293.23-1.45-0.65-1.51,1.52-.65,0.65,1.49ZM-141.78,209l-1.54-.6q0.3-.76.59-1.53l1.54,0.58Q-141.47,208.28-141.78,209Zm-299.54-1.44-0.58-1.55,1.55-.57,0.57,1.53ZM-139,201.26l-1.57-.52q0.26-.78.51-1.56l1.57,0.5C-138.64,200.21-138.8,200.74-139,201.26ZM-444,199.82q-0.25-.79-0.5-1.58l1.58-.49q0.24,0.78.49,1.56Zm307.44-6.47-1.59-.43q0.22-.79.42-1.58l1.59,0.42Q-136.37,192.55-136.59,193.35Zm-309.75-1.46-0.41-1.6,1.6-.41,0.41,1.58Zm311.72-6.56-1.61-.35q0.17-.8.34-1.6l1.61,0.34Q-134.44,184.53-134.62,185.33Zm-313.62-1.48q-0.17-.81-0.33-1.62l1.62-.32q0.16,0.8.33,1.6Zm315.18-6.63-1.63-.27,0.26-1.61,1.63,0.25Zm-316.65-1.49L-450,174.1l1.63-.24,0.24,1.62ZM-131.93,169l-1.64-.18,0.18-1.63,1.64,0.17Zm-318.85-1.5c-0.06-.55-0.11-1.1-0.16-1.65l1.64-.15c0,0.54.1,1.09,0.16,1.63Zm319.56-6.72-1.65-.1q0.05-.81.09-1.63l1.65,0.08Q-131.17,160-131.22,160.82Zm-320.19-1.51c0-.55-0.05-1.1-0.08-1.65l1.65-.07q0,0.82.08,1.63Zm320.48-6.74-1.65,0v-1.92h1.65v1.93ZM-451.09,151l-0.53-.08v-1.53l1.65,0v1.49Zm318.38-6.91q0-.82-0.08-1.63l1.65-.09q0,0.82.08,1.65Zm-317.07-1.21-1.65-.08c0-.55.06-1.1,0.09-1.65l1.65,0.1Q-449.74,142.07-449.78,142.89ZM-133.26,136l-0.16-1.63,1.64-.17,0.16,1.64Zm-315.9-1.21-1.64-.17,0.17-1.64,1.64,0.18Zm314.93-6.9-0.24-1.62,1.63-.25,0.25,1.63Zm-313.9-1.2-1.63-.25c0.08-.54.17-1.09,0.26-1.63l1.63,0.27Q-448,125.83-448.13,126.64Zm312.51-6.85c-0.11-.53-0.21-1.07-0.33-1.6l1.61-.34q0.17,0.81.33,1.62Zm-311.06-1.19-1.62-.34q0.17-.81.34-1.62l1.61,0.35C-446.46,117.53-446.57,118.06-446.68,118.6Zm309.27-6.78-0.41-1.58,1.59-.42,0.41,1.6Zm-307.4-1.18-1.6-.42q0.21-.8.43-1.6l1.59,0.43Q-444.61,109.85-444.82,110.64ZM-139.63,104q-0.24-.78-0.49-1.56l1.57-.5q0.25,0.79.49,1.58Zm-302.92-1.16-1.57-.5q0.25-.79.51-1.58l1.57,0.52Zm300.3-6.58-0.57-1.53,1.54-.58,0.58,1.54Zm-297.61-1.16-1.54-.58,0.59-1.55,1.54,0.6Q-439.57,94.28-439.86,95.05Zm294.61-6.42-0.65-1.49,1.51-.66c0.22,0.5.44,1,.65,1.51Zm-291.52-1.17-1.51-.66,0.67-1.51,1.5,0.68Zm288.13-6.24-0.72-1.46,1.48-.74,0.73,1.48ZM-433.31,80l-1.48-.74,0.75-1.48,1.47,0.75Zm280.89-6-0.8-1.42,1.43-.82L-151,73.2Zm-277-1.18L-430.9,72l0.82-1.44,1.43,0.83ZM-156.56,67l-0.87-1.38,1.39-.89,0.88,1.39Zm-268.69-1.16-1.39-.89,0.9-1.39,1.38,0.9Zm264.19-5.65L-162,58.83l1.34-1,1,1.35ZM-420.68,59l-1.34-1,1-1.34,1.34,1Zm254.77-5.43-1-1.28,1.29-1,1,1.3Zm-249.86-1.11-1.29-1,1-1.29,1.28,1Zm244.69-5.2L-172.15,46l1.24-1.09,1.08,1.24ZM-410.53,46.2l-1.24-1.09,1.1-1.23,1.23,1.1Zm234-5-1.13-1.18,1.18-1.15,1.15,1.19Zm-228.4-1-1.18-1.15,1.16-1.18,1.17,1.16Zm222.61-4.73-1.19-1.11,1.12-1.21,1.21,1.13Zm-216.76-1-1.12-1.21,1.22-1.12,1.11,1.22ZM-188.46,30L-189.71,29l1.06-1.27,1.26,1.06ZM-393,29.1l-1.06-1.27,1.27-1.05,1,1.28Zm198.19-4.22-1.3-1,1-1.32,1.32,1ZM-386.61,24l-1-1.32,1.32-1,1,1.33Zm185.18-4-1.35-.92,0.92-1.37,1.37,0.93ZM-380,19.29l-0.92-1.37,1.37-.92,0.91,1.38Zm171.67-3.68-1.4-.85,0.85-1.41,1.41,0.86Zm-164.79-.71-0.85-1.41,1.41-.84,0.84,1.42Zm157.71-3.39-1.44-.78L-216,9.28l1.46,0.78ZM-366,10.87l-0.78-1.45,1.46-.77,0.76,1.46Zm143.34-3.09-1.48-.7,0.7-1.49,1.5,0.71Zm-136.05-.56-0.7-1.49,1.49-.69,0.68,1.5Zm128.58-2.79-1.52-.62L-231,2.27l1.53,0.63Zm-121.12-.48-0.63-1.53,1.54-.62,0.61,1.53Zm113.48-2.48-1.55-.54,0.54-1.56,1.56,0.55ZM-343.6,1l-0.54-1.56,1.56-.54,0.53,1.56Zm98.05-2.15-1.57-.46,0.45-1.58,1.59,0.47Zm-90.27-.34L-336.28-3l1.59-.45,0.45,1.59Zm82.39-1.8L-255-3.63l0.37-1.61L-253-4.85Zm-74.49-.29-0.38-1.6,1.61-.37,0.36,1.61ZM-261.42-5l-1.61-.3,0.29-1.62,1.63,0.3Zm-58.51-.22-0.3-1.62,1.63-.29,0.28,1.63Zm50.44-1.1-1.62-.21,0.21-1.64,1.63,0.22Zm-42.37-.16-0.21-1.64,1.64-.2,0.19,1.64Zm34.25-.74-1.63-.13L-279.11-9l1.65,0.13Zm-26.12-.1L-303.85-9l1.65-.12,0.11,1.65Zm18-.39-1.63,0,0-1.65,1.65,0Zm-9.8,0,0-1.65,1.65,0,0,1.65Z" transform="translate(451.63 9.41)"/><path class="cls-1" d="M-357.64,145.72a3.58,3.58,0,0,0,1.17-2.9,3.18,3.18,0,0,0-1.26-2.81,7.88,7.88,0,0,0-4.31-.87h-4.83v7.57h5.33A6,6,0,0,0-357.64,145.72Z" transform="translate(451.63 9.41)"/><path class="cls-1" d="M-244.5,141.38a6.71,6.71,0,0,0-2.43-2,7.56,7.56,0,0,0-3.35-.7,7.74,7.74,0,0,0-3.4.7,6.66,6.66,0,0,0-2.45,2,8.94,8.94,0,0,0-1.48,3.13,15.71,15.71,0,0,0-.48,4,15.85,15.85,0,0,0,.48,4.07,8.94,8.94,0,0,0,1.46,3.12,6.58,6.58,0,0,0,2.43,2,7.8,7.8,0,0,0,3.43.7,7.64,7.64,0,0,0,3.37-.7,6.57,6.57,0,0,0,2.43-2,9.14,9.14,0,0,0,1.48-3.12,15.34,15.34,0,0,0,.5-4.07,15.2,15.2,0,0,0-.5-4A9.17,9.17,0,0,0-244.5,141.38Z" transform="translate(451.63 9.41)"/><path class="cls-1" d="M-361.2,149.32h-5.66V158h5.43a10.42,10.42,0,0,0,2.73-.3,4.55,4.55,0,0,0,1.74-.86,2.87,2.87,0,0,0,.9-1.34,5.89,5.89,0,0,0,.25-1.79,4.14,4.14,0,0,0-1.24-3.23A6.15,6.15,0,0,0-361.2,149.32Z" transform="translate(451.63 9.41)"/><path class="cls-1" d="M-291.27,36.26A114.66,114.66,0,0,0-405.93,150.92,114.66,114.66,0,0,0-291.27,265.57,114.66,114.66,0,0,0-176.62,150.92,114.66,114.66,0,0,0-291.27,36.26Zm-41,93.82h3.62l-4.63,4.52h-2.92Zm-20.86,26.22a5.53,5.53,0,0,1-1.46,2.2,7,7,0,0,1-2.65,1.47,13.25,13.25,0,0,1-4.06.54h-8.56V136.59h7.94a15.09,15.09,0,0,1,4.19.48,7,7,0,0,1,2.6,1.31,4.31,4.31,0,0,1,1.32,1.94,7.64,7.64,0,0,1,.37,2.4,5.83,5.83,0,0,1-.75,2.95,5.6,5.6,0,0,1-2.61,2.18,7.8,7.8,0,0,1,2,1.09,5.68,5.68,0,0,1,1.28,1.37,4.84,4.84,0,0,1,.67,1.58,7.69,7.69,0,0,1,.19,1.69A8,8,0,0,1-353.14,156.31Zm27.46,4.21h-15.65V136.59h15.52v2.68h-12.4v7.54h11.73v2.75h-11.73v8.28h13Zm26.67,0h-15V136.59h3.12v21.18h12.4Zm26.14-7.87q0,4.26-2.19,6.37a8.27,8.27,0,0,1-6,2.11,8.91,8.91,0,0,1-6-1.88q-2.21-1.88-2.58-5.9h3.12a9.35,9.35,0,0,0,.47,2,4.6,4.6,0,0,0,1,1.61,4.28,4.28,0,0,0,1.58,1.06,6.32,6.32,0,0,0,2.36.38q2.81,0,4-1.57A7.43,7.43,0,0,0-276,152.4V136.59h3.12v16.05Zm32.79,1.22a11.16,11.16,0,0,1-2.23,4,9.43,9.43,0,0,1-3.47,2.45,11.71,11.71,0,0,1-4.51.84,11.81,11.81,0,0,1-4.47-.82,9.48,9.48,0,0,1-3.49-2.41,11.05,11.05,0,0,1-2.26-3.94,16.5,16.5,0,0,1-.81-5.36,16.18,16.18,0,0,1,.82-5.36,11.44,11.44,0,0,1,2.28-4,9.57,9.57,0,0,1,3.49-2.45,11.54,11.54,0,0,1,4.44-.84,11.81,11.81,0,0,1,4.47.82,9.35,9.35,0,0,1,3.47,2.41,11.22,11.22,0,0,1,2.25,3.92,16.34,16.34,0,0,1,.8,5.34A17,17,0,0,1-240.07,153.86Zm20.36-3.5v10.15h-3.12V150.36l-8.35-13.77h3.55l6.33,11.06,6.5-11.06h3.25Z" transform="translate(451.63 9.41)"/><path class="cls-1" d="M-183.08,234.68a1.76,1.76,0,0,1,.46.54,1.65,1.65,0,0,1,.2.63,1.66,1.66,0,0,1-.07.66,1.9,1.9,0,0,1-.34.63,1.84,1.84,0,0,1-.53.46,1.59,1.59,0,0,1-.62.21,1.71,1.71,0,0,1-.66-0.06,1.74,1.74,0,0,1-.63-0.33,1.89,1.89,0,0,1-.48-0.55,1.7,1.7,0,0,1-.21-0.63,1.61,1.61,0,0,1,.06-0.65,1.85,1.85,0,0,1,.33-0.62,1.91,1.91,0,0,1,.54-0.47,1.6,1.6,0,0,1,.63-0.21,1.59,1.59,0,0,1,.67.06A1.89,1.89,0,0,1-183.08,234.68Z" transform="translate(451.63 9.41)"/><path class="cls-1" d="M-206.13,264l-0.66.47-2.48-3.46-4.43,3.17,2.48,3.46-0.66.47-5.6-7.82,0.66-.47,2.67,3.73,4.43-3.17-2.67-3.73,0.66-.47Z" transform="translate(451.63 9.41)"/><path class="cls-1" d="M-224.46,275.67l-0.86.45-7.87-6.7,0.78-.42,2.4,2,4-2.12-0.37-3.13,0.76-.4Zm-4.92-4.09,4.11,3.5-0.64-5.35Z" transform="translate(451.63 9.41)"/><path class="cls-1" d="M-238.16,282.09l-0.75.3-3.58-8.92,0.75-.3Z" transform="translate(451.63 9.41)"/><path class="cls-1" d="M-252.09,286.12l3.21-.92,0.21,0.72-7.18,2.06-0.21-.72,3.2-.91-2.44-8.52,0.78-.22Z" transform="translate(451.63 9.41)"/><path class="cls-1" d="M-266,290.15l-0.8.14-1.68-9.46,0.79-.14Z" transform="translate(451.63 9.41)"/><path class="cls-1" d="M-280.87,292l-1,.07-4.46-9.32,0.89-.06,1.36,2.85,4.51-.32,0.94-3,0.86-.06Zm-2.83-5.74,2.32,4.87,1.6-5.14Z" transform="translate(451.63 9.41)"/><path class="cls-1" d="M-296.52,292.35l-0.9-.05-4.85-8.64-0.52,8.3-0.81,0,0.6-9.59,0.89,0.06,4.86,8.66,0.52-8.33,0.81,0.05Z" transform="translate(451.63 9.41)"/><path class="cls-1" d="M-326.85,287.94l-1-.3-0.9-9.28-5.82,7.31-1-.28,2.71-9.22,0.75,0.22-2.32,7.91c0.07-.07.3-0.36,0.7-0.87l0.67-.84,1-1.24,1.38-1.72,1.83-2.29,0.75,0.22,0.92,8.8,2.3-7.85,0.75,0.22Z" transform="translate(451.63 9.41)"/><path class="cls-1" d="M-349.4,279.94l-0.88-.4,0.52-10.32,0.81,0.37-0.16,3.15,4.12,1.87,2.25-2.2,0.78,0.36Zm0.24-6.39-0.27,5.39,3.85-3.77Z" transform="translate(451.63 9.41)"/><path class="cls-1" d="M-363.29,272.8l-2.75-1.72a5.4,5.4,0,0,1-1.39-1.21,3.5,3.5,0,0,1-.69-1.47,4,4,0,0,1,.05-1.71,6.44,6.44,0,0,1,.86-1.94,6.4,6.4,0,0,1,1.41-1.64,4,4,0,0,1,1.6-.8,3.85,3.85,0,0,1,1.73,0,5.81,5.81,0,0,1,1.79.77l2.5,1.57Zm2.18-9.12a3.51,3.51,0,0,0-3-.6,4.59,4.59,0,0,0-2.38,2.1,4.69,4.69,0,0,0-.88,3,3.2,3.2,0,0,0,1.69,2.3l2.06,1.29,4.33-6.91Z" transform="translate(451.63 9.41)"/><path class="cls-1" d="M-379,262l-4.65-3.84,0.46-.56,4,3.32,2.25-2.73-3.82-3.15,0.49-.59,3.82,3.15,2.43-2.95-4.21-3.47,0.63-.46,4.68,3.86Z" transform="translate(451.63 9.41)"/><path class="cls-1" d="M-402.44,230.65a1.82,1.82,0,0,1-.65.29,1.66,1.66,0,0,1-.67,0,1.63,1.63,0,0,1-.61-0.25,1.88,1.88,0,0,1-.51-0.5,1.85,1.85,0,0,1-.29-0.63,1.62,1.62,0,0,1,0-.66,1.66,1.66,0,0,1,.24-0.62,1.79,1.79,0,0,1,.5-0.51,1.91,1.91,0,0,1,.67-0.3,1.7,1.7,0,0,1,.67,0,1.61,1.61,0,0,1,.61.25,1.85,1.85,0,0,1,.5.49,1.92,1.92,0,0,1,.3.65,1.7,1.7,0,0,1,0,.66,1.64,1.64,0,0,1-.25.62A1.86,1.86,0,0,1-402.44,230.65Z" transform="translate(451.63 9.41)"/><path class="cls-1" d="M-422.62,203.7l-1.06-2.82a5.3,5.3,0,0,1-.39-1.67,2.84,2.84,0,0,1,.18-1.19,1.87,1.87,0,0,1,.6-0.78,3.29,3.29,0,0,1,.84-0.47,2.83,2.83,0,0,1,1.61-.17,2.53,2.53,0,0,1,1.39.91L-416,194l0.34,0.89-3.31,3.31,0.21,0.42c0.07,0.15.14,0.3,0.2,0.47l0.74,2,3.93-1.48,0.29,0.76Zm3.28-4.58a4.29,4.29,0,0,0-.56-1.08,1.83,1.83,0,0,0-.65-0.57,1.47,1.47,0,0,0-.74-0.14,2.9,2.9,0,0,0-.84.2,2.56,2.56,0,0,0-.73.4,1.29,1.29,0,0,0-.41.61,2,2,0,0,0-.05.88,5.7,5.7,0,0,0,.34,1.23l0.76,2,3.7-1.39Z" transform="translate(451.63 9.41)"/><path class="cls-1" d="M-427.71,188.59l-1.48-5.85,0.7-.18,1.29,5.06,3.43-.87L-425,182l0.74-.19,1.22,4.8,3.71-.94-1.34-5.28h0.78l1.49,5.89Z" transform="translate(451.63 9.41)"/><path class="cls-1" d="M-424,172.37a2.3,2.3,0,0,0,1.41-1.13,3.83,3.83,0,0,0,.18-2.17,3.8,3.8,0,0,0-.33-1.17,2,2,0,0,0-.53-0.69,1.54,1.54,0,0,0-.68-0.31,2.41,2.41,0,0,0-.78,0,2.56,2.56,0,0,0-.62.16,1.32,1.32,0,0,0-.51.35,1.76,1.76,0,0,0-.35.65,3.87,3.87,0,0,0-.15,1.06l0,1.21a8.07,8.07,0,0,1-.14,1.28,3.05,3.05,0,0,1-.36,1,2,2,0,0,1-.67.67,2.89,2.89,0,0,1-1.08.34,2.26,2.26,0,0,1-1.17-.12,2.41,2.41,0,0,1-.89-0.62,3.37,3.37,0,0,1-.62-1,5.45,5.45,0,0,1-.34-1.29,4.91,4.91,0,0,1,0-1.52,3,3,0,0,1,.38-1.06,2.39,2.39,0,0,1,.65-0.7,4.38,4.38,0,0,1,.77-0.45l0.32,0.72a4.17,4.17,0,0,0-.7.42,1.74,1.74,0,0,0-.49.56,2.17,2.17,0,0,0-.24.8,4.46,4.46,0,0,0,0,1.13,4.63,4.63,0,0,0,.31,1.21,2.23,2.23,0,0,0,.5.75,1.41,1.41,0,0,0,.65.36,1.94,1.94,0,0,0,.74,0,2.27,2.27,0,0,0,.68-0.19,1.15,1.15,0,0,0,.46-0.39,1.81,1.81,0,0,0,.27-0.66,5.51,5.51,0,0,0,.12-1l0.05-1.39a6.59,6.59,0,0,1,.17-1.3,2.86,2.86,0,0,1,.42-1,2,2,0,0,1,.71-0.62,3.13,3.13,0,0,1,1-.31,2.56,2.56,0,0,1,1.06.07,2.38,2.38,0,0,1,.93.52,3.17,3.17,0,0,1,.72,1,4.57,4.57,0,0,1,.42,1.44,6.58,6.58,0,0,1,.05,1.45,3.46,3.46,0,0,1-.31,1.23,2.7,2.7,0,0,1-.73.94,3,3,0,0,1-1.21.57Z" transform="translate(451.63 9.41)"/><path class="cls-1" d="M-431.94,155.18l0.09,3.34-0.75,0-0.2-7.47,0.75,0,0.09,3.32,8.86-.24,0,0.81Z" transform="translate(451.63 9.41)"/><path class="cls-1" d="M-422.42,139.58a4.69,4.69,0,0,1-.46,1.7,3.7,3.7,0,0,1-1.06,1.29,4.59,4.59,0,0,1-1.65.77,6.66,6.66,0,0,1-2.2.14,6.61,6.61,0,0,1-2.15-.52,4.53,4.53,0,0,1-1.5-1,3.87,3.87,0,0,1-.85-1.46,4.44,4.44,0,0,1-.18-1.74A4.63,4.63,0,0,1-432,137a3.59,3.59,0,0,1,1.06-1.28,4.57,4.57,0,0,1,1.64-.77,6.52,6.52,0,0,1,2.19-.14,6.9,6.9,0,0,1,2.17.51,4.59,4.59,0,0,1,1.51,1,3.74,3.74,0,0,1,.85,1.44A4.49,4.49,0,0,1-422.42,139.58Zm-0.72-.06a3.36,3.36,0,0,0-.19-1.51,3,3,0,0,0-.79-1.16,4,4,0,0,0-1.3-.77,6.47,6.47,0,0,0-1.72-.37,6.32,6.32,0,0,0-1.76.08,4.17,4.17,0,0,0-1.42.55,3,3,0,0,0-1,1,3.35,3.35,0,0,0-.44,1.45,3.51,3.51,0,0,0,.18,1.55,3,3,0,0,0,.79,1.16,4.1,4.1,0,0,0,1.3.77,6.48,6.48,0,0,0,1.72.37,6.66,6.66,0,0,0,1.76-.06,4,4,0,0,0,1.42-.53,3,3,0,0,0,1-1A3.49,3.49,0,0,0-423.14,139.52Z" transform="translate(451.63 9.41)"/><path class="cls-1" d="M-430.38,124.88l0.62-3a5.39,5.39,0,0,1,.57-1.62,2.86,2.86,0,0,1,.8-0.91,1.86,1.86,0,0,1,.92-0.34,3.23,3.23,0,0,1,1,.06,2.82,2.82,0,0,1,1.44.72,2.54,2.54,0,0,1,.69,1.51l4.79-1.12-0.2.94-4.57,1c0,0.15,0,.31,0,0.47s0,0.33-.09.51l-0.43,2,4.11,0.86-0.17.79Zm5.22-2.1a4.37,4.37,0,0,0,.11-1.21,1.83,1.83,0,0,0-.24-0.83,1.44,1.44,0,0,0-.55-0.52,3,3,0,0,0-.82-0.29,2.54,2.54,0,0,0-.83,0,1.27,1.27,0,0,0-.67.29,2,2,0,0,0-.52.72,5.75,5.75,0,0,0-.38,1.22l-0.44,2.12,3.87,0.81Z" transform="translate(451.63 9.41)"/><path class="cls-1" d="M-426.66,109.8l0.23-.77,9.19,2.81-0.24.77Z" transform="translate(451.63 9.41)"/><path class="cls-1" d="M-423.39,100.11l0.34-.83,9.74-1.79L-421,94.31l0.31-.75,8.89,3.67-0.34.82-9.77,1.79,7.72,3.18-0.31.75Z" transform="translate(451.63 9.41)"/><path class="cls-1" d="M-410.05,83.37l1.73-3.07,3.23,1.82a3.68,3.68,0,0,1,.11,1,5.33,5.33,0,0,1-.1,1,5.86,5.86,0,0,1-.27.94,6.26,6.26,0,0,1-.4.86,4.82,4.82,0,0,1-1.19,1.44,3.66,3.66,0,0,1-1.53.73,4.25,4.25,0,0,1-1.8,0,6.88,6.88,0,0,1-2-.79A6.61,6.61,0,0,1-414,85.87,4.61,4.61,0,0,1-415,84.3a3.75,3.75,0,0,1-.18-1.65A4.27,4.27,0,0,1-414.6,81a3.58,3.58,0,0,1,1.76-1.7,3.61,3.61,0,0,1,2.26-.06l-0.23.76a4.49,4.49,0,0,0-.9-0.12,2.39,2.39,0,0,0-.84.14,2.35,2.35,0,0,0-.76.47,3.35,3.35,0,0,0-.67.87,3.24,3.24,0,0,0-.44,1.44,3,3,0,0,0,.26,1.38,4.13,4.13,0,0,0,.87,1.24,6.35,6.35,0,0,0,1.4,1,6.65,6.65,0,0,0,1.62.67,3.93,3.93,0,0,0,1.51.1,3,3,0,0,0,1.32-.53,3.64,3.64,0,0,0,1-1.21,5.47,5.47,0,0,0,.56-1.41,3.86,3.86,0,0,0,.08-1.45l-2.33-1.32-1.35,2.39Z" transform="translate(451.63 9.41)"/><path class="cls-1" d="M-401.33,61.9l2.11-2.47a5.37,5.37,0,0,1,1.4-1.19,3.44,3.44,0,0,1,1.55-.47,3.93,3.93,0,0,1,1.68.3,6.53,6.53,0,0,1,1.8,1.13,6.43,6.43,0,0,1,1.42,1.64,4,4,0,0,1,.55,1.69,3.88,3.88,0,0,1-.26,1.7,5.82,5.82,0,0,1-1,1.66L-394,68.14Zm8.7,3.5a3.51,3.51,0,0,0,1-2.85,4.59,4.59,0,0,0-1.73-2.67,4.67,4.67,0,0,0-2.83-1.3,3.2,3.2,0,0,0-2.52,1.34l-1.58,1.85,6.2,5.3Z" transform="translate(451.63 9.41)"/><path class="cls-1" d="M-390,49.6l0.58-.56,6.68,6.91-0.58.56Z" transform="translate(451.63 9.41)"/><path class="cls-1" d="M-376.19,43.9l2.75-2.2,2.31,2.89a3.81,3.81,0,0,1-.26.94,5,5,0,0,1-.46.87,5.7,5.7,0,0,1-.6.77,6.42,6.42,0,0,1-.69.64,4.8,4.8,0,0,1-1.64.89,3.66,3.66,0,0,1-1.69.11,4.3,4.3,0,0,1-1.67-.68,6.94,6.94,0,0,1-1.58-1.49,6.65,6.65,0,0,1-1.11-1.91,4.63,4.63,0,0,1-.29-1.8,3.74,3.74,0,0,1,.45-1.6A4.29,4.29,0,0,1-379.53,40a3.57,3.57,0,0,1,2.27-.92,3.62,3.62,0,0,1,2.12.79l-0.5.62a4.31,4.31,0,0,0-.79-0.44,2.33,2.33,0,0,0-.83-0.19,2.32,2.32,0,0,0-.88.15,3.42,3.42,0,0,0-.95.56,3.22,3.22,0,0,0-.95,1.17,3,3,0,0,0-.27,1.37,4.12,4.12,0,0,0,.35,1.48,6.41,6.41,0,0,0,.91,1.49,6.63,6.63,0,0,0,1.25,1.22,3.89,3.89,0,0,0,1.37.65A3,3,0,0,0-375,48a3.63,3.63,0,0,0,1.42-.73,5.48,5.48,0,0,0,1-1.1,3.92,3.92,0,0,0,.62-1.31l-1.67-2.09-2.14,1.72Z" transform="translate(451.63 9.41)"/><path class="cls-1" d="M-368.52,32.31l0.77-.47,8.94,4.25L-363.19,29l0.69-.42,5.05,8.18-0.75.47-9-4.27,4.39,7.1-0.69.42Z" transform="translate(451.63 9.41)"/><path class="cls-1" d="M-354.12,24.13l0.72-.36,4.25,8.62-0.72.36Z" transform="translate(451.63 9.41)"/><path class="cls-1" d="M-342.29,19.72l-3.11,1.2-0.27-.7,7-2.69,0.27,0.7-3.1,1.2,3.19,8.27-0.75.29Z" transform="translate(451.63 9.41)"/><path class="cls-1" d="M-326.16,19.4L-330.79,15l0.94-.24,3.92,3.89,1.57-5.32,0.83-.22-1.84,6.12,1.05,4-0.78.2Z" transform="translate(451.63 9.41)"/><path class="cls-1" d="M-302.68,9.88l1-.07,4.52,9.29-0.89.07-1.38-2.84-4.51.35-0.92,3-0.86.07Zm2.87,5.72-2.36-4.85-1.56,5.16Z" transform="translate(451.63 9.41)"/><path class="cls-1" d="M-289,9.4l0.9,0,5,8.54,0.34-8.31,0.81,0-0.4,9.6-0.89,0-5-8.56L-288.58,19l-0.81,0Z" transform="translate(451.63 9.41)"/><path class="cls-1" d="M-272,10.71l3.2,0.52a5.38,5.38,0,0,1,1.75.58,3.47,3.47,0,0,1,1.21,1.08,4,4,0,0,1,.61,1.59,6.55,6.55,0,0,1,0,2.12,6.46,6.46,0,0,1-.66,2.06A4,4,0,0,1-267,20a3.84,3.84,0,0,1-1.59.66,5.82,5.82,0,0,1-1.95,0l-2.91-.48Zm1.52,9.25a3.51,3.51,0,0,0,3-.6,4.57,4.57,0,0,0,1.39-2.86,4.68,4.68,0,0,0-.35-3.09,3.21,3.21,0,0,0-2.45-1.46l-2.4-.39-1.32,8.05Z" transform="translate(451.63 9.41)"/><path class="cls-1" d="M-246.24,16.77l0.77,0.26-3.08,9.11-0.77-.26Z" transform="translate(451.63 9.41)"/><path class="cls-1" d="M-236.57,20.36l0.82,0.37,1.5,9.79,3.4-7.59,0.74,0.33L-234,32l-0.81-.36-1.5-9.82-3.41,7.62-0.74-.33Z" transform="translate(451.63 9.41)"/><path class="cls-1" d="M-224.69,34.11a2.31,2.31,0,0,0,0,1.81,3.87,3.87,0,0,0,1.58,1.5,3.88,3.88,0,0,0,1.12.48,2,2,0,0,0,.87,0,1.51,1.51,0,0,0,.67-0.34A2.47,2.47,0,0,0-220,37a2.71,2.71,0,0,0,.26-0.59,1.35,1.35,0,0,0,0-.62,1.81,1.81,0,0,0-.29-0.68,3.86,3.86,0,0,0-.72-0.78l-0.92-.79a8.19,8.19,0,0,1-.91-0.91,3.08,3.08,0,0,1-.54-0.9,1.94,1.94,0,0,1-.1-0.95,2.9,2.9,0,0,1,.41-1.06,2.26,2.26,0,0,1,.82-0.84,2.36,2.36,0,0,1,1-.31,3.37,3.37,0,0,1,1.18.16,5.61,5.61,0,0,1,1.22.55,4.91,4.91,0,0,1,1.19.95,3,3,0,0,1,.59,1,2.45,2.45,0,0,1,.14.94,4.46,4.46,0,0,1-.14.89l-0.76-.2a4.44,4.44,0,0,0,.11-0.81,1.76,1.76,0,0,0-.13-0.73,2.18,2.18,0,0,0-.47-0.69,4.43,4.43,0,0,0-.9-0.68,4.68,4.68,0,0,0-1.14-.52,2.25,2.25,0,0,0-.89-0.08,1.43,1.43,0,0,0-.69.28,1.93,1.93,0,0,0-.49.56,2.28,2.28,0,0,0-.28.65,1.16,1.16,0,0,0,0,.6A1.92,1.92,0,0,0-222,32a5.76,5.76,0,0,0,.7.71l1,0.91a6.64,6.64,0,0,1,.9,1,2.78,2.78,0,0,1,.48.92,2.06,2.06,0,0,1,0,.95,3.15,3.15,0,0,1-.41,1,2.55,2.55,0,0,1-.72.78,2.34,2.34,0,0,1-1,.4,3.15,3.15,0,0,1-1.2,0A4.61,4.61,0,0,1-223.5,38a6.77,6.77,0,0,1-1.16-.87,3.54,3.54,0,0,1-.76-1A2.71,2.71,0,0,1-225.7,35a3.05,3.05,0,0,1,.31-1.31Z" transform="translate(451.63 9.41)"/><path class="cls-1" d="M-207.64,36.72l2.46,1.89A5.54,5.54,0,0,1-204,39.83a2.66,2.66,0,0,1,.48,1.12,2,2,0,0,1-.12,1,3.79,3.79,0,0,1-.53.94,4.06,4.06,0,0,1-.81.8,2.19,2.19,0,0,1-1,.42,2.69,2.69,0,0,1-1.23-.14,5.29,5.29,0,0,1-1.51-.86l-1.79-1.38-2.37,3.09-0.64-.49Zm-0.6,5.84a4.75,4.75,0,0,0,1.14.68,2,2,0,0,0,.91.14,1.44,1.44,0,0,0,.74-0.29,3.61,3.61,0,0,0,.64-0.66,3.06,3.06,0,0,0,.47-0.81,1.37,1.37,0,0,0,.06-0.77A1.94,1.94,0,0,0-204.7,40a5.56,5.56,0,0,0-.95-0.89l-1.79-1.38-2.6,3.39Z" transform="translate(451.63 9.41)"/><path class="cls-1" d="M-195.84,46.45l0.59,0.55-6.51,7.07-0.59-.55Z" transform="translate(451.63 9.41)"/><path class="cls-1" d="M-188.53,53.59l2,2.24a5.3,5.3,0,0,1,1,1.41,2.88,2.88,0,0,1,.27,1.18,1.9,1.9,0,0,1-.27.95,3.27,3.27,0,0,1-.61.75,2.87,2.87,0,0,1-1.43.75,2.55,2.55,0,0,1-1.63-.34l-1.91,4.53-0.64-.71,1.87-4.29-0.35-.32c-0.12-.11-0.24-0.23-0.36-0.36l-1.4-1.55-3.12,2.82-0.54-.6Zm-1.37,5.46a4.38,4.38,0,0,0,.91.8,1.87,1.87,0,0,0,.81.29,1.46,1.46,0,0,0,.74-0.14,2.89,2.89,0,0,0,.71-0.49,2.56,2.56,0,0,0,.53-0.64,1.27,1.27,0,0,0,.16-0.72,2,2,0,0,0-.27-0.84,5.48,5.48,0,0,0-.77-1l-1.45-1.61-2.93,2.66Z" transform="translate(451.63 9.41)"/><path class="cls-1" d="M-178.53,65.42l0.49,0.64-7.67,5.79-0.49-.65Z" transform="translate(451.63 9.41)"/><path class="cls-1" d="M-172.54,73.85l0.47,0.77-4.27,8.94,7.08-4.36,0.42,0.69-8.19,5-0.47-.76,4.28-9-7.11,4.37-0.42-.69Z" transform="translate(451.63 9.41)"/><path class="cls-1" d="M-166.84,94.46l1.47,3.21-3.37,1.54a3.79,3.79,0,0,1-.85-0.48,5.32,5.32,0,0,1-.74-0.66,5.76,5.76,0,0,1-.6-0.77,6.3,6.3,0,0,1-.46-0.83,4.86,4.86,0,0,1-.46-1.81,3.66,3.66,0,0,1,.3-1.66,4.31,4.31,0,0,1,1.07-1.45,6.91,6.91,0,0,1,1.83-1.17,6.64,6.64,0,0,1,2.13-.61,4.62,4.62,0,0,1,1.82.16,3.76,3.76,0,0,1,1.44.83,4.31,4.31,0,0,1,1,1.39,3.57,3.57,0,0,1,.34,2.43,3.63,3.63,0,0,1-1.28,1.87l-0.48-.64a4.33,4.33,0,0,0,.62-0.66,2.34,2.34,0,0,0,.38-0.76,2.33,2.33,0,0,0,.07-0.89,3.38,3.38,0,0,0-.31-1.06,3.26,3.26,0,0,0-.91-1.21,3,3,0,0,0-1.26-.6,4.12,4.12,0,0,0-1.52,0,6.35,6.35,0,0,0-1.67.52,6.49,6.49,0,0,0-1.49.92,3.88,3.88,0,0,0-1,1.17,3,3,0,0,0-.35,1.39,3.61,3.61,0,0,0,.37,1.56,5.43,5.43,0,0,0,.82,1.28,3.85,3.85,0,0,0,1.12.92l2.44-1.11-1.14-2.5Z" transform="translate(451.63 9.41)"/><path class="cls-1" d="M-159.12,123.13a4.65,4.65,0,0,1-1.37-.05,3.3,3.3,0,0,1-1.2-.48,3.42,3.42,0,0,1-.95-0.95,4.38,4.38,0,0,1-.61-1.46,4.39,4.39,0,0,1-.09-1.74,3.54,3.54,0,0,1,.62-1.52,4.5,4.5,0,0,1,1.33-1.21,6.92,6.92,0,0,1,2-.81,6.55,6.55,0,0,1,2.21-.19,4.74,4.74,0,0,1,1.76.51,3.8,3.8,0,0,1,1.25,1.07,4,4,0,0,1,.7,1.5,4.38,4.38,0,0,1,.13,1.52,3.11,3.11,0,0,1-.38,1.19,3.31,3.31,0,0,1-.78.92,6.22,6.22,0,0,1-1.09.71l-0.35-.72a5.55,5.55,0,0,0,.95-0.61,2.64,2.64,0,0,0,.64-0.74,2.34,2.34,0,0,0,.29-0.92,3.48,3.48,0,0,0-.1-1.18,3.06,3.06,0,0,0-.65-1.3,3.1,3.1,0,0,0-1.12-.81,4.23,4.23,0,0,0-1.49-.32,6.32,6.32,0,0,0-1.74.18,6.41,6.41,0,0,0-1.64.62,4.22,4.22,0,0,0-1.18,1,2.86,2.86,0,0,0-.62,1.24,3.22,3.22,0,0,0,0,1.49,3.85,3.85,0,0,0,.5,1.23,2.35,2.35,0,0,0,.73.72,2.52,2.52,0,0,0,.93.33,4.67,4.67,0,0,0,1.07,0Z" transform="translate(451.63 9.41)"/><path class="cls-1" d="M-151.12,131.08l0.09,0.8-4.23.49,0.62,5.42,4.23-.49,0.09,0.8-9.55,1.1-0.09-.8,4.56-.53-0.62-5.42-4.56.53-0.09-.8Z" transform="translate(451.63 9.41)"/><path class="cls-1" d="M-149.78,150.85v1l-9.62,3.77V154.7l2.94-1.15V149l-2.93-1.15V147Zm-5.93,2.4,5-2-5-2v3.93Z" transform="translate(451.63 9.41)"/><path class="cls-1" d="M-150.4,164.63l-0.11.89-8.91,4.32,8.26,1-0.1.8-9.54-1.17,0.11-.88,8.94-4.33-8.28-1,0.1-.8Z" transform="translate(451.63 9.41)"/><path class="cls-1" d="M-158.78,184.28l-0.85,3.42-3.6-.89a3.78,3.78,0,0,1-.37-0.9,5.33,5.33,0,0,1-.17-1,5.64,5.64,0,0,1,0-1,6.28,6.28,0,0,1,.15-0.93,4.89,4.89,0,0,1,.76-1.7,3.7,3.7,0,0,1,1.27-1.11,4.33,4.33,0,0,1,1.74-.47,6.92,6.92,0,0,1,2.16.22,6.75,6.75,0,0,1,2,.85,4.64,4.64,0,0,1,1.33,1.26,3.77,3.77,0,0,1,.62,1.55,4.29,4.29,0,0,1-.09,1.71,3.57,3.57,0,0,1-1.24,2.11,3.63,3.63,0,0,1-2.16.66l0-.8a4.2,4.2,0,0,0,.9-0.13,2.3,2.3,0,0,0,.77-0.36,2.35,2.35,0,0,0,.61-0.65,3.44,3.44,0,0,0,.41-1,3.23,3.23,0,0,0,0-1.51,3,3,0,0,0-.62-1.25,4.13,4.13,0,0,0-1.17-1,6.42,6.42,0,0,0-1.63-.63,6.54,6.54,0,0,0-1.74-.21,3.89,3.89,0,0,0-1.48.31,3,3,0,0,0-1.14.87,3.61,3.61,0,0,0-.68,1.45,5.43,5.43,0,0,0-.16,1.51,3.87,3.87,0,0,0,.31,1.42l2.6,0.64,0.66-2.67Z" transform="translate(451.63 9.41)"/><path class="cls-1" d="M-157.81,198l-2.12,5.65-0.68-.25,1.83-4.89-3.31-1.25-1.74,4.64-0.72-.27,1.74-4.64-3.58-1.34-1.92,5.11-0.64-.44,2.13-5.68Z" transform="translate(451.63 9.41)"/></svg>