<svg id="Layer_1" data-name="Layer 1" xmlns="http://www.w3.org/2000/svg" viewBox="0 0 132.68 241.5"><defs><style>.cls-1{fill:#fff;}</style></defs><title>gooichi-logo</title><path class="cls-1" d="M-143.48,201.7H-25.76a0.64,0.64,0,0,0,.64-0.65,0.64,0.64,0,0,0-.64-0.65H-143.48a0.64,0.64,0,0,0-.64.65A0.64,0.64,0,0,0-143.48,201.7Z" transform="translate(150.92 -168.72)"/><path class="cls-1" d="M-123.46,373.86a1.79,1.79,0,0,0-.84-0.16,2,2,0,0,0-.84.15,0.65,0.65,0,0,0-.39.63v2.26a6.46,6.46,0,0,0,.81,2.54,16.22,16.22,0,0,1,.78,1.71v3.57a0.35,0.35,0,0,1-.4.43,0.24,0.24,0,0,1-.21-0.1,0.5,0.5,0,0,1-.09-0.31v-2.94h-0.84v2.92a0.84,0.84,0,0,0,.36.75,1.4,1.4,0,0,0,.79.21,1.44,1.44,0,0,0,.83-0.23,0.82,0.82,0,0,0,.38-0.71V381a3,3,0,0,0-.42-1.28l-0.77-1.5a3.74,3.74,0,0,1-.39-1.48v-2.22a0.3,0.3,0,0,1,.11-0.23,0.45,0.45,0,0,1,.57,0,0.28,0.28,0,0,1,.1.22v2.91h0.8v-2.94A0.65,0.65,0,0,0-123.46,373.86Z" transform="translate(150.92 -168.72)"/><polygon class="cls-1" points="31.66 205.56 32.49 205.56 32.49 216.82 33.36 216.82 33.36 205.56 34.14 205.56 34.14 204.98 31.66 204.98 31.66 205.56"/><path class="cls-1" d="M-110.88,379.36h0l0,0a0.58,0.58,0,0,0,.22-0.53v-4.21a0.81,0.81,0,0,0-.34-0.69,1.93,1.93,0,0,0-1.13-.24H-113v11.88h0.84v-5.86H-112a1.48,1.48,0,0,1,.44.06c0.09,0,.09.06,0.09,0.08v5.72H-111a0.35,0.35,0,0,0,.38-0.15v-5.58A0.47,0.47,0,0,0-110.88,379.36Zm-1.26-5.05h0.09a1.28,1.28,0,0,1,.48.07,0.17,0.17,0,0,1,.1.19v4.11c0,0.23-.09.26-0.12,0.28a1.51,1.51,0,0,1-.55.08v-4.74Z" transform="translate(150.92 -168.72)"/><polygon class="cls-1" points="45.11 210.78 46.06 210.78 46.06 210.15 45.11 210.15 45.11 205.63 46.06 205.63 46.06 204.98 44.28 204.98 44.28 216.82 46.19 216.82 46.19 216.19 45.11 216.19 45.11 210.78"/><polygon class="cls-1" points="50.84 210.78 51.79 210.78 51.79 210.15 50.84 210.15 50.84 205.63 51.79 205.63 51.79 204.98 50.02 204.98 50.02 216.82 51.92 216.82 51.92 216.19 50.84 216.19 50.84 210.78"/><polygon class="cls-1" points="55.75 205.56 56.58 205.56 56.58 216.82 57.45 216.82 57.45 205.56 58.22 205.56 58.22 204.98 55.75 204.98 55.75 205.56"/><path class="cls-1" d="M-83.27,373.84A2.06,2.06,0,0,0-84,373.7a1.86,1.86,0,0,0-.78.15,0.6,0.6,0,0,0-.37.57v10.21a0.77,0.77,0,0,0,.36.74,1.64,1.64,0,0,0,.81.17,1.41,1.41,0,0,0,.76-0.21,0.74,0.74,0,0,0,.37-0.65v-3.11h-0.76v3.13a0.29,0.29,0,0,1-.11.22,0.35,0.35,0,0,1-.51,0,0.27,0.27,0,0,1-.11-0.22V374.45a0.21,0.21,0,0,1,.11-0.17,0.4,0.4,0,0,1,.21-0.1,1,1,0,0,1,.35.09,0.13,0.13,0,0,1,.07.14v3h0.76v-3A0.58,0.58,0,0,0-83.27,373.84Z" transform="translate(150.92 -168.72)"/><path class="cls-1" d="M-77.33,384.32a1.36,1.36,0,0,1-.11.59,0.27,0.27,0,0,1-.28.16,0.23,0.23,0,0,1-.25-0.13,1.48,1.48,0,0,1-.09-0.59V373.7h-0.87v10.63a1.15,1.15,0,0,0,.35.92,1.26,1.26,0,0,0,.85.29,1.28,1.28,0,0,0,.87-0.28,1.22,1.22,0,0,0,.33-1V373.7h-0.8v10.62Z" transform="translate(150.92 -168.72)"/><path class="cls-1" d="M-70.61,373.86a1.78,1.78,0,0,0-.84-0.16,2,2,0,0,0-.83.15,0.65,0.65,0,0,0-.39.63v2.26a6.46,6.46,0,0,0,.81,2.54,15.48,15.48,0,0,1,.78,1.71v3.57a0.35,0.35,0,0,1-.4.43,0.24,0.24,0,0,1-.21-0.1,0.49,0.49,0,0,1-.09-0.31v-2.94h-0.84v2.92a0.84,0.84,0,0,0,.36.75,1.41,1.41,0,0,0,.79.21,1.43,1.43,0,0,0,.82-0.23,0.82,0.82,0,0,0,.38-0.71V381a3,3,0,0,0-.42-1.28l-0.77-1.5a3.74,3.74,0,0,1-.39-1.48v-2.22a0.3,0.3,0,0,1,.11-0.23,0.45,0.45,0,0,1,.57,0,0.28,0.28,0,0,1,.1.22v2.91h0.8v-2.94A0.65,0.65,0,0,0-70.61,373.86Z" transform="translate(150.92 -168.72)"/><polygon class="cls-1" points="84.51 205.56 85.34 205.56 85.34 216.82 86.21 216.82 86.21 205.56 86.99 205.56 86.99 204.98 84.51 204.98 84.51 205.56"/><path class="cls-1" d="M-58.89,373.7a1.65,1.65,0,0,0-.86.21,0.79,0.79,0,0,0-.37.72v9.59a1.24,1.24,0,0,0,.37,1.06,1.37,1.37,0,0,0,.85.26,1.22,1.22,0,0,0,.84-0.3,1.32,1.32,0,0,0,.35-1v-9.6a0.77,0.77,0,0,0-.36-0.74A1.64,1.64,0,0,0-58.89,373.7Zm-0.24,11.09a1.14,1.14,0,0,1-.13-0.58v-9.56c0-.41.18-0.47,0.36-0.47s0.31,0,.31.46v9.59a1.18,1.18,0,0,1-.12.58,0.23,0.23,0,0,1-.21.16A0.26,0.26,0,0,1-59.14,384.79Z" transform="translate(150.92 -168.72)"/><polygon class="cls-1" points="98.79 211.95 97.88 204.98 97.13 204.98 97.13 216.82 98 216.82 98 211.13 98.57 215.3 99.03 215.3 99.56 211.17 99.56 216.82 100.42 216.82 100.42 204.98 99.68 204.98 98.79 211.95"/><path class="cls-1" d="M-44.58,373.86a1.78,1.78,0,0,0-.84-0.16,2,2,0,0,0-.84.15,0.65,0.65,0,0,0-.39.63v2.26a6.46,6.46,0,0,0,.81,2.54,15.46,15.46,0,0,1,.78,1.71v3.57a0.35,0.35,0,0,1-.4.43,0.24,0.24,0,0,1-.21-0.1,0.5,0.5,0,0,1-.09-0.31v-2.94h-0.84v2.92a0.84,0.84,0,0,0,.36.75,1.41,1.41,0,0,0,.79.21,1.43,1.43,0,0,0,.82-0.23,0.82,0.82,0,0,0,.38-0.71V381a3,3,0,0,0-.42-1.28l-0.77-1.5a3.77,3.77,0,0,1-.39-1.48v-2.22a0.3,0.3,0,0,1,.11-0.23,0.45,0.45,0,0,1,.57,0,0.28,0.28,0,0,1,.1.22v2.91h0.8v-2.94A0.65,0.65,0,0,0-44.58,373.86Z" transform="translate(150.92 -168.72)"/><polygon class="cls-1" points="118.3 209.59 116.35 209.44 115.62 207.64 114.89 209.44 112.94 209.59 113.9 210.4 114.43 210.84 114.39 210.99 113.96 212.74 115.62 211.7 117.28 212.74 116.84 210.99 116.81 210.84 117.34 210.4 118.3 209.59"/><polygon class="cls-1" points="20.14 209.59 18.19 209.44 17.46 207.64 16.72 209.44 14.78 209.59 15.74 210.4 16.27 210.84 16.23 210.99 15.8 212.74 17.46 211.7 19.11 212.74 18.68 210.99 18.64 210.84 19.18 210.4 20.14 209.59"/><path class="cls-1" d="M-143.48,195.86H-25.76a0.64,0.64,0,0,0,.64-0.65V174a0.64,0.64,0,0,0-.4-0.6,0.65,0.65,0,0,0-.71.15L-40,187.91l-13.87-14.5a0.66,0.66,0,0,0-.93,0l-12.45,13-16.74-17.5a0.64,0.64,0,0,0-.47-0.2,0.65,0.65,0,0,0-.47.2l-16.88,17.64-12.58-13.15a0.66,0.66,0,0,0-.93,0l-13.87,14.5L-143,173.41a0.65,0.65,0,0,0-.71-0.15,0.64,0.64,0,0,0-.4.6v21.35A0.65,0.65,0,0,0-143.48,195.86Zm18.92-1.29h-9.15l4.58-4.78Zm16.94,0,5.87-6.13,5.87,6.13h-11.73Zm37.5-3.23,2.92-3,6,6.27h-12ZM-40,189.78l4.58,4.78h-9.15l2.38-2.49Zm13.54-14.16v18.95h-7.18l-1.32-1.38-4.15-4.34Zm-27.88-.83,13.45,14.06-2.52,2.63-3,3.09h-13.1l-6.89-7.21Zm-30.12-4.49,16.32,17.06L-75,194.56H-94.1l-2.15-2.25-4.61-4.82Zm-30.39,4.49,12.16,12.71-2.74,2.86-4,4.2h-13.37l-1.11-1.16-4.36-4.56Zm-28,.67,12.8,13.38-5.47,5.72h-7.33v-19.1Z" transform="translate(150.92 -168.72)"/><path class="cls-1" d="M-118.85,295.21a2.8,2.8,0,0,0-.6.75,7.85,7.85,0,0,0-3.88-.86c-4.47,0-6.58,2.48-6.58,5.16a4.59,4.59,0,0,0,1.33,3.28,9.68,9.68,0,0,0-2.3,2,5.65,5.65,0,0,0,2.52,4.05,18.56,18.56,0,0,1,6-1,12,12,0,0,1,5.83,1.4l0.93-1.13a9,9,0,0,0-6.76-2.48,10.64,10.64,0,0,0-5.07,1.15,1.89,1.89,0,0,1-.75-1.6,1.84,1.84,0,0,1,.75-1.46,7.68,7.68,0,0,0,4.1,1c4.43,0,6.58-2.48,6.58-5.16a4.88,4.88,0,0,0-1.35-3.19l0-.22a4.4,4.4,0,0,1,1.31.24l2-.31v-1.24a9.78,9.78,0,0,0-2.75-.44A6.28,6.28,0,0,0-118.85,295.21Zm-4.48,8.37c-2.48,0-3.88-1.09-3.88-3.32s1.4-3.32,3.88-3.32,3.88,1.13,3.88,3.32S-120.89,303.58-123.33,303.58Z" transform="translate(150.92 -168.72)"/><path class="cls-1" d="M-107.49,295.08c-4.39,0-7,2.68-7,6s2.64,6,7,6,7-2.66,7-6S-103.1,295.08-107.49,295.08Zm0,10.19c-2.88,0-4.32-1.64-4.32-4.21s1.44-4.21,4.32-4.21,4.3,1.66,4.3,4.21S-104.63,305.27-107.49,305.27Z" transform="translate(150.92 -168.72)"/><path class="cls-1" d="M-91.36,295.08c-4.39,0-7,2.68-7,6s2.64,6,7,6,7-2.66,7-6S-87,295.08-91.36,295.08Zm0,10.19c-2.88,0-4.32-1.64-4.32-4.21s1.44-4.21,4.32-4.21,4.3,1.66,4.3,4.21S-88.5,305.27-91.36,305.27Z" transform="translate(150.92 -168.72)"/><path class="cls-1" d="M-79.81,294.15A1.64,1.64,0,0,0-78,292.64a1.64,1.64,0,0,0-1.79-1.51,1.64,1.64,0,0,0-1.77,1.51A1.64,1.64,0,0,0-79.81,294.15Z" transform="translate(150.92 -168.72)"/><polygon class="cls-1" points="72.48 126.87 72.31 126.71 68.3 126.93 68.41 128.26 69.78 128.39 69.78 136.3 68.19 136.52 68.3 137.88 73.97 137.88 74.06 136.52 72.48 136.3 72.48 126.87"/><path class="cls-1" d="M-68.49,296.85a7.05,7.05,0,0,1,3,.62l0.42,3.19h1.62l0.31-4.45a11.69,11.69,0,0,0-5.36-1.13c-4.39,0-7,2.66-7,6s2.53,6,6.8,6a9.13,9.13,0,0,0,5.49-1.55l-1-1.59a6.74,6.74,0,0,1-4.54,1.37c-2.75,0-4.1-1.75-4.1-4.21A4,4,0,0,1-68.49,296.85Z" transform="translate(150.92 -168.72)"/><path class="cls-1" d="M-46.78,300.19c0-3-1.84-5.12-5.6-5.12a7.39,7.39,0,0,0-4.19,1.2V292l-0.2-.13-4.17.27,0.13,1.35,1.53,0.2V305l-1.57.22,0.11,1.35h5.63l0.11-1.35-1.57-.22v-6.85a5.39,5.39,0,0,1,3.74-1.26c2.46,0,3.37,1.15,3.37,3.06V305l-1.59.22,0.11,1.35h5.63l0.11-1.35-1.57-.22v-4.83Z" transform="translate(150.92 -168.72)"/><polygon class="cls-1" points="111.83 126.87 111.66 126.71 107.65 126.93 107.76 128.26 109.13 128.39 109.13 136.3 107.53 136.52 107.65 137.88 113.32 137.88 113.41 136.52 111.83 136.3 111.83 126.87"/><path class="cls-1" d="M-40.46,294.15a1.64,1.64,0,0,0,1.79-1.51,1.64,1.64,0,0,0-1.79-1.51,1.64,1.64,0,0,0-1.77,1.51A1.64,1.64,0,0,0-40.46,294.15Z" transform="translate(150.92 -168.72)"/><path class="cls-1" d="M-101.8,232.2v0.1l0,0.06,0,0v0l0,0,0,0,0,0,0,0,16.29,18.71h0l0,0,0,0,0,0,0,0,0,0,0.05,0,0.06,0h0l0.05,0h0.11l0,0.18,0.05-.18h0v0.19l0-.19h0.17l0,0.18,0-.18h0l0,0.18,0-.18h0.1l0.05,0h0l0,0,0.06,0h0l0,0,0,0h0l0,0h0l0,0h0v0l0,0,0,0,0,0v0l0.07,0,16.27-18.69a0.79,0.79,0,0,0,.21-0.54,0.78,0.78,0,0,0-.17-0.48l-5.05-7.37,0-.05,0,0,0,0,0,0,0,0,0,0,0,0h0l-0.08,0-0.09,0H-96.14l-0.06-.18,0,0.18-0.08,0h0l-0.08,0h0l0,0,0,0-0.06,0h0l-0.05.05,0,0,0,0.06,0,0-5.07,7.4v0l0,0.07,0,0,0,0.06v0a0.36,0.36,0,0,0,0,.06v0a0.55,0.55,0,0,0,0,.06,0.43,0.43,0,0,0,0,.05,0.49,0.49,0,0,0,0,.05v0.06Zm14.38,14.53-12.23-14h8.06l0,0.13,4.67,13.61Zm2.71,2.14-5.56-16.18h11.11Zm2.71-2.14-0.54-.31,0.05-.15,4.67-13.59h8.06Zm8.55-20.94,3.86,5.64h-7.53Zm-1.17-.5L-78.35,231l-5-5.73h8.72Zm-5,6.14H-89.77l5.06-5.81Zm-6.43-6.14-5,5.73-3.73-5.73h8.72Zm-9.89.5,3.67,5.64h-7.53Z" transform="translate(150.92 -168.72)"/><path class="cls-1" d="M-106.17,236.13a0.64,0.64,0,0,0-.64-0.65h-31.41a0.65,0.65,0,0,0-.65.65,0.65,0.65,0,0,0,.65.65h31.41A0.64,0.64,0,0,0-106.17,236.13Z" transform="translate(150.92 -168.72)"/><path class="cls-1" d="M-62.3,236.77h31.41a0.64,0.64,0,0,0,.64-0.65,0.64,0.64,0,0,0-.64-0.65H-62.3a0.65,0.65,0,0,0-.64.65A0.65,0.65,0,0,0-62.3,236.77Z" transform="translate(150.92 -168.72)"/><path class="cls-1" d="M-72.83,352.25l-1.09-4.53,0.66-.12a1,1,0,0,1,.64,0,2,2,0,0,1,.48,1.12,25.32,25.32,0,0,0,.85,3.13l1.1-.26a7.48,7.48,0,0,1-.46-1.54q-0.32-1.34-.56-2a2.72,2.72,0,0,0-.5-0.93,0.74,0.74,0,0,0-.62-0.24,1,1,0,0,0,.52-0.79,3.47,3.47,0,0,0-.1-1.26q-0.18-.72-0.29-1.05a1.86,1.86,0,0,0-.73-1.07,1.76,1.76,0,0,0-1.29-.05l-2,.47,2.27,9.37Zm-2.05-8.5,0.69-.17a0.86,0.86,0,0,1,.6,0,2.25,2.25,0,0,1,.5,1.21l0,0.06a6.8,6.8,0,0,1,.2,1.1,0.81,0.81,0,0,1-.1.52,0.75,0.75,0,0,1-.44.24l-0.7.17Z" transform="translate(150.92 -168.72)"/><path class="cls-1" d="M-68.62,344.1a3.93,3.93,0,0,0,1.57,1.08l0.82,0.34a2.64,2.64,0,0,1,1.53,1.41q0.19,0.46.32,0.84a1,1,0,0,1,.06.62,0.72,0.72,0,0,1-.46.4,0.57,0.57,0,0,1-.68-0.17,4.76,4.76,0,0,1-.7-1.3l-0.37-.91-1,.42,0.36,0.87,0,0.05a5.74,5.74,0,0,0,.83,1.49,1.55,1.55,0,0,0,2,.43,1.55,1.55,0,0,0,1.11-1.17,3.84,3.84,0,0,0-.37-1.91,3.91,3.91,0,0,0-2.15-2.11l-0.87-.39-0.35-.16a2.94,2.94,0,0,1-.57-0.33,1.74,1.74,0,0,1-.48-0.74,1.78,1.78,0,0,1-.17-0.9,0.64,0.64,0,0,1,.43-0.5,0.59,0.59,0,0,1,.37,0,0.82,0.82,0,0,1,.37.3,5.19,5.19,0,0,1,.56,1.11l0.25,0.6,1-.41-0.22-.53a8,8,0,0,0-.66-1.31,1.51,1.51,0,0,0-2-.62,1.6,1.6,0,0,0-1.13,1.13,3.1,3.1,0,0,0,.28,1.68A3,3,0,0,0-68.62,344.1Z" transform="translate(150.92 -168.72)"/><polygon class="cls-1" points="46.94 177 48.16 173.61 46.73 181.05 47.68 181.43 51.61 174.96 50.21 178.28 48.81 181.88 49.75 182.25 53.25 173.27 51.93 172.75 47.83 179.66 49.42 171.77 48.1 171.26 44.6 180.24 45.54 180.6 46.94 177"/><path class="cls-1" d="M-94.85,352.67a1.59,1.59,0,0,0,1.58-.39,4.35,4.35,0,0,0,.84-2.07l0.82-4.17a5.4,5.4,0,0,0,.11-1.69A1.56,1.56,0,0,0-92.91,343a1.8,1.8,0,0,0-1.42.21,3.28,3.28,0,0,0-1,2.1l-0.82,4.17a4.28,4.28,0,0,0,0,2.23A1.61,1.61,0,0,0-94.85,352.67Zm-0.21-3,0.84-4.25a3.46,3.46,0,0,1,.42-1.24,0.63,0.63,0,0,1,.69-0.27,0.58,0.58,0,0,1,.51.49,4.09,4.09,0,0,1-.11,1.32L-93.54,350a4.83,4.83,0,0,1-.44,1.43,0.6,0.6,0,0,1-.69.28,0.6,0.6,0,0,1-.53-0.51A4.86,4.86,0,0,1-95.06,349.7Z" transform="translate(150.92 -168.72)"/><polygon class="cls-1" points="62.79 184.72 63.92 184.79 64.41 176.11 65.4 176.16 65.46 175.22 62.28 175.04 62.23 175.98 63.29 176.04 62.79 184.72"/><path class="cls-1" d="M-82.43,350.78a4.28,4.28,0,0,0,.61,2.15,1.6,1.6,0,0,0,1.54.57,1.59,1.59,0,0,0,1.42-.8,4.35,4.35,0,0,0,.24-2.22L-79,346.24a5.35,5.35,0,0,0-.35-1.65,1.56,1.56,0,0,0-1.74-.93,1.8,1.8,0,0,0-1.31.59,3.27,3.27,0,0,0-.41,2.3Zm0.85-5.71a0.63,0.63,0,0,1,.59-0.44,0.58,0.58,0,0,1,.63.34,4,4,0,0,1,.25,1.29l0.35,4.31a4.87,4.87,0,0,1,0,1.5,0.6,0.6,0,0,1-.58.45,0.6,0.6,0,0,1-.65-0.35,4.82,4.82,0,0,1-.27-1.48l-0.35-4.32A3.48,3.48,0,0,1-81.58,345.07Z" transform="translate(150.92 -168.72)"/><polygon class="cls-1" points="103.05 161.42 103.01 161.58 102.55 163.46 104.33 162.35 106.11 163.46 105.64 161.58 105.6 161.42 106.17 160.94 107.21 160.07 105.11 159.92 104.33 157.98 103.54 159.92 101.45 160.07 102.48 160.94 103.05 161.42"/><path class="cls-1" d="M-58.87,341.44a0.72,0.72,0,0,0,.42-0.13c0.26-.18,6.28-4.42,8.88-7.4a0.73,0.73,0,0,0-.07-1,0.73,0.73,0,0,0-1,.07c-2.48,2.85-8.55,7.12-8.61,7.16a0.73,0.73,0,0,0-.18,1A0.72,0.72,0,0,0-58.87,341.44Z" transform="translate(150.92 -168.72)"/><polygon class="cls-1" points="26.71 160.94 27.28 161.42 27.24 161.58 26.77 163.46 28.56 162.35 30.34 163.46 29.87 161.58 29.83 161.42 30.4 160.94 31.44 160.07 29.34 159.92 28.56 157.98 27.77 159.92 25.68 160.07 26.71 160.94"/><path class="cls-1" d="M-119.39,333.9c2.59,3,8.62,7.22,8.88,7.4a0.73,0.73,0,0,0,.42.13,0.72,0.72,0,0,0,.59-0.31,0.73,0.73,0,0,0-.18-1c-0.06,0-6.13-4.31-8.61-7.16a0.72,0.72,0,0,0-1-.07A0.73,0.73,0,0,0-119.39,333.9Z" transform="translate(150.92 -168.72)"/><path class="cls-1" d="M-108.71,250.38a1.13,1.13,0,0,0-1.59-.08l-22.79,20.5a1.13,1.13,0,0,0-.09,1.59,1.13,1.13,0,0,0,1.6.08l22.79-20.5A1.13,1.13,0,0,0-108.71,250.38Z" transform="translate(150.92 -168.72)"/><path class="cls-1" d="M-120,255.55l8-7.17a1.13,1.13,0,0,0,.08-1.59,1.13,1.13,0,0,0-1.6-.08l-7.63,6.86a4.94,4.94,0,0,0-6.77.05,4.94,4.94,0,0,0-.77,6.72l-7.63,6.86a1.13,1.13,0,0,0-.09,1.59,1.13,1.13,0,0,0,1.6.08l8-7.17Z" transform="translate(150.92 -168.72)"/><path class="cls-1" d="M-58.86,250.29a1.13,1.13,0,0,0-1.59.08,1.13,1.13,0,0,0,.09,1.59l22.79,20.5a1.13,1.13,0,0,0,1.6-.08,1.13,1.13,0,0,0-.08-1.59Z" transform="translate(150.92 -168.72)"/><path class="cls-1" d="M-40.47,260.33a4.94,4.94,0,0,0-.77-6.72,4.94,4.94,0,0,0-6.77-.05l-7.63-6.86a1.13,1.13,0,0,0-1.6.08,1.13,1.13,0,0,0,.08,1.59l8,7.17,6.84,6.16,8,7.17a1.13,1.13,0,0,0,1.6-.08,1.13,1.13,0,0,0-.08-1.59Z" transform="translate(150.92 -168.72)"/><path class="cls-1" d="M-26.41,284.6H-146.31a0.57,0.57,0,0,0-.44.21,0.56,0.56,0,0,0-.11.47l2.73,13.25,1.29,6.25,1.57,7.59a0.56,0.56,0,0,0,.49.45l20.83,2.26,2.38,0.26,4.24,0.46,1.55,0.17,27.13,3h0.12l27.13-3,1.55-.17,4.24-.46,2.38-.26,20.83-2.26a0.57,0.57,0,0,0,.49-0.45l1.49-7.22,1.29-6.25,2.81-13.62a0.57,0.57,0,0,0-.12-0.47,0.57,0.57,0,0,0-.44-0.21h-3.55Zm1.29,8.71-1.29,6.25-2.51,12.18-19.83,2.16-2.35.25-4.14.45-1.51.16-27.83,3-27.83-3-1.51-.16-4.14-.45-2.35-.25-19.83-2.16-2.59-12.55-1.29-6.25-1.49-7.22H-23.55Z" transform="translate(150.92 -168.72)"/><path class="cls-1" d="M-18.48,281.6a1,1,0,0,0-.81-0.39h-5.82V206.77a0.64,0.64,0,0,0-.64-0.65H-143.48a0.64,0.64,0,0,0-.64.65v74.44h-5.75a1,1,0,0,0-.81.39,1.05,1.05,0,0,0-.21.87l6.74,32.66s0,0.06,0,.09V395a0.57,0.57,0,0,0,0,.08,0.62,0.62,0,0,0,0,.1,0.54,0.54,0,0,0,.05.12,0.45,0.45,0,0,0,0,.08,0.62,0.62,0,0,0,.1.1l0.06,0.05a0.63,0.63,0,0,0,.21.09l58.86,14.62,0.16,0,0.16,0,58.86-14.62a0.63,0.63,0,0,0,.21-0.09l0.05,0a0.61,0.61,0,0,0,.1-0.11l0-.08a0.62,0.62,0,0,0,.05-0.12,0.62,0.62,0,0,0,0-.1,0.57,0.57,0,0,0,0-.09V315.42a1,1,0,0,0,.11-0.29l6.74-32.66A1.05,1.05,0,0,0-18.48,281.6Zm-124.36-74.18H-26.41v73.8h-23l6.37-7.09,2.16,1.94a1.13,1.13,0,0,0,1.6-.08,1.13,1.13,0,0,0-.08-1.59l-2.16-1.94-18.47-16.61-2.16-1.94a1.13,1.13,0,0,0-1.59.08,1.13,1.13,0,0,0,.08,1.59l2.16,1.94-7.69,8.55a37.88,37.88,0,0,0-15.44-3.27A37.88,37.88,0,0,0-100,266.06l-7.69-8.55,2.16-1.94a1.13,1.13,0,0,0,.08-1.59,1.13,1.13,0,0,0-1.59-.08l-2.16,1.94-18.47,16.61-2.16,1.94a1.13,1.13,0,0,0-.08,1.59,1.13,1.13,0,0,0,1.59.08l2.16-1.94,6.37,7.09h-23v-73.8Zm90.7,73.51A38.39,38.39,0,0,0-67,267.08l7.25-8.06,15.11,13.59ZM-71,271.52c-0.72-.33-1.45-0.65-2.2-0.93a32.2,32.2,0,0,0-11.37-2.07A32.21,32.21,0,0,0-96,270.58c-0.75.28-1.48,0.6-2.2,0.93a32.6,32.6,0,0,0-12.12,9.7h-4.45a36.28,36.28,0,0,1,14-12.5q1.05-.53,2.14-1a35.77,35.77,0,0,1,14-2.83,35.77,35.77,0,0,1,14,2.83q1.09,0.46,2.14,1a36.28,36.28,0,0,1,14,12.5h-4.45A32.6,32.6,0,0,0-71,271.52Zm10.48,9.7h-48.1a31.32,31.32,0,0,1,8.92-7.47A31,31,0,0,1-95,271.61a31,31,0,0,1,10.45-1.81,31,31,0,0,1,10.45,1.81,31,31,0,0,1,4.68,2.13A31.34,31.34,0,0,1-60.53,281.21Zm-56.49-.28-7.48-8.31L-109.4,259l7.25,8.06A38.4,38.4,0,0,0-117,280.93Zm-7,44.65a58.79,58.79,0,0,1-4-8l9.71,1.06A38.15,38.15,0,0,0-84.58,339a38.15,38.15,0,0,0,33.71-20.35L-41,317.6a59,59,0,0,1-4,8,0.73,0.73,0,0,0,.23,1,0.73,0.73,0,0,0,.38.11,0.73,0.73,0,0,0,.62-0.34,58.38,58.38,0,0,0,4.44-8.93l12.9-1.4v49.16H-142.84V316l13.19,1.43a58.27,58.27,0,0,0,4.43,8.91,0.73,0.73,0,0,0,.62.34,0.74,0.74,0,0,0,.39-0.11A0.73,0.73,0,0,0-124,325.58Zm39.4,7.72a32.37,32.37,0,0,0,26.53-13.84l4.62-.5a36,36,0,0,1-31.15,18,36,36,0,0,1-31.15-18l4.62,0.5A32.37,32.37,0,0,0-84.58,333.3Zm-24.8-13.65,24.69,2.68h0.23l24.69-2.68A31.07,31.07,0,0,1-84.58,332,31.07,31.07,0,0,1-109.38,319.64Zm44.16,76L-84,408.36V395.6h18.75Zm-41.08,0L-88,408.08l-50.24-12.48h31.9Zm2.3,0h18.75v12.76Zm41.08,0H-31l-50.24,12.48Zm-79.91-1.29V366.46H-26.41V394.3H-142.84Zm117.72-89-1.29,6.25-0.5,2.43-11.62,1.26-1.6.17-9.67,1.05-2.43.26-4.38.48-1.61.17-26.37,2.87L-111,317.37l-1.61-.17-4.38-.48-2.43-.26-9.46-1-1.6-.17L-142.26,314l-0.58-2.79-1.29-6.25-4.46-21.61h128Z" transform="translate(150.92 -168.72)"/><polygon class="cls-1" points="18.39 55.62 19.48 55.62 19.48 54.93 18.39 54.93 18.39 49.7 19.48 49.7 19.48 48.98 17.46 48.98 17.46 62.56 19.63 62.56 19.63 61.85 18.39 61.85 18.39 55.62"/><path class="cls-1" d="M-124.85,217.88a2,2,0,0,0-1-.18,2.31,2.31,0,0,0-1,.17,0.74,0.74,0,0,0-.44.72v2.6a7.42,7.42,0,0,0,.93,2.91,17.68,17.68,0,0,1,.9,2v4.1a0.42,0.42,0,0,1-.47.51,0.29,0.29,0,0,1-.25-0.12,0.58,0.58,0,0,1-.11-0.36v-3.36h-0.95v3.35a1,1,0,0,0,.41.85,1.61,1.61,0,0,0,.9.25,1.64,1.64,0,0,0,.94-0.27,0.93,0.93,0,0,0,.43-0.81v-4.11a3.46,3.46,0,0,0-.48-1.46l-0.89-1.73a4.31,4.31,0,0,1-.45-1.71v-2.55a0.35,0.35,0,0,1,.13-0.28,0.52,0.52,0,0,1,.67,0,0.33,0.33,0,0,1,.12.26v3.33h0.9v-3.36A0.74,0.74,0,0,0-124.85,217.88Z" transform="translate(150.92 -168.72)"/><polygon class="cls-1" points="30.62 49.63 31.57 49.63 31.57 62.56 32.55 62.56 32.55 49.63 33.44 49.63 33.44 48.98 30.62 48.98 30.62 49.63"/><rect class="cls-1" x="37.71" y="61.3" width="1.12" height="1.26"/><path class="cls-1" d="M-56.08,230.5h-1v-2.42a7,7,0,0,1,.85-2.33,7,7,0,0,0,.89-2.8v-4.48a0.64,0.64,0,0,0-.44-0.62,2.4,2.4,0,0,0-.89-0.15,1.87,1.87,0,0,0-.9.21,0.75,0.75,0,0,0-.43.68V222h0.86v-3.14a0.41,0.41,0,0,1,.12-0.36,0.75,0.75,0,0,1,.42-0.11c0.2,0,.38.05,0.38,0.44V223a4.09,4.09,0,0,1-.42,1.46l-0.86,2a4.43,4.43,0,0,0-.45,1.68v3.18h2.75v-3h-0.89v2.22Z" transform="translate(150.92 -168.72)"/><path class="cls-1" d="M-49.65,217.7a1.52,1.52,0,0,0-1,.35,1.25,1.25,0,0,0-.44,1v10.51a1.79,1.79,0,0,0,.41,1.25,1.3,1.3,0,0,0,1,.46,1.31,1.31,0,0,0,1-.47,1.83,1.83,0,0,0,.42-1.27v-10.5a1.26,1.26,0,0,0-.41-1A1.41,1.41,0,0,0-49.65,217.7Zm0.35,11.82a1.79,1.79,0,0,1-.14.82,0.29,0.29,0,0,1-.25.21,0.29,0.29,0,0,1-.25-0.21,1.63,1.63,0,0,1-.14-0.76V219.07a0.91,0.91,0,0,1,.14-0.54,0.3,0.3,0,0,1,.25-0.16,0.31,0.31,0,0,1,.25.16,0.88,0.88,0,0,1,.14.53v10.47Z" transform="translate(150.92 -168.72)"/><path class="cls-1" d="M-42.7,217.7a1.52,1.52,0,0,0-1,.35,1.25,1.25,0,0,0-.44,1v10.51a1.79,1.79,0,0,0,.41,1.25,1.3,1.3,0,0,0,1,.46,1.31,1.31,0,0,0,1-.47,1.83,1.83,0,0,0,.42-1.27v-10.5a1.26,1.26,0,0,0-.41-1A1.41,1.41,0,0,0-42.7,217.7Zm0.35,11.82a1.79,1.79,0,0,1-.14.82,0.29,0.29,0,0,1-.25.21,0.29,0.29,0,0,1-.25-0.21,1.63,1.63,0,0,1-.14-0.76V219.07a0.91,0.91,0,0,1,.14-0.54,0.31,0.31,0,0,1,.25-0.16,0.3,0.3,0,0,1,.25.16,0.88,0.88,0,0,1,.14.53v10.47Z" transform="translate(150.92 -168.72)"/><path class="cls-1" d="M-35.75,221.7a1.48,1.48,0,0,0-.92-0.29l-0.36,0-0.14,0v-3.09h1.56V217.7h-2.47v4.81l0.27-.18a2.42,2.42,0,0,1,.45-0.22,0.84,0.84,0,0,1,.92,0,0.92,0.92,0,0,1,.15.6v7.39a0.65,0.65,0,0,1-.12.51,0.67,0.67,0,0,1-.42.11,0.39,0.39,0,0,1-.27-0.08,0.86,0.86,0,0,1-.08-0.49v-4.57h-0.95v4.57a0.92,0.92,0,0,0,.43.92,2,2,0,0,0,.87.18,1.94,1.94,0,0,0,.95-0.25,1,1,0,0,0,.51-0.91v-7.36A1.26,1.26,0,0,0-35.75,221.7Z" transform="translate(150.92 -168.72)"/></svg>