<svg id="Layer_1" data-name="Layer 1" xmlns="http://www.w3.org/2000/svg" viewBox="0 0 265.44 182.53"><defs><style>.cls-1{fill:#fff;}</style></defs><title>maningas-logo</title><path class="cls-1" d="M-288.74,104.73a3.29,3.29,0,0,1,.16-0.29,0.55,0.55,0,0,1,.31-0.22,3.46,3.46,0,0,1,.57-0.12,7.11,7.11,0,0,1,1-.05l0.75,0,1,0,1.09-.05,1-.07a3.12,3.12,0,0,1,.07.57q0,0.57-.36.61a4.37,4.37,0,0,0-1.72.48,1,1,0,0,0-.43.81s0,0.34.05,1,0.09,1.63.16,3,0.16,3.32.27,5.69,0.23,5.31.38,8.82a1.26,1.26,0,0,0,.47,1,4.42,4.42,0,0,0,1.76.54,0.39,0.39,0,0,1,.27.2,0.77,0.77,0,0,1,.09.38,3,3,0,0,1-.07.57l-2.28-.12q-1-.05-1.88-0.05l-0.9,0-1.13,0-1.17.05-1,.07a3,3,0,0,1-.07-0.57c0-.38.12-0.57,0.36-0.57a7.65,7.65,0,0,0,2-.57,1,1,0,0,0,.52-1c0-.07,0-0.51-0.05-1.33s-0.08-1.81-.14-3-0.12-2.44-.18-3.8-0.12-2.65-.18-3.86-0.11-2.25-.16-3.12-0.07-1.41-.07-1.6l-7.86,19a2.44,2.44,0,0,1-.27.48,0.41,0.41,0,0,1-.34.16,0.94,0.94,0,0,1-.32,0l-8.79-20.16q0,0.36-.09,1.74t-0.14,3.28q-0.09,1.9-.2,4t-0.2,3.91q-0.09,1.8-.14,3c0,0.81-.05,1.24-0.05,1.29q0,1.11,2.44,1.54a0.47,0.47,0,0,1,.36.57,3.12,3.12,0,0,1-.07.57l-1.9-.12q-0.93-.05-1.65-0.05t-1.54.05l-1.83.12a3,3,0,0,1-.07-0.57,0.49,0.49,0,0,1,.36-0.57,4.92,4.92,0,0,0,1.56-.52,1.27,1.27,0,0,0,.66-1q0-.32.07-1.81t0.16-3.53q0.09-2,.2-4.34t0.2-4.25q0.09-2,.14-3.23t0.05-1.31a0.91,0.91,0,0,0-.45-0.84,5.57,5.57,0,0,0-1.7-.48q-0.36,0-.36-0.61a3.06,3.06,0,0,1,.07-0.57l1.06,0.07,1.18,0.05,1.13,0,0.86,0a7.12,7.12,0,0,1,1,.05,3.49,3.49,0,0,1,.57.12,0.55,0.55,0,0,1,.3.22c0.06,0.1.11,0.19,0.16,0.29l7.68,17.9Z" transform="translate(310.95 31.86)"/><path class="cls-1" d="M-253.3,118.82h-8l-2.3,5.78a1.94,1.94,0,0,0-.18.72q0,0.75,2.19,1.08a0.43,0.43,0,0,1,.34.2,0.77,0.77,0,0,1,.09.38,3.12,3.12,0,0,1-.07.57l-2-.12q-1.08-.05-2.12-0.05c-0.48,0-1,0-1.47,0s-1,.07-1.58.14a2.32,2.32,0,0,1-.07-0.57,1,1,0,0,1,.09-0.43,0.45,0.45,0,0,1,.38-0.22,6.34,6.34,0,0,0,1.67-.45,1.63,1.63,0,0,0,.81-0.84l8.64-20.81a0.79,0.79,0,0,1,.68-0.61,2,2,0,0,1,.43.07l8.68,21.45a1.58,1.58,0,0,0,1,.79,7,7,0,0,0,1.47.4,0.85,0.85,0,0,1,.34.2,0.63,0.63,0,0,1,.13.45,3.12,3.12,0,0,1-.07.57l-2.26-.12q-1.11-.05-2.08-0.05t-2.3.05q-1.29.05-2.33,0.12a3,3,0,0,1-.07-0.57,0.63,0.63,0,0,1,.13-0.45,0.35,0.35,0,0,1,.23-0.13,8.07,8.07,0,0,0,1.51-.41,0.76,0.76,0,0,0,.57-0.7,1.4,1.4,0,0,0-.14-0.54Zm-0.57-1.47-3.34-8.79-3.48,8.79h6.82Z" transform="translate(310.95 31.86)"/><path class="cls-1" d="M-212.37,121.66v-15a1.17,1.17,0,0,0-.57-1.11,5.78,5.78,0,0,0-1.94-.5,0.49,0.49,0,0,1-.39-0.61,3.06,3.06,0,0,1,.07-0.57l1.83,0.13c0.62,0,1.21.05,1.76,0.05s1.08,0,1.65-.05l1.69-.13a3.13,3.13,0,0,1,.07.57q0,0.57-.36.61a4.08,4.08,0,0,0-1.67.5,1.19,1.19,0,0,0-.45,1v21.13a0.83,0.83,0,0,1-.25.05l-0.29,0a0.91,0.91,0,0,1-.47-0.12,1.89,1.89,0,0,1-.5-0.52L-226.76,108v16.9a1.06,1.06,0,0,0,.5,1,6.75,6.75,0,0,0,1.94.54,0.49,0.49,0,0,1,.36.57,3,3,0,0,1-.07.57l-1.81-.12q-0.92-.05-1.7-0.05t-1.69.05q-1,.05-1.76.12a3,3,0,0,1-.07-0.57,0.5,0.5,0,0,1,.39-0.57,5.59,5.59,0,0,0,1.74-.54,1.1,1.1,0,0,0,.45-1V106.41a1,1,0,0,0-.41-0.88,4.19,4.19,0,0,0-1.7-.48,0.52,0.52,0,0,1-.39-0.61,1.35,1.35,0,0,1,0-.32,1.07,1.07,0,0,1,0-.25c0.48,0,.93.08,1.36,0.11l1.22,0.05,1.15,0a8.39,8.39,0,0,1,1.38.07,0.92,0.92,0,0,1,.56.36Z" transform="translate(310.95 31.86)"/><path class="cls-1" d="M-187.48,124.85a1,1,0,0,0,.5,1,8,8,0,0,0,1.87.55,0.49,0.49,0,0,1,.36.57,3.12,3.12,0,0,1-.07.57l-2.22-.12q-1.11-.05-2.12-0.05t-2.13.05l-2.21.12a3,3,0,0,1-.07-0.57,0.49,0.49,0,0,1,.36-0.57,6.59,6.59,0,0,0,1.87-.54,1.06,1.06,0,0,0,.5-1V106.59a1.1,1.1,0,0,0-.5-1,5.73,5.73,0,0,0-1.87-.52,0.34,0.34,0,0,1-.29-0.22,1,1,0,0,1-.07-0.4,3.06,3.06,0,0,1,.07-0.57l2.24,0.13q1.17,0.05,2.1.05t2.06-.05l2.28-.13a3.13,3.13,0,0,1,.07.57,0.52,0.52,0,0,1-.36.61,5.73,5.73,0,0,0-1.87.52,1.1,1.1,0,0,0-.5,1v18.26Z" transform="translate(310.95 31.86)"/><path class="cls-1" d="M-151.39,121.66v-15a1.17,1.17,0,0,0-.57-1.11,5.76,5.76,0,0,0-1.94-.5,0.49,0.49,0,0,1-.4-0.61,3,3,0,0,1,.07-0.57l1.83,0.13c0.62,0,1.21.05,1.76,0.05s1.08,0,1.65-.05l1.69-.13a3.12,3.12,0,0,1,.07.57q0,0.57-.36.61a4.08,4.08,0,0,0-1.67.5,1.19,1.19,0,0,0-.45,1v21.13a0.84,0.84,0,0,1-.25.05l-0.29,0a0.91,0.91,0,0,1-.47-0.12,1.92,1.92,0,0,1-.5-0.52L-165.78,108v16.9a1.06,1.06,0,0,0,.5,1,6.75,6.75,0,0,0,1.94.54,0.49,0.49,0,0,1,.36.57,3.13,3.13,0,0,1-.07.57l-1.81-.12q-0.92-.05-1.7-0.05t-1.69.05q-1,.05-1.76.12a3,3,0,0,1-.07-0.57,0.5,0.5,0,0,1,.39-0.57,5.59,5.59,0,0,0,1.74-.54,1.1,1.1,0,0,0,.45-1V106.41a1,1,0,0,0-.41-0.88,4.19,4.19,0,0,0-1.7-.48,0.52,0.52,0,0,1-.39-0.61,1.35,1.35,0,0,1,0-.32,1.07,1.07,0,0,1,0-.25c0.48,0,.93.08,1.36,0.11l1.22,0.05,1.15,0a8.39,8.39,0,0,1,1.38.07,0.92,0.92,0,0,1,.56.36Z" transform="translate(310.95 31.86)"/><path class="cls-1" d="M-113.62,127.18q-1.61.28-3.3,0.45t-3.95.16a14.07,14.07,0,0,1-5.36-.93,10.55,10.55,0,0,1-3.78-2.55,10.28,10.28,0,0,1-2.24-3.82,15.06,15.06,0,0,1-.74-4.79,13.25,13.25,0,0,1,.74-4.3,11.59,11.59,0,0,1,2.22-3.87,11.48,11.48,0,0,1,3.75-2.82,12,12,0,0,1,5.27-1.09q1.08,0,2.06.05t2,0.2q1,0.14,2,.34t2.13,0.48q0.07,1.26.27,2.6t0.52,2.64a0.54,0.54,0,0,1-.29.11l-0.36,0a0.66,0.66,0,0,1-.72-0.47,5.75,5.75,0,0,0-2.19-3.44,7.87,7.87,0,0,0-4.41-1,9.94,9.94,0,0,0-4,.75,7.86,7.86,0,0,0-2.85,2.06,8.76,8.76,0,0,0-1.7,3.12,12.89,12.89,0,0,0-.58,3.93,13.55,13.55,0,0,0,.74,4.56,11.34,11.34,0,0,0,2,3.59,8.89,8.89,0,0,0,3,2.33,8.7,8.7,0,0,0,3.78.83,15.73,15.73,0,0,0,2.1-.14,12.07,12.07,0,0,0,1.78-.36v-5.49a1.49,1.49,0,0,0-.57-1.35,4.86,4.86,0,0,0-1.94-.55,0.47,0.47,0,0,1-.39-0.25,1,1,0,0,1-.11-0.43,2.32,2.32,0,0,1,.07-0.57q1,0.07,2.3.13t2.19,0.05q0.93,0,2.13-.05t2.1-.13a3,3,0,0,1,.07.57,0.69,0.69,0,0,1-.13.49,0.58,0.58,0,0,1-.3.16,3.48,3.48,0,0,0-1.6.48,1.25,1.25,0,0,0-.45,1.06v6.38a0.82,0.82,0,0,1-.18.54A1.91,1.91,0,0,1-113.62,127.18Z" transform="translate(310.95 31.86)"/><path class="cls-1" d="M-82.91,118.82h-8l-2.3,5.78a1.94,1.94,0,0,0-.18.72q0,0.75,2.19,1.08a0.43,0.43,0,0,1,.34.2,0.76,0.76,0,0,1,.09.38,3,3,0,0,1-.07.57l-2-.12q-1.08-.05-2.12-0.05c-0.48,0-1,0-1.47,0s-1,.07-1.58.14a2.28,2.28,0,0,1-.07-0.57,1,1,0,0,1,.09-0.43,0.45,0.45,0,0,1,.38-0.22,6.32,6.32,0,0,0,1.67-.45,1.63,1.63,0,0,0,.81-0.84l8.64-20.81a0.79,0.79,0,0,1,.68-0.61,2,2,0,0,1,.43.07l8.68,21.45a1.58,1.58,0,0,0,1,.79,7,7,0,0,0,1.47.4,0.85,0.85,0,0,1,.34.2,0.63,0.63,0,0,1,.12.45,3.1,3.1,0,0,1-.07.57l-2.26-.12q-1.11-.05-2.08-0.05t-2.3.05q-1.29.05-2.33,0.12a3,3,0,0,1-.07-0.57,0.62,0.62,0,0,1,.13-0.45,0.35,0.35,0,0,1,.23-0.13,8.09,8.09,0,0,0,1.51-.41,0.76,0.76,0,0,0,.57-0.7,1.37,1.37,0,0,0-.14-0.54Zm-0.57-1.47-3.34-8.79-3.48,8.79h6.82Z" transform="translate(310.95 31.86)"/><path class="cls-1" d="M-46.29,109.68a3,3,0,0,1-.54.07,1.05,1.05,0,0,1-.68-0.18,1.23,1.23,0,0,1-.32-0.4,7.33,7.33,0,0,0-2.22-3,5.9,5.9,0,0,0-3.52-.93,5.57,5.57,0,0,0-1.63.23,4.06,4.06,0,0,0-1.35.68,3.36,3.36,0,0,0-.92,1.09,3,3,0,0,0-.34,1.43,3.32,3.32,0,0,0,1.42,2.76,18.51,18.51,0,0,0,4.18,2.19,14.6,14.6,0,0,1,5.08,3,5.64,5.64,0,0,1,1.63,4.11,8.21,8.21,0,0,1-.45,2.74,5.86,5.86,0,0,1-1.4,2.22,6.51,6.51,0,0,1-2.46,1.49,10.82,10.82,0,0,1-3.62.54,16.17,16.17,0,0,1-4-.47,11.51,11.51,0,0,1-3.07-1.22q-0.11-1.51-.32-2.91t-0.5-2.8a1.55,1.55,0,0,1,.61-0.11,1,1,0,0,1,.66.2,1.64,1.64,0,0,1,.41.63,8.65,8.65,0,0,0,2.31,3.8,5.88,5.88,0,0,0,4,1.22,5.71,5.71,0,0,0,2-.32,4,4,0,0,0,1.44-.9,3.81,3.81,0,0,0,.86-1.29,4.11,4.11,0,0,0,.29-1.54,3.65,3.65,0,0,0-1.27-2.94,12,12,0,0,0-3.64-1.94,28.33,28.33,0,0,1-2.8-1.2,9.28,9.28,0,0,1-2.15-1.45A5.75,5.75,0,0,1-60,112.64a6.39,6.39,0,0,1-.49-2.6,6.44,6.44,0,0,1,.49-2.49,5.81,5.81,0,0,1,1.4-2,6.74,6.74,0,0,1,2.21-1.36,8,8,0,0,1,2.91-.5,15.74,15.74,0,0,1,3.23.32A22.4,22.4,0,0,1-46.83,105q0.07,1.08.2,2.31T-46.29,109.68Z" transform="translate(310.95 31.86)"/><path class="cls-1" d="M-216.09-11.6h8.27a48.13,48.13,0,0,0-8.27,8.26V-11.6Zm-1.64,13.33,1.49-2.12a46.55,46.55,0,0,1,11.36-11.36l2.12-1.49h-15v15Z" transform="translate(310.95 31.86)"/><path class="cls-1" d="M-140.35-11.6v8.27a48.14,48.14,0,0,0-8.27-8.27h8.27Zm-11.21-.15A46.56,46.56,0,0,1-140.2-.39l1.49,2.12v-15h-15Z" transform="translate(310.95 31.86)"/><path class="cls-1" d="M-216.09,64.14V55.87a48.14,48.14,0,0,0,8.27,8.27h-8.27Zm-0.15-11.22-1.49-2.12v15h15l-2.12-1.49a46.56,46.56,0,0,1-11.36-11.36" transform="translate(310.95 31.86)"/><path class="cls-1" d="M-140.35,64.14h-8.27a48.09,48.09,0,0,0,8.27-8.27v8.27Zm-11.21.15-2.12,1.49h15v-15l-1.49,2.12a46.59,46.59,0,0,1-11.36,11.36" transform="translate(310.95 31.86)"/><path class="cls-1" d="M-136.2,35.77V65.67a7,7,0,0,0,.94,3.56,7,7,0,0,0-3.56-.94h-29.89c-5,.2-8.54,2.64-9.51,6.39-1-3.75-4.49-6.18-9.51-6.39h-29.89a7,7,0,0,0-3.56.94,7,7,0,0,0,.94-3.56V35.77c-0.2-5-2.64-8.54-6.39-9.51,3.75-1,6.18-4.49,6.39-9.51V-13.14a7,7,0,0,0-.94-3.56,7,7,0,0,0,3.56.94h29.89c5-.2,8.54-2.64,9.51-6.39,1,3.75,4.49,6.18,9.51,6.39h29.89a7,7,0,0,0,3.56-.94,7,7,0,0,0-.94,3.56V16.76c0.2,5,2.64,8.54,6.39,9.51-3.75,1-6.18,4.49-6.39,9.51m11.84,9.78a59.16,59.16,0,0,1-5.88,12V37.81a5.1,5.1,0,0,0,4,1.88,6.16,6.16,0,0,0,4-1.46,56.36,56.36,0,0,1-2.06,7.31m-42.32,28.71H-147a59.21,59.21,0,0,1-12,5.87,56.44,56.44,0,0,1-7.32,2.06,6.14,6.14,0,0,0,1.46-4,5.1,5.1,0,0,0-1.88-4m-42.81,0h19.72a5.09,5.09,0,0,0-1.88,4,6.15,6.15,0,0,0,1.46,4,56.42,56.42,0,0,1-7.31-2.06,59.21,59.21,0,0,1-12-5.87M-230.17,39.7a5.1,5.1,0,0,0,4-1.88V57.53a59.15,59.15,0,0,1-5.88-12,56.49,56.49,0,0,1-2.06-7.31,6.16,6.16,0,0,0,4,1.46M-232.09,7a59.18,59.18,0,0,1,5.88-12V14.72a5.1,5.1,0,0,0-4-1.88,6.16,6.16,0,0,0-4,1.46A56.49,56.49,0,0,1-232.09,7m42.32-28.7h-19.72a59.22,59.22,0,0,1,12-5.88,56.42,56.42,0,0,1,7.32-2.06,6.15,6.15,0,0,0-1.46,4,5.1,5.1,0,0,0,1.88,4m42.81,0h-19.72a5.1,5.1,0,0,0,1.88-4,6.15,6.15,0,0,0-1.46-4,56.54,56.54,0,0,1,7.31,2.06,59.22,59.22,0,0,1,12,5.88m20.68,34.56a5.1,5.1,0,0,0-4,1.88V-5a59.24,59.24,0,0,1,5.87,12,56.44,56.44,0,0,1,2.06,7.32,6.15,6.15,0,0,0-4-1.46m6.18,6.18h0c0-3-1-7.63-2.72-12.58a60.46,60.46,0,0,0-7.57-14.58,0.82,0.82,0,0,0-.92-0.3,0.82,0.82,0,0,0-.57.78V15.66a7.56,7.56,0,0,0,1.32,4.77,4.12,4.12,0,0,0,3.29,1.71,3,3,0,0,0,3-2.08,1.49,1.49,0,0,0,.13-0.61,1.51,1.51,0,0,0-1.51-1.51,1.51,1.51,0,0,0-1.51,1.51,1.49,1.49,0,0,0,.37,1,1.91,1.91,0,0,1-.5.07,2.36,2.36,0,0,1-1.11-.3l-0.11-.08a2.76,2.76,0,0,1-.82-0.75,2.49,2.49,0,0,1-.45-1.43,3.48,3.48,0,0,1,3.47-3.47A4.55,4.55,0,0,1-121.73,19a5.89,5.89,0,0,1-5.88,5.88c-4.07,0-6.73-3.14-6.94-8.19V-13.14a4.7,4.7,0,0,1,4.7-5A3.89,3.89,0,0,1-126-14.25a2.79,2.79,0,0,1-2.75,3,2,2,0,0,1-1.66-.93,1.5,1.5,0,0,1,0-1.56,0.82,0.82,0,0,0-.33-1.11,0.82,0.82,0,0,0-1.11.33,3.12,3.12,0,0,0,0,3.18,3.63,3.63,0,0,0,3.06,1.73,4.44,4.44,0,0,0,4.39-4.59,5.53,5.53,0,0,0-5.52-5.52,6.26,6.26,0,0,0-3.15.83,6.28,6.28,0,0,0,.83-3.15,5.53,5.53,0,0,0-5.52-5.52,4.44,4.44,0,0,0-4.59,4.39,3.62,3.62,0,0,0,1.73,3.06,3.12,3.12,0,0,0,3.18,0,0.82,0.82,0,0,0,.33-1.11,0.82,0.82,0,0,0-1.11-.33,1.5,1.5,0,0,1-1.56,0,2,2,0,0,1-.93-1.66,2.79,2.79,0,0,1,3-2.75,3.89,3.89,0,0,1,3.88,3.88,4.7,4.7,0,0,1-5,4.7h-29.84c-5.05-.21-8.19-2.87-8.19-6.94A5.89,5.89,0,0,1-171-30.23a4.55,4.55,0,0,1,4.54,4.54,3.47,3.47,0,0,1-3.47,3.47,2.49,2.49,0,0,1-1.43-.45,2.76,2.76,0,0,1-.75-0.82l-0.08-.11a2.37,2.37,0,0,1-.3-1.11,1.86,1.86,0,0,1,.07-0.5,1.49,1.49,0,0,0,1,.37,1.51,1.51,0,0,0,1.51-1.51,1.51,1.51,0,0,0-1.51-1.51,1.48,1.48,0,0,0-.61.13,3,3,0,0,0-2.08,3,4.12,4.12,0,0,0,1.71,3.29,7.56,7.56,0,0,0,4.78,1.32h23.32a0.82,0.82,0,0,0,.78-0.57,0.82,0.82,0,0,0-.3-0.92,60.44,60.44,0,0,0-14.58-7.57c-5-1.74-9.53-2.72-12.58-2.72h0a7.53,7.53,0,0,0-7.25,5.53,7.53,7.53,0,0,0-7.24-5.53h0c-3,0-7.63,1-12.58,2.72a60.44,60.44,0,0,0-14.58,7.57,0.82,0.82,0,0,0-.3.92,0.82,0.82,0,0,0,.78.57h23.32a7.57,7.57,0,0,0,4.78-1.32,4.13,4.13,0,0,0,1.71-3.29,3,3,0,0,0-2.08-3,1.48,1.48,0,0,0-.61-0.13,1.51,1.51,0,0,0-1.51,1.51A1.51,1.51,0,0,0-185-24.83a1.49,1.49,0,0,0,1-.37,1.86,1.86,0,0,1,.07.5,2.36,2.36,0,0,1-.3,1.11l-0.08.1a2.76,2.76,0,0,1-.75.82,2.49,2.49,0,0,1-1.43.45A3.48,3.48,0,0,1-190-25.68a4.55,4.55,0,0,1,4.54-4.54,5.89,5.89,0,0,1,5.88,5.88c0,4.08-3.14,6.74-8.19,6.94h-29.84a4.7,4.7,0,0,1-5-4.7A3.89,3.89,0,0,1-218.74-26a2.79,2.79,0,0,1,3,2.75,2,2,0,0,1-.93,1.66,1.5,1.5,0,0,1-1.56,0,0.82,0.82,0,0,0-1.11.33,0.82,0.82,0,0,0,.33,1.11,3.12,3.12,0,0,0,3.18,0,3.63,3.63,0,0,0,1.73-3.06,4.44,4.44,0,0,0-4.59-4.39,5.53,5.53,0,0,0-5.52,5.52,6.28,6.28,0,0,0,.83,3.15,6.26,6.26,0,0,0-3.15-.83,5.53,5.53,0,0,0-5.52,5.52,4.44,4.44,0,0,0,4.39,4.59,3.63,3.63,0,0,0,3.06-1.73,3.12,3.12,0,0,0,0-3.18,0.82,0.82,0,0,0-1.11-.33,0.82,0.82,0,0,0-.33,1.11,1.5,1.5,0,0,1,0,1.56,2,2,0,0,1-1.66.93,2.8,2.8,0,0,1-2.75-3,3.89,3.89,0,0,1,3.89-3.88,4.7,4.7,0,0,1,4.7,5V16.71c-0.21,5.05-2.87,8.19-6.94,8.19A5.89,5.89,0,0,1-234.71,19a4.55,4.55,0,0,1,4.54-4.54,3.48,3.48,0,0,1,3.47,3.47,2.49,2.49,0,0,1-.45,1.43,2.79,2.79,0,0,1-.82.76l-0.11.08a2.36,2.36,0,0,1-1.1.3,1.92,1.92,0,0,1-.5-0.07,1.5,1.5,0,0,0,.37-1,1.51,1.51,0,0,0-1.51-1.51,1.51,1.51,0,0,0-1.51,1.51,1.5,1.5,0,0,0,.13.61,3,3,0,0,0,3,2.08,4.12,4.12,0,0,0,3.29-1.71,7.57,7.57,0,0,0,1.32-4.77V-7.66a0.82,0.82,0,0,0-.57-0.78,0.82,0.82,0,0,0-.92.3,60.43,60.43,0,0,0-7.57,14.58c-1.74,5-2.73,9.54-2.72,12.58h0a7.53,7.53,0,0,0,5.52,7.24,7.53,7.53,0,0,0-5.52,7.25h0c0,3,1,7.62,2.72,12.58a60.44,60.44,0,0,0,7.57,14.58,0.82,0.82,0,0,0,.67.34,0.81,0.81,0,0,0,.25,0,0.82,0.82,0,0,0,.57-0.78V36.88a7.57,7.57,0,0,0-1.32-4.77,4.12,4.12,0,0,0-3.29-1.71,3,3,0,0,0-3,2.08,1.5,1.5,0,0,0-.13.61,1.51,1.51,0,0,0,1.51,1.51,1.51,1.51,0,0,0,1.51-1.51,1.49,1.49,0,0,0-.37-1,1.86,1.86,0,0,1,.5-0.07,2.36,2.36,0,0,1,1.11.29L-228,32.4a2.8,2.8,0,0,1,.82.75,2.49,2.49,0,0,1,.45,1.43,3.47,3.47,0,0,1-3.47,3.47,4.55,4.55,0,0,1-4.54-4.54,5.89,5.89,0,0,1,5.88-5.88c4.07,0,6.73,3.14,6.94,8.19V65.67a4.7,4.7,0,0,1-4.7,5,3.89,3.89,0,0,1-3.89-3.88,2.79,2.79,0,0,1,2.75-3,2,2,0,0,1,1.66.93,1.5,1.5,0,0,1,0,1.56,0.82,0.82,0,0,0,.33,1.11,0.82,0.82,0,0,0,1.11-.33,3.12,3.12,0,0,0,0-3.18,3.63,3.63,0,0,0-3.06-1.73,4.44,4.44,0,0,0-4.39,4.59,5.53,5.53,0,0,0,5.52,5.52,6.28,6.28,0,0,0,3.15-.83,6.28,6.28,0,0,0-.83,3.15,5.53,5.53,0,0,0,5.52,5.52,4.44,4.44,0,0,0,4.59-4.39,3.63,3.63,0,0,0-1.73-3.06,3.12,3.12,0,0,0-3.18,0,0.82,0.82,0,0,0-.33,1.11,0.82,0.82,0,0,0,1.11.33,1.5,1.5,0,0,1,1.56,0,2,2,0,0,1,.93,1.66,2.79,2.79,0,0,1-3,2.75,3.89,3.89,0,0,1-3.88-3.88,4.7,4.7,0,0,1,5-4.7h29.84c5.05,0.21,8.19,2.87,8.19,6.94a5.89,5.89,0,0,1-5.88,5.88A4.55,4.55,0,0,1-190,78.21a3.47,3.47,0,0,1,3.47-3.47,2.49,2.49,0,0,1,1.43.45,2.79,2.79,0,0,1,.75.82l0.08,0.11a2.35,2.35,0,0,1,.29,1.1,1.86,1.86,0,0,1-.07.5,1.49,1.49,0,0,0-1-.38,1.51,1.51,0,0,0-1.51,1.51A1.51,1.51,0,0,0-185,80.37a1.49,1.49,0,0,0,.61-0.13,3,3,0,0,0,2.08-3,4.12,4.12,0,0,0-1.71-3.29,7.56,7.56,0,0,0-4.78-1.32h-23.32a0.82,0.82,0,0,0-.78.57,0.82,0.82,0,0,0,.3.92,60.46,60.46,0,0,0,14.58,7.57c4.92,1.73,9.48,2.72,12.52,2.72h0.06a7.53,7.53,0,0,0,7.24-5.52A7.53,7.53,0,0,0-171,84.39h0.06c3,0,7.6-1,12.52-2.72a60.41,60.41,0,0,0,14.58-7.57,0.82,0.82,0,0,0,.3-0.92,0.82,0.82,0,0,0-.78-0.57h-23.32a7.56,7.56,0,0,0-4.78,1.32,4.12,4.12,0,0,0-1.71,3.29,3,3,0,0,0,2.08,3,1.51,1.51,0,0,0,.61.13,1.51,1.51,0,0,0,1.51-1.51,1.51,1.51,0,0,0-1.51-1.51,1.5,1.5,0,0,0-1,.38,1.92,1.92,0,0,1-.07-0.5,2.35,2.35,0,0,1,.29-1.1l0.08-.11a2.78,2.78,0,0,1,.75-0.82,2.5,2.5,0,0,1,1.43-.45,3.47,3.47,0,0,1,3.47,3.47A4.55,4.55,0,0,1-171,82.76a5.89,5.89,0,0,1-5.88-5.88c0-4.07,3.14-6.73,8.19-6.94h29.84a4.7,4.7,0,0,1,5,4.7,3.89,3.89,0,0,1-3.88,3.88,2.79,2.79,0,0,1-3-2.75,2,2,0,0,1,.93-1.66,1.5,1.5,0,0,1,1.56,0A0.82,0.82,0,0,0-137,73.8a0.82,0.82,0,0,0-.33-1.11,3.12,3.12,0,0,0-3.18,0,3.63,3.63,0,0,0-1.73,3.06,4.44,4.44,0,0,0,4.59,4.39,5.53,5.53,0,0,0,5.52-5.52,6.28,6.28,0,0,0-.83-3.15,6.28,6.28,0,0,0,3.15.83,5.53,5.53,0,0,0,5.52-5.52,4.44,4.44,0,0,0-4.39-4.59,3.63,3.63,0,0,0-3.06,1.73,3.12,3.12,0,0,0,0,3.18,0.82,0.82,0,0,0,1.11.33,0.82,0.82,0,0,0,.33-1.11,1.5,1.5,0,0,1,0-1.56,2,2,0,0,1,1.66-.93,2.79,2.79,0,0,1,2.75,3,3.89,3.89,0,0,1-3.88,3.88,4.7,4.7,0,0,1-4.7-5V35.82c0.21-5.05,2.87-8.19,6.94-8.19a5.89,5.89,0,0,1,5.88,5.88,4.55,4.55,0,0,1-4.54,4.54,3.47,3.47,0,0,1-3.47-3.47,2.49,2.49,0,0,1,.45-1.43,2.79,2.79,0,0,1,.82-0.76l0.11-.08a2.35,2.35,0,0,1,1.1-.29,1.91,1.91,0,0,1,.5.07,1.49,1.49,0,0,0-.37,1,1.51,1.51,0,0,0,1.51,1.51,1.51,1.51,0,0,0,1.51-1.51,1.49,1.49,0,0,0-.13-0.61,3,3,0,0,0-3-2.08,4.12,4.12,0,0,0-3.29,1.71,7.57,7.57,0,0,0-1.32,4.77V60.19a0.82,0.82,0,0,0,.57.78,0.83,0.83,0,0,0,.25,0,0.81,0.81,0,0,0,.66-0.34,60.38,60.38,0,0,0,7.58-14.58c1.74-5,2.73-9.54,2.72-12.58h0a7.53,7.53,0,0,0-5.52-7.25A7.53,7.53,0,0,0-120.09,19" transform="translate(310.95 31.86)"/><path class="cls-1" d="M-165.67,8c0.08-.16.17-0.31,0.26-0.47a0.9,0.9,0,0,1,.5-0.35A5.68,5.68,0,0,1-164,7a11.86,11.86,0,0,1,1.65-.09l1.24,0,1.65-.06,1.8-.09,1.68-.12a5.15,5.15,0,0,1,.12.94q0,0.95-.59,1a7.18,7.18,0,0,0-2.83.8,1.55,1.55,0,0,0-.71,1.33s0,0.56.09,1.56,0.15,2.67.26,5,0.27,5.45.44,9.34,0.38,8.72.62,14.5a2.08,2.08,0,0,0,.77,1.65,7.31,7.31,0,0,0,2.89.88,0.63,0.63,0,0,1,.44.32,1.27,1.27,0,0,1,.15.62,5.12,5.12,0,0,1-.12.94l-3.74-.21q-1.68-.09-3.09-0.09l-1.47,0-1.86.06q-1,0-1.92.09l-1.65.12a5,5,0,0,1-.12-0.94c0-.63.2-0.94,0.59-0.94a12.62,12.62,0,0,0,3.21-.94,1.67,1.67,0,0,0,.86-1.59q0-.18-0.09-2.18T-163.93,34q-0.15-2.89-.29-6.25t-0.3-6.34q-0.15-3-.26-5.13t-0.12-2.62l-12.91,31.18a3.94,3.94,0,0,1-.44.79,0.67,0.67,0,0,1-.56.27,1.49,1.49,0,0,1-.53-0.06l-14.44-33.13q-0.06.59-.15,2.86T-194.17,21q-0.15,3.13-.32,6.6T-194.82,34q-0.15,2.95-.24,5t-0.09,2.12q0,1.83,4,2.53a0.76,0.76,0,0,1,.59.94,5,5,0,0,1-.12.94l-3.12-.21q-1.53-.09-2.71-0.09-0.95,0-2.54.09t-3,.21a5,5,0,0,1-.12-0.94,0.81,0.81,0,0,1,.59-0.94,8.12,8.12,0,0,0,2.56-.85,2.09,2.09,0,0,0,1.09-1.68q0-.53.12-3t0.26-5.81q0.15-3.36.32-7.13t0.32-7q0.15-3.21.24-5.31t0.09-2.15a1.5,1.5,0,0,0-.74-1.39,9.11,9.11,0,0,0-2.8-.8q-0.59-.06-0.59-1a5.15,5.15,0,0,1,.12-0.94l1.74,0.12q1,0.06,1.95.09L-195,6.87l1.42,0A11.86,11.86,0,0,1-192,7a5.74,5.74,0,0,1,.94.21,0.91,0.91,0,0,1,.5.35c0.1,0.16.19,0.32,0.26,0.47l12.62,29.42Z" transform="translate(310.95 31.86)"/><path class="cls-1" d="M-178.22-10.82a37.13,37.13,0,0,0-37.08,37.09,37.13,37.13,0,0,0,37.08,37.08,37.13,37.13,0,0,0,37.08-37.08,37.13,37.13,0,0,0-37.08-37.09m0,76a38.94,38.94,0,0,1-38.9-38.9,38.94,38.94,0,0,1,38.9-38.9,38.94,38.94,0,0,1,38.9,38.9,38.94,38.94,0,0,1-38.9,38.9" transform="translate(310.95 31.86)"/><path class="cls-1" d="M-272.52,140.29a5.11,5.11,0,0,1,3.58,1.26l-0.37.46a4.89,4.89,0,0,0-3.2-1.13,4.34,4.34,0,0,0-4.34,4.53,4.46,4.46,0,0,0,4.39,4.67,4.85,4.85,0,0,0,3.4-1.36l0.39,0.43a5.29,5.29,0,0,1-3.78,1.52,5.06,5.06,0,0,1-5-5.26A5,5,0,0,1-272.52,140.29Z" transform="translate(310.95 31.86)"/><path class="cls-1" d="M-258,140.29a5.07,5.07,0,0,1,5.07,5.12,5.14,5.14,0,0,1-5.07,5.26,5.14,5.14,0,0,1-5.07-5.26A5.07,5.07,0,0,1-258,140.29Zm0,9.79a4.52,4.52,0,0,0,4.43-4.67,4.44,4.44,0,0,0-4.43-4.53,4.44,4.44,0,0,0-4.43,4.53A4.52,4.52,0,0,0-258,150.08Z" transform="translate(310.95 31.86)"/><path class="cls-1" d="M-246.85,148.95a3.86,3.86,0,0,0,2.68,1.12,2,2,0,0,0,2.24-2c0-2.85-5.13-2.06-5.13-5.2a2.79,2.79,0,0,1,3-2.59,3.75,3.75,0,0,1,2.55.93l-0.34.53a3.33,3.33,0,0,0-2.19-.86,2.17,2.17,0,0,0-2.38,2c0,2.65,5.13,1.83,5.13,5.19a2.66,2.66,0,0,1-2.91,2.61,4.26,4.26,0,0,1-3.07-1.25Z" transform="translate(310.95 31.86)"/><path class="cls-1" d="M-234.39,140.46h0.6l2.92,6.31c0.23,0.49.49,1.13,0.49,1.13h0s0.26-.65.49-1.13l2.92-6.31h0.6l0.8,10h-0.62l-0.62-7.65c0-.49,0-1.33,0-1.33h0s-0.29.84-.52,1.33l-2.69,5.72h-0.63l-2.68-5.72c-0.21-.47-0.53-1.36-0.53-1.36h0s0,0.87,0,1.36l-0.62,7.65h-0.62Z" transform="translate(310.95 31.86)"/><path class="cls-1" d="M-218.7,140.46h5.49V141h-4.87v4.11h4v0.57h-4v4.2h5.15v0.57h-5.76v-10Z" transform="translate(310.95 31.86)"/><path class="cls-1" d="M-204.19,141h-3.74v-0.57h8.1V141h-3.74v9.46h-0.62V141Z" transform="translate(310.95 31.86)"/><path class="cls-1" d="M-194.15,140.46h0.62v10h-0.62v-10Z" transform="translate(310.95 31.86)"/><path class="cls-1" d="M-182.12,140.29a5.11,5.11,0,0,1,3.58,1.26l-0.37.46a4.9,4.9,0,0,0-3.2-1.13,4.34,4.34,0,0,0-4.34,4.53,4.46,4.46,0,0,0,4.39,4.67,4.86,4.86,0,0,0,3.4-1.36l0.39,0.43a5.29,5.29,0,0,1-3.78,1.52,5.06,5.06,0,0,1-5-5.26A5,5,0,0,1-182.12,140.29Z" transform="translate(310.95 31.86)"/><path class="cls-1" d="M-164.22,148.95a3.87,3.87,0,0,0,2.68,1.12,2,2,0,0,0,2.23-2c0-2.85-5.13-2.06-5.13-5.2a2.79,2.79,0,0,1,3-2.59,3.75,3.75,0,0,1,2.55.93l-0.34.53a3.33,3.33,0,0,0-2.19-.86,2.17,2.17,0,0,0-2.38,2c0,2.65,5.13,1.83,5.13,5.19a2.66,2.66,0,0,1-2.91,2.61,4.26,4.26,0,0,1-3.07-1.25Z" transform="translate(310.95 31.86)"/><path class="cls-1" d="M-152.41,140.46h0.62V147a2.88,2.88,0,0,0,3.12,3.05,2.9,2.9,0,0,0,3.14-3.08v-6.54h0.62v6.59a3.47,3.47,0,0,1-3.74,3.61,3.48,3.48,0,0,1-3.75-3.61v-6.59Z" transform="translate(310.95 31.86)"/><path class="cls-1" d="M-137.95,140.46H-135a3.81,3.81,0,0,1,1.81.3,2.57,2.57,0,0,1,1.39,2.41,2.67,2.67,0,0,1-2,2.77v0a2,2,0,0,1,.23.36l2.25,4.17h-0.73l-2.38-4.44h-2.88v4.44h-0.62v-10Zm3.34,5a2.11,2.11,0,0,0,2.15-2.31,2,2,0,0,0-1.18-1.93A3.17,3.17,0,0,0-135,141h-2.29v4.44h2.72Z" transform="translate(310.95 31.86)"/><path class="cls-1" d="M-120.7,140.29a5.4,5.4,0,0,1,3.5,1.13l-0.37.47a5.16,5.16,0,0,0-3.13-1,4.38,4.38,0,0,0-4.36,4.6,4.33,4.33,0,0,0,4.27,4.6,4.69,4.69,0,0,0,3.44-1.65V146.5h-1.79v-0.57h2.41v4.57h-0.62v-0.87c0-.21,0-0.43,0-0.43h0a4.62,4.62,0,0,1-3.43,1.48,5,5,0,0,1-4.92-5.19A5,5,0,0,1-120.7,140.29Z" transform="translate(310.95 31.86)"/><path class="cls-1" d="M-110.15,140.46h5.49V141h-4.87v4.11h4v0.57h-4v4.2h5.15v0.57h-5.76v-10Z" transform="translate(310.95 31.86)"/><path class="cls-1" d="M-98,140.46H-95a3.81,3.81,0,0,1,1.81.3,2.57,2.57,0,0,1,1.39,2.41,2.67,2.67,0,0,1-2,2.77v0a2,2,0,0,1,.23.36l2.25,4.17h-0.73l-2.38-4.44h-2.88v4.44H-98v-10Zm3.34,5a2.11,2.11,0,0,0,2.15-2.31,2,2,0,0,0-1.18-1.93A3.17,3.17,0,0,0-95,141h-2.29v4.44h2.72Z" transform="translate(310.95 31.86)"/><path class="cls-1" d="M-83,146.14l-3.41-5.68h0.7l2.38,4c0.29,0.49.62,1.13,0.62,1.13h0s0.32-.65.62-1.13l2.38-4H-79l-3.4,5.68v4.36H-83v-4.36Z" transform="translate(310.95 31.86)"/></svg>