<?xml version="1.0" encoding="utf-8"?>
<!-- Generator: Adobe Illustrator 18.1.0, SVG Export Plug-In . SVG Version: 6.00 Build 0)  -->
<!DOCTYPE svg PUBLIC "-//W3C//DTD SVG 1.1//EN" "http://www.w3.org/Graphics/SVG/1.1/DTD/svg11.dtd">
<svg version="1.1" id="Layer_1" xmlns="http://www.w3.org/2000/svg" xmlns:xlink="http://www.w3.org/1999/xlink" x="0px" y="0px"
	 viewBox="0 135.1 792 341.8" enable-background="new 0 135.1 792 341.8" xml:space="preserve">
<g id="BLU20_1_">
	<path fill="#B2B2B2" d="M646.3,330.8c18-12.3,38.4-26.3,38.4-51.6c0-23.7-17.9-40.2-43.5-40.2c-29.8,0-43,25.5-43.1,25.7l-0.7,1.4
		l13.1,8.8l1-1.7c0.1-0.2,10.3-17.8,29-17.8c15.6,0,26.6,10.1,26.6,24.4c0,16.3-15,26.6-30.8,37.6c-18.4,12.7-39.3,27.1-39.3,53.7
		c0,3.2,0.3,6.2,0.8,9.1l0.3,1.5h88.8v-15.7h-71.3C616.7,351,631.1,341.2,646.3,330.8"/>
	<path fill="#B2B2B2" d="M743.1,239.1c-32.1,0-49.1,25.1-49.1,72.5c0,47.5,17,72.7,49.1,72.7c32.5,0,48.9-24.5,48.9-72.7
		C792,264.1,775.1,239.1,743.1,239.1 M774.3,311.5c0,38.4-9.9,56.3-31.2,56.3c-21.4,0-31.4-17.9-31.4-56.3c0-38.3,10-56.1,31.4-56.1
		C764.4,255.4,774.3,273.2,774.3,311.5"/>
	<path fill="#B2B2B2" d="M170.9,135.1C76.7,135.1,0,211.8,0,306c0,10.6,1,21.2,3,31.6c0.6,3.3,1.4,6.6,2.2,9.9
		c0.3,1.1,0.6,2.3,0.9,3.4c0.2,0.7,0.4,1.4,0.6,2.1l0.3,0.9c0.9,3.2,1.8,6,2.7,8.5c0.1,0.4,0.3,0.7,0.4,1.1l0.3,0.7
		c4.3,11.7,9.8,22.9,16.5,33.4c0.5,0.8,1,1.6,1.6,2.4c0.2,0.4,0.5,0.7,0.7,1.1c0.9,1.4,1.9,2.8,2.9,4.2c0.5,0.7,1.1,1.5,1.6,2.2
		l0.2,0.3l0.1,0.2c32.2,43.1,83.4,68.9,137,68.9c53.6,0,104.8-25.8,137-68.9c0.2-0.3,0.4-0.6,0.6-0.9c0.6-0.8,1.2-1.6,1.8-2.4
		c0.8-1.2,1.6-2.3,2.4-3.5c0.4-0.6,0.8-1.2,1.1-1.8c0.5-0.8,1.1-1.6,1.6-2.4c6.5-10.2,11.9-21.2,16-32.7l0.2-0.6
		c0.1-0.3,0.2-0.6,0.3-0.9c0.9-2.7,1.9-5.6,2.8-8.9l0.3-0.9c0.2-0.6,0.3-1.1,0.5-1.7c0.4-1.3,0.7-2.5,1-3.8c0.8-3.3,1.5-6.6,2.2-9.9
		c2-10.4,3-21,3-31.6C341.8,211.8,265.2,135.1,170.9,135.1 M170.9,462.3c-46.7,0-89.8-20.3-119.6-55.9c3.9-2.2,7.6-4.7,11-7.4
		c15.6,12.3,35.1,19,55,19c19.9,0,39.4-6.8,55-19c15.6,12.3,35.1,19,55,19c19.9,0,39.3-6.8,55-19c2.9,2.3,6,4.4,9.3,6.3
		C261.6,441.6,218.1,462.3,170.9,462.3 M315.4,365.6c-3.4,8.3-7.5,16.3-12.2,23.7c-0.8,1.2-1.6,2.5-2.4,3.7
		c-0.2,0.3-0.3,0.5-0.5,0.8c-0.6,0.8-1.1,1.7-1.7,2.5c-3.3-1.9-6.5-4.1-9.5-6.5c-1-0.8-2-1.6-3-2.5c-0.2-0.2-0.4-0.4-0.7-0.6
		c-0.1-0.1-0.1-0.1-0.2-0.1c-0.9-0.6-1.8-0.9-2.9-0.9c-1.7,0-3,0.9-3.6,1.4c-1.1,0.9-2.1,1.8-3.2,2.7c-13.9,11-30.5,16.8-48.2,16.8
		c-17.7,0-34.3-5.8-48.2-16.8c-1-0.8-2-1.6-2.8-2.3c-1.8-1.9-4.3-2.3-6.5-1.1c-0.2,0-0.4,0.1-0.6,0.3l-0.6,0.5l-0.2,0.2
		c-1,0.8-1.9,1.7-2.9,2.5c-13.9,11-30.5,16.8-48.2,16.8c-17.7,0-34.3-5.8-48.2-16.8c-1-0.8-2-1.6-2.9-2.4c-0.2-0.2-0.5-0.4-0.7-0.6
		c-0.1-0.1-0.1-0.1-0.2-0.1c-1.7-1.2-3.8-1.2-5.6-0.1c-0.2,0-0.3,0.1-0.5,0.3l-0.7,0.6c-1,0.8-1.9,1.7-2.9,2.5
		c-3.6,2.9-7.5,5.4-11.4,7.6c-0.6-0.8-1.2-1.7-1.8-2.6c-0.4-0.6-0.8-1.2-1.2-1.8c-0.7-1-1.3-1.9-1.9-2.9
		c-4.9-7.6-9.2-15.9-12.7-24.5c0-0.1-0.1-0.2-0.1-0.3c11,4.7,22.9,7.1,34.7,7.1c19.9,0,39.4-6.8,55-19.1
		c15.6,12.3,35.1,19.1,55,19.1s39.3-6.8,55-19.1c15.6,12.3,35.1,19.1,55,19.1c11.8,0,23.7-2.5,34.7-7.1L315.4,365.6z M153.2,324.3
		c-2.4-1.5-5-2.7-7.8-3.8c-18.5-6.7-68.3-28.7-76-50.5c0-0.1-0.1-0.2-0.1-0.3c-0.1-0.2-6.6-16.2-4.7-36.8
		c5.2,5.7,20.3,19.5,45.5,19.5c3.8,0,7.8-0.3,11.7-1c1.1-0.1,22.9-2.5,39.1,4.1c-5.6,6.3-8.4,14.2-8.4,23.5L153.2,324.3z M164,278.9
		c0-6.9,2.3-12.7,6.9-17.1c4.6,4.4,6.9,10.1,6.9,17l-1.3,81.8c-1.8,0.1-3.7,0.2-5.6,0.2c-1.9,0-3.7-0.1-5.6-0.2L164,278.9z
		 M181,255.6c15.9-6.5,37.3-4.3,39-4.1c4,0.6,7.9,1,11.7,1c25.2,0,40.3-13.8,45.5-19.5c1.9,20.6-4.6,36.6-4.7,36.8l-0.1,0.3
		c-7.7,21.8-57.6,43.9-76.1,50.6c-2.7,1-5.3,2.3-7.7,3.7l0.7-45.4C189.4,269.7,186.5,261.8,181,255.6 M322.2,345.5
		c-0.4,1.4-0.7,2.7-1.1,4.1c-12.1,7.4-25.9,11.3-40.2,11.3c-17.7,0-34.3-5.8-48.2-16.8c-1-0.8-2-1.6-2.8-2.3
		c-1.8-1.9-4.3-2.3-6.5-1.1c-0.2,0-0.4,0.1-0.6,0.3l-0.6,0.5l-0.2,0.2c-1,0.8-1.9,1.7-2.9,2.5c-9.3,7.4-19.8,12.4-31.1,14.9
		l0.3-19.7c3.1-3.4,7.1-6,11.9-7.9c2.9-1.1,71.7-26.2,83-57.4c0.9-2.2,8.7-22.4,4.8-47.8c0-0.2-0.1-0.4-0.1-0.6
		c-1.1-4.1-4-8.6-9-8.6c-3.6,0-6.7,2.3-9.1,6.8c-1.4,1.8-14.2,17.1-38.1,17.1c-3.2,0-6.6-0.3-10.2-0.9c0,0-4.9-0.6-12.1-0.6
		c-15.9,0-28.8,2.7-38.5,8.2c-9.6-5.4-22.6-8.2-38.5-8.2c-7.2,0-12.1,0.6-12.1,0.6l-0.3,0c-3.4,0.6-6.7,0.8-9.9,0.8
		c-24,0-36.7-15.3-38-16.9c-2.6-4.6-5.7-6.9-9.2-6.9c-5,0-7.9,4.4-9,8.6c-0.1,0.2-0.1,0.4-0.1,0.6c-3.9,25.5,3.9,45.6,4.8,47.8
		c11.3,31.4,80,56.3,82.9,57.4c4.9,1.8,8.9,4.5,12,7.9l0.3,19.6c-11.2-2.5-21.8-7.5-31-14.9c-1-0.8-2-1.6-2.9-2.4
		c-0.2-0.2-0.5-0.4-0.7-0.6c-0.1-0.1-0.2-0.1-0.2-0.2c-1.5-1-3.6-1.1-5.2-0.3c-0.2,0-0.5,0.1-0.7,0.3l-0.5,0.5
		c-0.1,0.1-0.2,0.2-0.3,0.3c-1,0.8-1.9,1.7-2.9,2.5c-13.9,11-30.5,16.8-48.2,16.8c-14.2,0-28.1-3.9-40.2-11.3
		c-0.4-1.4-0.8-2.7-1.1-4.1c-3.4-12.9-5.1-26.1-5.1-39.5c0-86.2,70.1-156.3,156.3-156.3c86.2,0,156.3,70.1,156.3,156.3
		C327.3,319.4,325.5,332.6,322.2,345.5"/>
	<path fill="#B2B2B2" d="M459,300.6c-3.5-4.4-7.9-7.9-13.2-10.5c-5.3-2.5-11.6-3.8-18.7-3.8c-5.1,0-9.6,0.6-13.3,1.8
		c-3.7,1.2-7,2.8-9.7,4.7c-2.7,1.9-5,4-6.9,6.3c-0.4,0.5-0.8,0.9-1.1,1.4v-52.2h-12.4v129.5l1.1,0.5c3.6,1.6,8.4,3,14.3,4.1
		c5.9,1.1,12.2,1.7,18.7,1.7c7.2,0,14-1.1,20.2-3.2c6.2-2.1,11.7-5.3,16.4-9.4c4.7-4.1,8.4-9.3,11-15.3c2.6-6,3.9-13,3.9-20.8
		c0-6.9-0.8-13.4-2.5-19.3C465,310.2,462.4,305,459,300.6 M456.2,335.3c0,6.2-1,11.7-2.9,16.3c-1.9,4.6-4.6,8.5-8,11.5
		c-3.4,3-7.5,5.4-12.1,6.9c-4.7,1.6-9.8,2.3-15.3,2.3c-6.6,0-11.8-0.4-15.4-1.3c-2.9-0.7-5.1-1.3-6.7-1.7v-37
		c0-3.6,0.6-7.4,1.9-11.4c1.2-4,3.1-7.7,5.6-11c2.5-3.3,5.7-6.1,9.5-8.3c3.7-2.2,8.2-3.2,13.3-3.2c5.5,0,10.2,1,13.9,2.9
		c3.7,1.9,6.8,4.6,9.2,7.8c2.4,3.3,4.1,7.2,5.3,11.7C455.6,325.4,456.2,330.3,456.2,335.3"/>
	<rect x="480.1" y="248.4" fill="#B2B2B2" width="12.4" height="133.5"/>
	<path fill="#B2B2B2" d="M587.5,379.9c-0.1-1.4-0.2-2.7-0.3-3.9c-0.1-1.2-0.1-2.5-0.1-3.8v-83.5h-12.4v48c0,4.1-0.6,8.3-1.9,12.5
		c-1.2,4.2-3.1,8.1-5.7,11.5c-2.5,3.4-5.7,6.2-9.6,8.4c-3.9,2.2-8.5,3.3-13.7,3.3c-4.1,0-7.7-0.5-10.7-1.5c-2.9-0.9-5.3-2.5-7.3-4.9
		c-2-2.4-3.6-5.6-4.6-9.8c-1.1-4.2-1.6-9.6-1.6-16.1v-51.5h-12.4v54.4c0,6.2,0.6,11.9,1.7,16.8c1.1,5,3.2,9.4,6,13.1
		c2.8,3.7,6.6,6.5,11.1,8.5c4.5,1.9,10.1,2.9,16.7,2.9c5.3,0,10-0.8,14-2.3c4-1.5,7.5-3.4,10.3-5.6c2.8-2.2,5.3-4.7,7.1-7.3
		c0.3-0.5,0.7-0.9,1-1.3v0.1c0,1.7,0,3.3,0.1,4.7l0.2,3.8c0.1,1.2,0.2,2.5,0.3,4l0.2,1.7h11.9L587.5,379.9z"/>
</g>
</svg>
