<?xml version="1.0" encoding="utf-8"?>
<!-- Generator: Adobe Illustrator 18.1.0, SVG Export Plug-In . SVG Version: 6.00 Build 0)  -->
<!DOCTYPE svg PUBLIC "-//W3C//DTD SVG 1.1//EN" "http://www.w3.org/Graphics/SVG/1.1/DTD/svg11.dtd">
<svg version="1.1" id="Layer_1" xmlns="http://www.w3.org/2000/svg" xmlns:xlink="http://www.w3.org/1999/xlink" x="0px" y="0px"
	 viewBox="0 186.7 792 238" enable-background="new 0 186.7 792 238" xml:space="preserve">
<g>
	<path fill="#F7941E" d="M251.4,417.1c-3.1,5.7-8.7,8.1-13.4,8.1c-8.1,0-15.2-6.4-15.2-15c0-8.6,6.9-15,15.2-15
		c7.5,0,12.2,5.2,13.3,7.9H248c-3.2-4.8-8.3-5.3-10.1-5.3c-6.8,0-12.2,6-12.2,12.5c0,6.8,6,12.3,12.3,12.3c1.5,0,6.2-0.2,10.2-5.5
		L251.4,417.1L251.4,417.1z"/>
	<path fill="#F7941E" d="M270.1,422.6c6.7,0,12.5-5.5,12.5-12.4c0-6.8-5.6-12.5-12.5-12.5c-6.6,0-12.5,5.3-12.5,12.6
		C257.7,417,263.4,422.6,270.1,422.6L270.1,422.6z M270.1,395.2c8.2,0,15.4,6.5,15.4,15c0,8.6-7.3,15-15.4,15
		c-8.3,0-15.4-6.7-15.4-14.9C254.8,401.2,262.4,395.2,270.1,395.2L270.1,395.2z"/>
	<polygon fill="#F7941E" points="290.2,395.7 294.1,395.7 310.3,419.8 310.4,419.8 310.4,395.7 313.3,395.7 313.3,424.7 
		310.4,424.7 293.1,399.2 293.1,399.2 293.1,424.7 290.2,424.7 	"/>
	<polygon fill="#F7941E" points="319.2,395.7 323.2,395.7 339.4,419.8 339.5,419.8 339.5,395.7 342.4,395.7 342.4,424.7 
		339.5,424.7 322.2,399.2 322.1,399.2 322.1,424.7 319.2,424.7 	"/>
	<polygon fill="#F7941E" points="348.1,395.7 364,395.7 364,398.3 351,398.3 351,408.8 363.6,408.8 363.6,411.4 351,411.4 
		351,422.1 364,422.1 364,424.7 348.1,424.7 	"/>
	<path fill="#F7941E" d="M396.7,417.1c-3.1,5.7-8.7,8.1-13.4,8.1c-8.1,0-15.2-6.4-15.2-15c0-8.6,6.9-15,15.2-15
		c7.5,0,12.2,5.2,13.3,7.9h-3.3c-3.2-4.8-8.3-5.3-10.1-5.3c-6.8,0-12.2,6-12.2,12.5c0,6.8,6,12.3,12.3,12.3c1.5,0,6.2-0.2,10.2-5.5
		L396.7,417.1L396.7,417.1z"/>
	<polygon fill="#F7941E" points="405.3,398.3 398.6,398.3 398.6,395.7 414.8,395.7 414.8,398.3 408.2,398.3 408.2,424.7 
		405.3,424.7 	"/>
	<polygon fill="#F7941E" points="418.1,395.7 421,395.7 421,424.7 418.1,424.7 	"/>
	<path fill="#F7941E" d="M441,422.6c6.7,0,12.5-5.5,12.5-12.4c0-6.8-5.6-12.5-12.5-12.5c-6.6,0-12.5,5.3-12.5,12.6
		C428.6,417,434.3,422.6,441,422.6L441,422.6z M441,395.2c8.2,0,15.4,6.5,15.4,15c0,8.6-7.3,15-15.4,15c-8.2,0-15.4-6.7-15.4-14.9
		C425.7,401.2,433.3,395.2,441,395.2L441,395.2z"/>
	<polygon fill="#F7941E" points="461.1,395.7 465,395.7 481.2,419.8 481.3,419.8 481.3,395.7 484.2,395.7 484.2,424.7 481.3,424.7 
		464,399.2 464,399.2 464,424.7 461.1,424.7 	"/>
	<path fill="#F7941E" d="M491,416.6c0.2,3.7,2.5,6,6,6c3.1,0,5.9-2.4,5.9-5.8c0-4.5-4.5-5.6-6.5-6.2c-2.6-0.8-7.5-1.9-7.5-7.7
		c0-4.5,3.6-7.8,8.2-7.8c4.8,0,8.1,3.7,8.1,7.9h-2.9c0-2.9-2.4-5.3-5.1-5.3c-3.3,0-5.3,2.6-5.3,5.1c0,3.5,3.1,4.4,6.9,5.5
		c7.1,1.9,7.1,7.5,7.1,8.4c0,4.5-3.6,8.5-8.8,8.5c-3.8,0-8.8-2.2-9-8.6H491L491,416.6z"/>
	<polygon fill="#F7941E" points="520.4,395.7 535.1,395.7 535.1,398.3 523.3,398.3 523.3,408.8 534.6,408.8 534.6,411.5 
		523.3,411.5 523.3,424.7 520.4,424.7 	"/>
	<path fill="#F7941E" d="M553.7,422.6c6.7,0,12.5-5.5,12.5-12.4c0-6.8-5.6-12.5-12.5-12.5c-6.6,0-12.5,5.3-12.5,12.6
		C541.3,417,547,422.6,553.7,422.6L553.7,422.6z M553.7,395.2c8.2,0,15.4,6.5,15.4,15c0,8.6-7.3,15-15.4,15
		c-8.2,0-15.4-6.7-15.4-14.9C538.4,401.2,546,395.2,553.7,395.2L553.7,395.2z"/>
	<path fill="#F7941E" d="M573.6,395.7h7.4c3.9,0,5.8,0.5,7.2,1.1c3.3,1.5,5.2,4.7,5.2,8.3c0,4.2-3,8.5-8.6,8.8l8.2,10.8h-3.7
		l-9.9-13.2c3.7,0,4.9,0,6.2-0.4c3.2-0.9,4.8-3.6,4.8-6.2c0-2.3-1.3-4.6-3.2-5.6c-1.7-0.9-3.2-1.1-5.7-1.1h-5.1v26.4h-2.9
		L573.6,395.7L573.6,395.7z"/>
	<path fill="#F7941E" d="M609.3,416.6c0.2,3.7,2.5,6,6,6c3.1,0,5.9-2.4,5.9-5.8c0-4.5-4.5-5.6-6.5-6.2c-2.6-0.8-7.5-1.9-7.5-7.7
		c0-4.5,3.6-7.8,8.2-7.8c4.8,0,8.1,3.7,8.1,7.9h-2.9c0-2.9-2.4-5.3-5.1-5.3c-3.3,0-5.3,2.6-5.3,5.1c0,3.5,3.1,4.4,6.9,5.5
		c7.1,1.9,7.1,7.5,7.1,8.4c0,4.5-3.6,8.5-8.8,8.5c-3.8,0-8.8-2.2-9-8.6H609.3L609.3,416.6z"/>
	<path fill="#F7941E" d="M631,395.7v18.1c0,2.1,0.3,4,1,5.3c1.8,3.3,4.6,3.6,6,3.6c1.4,0,4.2-0.3,6-3.6c0.7-1.2,1-3.1,1-5.3v-18.1
		h2.9v18.1c0,2.4-0.4,4.5-1.1,6c-2,4.4-6.1,5.4-8.8,5.4c-2.7,0-6.8-1.1-8.8-5.4c-0.7-1.5-1.1-3.6-1.1-6v-18.1H631L631,395.7z"/>
	<path fill="#F7941E" d="M681.1,417.1c-3.1,5.7-8.7,8.1-13.4,8.1c-8.1,0-15.2-6.4-15.2-15c0-8.6,6.9-15,15.2-15
		c7.5,0,12.2,5.2,13.3,7.9h-3.3c-3.2-4.8-8.3-5.3-10.1-5.3c-6.8,0-12.2,6-12.2,12.5c0,6.8,6,12.3,12.3,12.3c1.5,0,6.2-0.2,10.2-5.5
		L681.1,417.1L681.1,417.1z"/>
	<path fill="#F7941E" d="M713.1,417.1c-3.1,5.7-8.7,8.1-13.4,8.1c-8.1,0-15.2-6.4-15.2-15c0-8.6,6.9-15,15.2-15
		c7.5,0,12.2,5.2,13.3,7.9h-3.3c-3.2-4.8-8.3-5.3-10.1-5.3c-6.8,0-12.2,6-12.2,12.5c0,6.8,6,12.3,12.3,12.3c1.5,0,6.2-0.2,10.2-5.5
		L713.1,417.1L713.1,417.1z"/>
	<polygon fill="#F7941E" points="717.5,395.7 733.4,395.7 733.4,398.3 720.4,398.3 720.4,408.8 733,408.8 733,411.4 720.4,411.4 
		720.4,422.1 733.4,422.1 733.4,424.7 717.5,424.7 	"/>
	<path fill="#F7941E" d="M739.6,416.6c0.2,3.7,2.5,6,6,6c3.1,0,5.9-2.4,5.9-5.8c0-4.5-4.5-5.6-6.5-6.2c-2.6-0.8-7.5-1.9-7.5-7.7
		c0-4.5,3.6-7.8,8.2-7.8c4.8,0,8.1,3.7,8.1,7.9h-2.9c0-2.9-2.4-5.3-5.1-5.3c-3.3,0-5.3,2.6-5.3,5.1c0,3.5,3.1,4.4,6.9,5.5
		c7.2,1.9,7.1,7.5,7.1,8.4c0,4.5-3.6,8.5-8.8,8.5c-3.8,0-8.8-2.2-9-8.6H739.6L739.6,416.6z"/>
	<path fill="#F7941E" d="M759.1,416.6c0.2,3.7,2.5,6,6,6c3.1,0,5.9-2.4,5.9-5.8c0-4.5-4.5-5.6-6.5-6.2c-2.6-0.8-7.5-1.9-7.5-7.7
		c0-4.5,3.6-7.8,8.2-7.8c4.8,0,8.1,3.7,8.1,7.9h-2.9c0-2.9-2.4-5.3-5.1-5.3c-3.3,0-5.3,2.6-5.3,5.1c0,3.5,3.1,4.4,6.9,5.5
		c7.1,1.9,7.1,7.5,7.1,8.4c0,4.5-3.6,8.5-8.8,8.5c-3.8,0-8.8-2.2-9-8.6H759.1L759.1,416.6z"/>
	<path fill="#026CB6" d="M149.5,363.5h6.8c2.7,0,13.6,0,13.6-9.5c0-2.9-1.5-9.7-13.3-9.7h-7.1V363.5L149.5,363.5z M149.5,331.6h4.4
		c3.1,0,11.6,0,11.6-7.9c0-4.3-2.8-7.9-10.4-7.9h-5.6V331.6L149.5,331.6z M136,303.3h14.3c8.1,0,16.1,0,22.4,5.6
		c3.6,3.2,6.2,8.6,6.2,13.6c0,9.1-5.9,12.6-8.2,13.9c4.8,1.8,12.5,5.8,12.5,18.1c0,8.7-4.6,14.2-9,17.3c-5.5,3.8-14.1,4.3-18.8,4.3
		H136V303.3L136,303.3z"/>
	<path fill="#026CB6" d="M205.9,338.1h8.6c11.1,0,13-7.4,13-11.2c0-4-2.5-11-13-11h-8.6V338.1L205.9,338.1z M192.4,303.3h22.3
		c8.4,0,13.6,1.6,17.7,4.9c4.1,3.3,8.5,9.2,8.5,17.6c0,4.8-1.8,12.4-7,17.4c-4.3,4.1-8.5,5.1-12.1,6l19.8,26.8h-16.3l-19.3-27.8
		h-0.2v27.8h-13.5L192.4,303.3L192.4,303.3z"/>
	<polygon fill="#026CB6" points="250.2,303.3 263.6,303.3 263.6,376.1 250.2,376.1 	"/>
	<path fill="#026CB6" d="M303.4,339h47.5v1.6c0,20.7-18.2,37-38.5,37c-20.8,0-39.1-16-39.1-37.8c0-21.4,18.2-37.8,38.7-37.8
		c18.3,0,31.5,12.4,35.3,22.8h-16.1c-3.1-4.8-9.8-10.2-19.5-10.2c-16.4,0-25,14-25,25.4c0,11.1,8.4,25.2,25.7,25.2
		c8.9,0,17.3-4.9,21.5-13.4h-30.5L303.4,339L303.4,339z"/>
	<polygon fill="#026CB6" points="360.1,303.3 373.6,303.3 373.6,332.9 399.7,332.9 399.7,303.3 413.1,303.3 413.1,376.1 
		399.7,376.1 399.7,345.5 373.6,345.5 373.6,376.1 360.1,376.1 	"/>
	<polygon fill="#026CB6" points="434.1,315.9 420.6,315.9 420.6,303.3 461.1,303.3 461.1,315.9 447.5,315.9 447.5,376.1 
		434.1,376.1 	"/>
	<path fill="#026CB6" d="M471.5,328.5h-8.4v-6.2h8.4c0.2-7.5,0.8-20,20.6-20.2v6.4c-14,0-13.8,8.8-13.8,13.9h13.8v6.2h-13.8v47.6
		h-6.9L471.5,328.5L471.5,328.5z"/>
	<path fill="#026CB6" d="M545.3,376.1h-6.5v-8.4h-0.2c-2,4-7.2,9.6-17.2,9.6c-10.6,0-16.1-5.1-18.5-8.1c-3.8-4.7-4.7-11.6-4.7-17.3
		v-29.7h6.9v29.6c0,6.8,1.5,11.2,3.8,14.2c3.7,4.2,8.7,5.1,12.5,5.1c3.8,0,8-0.9,11.4-4.3c3.1-3.1,5.6-6.7,5.6-16.1v-28.4h6.9
		L545.3,376.1L545.3,376.1z"/>
	<polygon fill="#026CB6" points="564.6,328.5 553.3,328.5 553.3,322.3 564.6,322.3 564.6,303.3 571.4,303.3 571.4,322.3 
		584.3,322.3 584.3,328.5 571.4,328.5 571.4,376.1 564.6,376.1 	"/>
	<path fill="#026CB6" d="M638.4,376.1h-6.5v-8.4h-0.2c-2,4-7.2,9.6-17.2,9.6c-10.6,0-16.1-5.1-18.5-8.1c-3.8-4.7-4.7-11.6-4.7-17.3
		v-29.7h6.9v29.6c0,6.8,1.5,11.2,3.8,14.2c3.7,4.2,8.7,5.1,12.5,5.1c3.8,0,8-0.9,11.4-4.3c3.1-3.1,5.6-6.7,5.6-16.1v-28.4h6.9V376.1
		L638.4,376.1z"/>
	<path fill="#026CB6" d="M651.3,322.3h6.9v7.8h0.2c3.2-7.6,9.3-8.7,15.1-9.1v7.3c-4.8,0.4-8.9,2.2-11.6,5.3
		c-2.4,2.9-3.7,6.8-3.7,11.1v31.5h-6.9V322.3L651.3,322.3z"/>
	<path fill="#026CB6" d="M726.9,345.5c-2.2-12.7-12.5-18.4-21-18.4c-8.5,0-19,5.7-20.9,18.4H726.9L726.9,345.5z M685,351.7
		c0.5,10.5,10.3,19.5,20.8,19.5c9.8-0.2,16.8-6,19.3-12.7h7.3c-3.7,10.7-14.1,18.9-26.4,18.9c-15,0-28-12.2-28-28.1
		c0-15.2,12.3-28,27.9-28.3c11.8,0.1,20.1,7.1,24,13.8c3.6,5.8,4.4,11.8,4.1,17H685L685,351.7z"/>
	<path fill="#026CB6" d="M747.3,360.1c0.2,10.2,7.2,11,9.6,11c6.5,0,10-3.8,10-9.6c0-7.4-6.7-9-10.7-10.7
		c-5.5-1.9-14.3-4.8-14.3-14.9c0-7.6,5.4-14.9,15.3-14.9c8.1,0,14.7,6.2,14.6,14.6H765c-0.5-6.6-5-8.5-8.1-8.5
		c-5.5,0-8.2,4.4-8.2,8.1c0,5.7,5.7,7.7,9.6,8.9c6.3,2.1,15.3,5.5,15.3,16.6c0.1,9.2-5.5,16.6-16.9,16.6c-7.5,0-16.8-5.1-16.5-17.2
		H747.3L747.3,360.1z"/>
	<path fill="#F7941E" d="M182.4,296.1c1.1,0.3,2-1.7,1.3-0.1C182.6,296.5,181.7,296.8,182.4,296.1L182.4,296.1z"/>
	<path fill="#F7941E" d="M160.4,409.7c-2.7,8.1-8,0.9-11.6,5.9c-0.4,0.3,0-4.3-1-3.2c-3.6,6.4-10,2.4-13.9-2.5l0.4-1.2
		c-0.7-0.9-2.2,3-3,2.3c0.1-0.8,0.4-1.1,0.3-2.2c-0.5,2.4-1.7,0.9-2.3,2.6c-0.2-1,0.1-2.9-0.2-4l-0.9,2.7c-2.5,6.2-3.4-0.9-5.9,2
		c0.2-0.6,0.5-1,0.5-1.7c-3.9,3-7.9,1.6-11.8,1.5c0.5-0.9,1.2-2.5,1.4-3.6c-1.1,2.7-2.5,3-3.6,3.1c0.7-2.9-2.6,1.9-3.2,0l0.4-0.6
		c-2.1,2.6-0.4-2.2-2.7,0.9l0.5-2.4c-2.2,3.6-0.2-2.5-1.8-1l-0.4,0.8c-1.1,0.6-0.4-1.5-1.3-1.1l0.2-0.4c-1.9,0.3-1.4-2.2-3.1,0.7
		c0.9-2.5,1.9-0.4,3.1-4c-5.7,0.5-9.7-3.1-13.2-6.5c0.5-1.3,0.5-1.8,1.3-2.8c-0.8,0.2-1.7-0.8-3.2,0c0.2,0.1,1-1.4,1-1.7
		c0.4-1.5-3.3,1.7-2.8,0c0.9-0.3,1.8-0.9,2.6-1.8c-2.4,1.1-2.9,0-4.1-0.3c0.5-0.2,0.9-0.3,1.7-0.9c-2.9,1-0.8-1.8-2.8-1.5l1.7-0.8
		c1.1-2.6-3.4,2-3.1,0.1c0.7-0.1,1.2-0.6,1.9-1c-3.5,1-3.6-1.4-5.3-1.8c0.3-0.1,0.7-0.4,0.7-0.4c-1.1-0.9-0.9-2.6-2.8-3.3
		c0.5-0.9,4.2-2,3-2.9c-3.4,1.8-2.4-1.4-6,1.2c0-1.4,0.4-3.7-1-4c1.5,0,4.1-2.3,4.7-1.5l1.9-1.5c1.5-0.5-0.3,0.9,1.5-0.1
		c-0.3-0.4-2.1-1.1-1.7-1.7c-2.5,0-6.9,0.7-7.8-0.7c1.6,0.2,3.9-1.7,4.6-1.4c-2.5,0.1-5.1,0.2-7.7,0.2c-0.3-0.5,2.8-0.9,1.7-1.4
		c-1,0.3-1.6,0.2-2.5,0.2c0.4-0.3-1.4-1.9,2.2-3c1.4-0.6,0.9,0.6,2.1-0.3c-0.2-0.9-1.5-0.6-1.8-1.5l0.5-0.1c0.4-0.7-2-1.4-3.8-0.3
		c0,0.5,2.2-0.6,1.2,0.2c-2.2,0-3.1-1-3.3-1.9c0.7,0.2,1.6,0,2.7-0.1c-3.2-0.7-4.3-1.9-5.7-3.2c-1.8,0.2,3.3,0.1,2.4,0.4
		c2.2-2.2-4-3.4-0.6-5.4c0.3,0.2-2.5,0.4-2,0.3c0.1-0.9,2.7-1.1,1.7-1.6c1.5-0.2-0.6-0.7-1.1-1.3c-1.1-0.2,0.7-0.2,0.9,0.3
		c-1.3-0.7-3.8-4-1.6-6.1c-1,0.1-3.7-1.1-3.6-1.6l2.4,0.1c1.4-0.4-0.3-1.5,1.7-1.6c-2.9-0.9,2.6,3.6,0.3,2.4
		c1.9-0.4-3.8-1.7-0.6-1.5c-0.1-0.9-2.8-1.8-0.5-2.7c-0.4,0.3,3.2,0.8,3.1,0.1c-0.3-1.4-1.1-0.4-1.8-1.6l-0.9-0.8
		c-2.3-0.2,0.4-1.3-2.2-0.9c1.9,0-1-2.3,2.7-1.7l3,0.5c-0.2-0.6-3-1.3-4.2-2c0.3,0,0.9-0.1,1.4,0c-4.5-0.7,0.6-1.4-2.7-2.6
		c1.8-1,0.7-3.3,3.7-3.2c-1.1-1.2-2.5-2.5-1.2-3.3c0.4,0.3,0.4,0.7,1.3,1c1.5-0.3,0.4-0.8-0.2-1.6c0.6,0.3,2.9-0.6,4.7-0.8
		c-1-1.3-3.4-1.8-4.8-2.3c4.6,0.7-1.8-3.5,2.4-3.1c0.5,0.5,1.6,2,2.9,1.7c4.5,0.9-2.6-2.8,0-3.2l-3.6-1.1c2.4,0.3-1.1-2.7,2.3-1.1
		c-1-1,1.8-1-1.6-2.3c3.7-0.8,0.9-5.9,7.3-4c-0.4-0.6,0.5-1-1.2-1.7c-2-0.5,0.9,1.4-0.4,0.9c0-0.3-0.8-0.8-1.2-1.1
		c1.1-0.2,1.5-0.5,3.9,1.5c2.7-0.1-4.6-4.5-2.3-5.5c1.2,0.9,1.8,1.1,1.9,0.4l-1.6-2.3c1.2-0.8,3.3,1.3,5.4,2.7
		c0-0.8,0.5-1.4-0.9-2.7l3.1,1.2c-2.2-0.9-0.9-1.3-1.3-1.9l0.3,0.6c1,0.5,0.9-0.5,0.8-0.9c-1.3-0.9-2.3-0.6-3-0.5
		c-0.7-0.9-0.2-1.2-1-2.4c1.9,1.6,2.1,0.2,2.6-0.1c0.8-0.2-1.4-1.9-1.2-2c1,0.8,0.8-0.7,1.9,0.8c0.2,0.4-1.3-0.4-0.6,0.6
		c1,0.3,2.8,1.7,2,0c-0.6-1.3-4-2.9-2-2.9c0.3,0.6,1,1.3,1.6,2.1l1.7-0.1l-1.7-1.5c0.5,0.3,0.6,0.5,0.9,0.6
		c-1.6-1.8,0.6-1.8-1.3-3.7c0.2-0.6,2,0.1,2.6-0.1l0.1,0.2c1.4,0.4,1.4-0.9,0.6-2.3l0.3,0.4c0.4-0.2,0.7-1,0.1-2.3
		c1.9,0.5,6.4,5.8,5.1,3.1c0.6-0.7-1.9-4-3.2-4.8c2.2-0.1,1.2-4.2,4.8-2.6c-0.4-0.9-0.9-1.2-0.9-1.9c2.4-1,2.7-5.7,7.1-3.2
		c-0.1,1.2,1.3,1.9,2,3c-0.7-2,1.8,1.3,0-1.7c-1.2-1.7-1.7-2.5-2.8-2.8c0.6-1.9,2.8-3.2,4.5-2c-0.9-0.6-0.9-1.3-0.9-2
		c1.6,2.9,2.8,2.7,3,1.3l-0.9-1.8l1.5,1.5c0-0.7-1.7-3.9,0-2.7c0.4,0.7,0.8,1.3,1.2,1.8c0.1-1.9,0.2-5,1.9-3.9l2,2.3
		c0.3-0.5,0.3-2.4-0.8-2.9c2.3,0.8,3.5,0.7,4.9,2.9c0.8-6.9,6.1-8.4,10.3-8.5l0,1.5c1,1.3,0.2-2.7,0.9-1.7c-0.1,1.5,0.9,3,0.4,4.8
		c1.3,1.5,1.3-2.7,2-3.5c0-2-0.5,1.3-0.6-1.2c0.1-0.7,1.8,1.4,1.7-1.6c0.4,1.1,0.3,3.4,0.2,4.6l0.6-1.5c1.1,3.4-1.5,6.3-0.3,10.6
		l0.6-0.5c0.8,3.1-1.4,3.6,0.2,4.6c0.5-1.5,0.9-5.9,0.2-7.1c1.4-0.9,0.2-7.2,1.8-7c0.5,1.7-1.2,0.5-0.8,2.9c0.9,2.3,1.4-1.4,2.1-0.6
		c-0.8-1.1-0.3-4.1,0.2-4.7c0.9,1.4-0.4,2.8,0.8,3.1c0.1-1.7,1.1-3.1,0.2-4.2c0.3-3.9,1.2,1,1.8-2c0.4,2.7-1,6.4,0.3,7.7
		c-0.3-2.6,1.5-3.6,0.7-7.5c0.5,0.8,0.6,2.8,0.3,4.5c0.7,1.6,1.7-4.9,2,0.4l0.2-2.7c0.2,0.9,0.6,1.5,0.9,3c0.6,0,2-3.6,1.9,0.4
		c0.2-0.4,1.6-0.2,1.1-3.1c-0.9-1.7-1,2.1-1.5-1.8c0.6,3.1,1.3-0.4,1.9-1.4l0.1,1.6c0.3-0.6,1-0.3,1.3-2c-0.3,0.9-0.2,2,0.1,2.4
		l0.4-2.4c1.3-1.2,0.2,4.2,1.4,3.6l-1,1.8c0.2-0.4,0.6,1.9,1.2,1.2c0.3-2.2,0.8-4.8,1.1-6.5c0.8-0.9,0.2,2.5,1,0.3l-1,2.6
		c-0.2,0.7,0.4,3.7,1.4,3.6c0.6-0.7,1.7-3.9,0.8-5.1c0.5,0,1.1,1.4,0.6,2.9c1.1-0.7,0-2.4,1-3.7c0.3,1.5,1.3,3.7,1.8,5.8l-1.2,3.6
		l0.6,0.1c-1,2.9,0.2,2.3-0.5,5.3c0.4,0.5,0.9-0.5,1.4-1.3c-0.8-5.1,2-6.7,2-11.2c1.9-1.1-0.1,11.1,2.5,4.2
		c-0.2-1.2,1.1-4.5-0.2-3.4c1,0.6,1.3-4.4,2.4-2.4c-1.2,1.7,0.4,4.7-1.3,7.2c0.3-1.5-0.6-1.2-0.9-0.8c0.2,1.8-0.6,4.5,0.4,4.7
		c0.7-0.3,1.6-0.3,1.8-2.7c0.3-2.6-1,0.2-0.3-2.4c1.5-0.7,1.1,3.2,2.4-1.2c-0.9,0.2-0.8-2.4-0.5-4.2l1.2-0.9l-0.5,1.7
		c1.5,1.5,1-3,2.6-2.3l0.2,3.5c-0.9,2.8-2.1-1.7-2.6,3.1c1,0.4,1.7-2,2.5-0.6c-0.3,0.4-0.6,0.4-0.9,0.8c0.4,0.2-0.4,6.5,1.6,3.1
		c1-1.3,0.5-1.6,0.9-3.4c1.7-0.2,2.7-1.8,3.8-1.9c-1,3.3,1.8,0.8-0.2,4c-0.1-2.1-2.6-2.5-3.8,0.7c-0.2,4.2-1.1-0.8-2.2,3.3
		c1.2,0.3,0.4,4.3,0.1,6.9c0.3,0.2,0.8-0.8,1.1-1.2c0.6-2.4,0.2-2.5,0.7-5c1.2,1,2.9-0.1,4.2-2.3c0.2,1.3-0.6,3.7-1.2,3.8
		c1.8-0.4,3.5,0.5,4.8,1.7c0.2-4.2,2.1-0.4,2.4-3.8c-0.6-1.1-0.5-4.2,0.5-5.8c0.5,0.4-0.6,1.7-0.6,2.6c1.4-1.9,0,3.8,1.8,0.6
		c-2.1,0.7-1.9,4.6-3.2,7.6c1.6-1.4-0.8,2.2,0.2,2.5c1.6-1.3,3.4-2.1,4.9-2.2c0.3,3.3,3.7,1.8,5.2,2.5c-0.1,1.8-2.4,4.7-2,5.6
		c0.8,0.4,1.4-3.7,1.8-1.6l-0.5,0.5c0.9-0.4,0.6,3.5,4.1-0.5l-2.7,2.9c0,0.4,0.7-0.2,1.1-0.4c-0.8,1-1.2,2.1-2,2.6
		c-1,2.6,1.6,0.5,2.3,1.1l1.1-2.2c2.4-0.2,1.6,2.2,3.3,2.7l-1.7,1.5l1.6-0.2c-1.8,1.3-2.5,2.8-0.8,2c-1.9,0.5-3.7,1.2-5.5,2
		c0.6-1.3,2.4-1.4,3.9-3.2c1.2-1.5-0.2-2.1-1.9-0.7c0.2,0.5,0.5,0.2,1.4-0.1c-2.2,2.3-2.6,1.7-4.3,3c0.2,0.1-0.2,0.9,0.5,0.3
		c-1.4,0.8-1.8,0.7-2.3,0.3c1.1-0.6,1.1-1.6,1.8-2.2c-1.9,2-2.8,2.3-3.1,1.2c1.4-3-2.5,0.8-2.7-0.5c1.8-2.2,3.5-3.7,4.7-4.3
		c0.2-1.6-0.7-0.4-0.5-2c-1.4,1.6-3.3,4.2-4.7,4.9l1-1.8c-1.2,0.5-2.7,3.3-3.2,2.3c-0.8-1.7-2.6-2.2-3.7-3l0.7-2
		c-2.2,3.8-2.9,0.8-4.4,2.4c-1-2.5-4,1-4-2.7c-3.3,0.9-6.1,2-9.1,0.9l0.9-2.9c-0.8,2.1-0.2-1.8-0.8-1.4c0.4,2.5-1.2,3-1.7,4.8
		c-1.1-2.5-3.3-0.1-4.6,1.9l0.1-2.1c-1.5,3.8-2.8,0.3-4.4-0.4c-0.2-0.9-0.4-2.8-0.9-2.6c-1,3.3-1.4,3.1-2.7,5.2
		c-0.9,0-2.4-0.9-3.3-2.1c-3.4,4.7-7,1.9-10.2,5l-0.5-2.4c-2.8,5.4-5.3,1.4-6.9,4.7l-1.3-4c-1.2-1-1.2,1.7,0.2,4.3
		c-1.2-0.9-0.7,2.5-2.6-0.4c-1-0.4,0.1,2.2-0.2,2.9c-2-0.6-2.4-0.1-3.1,1.4l0.4,0c-0.4-0.9-1.3-2.4-1.8-2.4c0.2,1.3-2.3,0.3,1,4.1
		c-3-1.5-1.4,3.9-5,2c1,0.9,0.9,1.4,1.4,2.2c-1,0.8-3.9,0-3.1,2.4c-0.6-0.3-1.4-1.9-1.9-1.6c0.1,0.6,1.3,1.3,1.5,2.1
		c0.4,3.4-5.1,1.7-5.9,3.9c-0.3,4.6-3.4,7.1-4.7,10.5l-0.9-0.5c2.8,2.7-4.8,0.8,0,4.1c-1-0.1-0.9,0.8-2.5-0.2c2,1.9-3.4,1.5-0.6,4
		c0.1-0.1,0-0.2-0.4-0.5c-2.6,0.6-0.1,2.6-2.3,3.4c-0.4-0.3-0.6-0.6-1.6-0.9c-2,0.1,3.7,2.3-1,1.4c0,0.3,2.3,0.8,2.2,0.6
		c-2.6,2.7,0.1,6.2,1.2,9c-2.8,2.6-8.1,0.3-4.4,2.3c-0.9,0.2,1.8,0.1,0.8,0.1c1.4,0.7-5.3,1.5-2.8,2c3-0.4,1.7,0.3,3.5,0.2
		c-1.8,1.7-4.6,2.3-2.2,3.4l-1.6,0c4.6,1.1,2.5,3.1,7.7,3.6c2.1,7.6,6.8,13.3,10.2,18.3c2.4,5.9,7.6,8.4,11,14
		c-1.1,4.2-0.9,4.4,1.5,3.8c-0.4,0.5-0.6,0.6-0.8,1.2c1.8-2.9,1.3,0.3,3-2.4c1.8,1.7,4.2,1.9,6.7,2.6c-0.5,0.2-1.7,2.7-1.1,2.7
		l1.2-1.8l-0.2,0.9c0.5-0.3,1.4-1.8,1.4-2.9c6.5-0.9,11.7,7.2,19.4,6.5c1.7,1.5,4.2,0.4,6.1-0.4c5.7,4.5,11.8,7.4,17.5,3.6
		C162.4,398.7,162.9,407.4,160.4,409.7L160.4,409.7z"/>
	<path fill="#F7941E" d="M181.5,295.5c1.3-1.1,1.6-2.2,3.8-3.1C184,293.4,182.8,294.7,181.5,295.5L181.5,295.5z"/>
	<path fill="#F7941E" d="M173.3,269.8c-0.2,0.5-0.1-0.7-0.1-1c0.3,0,1.1-1.3,1-0.4C173.9,268.4,173.7,269.2,173.3,269.8L173.3,269.8
		z"/>
	<path fill="#F7941E" d="M167.6,267.1c0.5-1.5,2.1-2.2,2.9-2.1C169.5,265.6,168.5,266.3,167.6,267.1L167.6,267.1z"/>
	<path fill="#F7941E" d="M163.2,259.8c-0.3-1.3,0-2,0.7-1.8C163.8,258.7,163.5,259.1,163.2,259.8L163.2,259.8z"/>
	<path fill="#F7941E" d="M162.2,263c-0.5,0-0.5-0.9-0.6-1.8C161.3,262.5,162.8,260.6,162.2,263L162.2,263z"/>
	<path fill="#F7941E" d="M150.5,257.1c-0.3,0.1-1,1.3-1.2-0.4C149.5,257.8,150.9,254.9,150.5,257.1L150.5,257.1z"/>
	<path fill="#F7941E" d="M144.7,258.9c-0.2-0.1-0.2-0.4-0.5,0c-0.3-0.7,0.1-1.8,0.4-1.9L144.7,258.9L144.7,258.9z"/>
	<polygon fill="#F7941E" points="62.2,315.7 61.8,314.8 63.1,315.4 	"/>
	<path fill="#F7941E" d="M58.9,360.9c1.1,0.4-1.3,0.7-1.5,0.8C57.1,361.2,59.3,361.5,58.9,360.9L58.9,360.9z"/>
	<polygon fill="#F7941E" points="73.3,380.7 73.2,380.6 76,379.3 	"/>
	<g>
		<g>
			<defs>
				<rect id="SVGID_1_" x="0" y="186.7" width="792" height="238.5"/>
			</defs>
			<clipPath id="SVGID_2_">
				<use xlink:href="#SVGID_1_"  overflow="visible"/>
			</clipPath>
			<path clip-path="url(#SVGID_2_)" fill="#F7941E" d="M81.4,257.3c0.7-0.3,1.6-2.1,0.9-0.7C81.5,257.5,80.8,258.1,81.4,257.3
				L81.4,257.3z"/>
		</g>
		<g>
			<defs>
				<rect id="SVGID_3_" x="0" y="186.7" width="792" height="238.5"/>
			</defs>
			<clipPath id="SVGID_4_">
				<use xlink:href="#SVGID_3_"  overflow="visible"/>
			</clipPath>
			<path clip-path="url(#SVGID_4_)" fill="#F7941E" d="M60.6,189.4c7.2-3.2,0.8,1.6,5.6,0.1c0.3,0-3.9,1.9-2.8,1.6
				c5.9-1.9,3.2,1.2-0.8,3.8l-1.2,0.4c-0.7,0.5,3.1-0.8,2.6-0.4c-0.8,0.3-1.1,0.3-2.1,0.8c2.3-0.8,1.2-0.1,2.9-0.6
				c-0.9,0.4-2.7,1.1-3.6,1.5l2.6-0.8c6.3-1.9-0.2,0.9,3.2,0.3c-0.6,0.2-1.1,0.3-1.7,0.5c4-0.5,3.6,0.7,5.2,1.1
				c-0.9,0.2-2.7,0.7-3.7,1c2.8-0.7,3.6-0.7,4.2-0.6c-2.9,0.8,2.8-0.3,1.2,0.4l-0.6,0.1c3.1-0.5-1.7,0.7,2,0l-2.3,0.7
				c4.1-0.9-2.1,0.8,0.1,0.5l0.8-0.2c1-0.1-1,0.5-0.3,0.5l-0.5,0.1c1.2,0.1-1.1,0.8,2.1,0.1c-2.5,0.7-1.2-0.1-4.9,0.9
				c3.5,0.4,3.2,1.7,3.4,2.8c-1.3,0.4-1.7,0.5-2.9,0.7c0.7,0,0.7,0.3,2.3,0.1c-0.1,0-1.7,0.3-1.8,0.4c-1.2,0.4,3.6-0.3,2.2,0.1
				c-0.9,0-1.9,0.2-3.1,0.4c2.6-0.2,2.2,0.1,3.1,0.2c-0.5,0-0.9,0-1.9,0.2c2.9-0.2-0.5,0.5,1.3,0.5l-1.9,0.2c-2.2,0.7,3.9-0.5,2.6,0
				c-0.6,0-1.3,0.1-2.1,0.2c3.5-0.2,2.4,0.4,3.6,0.6c-0.3,0-0.8,0.1-0.8,0.1c0.5,0.3-0.6,0.7,1,0.9c-0.8,0.2-4.6,0.5-3.9,0.8
				c3.8-0.5,1.6,0.4,5.9-0.3c-0.6,0.4-2,1-0.7,1c-1.4,0-4.6,0.7-4.9,0.5l-2.3,0.4c-1.5,0.1,0.5-0.2-1.4,0c0.2,0.1,1.7,0.3,1.1,0.4
				c2.3,0,6.7-0.3,7.2,0c-1.5,0-4.2,0.5-4.8,0.5l7.3-0.3c0.2,0.1-3,0.3-2,0.4c1-0.1,1.6-0.1,2.5-0.1c-0.4,0.1,1,0.4-2.7,0.8
				c-1.5,0.2-0.8-0.1-2.1,0.2c0.1,0.2,1.3,0.1,1.4,0.3l-0.5,0.1c-0.5,0.2,1.6,0.3,3.7-0.1c0.1-0.1-2.2,0.3-1.2,0
				c2.2-0.1,2.8,0.1,2.9,0.3c-0.6,0-1.6,0.1-2.7,0.2c3,0,3.9,0.2,5.2,0.4c1.8-0.2-3.2,0.2-2.3,0.1c-2.4,0.6,3.6,0.5,0,1.2
				c-0.3,0,2.5-0.3,2-0.2c-0.2,0.2-2.8,0.5-1.8,0.5c-1.5,0.2,0.5,0.1,1,0.2c1.1,0-0.7,0.1-0.9,0c1.3,0.1,3.7,0.6,1.5,1.2
				c1-0.1,3.7-0.1,3.6,0l-2.3,0.2c-1.4,0.2,0.2,0.3-1.8,0.5c2.9-0.1-2.5-0.6-0.3-0.5c-1.9,0.3,3.8,0,0.6,0.3
				c0.1,0.2,2.7,0.1,0.6,0.5c0.4-0.1-3.3,0.2-3.1,0.3c0.4,0.2,1.1,0,1.9,0.1l1,0c2.3-0.2-0.3,0.3,2.2-0.1c-1.9,0.2,1.2,0.3-2.6,0.6
				l-3,0.3c0.2,0.1,3.1-0.1,4.5-0.2c-0.3,0-0.9,0.1-1.3,0.2c4.5-0.4-0.4,0.3,3.2,0.1c-1.6,0.4-0.1,0.6-2.9,1c1.4,0,3,0,2.1,0.3
				c-0.4,0-0.6,0-1.5,0.1c-1.3,0.3-0.1,0.2,0.6,0.2c-0.7,0-2.6,0.5-4.2,0.9c1.4,0,3.8-0.3,5.3-0.4c-4.5,0.7,2.9,0.2-1.1,0.8
				c-0.6,0-2.2,0-3.3,0.3c-4.4,0.7,3.3,0,1.2,0.5l3.7-0.5c-2.3,0.4,2.2,0.1-1.6,0.6c1.3-0.1-1.2,0.5,2.4,0c-3,0.8,2,0.8-4.5,1.9
				c0.6,0,0,0.2,1.9-0.1c2-0.4-1.5,0.1-0.1-0.2c0.1,0,1.1-0.1,1.6-0.1c-0.8,0.2-1,0.4-4.1,0.7c-2.2,0.6,6.2-0.6,4.8,0
				c-1.5,0.2-2.1,0.3-1.8,0.4l2.6-0.2c-0.6,0.3-3.4,0.6-5.9,1c0.5,0.1,0.4,0.2,2.3,0l-3.1,0.7c2.3-0.5,1.5-0.1,2.2-0.2l-0.6,0
				c-1.1,0.2-0.4,0.2-0.1,0.3c1.6-0.3,2.2-0.5,2.6-0.7c1.1-0.1,0.9,0,2.2-0.1c-2.5,0.4-1.7,0.5-2,0.6c-0.5,0.2,2.2-0.2,2.2-0.2
				c-1.3,0.2-0.2,0.2-2,0.4c-0.4,0,1.2-0.3,0.1-0.2c-0.9,0.2-3.2,0.6-1.5,0.5c1.2-0.1,4.9-0.9,3.3-0.4c-0.6,0.1-1.6,0.2-2.5,0.3
				l-1.3,0.4l2.3-0.4c-0.6,0.1-0.8,0.1-1.1,0.2c2.4-0.4,0.8,0.2,3.4-0.2c0.2,0.1-1.5,0.5-1.8,0.6l-0.2,0c-1.3,0.4-0.4,0.3,1.1,0.1
				l-0.5,0.1c-0.2,0.1,0.2,0.2,1.6,0c-1.7,0.5-8.4,1.8-5.6,1.4c0.1,0.2,4.2-0.6,5.6-1c-1.4,0.6,2.3,0.1-1.2,1.1
				c0.9-0.2,1.5-0.3,2-0.4c-0.8,0.6,2.8,0.2-1.5,1.6c-1,0.1-2.2,0.6-3.5,0.9c2-0.4-2,0.7,1.4-0.2c2-0.5,3-0.8,3.8-1.1
				c1.1,0,1.2,0.2-0.6,0.9c0.9-0.3,1.5-0.4,2.1-0.6c-3.2,0.9-3.6,1.2-2.4,1l1.9-0.5l-2,0.6c0.6-0.1,4.1-1.1,2.2-0.5
				c-0.7,0.2-1.5,0.5-2,0.6c1.6-0.3,4.3-1,2.7-0.4l-2.8,1c0.3,0,2-0.5,2.8-0.8c-1.6,0.7-1.8,1-4.2,1.8c6-1.5,6.3-1.2,6.1-0.7
				l-1.4,0.5c-1.3,0.6,2.5-0.9,1.5-0.5c-1.3,0.5-2.9,1.2-4.5,1.8c-1.4,0.7,2.5-0.8,3.2-0.9c1.8-0.7-1.2,0.4,1.1-0.5
				c0.7-0.3-1.3,0.8,1.4-0.4c-1.1,0.5-3.1,1.3-4.2,1.8l1.4-0.5c-3.2,1.5-5.9,2.1-9.8,3.9l0.5-0.1c-2.8,1.3-3.4,1-4.2,1.8
				c1.4-0.4,5.4-2,6.6-2.6c0.9-0.1,6.6-2.7,6.4-2.4c-1.6,0.8-0.5,0-2.7,1c-2.2,1.1,1.3-0.3,0.6,0.1c1-0.6,3.8-1.7,4.3-1.9
				c-1.2,0.7-2.6,1.1-2.8,1.4c1.6-0.7,2.8-1.1,3.9-1.7c3.6-1.6-0.9,0.6,1.8-0.6c-2.5,1.2-5.8,2.5-7,3.3c2.4-1.1,3.3-1.3,6.8-3.1
				c-0.7,0.4-2.5,1.3-4,1.9c-1.4,0.8,4.4-1.9-0.3,0.4l2.4-1.2c-0.8,0.4-1.4,0.7-2.6,1.4c0,0.1,3.4-1.5-0.2,0.4
				c0.4-0.2,0.3,0.1,2.8-1.3c1.5-0.9-1.9,0.8,1.5-0.9c-2.7,1.5,0.4-0.1,1.4-0.5l-1.4,0.7c0.6-0.3,0.3,0,1.8-0.8
				c-0.8,0.4-1.8,0.9-2.1,1.1l2.1-1.1c1.1-0.5-3.7,2-3,1.8l-1.7,0.8c0.4-0.2-1.6,1-0.9,0.7c1.9-1,4.3-2.3,5.8-3.1
				c0.9-0.4-2.1,1.2-0.1,0.2l-2.3,1.2c-0.6,0.3-3.1,1.8-3,1.9c0.7-0.3,3.5-1.8,4.5-2.5c0.1,0-1.1,0.7-2.5,1.5c0.7-0.3,2-1.2,3.2-1.8
				c-1.2,0.8-3,1.9-4.7,3.1l-3.2,1.8l0,0.1c-2.6,1.4-1.9,1.2-4.6,2.8c-0.4,0.3,0.6-0.1,1.3-0.5c4.1-2.8,5.9-3.4,9.7-5.9
				c1.1-0.5-9.2,6.1-3.2,2.4c1-0.7,3.9-2.5,2.7-1.9c-0.4,0.4,3.8-2.4,2.3-1.3c-1.6,1-3.7,2.6-6.1,4c1.3-0.8,0.9-0.7,0.5-0.5
				c-1.4,1-3.8,2.5-3.7,2.6c0.4-0.2,0.6-0.1,2.5-1.4c2.1-1.5-0.3,0.1,1.9-1.4c0.8-0.4-2.4,1.9,1.5-0.7c-0.4,0.1,1.8-1.4,3.3-2.4
				l0.9-0.6l-1.4,1c-0.9,0.8,2.6-1.8,2.3-1.4l-2.7,2c-2.4,1.7,0.9-0.9-3,1.9c-0.1,0.2,1.9-1.2,1-0.4c-0.3,0.2-0.5,0.3-0.8,0.5
				c-0.1,0.1-5.2,3.9-2.1,1.8c1.2-0.8,1.4-1,2.8-2c0.5-0.2,2-1.2,2.3-1.3c-2.8,2.1-0.2,0.4-3.1,2.4c1.6-1.3,1.3-1.4-1.4,0.6
				c-3.3,2.5,0.4-0.5-3,2c0,0.2-3.2,2.6-5.4,4.2c-0.1,0.2,0.8-0.5,1.2-0.7c2-1.5,1.9-1.5,4-3.1c-0.4,0.6,0.8-0.1,2.8-1.5
				c-0.9,0.8-2.9,2.3-3.2,2.4c0.7-0.2,0.6,0.2,0.2,0.9c3.1-2.7,0.9-0.4,3.4-2.7c0.6-0.7,2.8-2.6,4.3-3.7c-0.2,0.2-1.4,1.1-2,1.7
				c1.8-1.4-2.7,2.4,0.1,0.2c-1.1,0.7-3.8,3.2-6.3,5.2c1.5-1-1.7,1.5-1.6,1.6c1.5-1,2.6-1.7,3.3-2.1c-2.1,2.2,0.4,0.5,0.7,0.5
				c-1.1,1.2-3.8,3.7-4.1,4.2c0.2,0.1,2.7-2.8,1.7-1.5l-0.5,0.5c0.6-0.5-1.4,2.1,2.3-1.6l-2.8,2.7c-0.2,0.3,0.4-0.3,0.8-0.6
				c-0.9,0.9-1.7,1.8-2.3,2.3c-1.8,2.1,0.6,0,0.8,0l1.5-1.8c1.5-1.1,0,0.7,0.8,0.3l-1.5,1.7l1-0.9c-1.5,1.6-2.3,2.8-1,1.5l-4.1,3.8
				c0.8-1.1,2-1.9,3.4-3.6c1.3-1.5,0.7-1.2-0.9,0.3c-0.1,0.3,0.3-0.1,0.9-0.6c-2.1,2.4-2.2,2.1-3.7,3.6c0.1,0-0.4,0.7,0.2,0
				c-1.1,1-1.4,1.1-1.6,1c1-0.8,1.3-1.5,2-2.1c-1.9,2-2.7,2.5-2.3,1.7c2.1-2.4-1.8,1.1-1.5,0.2c2.1-1.9,3.8-3.4,4.8-4.1
				c0.9-1.1-0.2-0.1,0.7-1.2c-1.6,1.4-3.9,3.6-5,4.3l1.5-1.5c-0.9,0.6-3.2,2.7-3,2.1c0.4-1.1-0.1-1.4-0.1-2l1.6-1.4
				c-3.5,2.7-1.7,0.5-3.4,1.5c1.2-1.7-2.3,0.3,0.4-2.1c-1.8,0.2-3.7,0.4-3.6-0.8l2.6-1.5c-1.9,1.1,1.4-1.1,0.9-0.9
				c-1.9,1.5-2.7,1.5-4.4,2.4c1.8-1.7-0.7-0.8-2.7-0.1l1.8-1.1c-3.6,1.6-0.9-0.6-0.6-1.3c0.7-0.5,2.4-1.5,2.1-1.5
				c-3.1,1.4-3,1.1-5,1.7c-0.1-0.3,0.3-1.1,1.4-2c-4.7,1-2.5-1.4-5.6-1.4l2.2-1c-5.4,0.8-1.4-2.3-4.2-2.3l4-1.2
				c1.1-0.7-1.2-0.3-4,0.7c1.1-0.7-2.2-0.2,1.1-1.4c0.6-0.5-2,0.2-2.6,0.1c1.3-1.1,0.9-1.2,0-1.6l-0.2,0.2c0.9-0.2,2.6-0.6,2.8-0.8
				c-1.2,0.1,0.9-1-3.9,0.4c2.7-1.3-2.6-0.9,1.1-2.4c-1.3,0.4-1.6,0.3-2.5,0.4c-0.2-0.5,2.4-1.7,0.1-1.6c0.6-0.2,2.3-0.3,2.4-0.6
				c-0.5,0-1.7,0.3-2.5,0.3c-2.7-0.4,2.2-2.2,1.5-2.8c-2.8-0.9-1.7-2.5-2.3-3.7l1-0.1c-3.8,0.1,3.8-1.4-2-1c0.9-0.2,0.4-0.4,2.3-0.6
				c-2.7,0,2.4-1.2-1-1.2c-0.1,0.1,0.1,0.1,0.6,0.1c2.1-0.7-0.9-0.8,1-1.5c0.4,0,0.8,0.1,1.8,0c1.9-0.4-4.3,0,0.5-0.6
				c-0.1-0.1-2.4,0.2-2.3,0.2c1.8-1.2-1.4-1.9-2.6-2.9c2.8-1,8.1-0.8,4.4-1.1c0.9-0.1-1.8,0.1-0.8,0c-1.4-0.1,5.3-0.9,2.8-0.8
				c-2.9,0.3-1.7,0-3.5,0.2c1.9-0.6,4.5-1,2.3-1.1l1.6-0.1c-4.4,0-2.1-0.7-7.2-0.5c-1.1-2.1-4.1-3.7-4.9-5.5
				c0.7-1.9-1.7-3.2,0.6-5.1c3.9-1.2,3.8-1.2,2.1-1.3c0.6-0.1,0.8-0.1,1.4-0.3c-3.3,0.7-0.4-0.2-3.5,0.4c0.5-0.7-0.5-1-0.7-1.5
				c0.4,0,3-0.7,2.8-0.7l-2.1,0.5l0.9-0.3c-0.5,0.1-2.1,0.4-3.2,0.8c-3.1-0.3,3-3.5,1.7-4.3c1.2-0.8-0.1-0.7-0.9-0.7
				c3.7-2.6,6.3-5.4,3.1-4.7C51.2,194.4,58.6,189.9,60.6,189.4L60.6,189.4z"/>
		</g>
	</g>
	<path fill="#F7941E" d="M80.9,257.3c1.1-1.3,1.5-2.1,3.1-3.7C83,254.8,81.9,256.2,80.9,257.3L80.9,257.3z"/>
	<path fill="#F7941E" d="M90,242c-0.4,0.3,0.5-0.5,0.7-0.7c0.1-0.1,1.2-0.9,0.6-0.4C91.2,241,90.6,241.5,90,242L90,242z"/>
	<path fill="#F7941E" d="M90.3,240.7c1.2-0.9,2.2-1.5,2.4-1.6L90.3,240.7L90.3,240.7z"/>
	<path fill="#F7941E" d="M94.8,236.5c1-0.8,1.6-1.2,1.6-1.1C95.8,235.8,95.4,236.1,94.8,236.5L94.8,236.5z"/>
	<path fill="#F7941E" d="M92.1,238.5c-0.1,0,0.6-0.6,1.3-1.1C92.3,238.1,94.1,237,92.1,238.5L92.1,238.5z"/>
	<path fill="#F7941E" d="M95,235c-0.1,0-1.2,0.6,0.2-0.2C94.2,235.4,96.9,233.9,95,235L95,235z"/>
	<path fill="#F7941E" d="M92.8,235.7C92.9,235.6,93.1,235.5,92.8,235.7c0.5-0.4,1.5-0.9,1.6-0.9L92.8,235.7L92.8,235.7z"/>
	<polygon fill="#F7941E" points="83.2,222.5 83.9,222.6 82.4,222.7 	"/>
	<path fill="#F7941E" d="M82.2,213.4c-0.9,0,1.4-0.2,1.6-0.3C83.9,213.2,81.9,213.3,82.2,213.4L82.2,213.4z"/>
	<polygon fill="#F7941E" points="74.2,209 74.2,209 71.2,209.4 	"/>
	<g>
		<g>
			<defs>
				<rect id="SVGID_5_" x="0" y="186.7" width="792" height="238.5"/>
			</defs>
			<clipPath id="SVGID_6_">
				<use xlink:href="#SVGID_5_"  overflow="visible"/>
			</clipPath>
			<path clip-path="url(#SVGID_6_)" fill="#F7941E" d="M158.4,232.7c0.3,0.6,1.8,1.9,0.7,1C158.3,232.7,157.7,232,158.4,232.7
				L158.4,232.7z"/>
		</g>
		<g>
			<defs>
				<rect id="SVGID_7_" x="0" y="186.7" width="792" height="238.5"/>
			</defs>
			<clipPath id="SVGID_8_">
				<use xlink:href="#SVGID_7_"  overflow="visible"/>
			</clipPath>
			<path clip-path="url(#SVGID_8_)" fill="#F7941E" d="M198.2,199.1c2.5,7.5-1.5,0.6,0,5.4c0.1,0.3-2-3.8-1.7-2.8
				c2.3,5.7-0.1,2.9-3.5-0.6l-0.6-1.1c-0.6-0.6,1.4,2.9,0.9,2.5c-0.4-0.7-0.6-1-1.2-1.9c1.3,2.1,0.3,1.1,1.3,2.7
				c-0.6-0.7-1.6-2.4-2.3-3.2l1.4,2.3c3.4,5.6-0.8,0,0.8,3l-1-1.5c1.8,3.6,0.9,3.4,1.3,4.9c-0.6-0.8-1.6-2.2-2.3-3.1
				c1.7,2.3,2,3,2.2,3.6c-1.9-2.3,1.5,2.3,0.3,1.1l-0.4-0.5c1.8,2.5-1.3-1.3,1,1.7l-1.5-1.8c2.6,3.3-1.5-1.6-0.3,0.2l0.5,0.7
				c0.6,0.9-0.8-0.8-0.4-0.1l-0.3-0.4c0.5,1-1.1-0.7,1,1.8c-1.7-2-0.6-1.1-3.1-4c1.5,3.1,0.5,3.1,0,3.7c-0.9-0.9-1.2-1.2-2.1-2.1
				c0.4,0.5,0.2,0.7,1.2,2c0-0.1-1.2-1.2-1.3-1.3c-0.9-0.8,2.3,2.8,1.2,1.8c-0.5-0.7-1.2-1.5-2.1-2.4c1.6,2,1.2,1.8,1.6,2.6
				c-0.3-0.4-0.5-0.7-1.2-1.5c1.8,2.3-0.6-0.2,0.5,1.2l-1.2-1.4c-1.7-1.5,2.6,3,1.5,2.1c-0.4-0.5-0.9-1-1.4-1.6
				c2.2,2.7,1.2,2.1,1.8,3.1c-0.2-0.2-0.5-0.6-0.5-0.6c0.1,0.5-0.8-0.2,0.1,1.1c-0.6-0.6-3.1-3.4-2.8-2.7c2.6,2.8,0.8,1.4,3.8,4.5
				c-0.6-0.3-1.8-1.2-1-0.1c-0.9-1.1-3.3-3.3-3.4-3.6l-1.7-1.6c-1.1-1.1,0.5,0.3-0.9-1.1c0,0.2,0.9,1.4,0.4,1c1.5,1.8,4.4,5,4.6,5.6
				c-0.9-1.1-3-3-3.4-3.5l4.8,5.5c0.1,0.2-2.1-2.1-1.5-1.4c0.7,0.7,1.1,1.2,1.7,1.8c-0.3-0.3,0.4,0.9-2.2-1.8c-1-1-0.5-0.7-1.5-1.5
				c-0.1,0.1,0.8,1.1,0.7,1.2l-0.4-0.4c-0.5-0.3,0.9,1.3,2.4,2.7c0.1,0-1.6-1.6-0.8-0.9c1.5,1.6,1.8,2.2,1.7,2.3
				c-0.4-0.5-1.1-1.2-1.8-1.9c1.9,2.2,2.4,3,3.2,4.1c1.3,1.3-2.2-2.4-1.5-1.7c-1.9-1.6,2.1,2.9-0.7,0.5c-0.2-0.2,1.8,1.8,1.5,1.4
				c-0.3-0.1-2.1-1.9-1.5-1.2c-1.1-1.1,0.3,0.4,0.5,0.8c0.7,0.8-0.5-0.5-0.6-0.7c0.8,1,2.1,3,0.3,1.7c0.7,0.7,2.5,2.7,2.4,2.7
				l-1.7-1.7c-1-0.9,0,0.3-1.5-1.1c1.9,2.1-1.3-2.1,0.1-0.4c-1.4-1.3,2.5,2.8,0.2,0.5c0,0.2,1.8,2.1,0.1,0.7
				c0.3,0.2-2.3-2.4-2.2-2.2c0.2,0.4,0.8,0.8,1.2,1.5l0.6,0.7c1.6,1.6-0.3-0.1,1.5,1.6c-1.4-1.3,0.6,1-2.1-1.6l-2.1-2.1
				c0.1,0.2,2.2,2.3,3.1,3.3c-0.2-0.2-0.6-0.6-1-0.9c3.3,3.2-0.4-0.1,2.1,2.4c-1.3-1-0.4,0.2-2.5-1.7c0.9,1.1,2,2.3,1.2,1.7
				c-0.3-0.3-0.4-0.4-1.1-1.1c-1-0.9-0.2,0,0.3,0.6c-0.5-0.5-2.1-1.7-3.3-2.8c0.9,1,2.7,2.7,3.8,3.8c-3.3-3,1.8,2.3-1.2-0.4
				c-0.4-0.5-1.5-1.7-2.4-2.4c-3.3-3,2.2,2.5,0.5,1.1l2.7,2.5c-1.7-1.5,1.4,1.7-1.4-0.9c0.9,1-1.1-0.7,1.6,1.8
				c-2.5-1.9,0.8,1.9-4.1-2.5c0.4,0.5-0.1,0.1,1.3,1.4c1.5,1.3-1-1.1,0-0.2c0.1,0.1,0.8,0.8,1.1,1.2c-0.7-0.5-0.9-0.6-3.1-2.8
				c-1.8-1.4,4.3,4.4,3.1,3.7c-1.1-1.1-1.5-1.4-1.4-1.2l1.8,1.9c-0.6-0.3-2.6-2.3-4.4-4c0.3,0.4,0.1,0.4,1.4,1.7l-2.4-2.1
				c1.7,1.5,1.1,1.1,1.5,1.6l-0.4-0.5c-0.8-0.7-0.4-0.2-0.2,0.1c1.2,1.1,1.7,1.4,2.1,1.7c0.8,0.8,0.5,0.7,1.5,1.6
				c-1.8-1.7-1.4-1.1-1.7-1.2c-0.5-0.3,1.6,1.6,1.5,1.6c-0.9-0.9-0.3,0-1.5-1.3c-0.3-0.3,1,0.8,0.2,0c-0.7-0.6-2.4-2.2-1.3-1
				c0.8,0.9,3.6,3.4,2.3,2.4c-0.4-0.5-1.1-1.2-1.8-1.8l-1.1-0.8l1.7,1.6c-0.4-0.4-0.6-0.5-0.8-0.7c1.7,1.7,0.4,0.7,2.3,2.6
				c0.1,0.2-1.3-0.9-1.5-1.1l-0.1-0.1c-1-0.8-0.5-0.1,0.6,1l-0.4-0.3c-0.2-0.1,0,0.3,0.9,1.2c-1.4-1.1-6.3-5.9-4.3-3.8
				c0,0.2,2.9,3,4,4c-1.3-0.9,1.2,1.9-1.5-0.4c0.6,0.7,1.1,1,1.4,1.5c-0.9-0.3,1.4,2.4-2-0.4c-0.6-0.7-1.7-1.6-2.6-2.5
				c1.4,1.5-1.6-1.4,0.9,1c1.5,1.4,2.2,2.1,2.9,2.6c0.7,0.9,0.4,1.2-1.1,0c0.7,0.6,1.2,1.1,1.6,1.5c-2.4-2.3-2.9-2.5-2.1-1.6
				l1.4,1.4l-1.6-1.4c0.4,0.5,3,2.9,1.5,1.7c-0.6-0.5-1.2-1.1-1.6-1.4c1.1,1.2,3,3.3,1.7,2.2l-2.2-1.9c0.2,0.3,1.4,1.5,2.1,2
				c-1.5-1-1.7-1.1-3.6-2.8c4.2,4.5,4,5.2,3.3,5.2l-1.1-1c-1.1-0.9,1.9,1.9,1,1.2c-1-1-2.3-2.1-3.5-3.4c-1.3-1,1.7,2,2.1,2.5
				c1.4,1.4-0.8-0.9,1,0.8c0.5,0.5-1.3-0.9,0.8,1.2c-0.9-0.8-2.4-2.3-3.3-3.2l1,1.1c-2.6-2.3-4.3-4.5-7.5-7.4l0.3,0.4
				c-2.3-2.1-2.4-2.6-3.3-3.2c1,1.1,4.1,4.2,5.1,5c0.4,0.7,5.1,5,4.7,5c-1.3-1.2-0.2-0.4-2-2.1c-1.8-1.6,0.8,1.1,0.1,0.6
				c0.9,0.7,3,2.8,3.3,3.3c-1.1-0.9-2-2-2.3-2.1c1.2,1.2,2,2.2,3,3c2.8,2.8-0.9-0.6,1.2,1.6c-2-1.9-4.4-4.5-5.6-5.3
				c1.9,1.8,2.4,2.7,5.3,5.3c-0.6-0.5-2.1-1.9-3.2-3.1c-1.3-1,3.3,3.6-0.5-0.1l1.9,1.9c-0.7-0.6-1.2-1-2.3-2c-0.1,0,2.4,2.8-0.5-0.1
				c0.3,0.3,0,0.4,2.1,2.3c1.3,1.1-1.4-1.6,1.4,1c-2.3-2.1,0.1,0.4,0.8,1.2l-1.1-1.1c0.4,0.5,0.1,0.3,1.3,1.5
				c-0.6-0.7-1.4-1.4-1.7-1.6l1.7,1.7c0.7,1-3.1-2.9-2.7-2.3l-1.2-1.4c0.3,0.3-1.4-1.2-0.9-0.6c1.5,1.6,3.4,3.4,4.6,4.7
				c0.6,0.8-1.8-1.7-0.3,0l-1.8-2c-0.5-0.5-2.7-2.5-2.7-2.3c0.5,0.6,2.6,2.9,3.6,3.7c0,0.1-1.1-0.8-2.2-1.9c0.4,0.7,1.7,1.6,2.6,2.7
				c-1.1-1-2.7-2.3-4.3-3.7l-2.5-2.7l-0.1,0.1c-2-2.2-1.6-1.5-3.8-3.8c-0.4-0.3,0.3,0.5,0.8,1.1c3.7,3.3,4.7,4.9,7.9,8.1
				c0.7,1.1-8-7.6-3.1-2.4c0.9,0.8,3.2,3.3,2.4,2.3c-0.5-0.2,3.1,3.3,1.7,2.1c-1.2-1.4-3.4-3.1-5.1-5.2c1.1,1.1,0.9,0.7,0.6,0.4
				c-1.3-1.2-3.2-3.2-3.4-3.1c0.2,0.4,0.2,0.5,1.9,2.2c1.8,1.8-0.1-0.3,1.7,1.6c0.5,0.8-2.3-2,0.9,1.4c-0.2-0.4,1.8,1.5,3,2.8
				l0.6,0.9l-1.2-1.2c-1.1-0.7,2.2,2.3,1.6,2.1l-2.5-2.3c-2-2.1,1.2,0.7-2.2-2.7c-0.3,0,1.4,1.7,0.4,1c-0.3-0.3-0.3-0.4-0.6-0.8
				c-0.2-0.1-4.7-4.5-2.2-1.7c0.9,1.1,1.2,1.2,2.4,2.5c0.2,0.6,1.4,1.9,1.5,2.3c-2.4-2.5-0.5,0-2.8-2.7c1.5,1.4,1.7,1-0.6-1.5
				c-3-2.9,0.6,0.3-2.3-2.8c-0.2,0.1-3.1-2.8-5-4.7c-0.2-0.1,0.6,0.7,0.8,1.1c1.7,1.8,1.8,1.7,3.6,3.6c-0.6-0.3,0.2,0.8,1.8,2.7
				c-0.9-0.8-2.7-2.6-2.8-2.9c0.3,0.7-0.1,0.7-0.9,0.3c3,2.8,0.5,0.9,2.9,3.3c0.7,0.6,2.9,2.6,4.1,3.9c-0.3-0.1-1.2-1.3-1.9-1.9
				c1.5,1.7-2.6-2.5-0.3,0.2c-0.7-1.1-3.4-3.6-5.6-6c1.1,1.4-1.6-1.7-1.7-1.5c1.1,1.4,1.9,2.6,2.2,3.2c-2.3-2-0.5,0.4-0.6,0.7
				c-1.2-1.1-3.6-3.8-4.1-4.2c-0.1,0.2,2.7,2.8,1.4,1.7l-0.5-0.5c0.5,0.7-2-1.5,1.5,2.3l-2.6-2.9c-0.3-0.2,0.3,0.5,0.6,0.8
				c-0.9-0.9-1.7-1.8-2.2-2.4c-1.9-1.9,0.1,0.5,0.1,0.7l1.6,1.7c1,1.5-0.6-0.1-0.3,0.7l-1.5-1.7l0.8,1.1c-1.4-1.7-2.5-2.7-1.3-1.2
				l-3.4-4.4c1,0.9,1.7,2.1,3.3,3.8c1.3,1.4,1.1,0.8-0.3-0.8c-0.2-0.1,0.1,0.2,0.6,0.9c-2.1-2.3-2-2.3-3.3-4c0.1,0.1-0.6-0.6,0,0.2
				c-1-1.2-1.1-1.4-1-1.6c0.8,1,1.4,1.4,1.9,2.1c-1.9-2.1-2.3-2.8-1.7-2.3c2.3,2.3-1.2-1.7-0.4-1.2c1.9,2.1,3.3,3.9,4,4.8
				c1,1,0-0.2,1.1,0.8c-1.4-1.6-3.5-4-4.3-5l1.4,1.5c-0.6-0.9-2.7-3.1-2.2-2.8c0.9,0.5,1.2,0.3,1.5,0.3l1.4,1.5
				c-3-3.3-0.8-1.5-2.1-3c1.6,1.2-0.9-1.9,1.7,0.6c-0.7-1.5-1.5-2.9-0.6-2.8l2.1,2.2c-1.5-1.6,1.3,1.2,1,0.8
				c-1.8-1.6-2.1-2.3-3.4-3.7c1.8,1.5,0.3-0.6-1.1-2.2l1.5,1.5c-2.6-2.9,0-0.7,0.6-0.4c0.6,0.6,2.1,1.9,2,1.7
				c-2.3-2.5-2.1-2.3-3.4-4c0.1-0.1,0.9,0.3,2,1.1c-3-3.7-0.4-2.1-2-4.5l1.8,1.7c-3.4-4,0.6-1.3-1-3.6l3,2.9c1.1,0.8-0.5-1-2.7-3
				c1,0.8-1.2-1.7,1.4,0.6c0.7,0.4-1.3-1.5-1.6-2c1.4,0.8,1.2,0.5,0.9-0.3l-0.2-0.1c0.6,0.7,1.9,1.9,2.2,2c-0.8-0.9,1.1,0.4-2.6-2.9
				c2.3,1.7-1.1-2.2,1.9,0.2c-1-0.9-1.1-1.2-1.8-1.8c0.2-0.3,2.4,1.4,0.9-0.4c0.5,0.4,1.6,1.6,1.8,1.7c-0.3-0.4-1.3-1.2-1.8-1.8
				c-1.5-2.1,2.6,1,2.5,0.3c-1.3-2.4,0.2-2.1,0.5-3l0.7,0.7c-2.6-2.8,3.3,2.2-0.8-1.9c0.7,0.6,0.5,0.1,1.9,1.5c-1.8-2,2.3,1.3,0-1.3
				c-0.1,0,0,0.1,0.3,0.4c1.8,1.3-0.2-1,1.5,0.1c0.3,0.3,0.5,0.6,1.2,1.3c1.5,1.2-2.8-3.2,0.7,0.1c0-0.1-1.7-1.7-1.6-1.6
				c1.9,0.8,0.2-1.9,0-3.3c2.5,1.6,5.8,5.7,3.6,2.8c0.7,0.6-1.3-1.3-0.6-0.6c-0.8-1.1,4,3.6,2.3,1.7c-2.1-2.1-1.1-1.2-2.4-2.5
				c1.6,1.1,3.6,2.9,2.1,1.2l1.1,1.1c-2.9-3.3-1-1.9-4.4-5.7c0.7-1.9-0.1-5.2,1-6.9c2-0.5,1.9-3.6,5.3-2.8c3,2.8,2.9,2.8,2.3,1.1
				c0.4,0.5,0.5,0.7,0.9,1.1c-2.1-2.6,0.1-0.5-1.9-3c1,0,1-1.2,1.7-1.7c0.1,0.4,1.7,2.6,1.7,2.3l-1.2-1.8l0.6,0.7
				c-0.2-0.5-1.1-1.9-1.9-2.7c0-3.7,5.8,0.6,7.2-1.3c1.2,0.9,1.2-0.6,1.5-1.5c3.8,3,6.7,5.7,7.3,2.1
				C195.2,188.8,198,197.1,198.2,199.1L198.2,199.1z"/>
		</g>
	</g>
	<path fill="#F7941E" d="M158.3,232.3c1.1,1.2,1.8,1.8,3.2,3.6C160.5,234.7,159.3,233.5,158.3,232.3L158.3,232.3z"/>
	<path fill="#F7941E" d="M172.7,242.6c-0.3-0.4,0.5,0.5,0.7,0.6c0.1,0.1,1,1.2,0.4,0.6C173.7,243.7,173.2,243.1,172.7,242.6
		L172.7,242.6z"/>
	<path fill="#F7941E" d="M174.1,242.6c1,1.1,1.7,2.1,1.7,2.3L174.1,242.6L174.1,242.6z"/>
	<path fill="#F7941E" d="M179.1,246.3c0.9,0.8,1.4,1.3,1.3,1.4C179.9,247.2,179.6,246.9,179.1,246.3L179.1,246.3z"/>
	<path fill="#F7941E" d="M176.8,243.9c0-0.1,0.7,0.5,1.3,1.1C177.2,244.1,178.5,245.7,176.8,243.9L176.8,243.9z"/>
	<path fill="#F7941E" d="M181.3,245.5c-0.1-0.1-0.9-1.1,0.4,0.1C180.8,244.8,182.8,247.1,181.3,245.5L181.3,245.5z"/>
	<path fill="#F7941E" d="M180.4,243.2C180.4,243.3,180.6,243.5,180.4,243.2c0.6,0.4,1.3,1.2,1.4,1.3L180.4,243.2L180.4,243.2z"/>
	<polygon fill="#F7941E" points="186.9,227.6 187.3,228.2 186.3,227.2 	"/>
	<path fill="#F7941E" d="M191.3,222.9c-0.6-0.7,1,1,1.2,1.1C192.6,224.2,191.3,222.7,191.3,222.9L191.3,222.9z"/>
	<polygon fill="#F7941E" points="188.7,215.1 188.7,215.2 186.6,212.9 	"/>
	<g>
		<g>
			<defs>
				<rect id="SVGID_9_" x="0" y="186.7" width="792" height="238.5"/>
			</defs>
			<clipPath id="SVGID_10_">
				<use xlink:href="#SVGID_9_"  overflow="visible"/>
			</clipPath>
			<path clip-path="url(#SVGID_10_)" fill="#F7941E" d="M40.9,315.7c0.4-0.5,1.1-2.4,0.6-1C41,315.8,40.5,316.6,40.9,315.7
				L40.9,315.7z"/>
		</g>
		<g>
			<defs>
				<rect id="SVGID_11_" x="0" y="186.7" width="792" height="238.5"/>
			</defs>
			<clipPath id="SVGID_12_">
				<use xlink:href="#SVGID_11_"  overflow="visible"/>
			</clipPath>
			<path clip-path="url(#SVGID_12_)" fill="#F7941E" d="M4.2,297.6c3.2-7.1,1,0.5,3.3-4c0.2-0.3-1.6,4-1.1,3.1
				c2.7-5.5,2.2-1.8,1,2.8L7,300.6c-0.2,0.9,1.4-2.8,1.3-2.3c-0.3,0.7-0.5,1-0.8,2.1c0.9-2.2,0.6-1,1.3-2.6c-0.3,0.9-1,2.7-1.4,3.7
				l1.1-2.5c2.6-6,0.3,0.6,1.8-2.4l-0.7,1.6c1.9-3.5,2.2-2.6,3.2-3.8c-0.4,0.9-1.1,2.5-1.5,3.6c1.1-2.7,1.5-3.3,1.9-3.8
				c-1.1,2.8,1.2-2.4,0.8-0.9l-0.3,0.6c1.3-2.8-0.5,1.7,1-1.7l-0.8,2.2c1.6-3.9-0.7,2.1,0.2,0.1l0.3-0.8c0.5-0.9-0.3,1.1,0.1,0.4
				l-0.2,0.4c0.6-0.9-0.2,1.3,1.1-1.8c-0.9,2.5-0.6,1-2,4.6c1.9-2.9,2.3-2,2.9-1.8c-0.4,1.2-0.6,1.6-1,2.8c0.3-0.6,0.5-0.5,1.2-2
				c0,0.1-0.6,1.6-0.6,1.7c-0.4,1.2,1.5-3.3,1.1-1.9c-0.4,0.8-0.8,1.8-1.3,2.9c1.1-2.3,1.1-1.9,1.5-2.6c-0.2,0.5-0.4,0.8-0.8,1.7
				c1.3-2.6,0,0.7,0.8-1l-0.8,1.7c-0.7,2.2,1.6-3.6,1.2-2.3c-0.3,0.5-0.5,1.2-0.9,1.9c1.5-3.1,1.3-2,1.9-3c-0.1,0.2-0.3,0.7-0.3,0.7
				c0.3-0.3,0.1,0.7,0.9-0.6c-0.3,0.8-1.8,4.2-1.4,3.7c1.5-3.5,0.9-1.3,2.5-5.3c-0.1,0.6-0.4,2.1,0.2,0.9c-0.6,1.3-1.8,4.3-2,4.5
				l-0.8,2.2c-0.6,1.4,0.1-0.5-0.6,1.3c0.1-0.1,0.9-1.4,0.7-0.8c1-2.1,2.9-6.1,3.2-6.4c-0.7,1.3-1.6,3.9-1.9,4.4l3.2-6.6
				c0.1-0.1-1.2,2.8-0.7,1.9c0.4-0.9,0.7-1.5,1-2.2c-0.2,0.4,0.6-0.8-0.8,2.7c-0.6,1.4-0.4,0.7-0.9,1.9c0.1,0,0.6-1.2,0.8-1.2
				l-0.2,0.5c-0.1,0.5,0.9-1.4,1.6-3.3c0-0.1-0.9,2.1-0.5,1c0.9-2,1.3-2.5,1.4-2.5c-0.3,0.5-0.7,1.5-1.1,2.4
				c1.3-2.6,1.9-3.4,2.5-4.5c0.7-1.6-1.4,2.9-1,2.1c-0.8,2.4,1.9-3,0.6,0.4c-0.2,0.3,1-2.3,0.8-1.9c0,0.2-1,2.6-0.6,1.8
				c-0.6,1.4,0.3-0.4,0.5-0.8c0.5-1-0.3,0.7-0.4,0.8c0.6-1.1,2-3.1,1.3-1c0.4-0.9,1.6-3.3,1.6-3.2l-1,2.1c-0.5,1.3,0.3-0.1-0.5,1.7
				c1.3-2.6-1.4,2-0.4,0.1c-0.7,1.8,1.7-3.3,0.4-0.4c0.1,0,1.3-2.4,0.5-0.3c0.1-0.4-1.4,2.9-1.2,2.8c0.3-0.3,0.5-1,0.9-1.7l0.5-0.8
				c0.9-2.1,0,0.3,1-2c-0.7,1.7,0.7-1-0.9,2.5l-1.2,2.7c0.2-0.2,1.4-2.8,2-4c-0.1,0.3-0.3,0.8-0.5,1.2c1.9-4.2,0,0.4,1.5-2.8
				c-0.5,1.5,0.3,0.3-0.8,2.9c0.7-1.2,1.4-2.7,1.2-1.7c-0.2,0.4-0.3,0.5-0.7,1.4c-0.5,1.3,0,0.2,0.4-0.5c-0.3,0.6-0.9,2.5-1.5,4
				c0.7-1.2,1.6-3.5,2.3-4.8c-1.7,4.2,1.5-2.5-0.1,1.3c-0.3,0.6-1.1,2-1.4,3c-1.7,4.1,1.6-2.9,0.8-0.9l1.5-3.4
				c-0.9,2.1,1.1-1.9-0.5,1.6c0.6-1.2-0.3,1.2,1.2-2.1c-1,2.9,1.4-1.4-1.1,4.6c0.3-0.5,0.1,0.1,0.9-1.6c0.8-1.9-0.7,1.3-0.1,0
				c0.1-0.1,0.5-1,0.7-1.4c-0.3,0.8-0.3,1.1-1.6,3.8c-0.8,2.1,2.7-5.6,2.4-4.2c-0.6,1.4-0.9,1.9-0.7,1.7l1.2-2.3
				c-0.1,0.6-1.3,3.2-2.4,5.5c0.3-0.4,0.3-0.2,1.1-1.9l-1.2,3c0.9-2.1,0.7-1.4,1-1.9l-0.3,0.5c-0.4,1-0.1,0.4,0.1,0.2
				c0.6-1.4,0.8-2.1,1-2.5c0.5-1,0.5-0.7,1.1-1.9c-1.1,2.3-0.6,1.7-0.7,1.9c-0.2,0.5,1-2,1-1.9c-0.5,1.2,0,0.3-0.8,1.9
				c-0.2,0.4,0.5-1.2,0-0.2c-0.4,0.9-1.3,3-0.5,1.5c0.6-1.1,2-4.5,1.5-3c-0.3,0.5-0.7,1.5-1.1,2.3l-0.4,1.2l1-2.1
				c-0.2,0.5-0.3,0.7-0.4,1c1-2.2,0.5-0.6,1.7-3c0.2-0.2-0.5,1.5-0.6,1.8l-0.1,0.2c-0.5,1.3,0,0.5,0.7-0.9l-0.2,0.5
				c0,0.2,0.2-0.1,0.8-1.3c-0.6,1.6-3.6,7.9-2.2,5.3c0.1,0,1.9-3.7,2.5-5.1c-0.5,1.5,1.3-1.8,0,1.5c0.4-0.8,0.6-1.4,0.9-1.8
				c-0.1,0.9,1.7-2.2,0.1,2c-0.5,0.8-1,2.1-1.5,3.3c0.9-1.8-0.8,2,0.7-1.2c0.9-1.9,1.3-2.8,1.6-3.6c0.6-0.9,0.9-0.8,0.2,1
				c0.4-0.9,0.7-1.4,1-2c-1.4,3-1.5,3.5-0.9,2.5l0.9-1.8l-0.8,1.9c0.3-0.6,1.8-3.8,1.1-2c-0.3,0.7-0.7,1.4-0.9,2
				c0.8-1.4,2.1-3.9,1.5-2.3l-1.2,2.7c0.2-0.3,1-1.8,1.3-2.6c-0.6,1.7-0.5,1.9-1.6,4.3c2.9-5.4,3.5-5.5,3.7-4.9l-0.7,1.4
				c-0.5,1.3,1.2-2.3,0.8-1.4c-0.6,1.3-1.3,2.9-2.1,4.4c-0.5,1.5,1.3-2.3,1.7-2.8c0.9-1.8-0.6,1.1,0.5-1.2c0.3-0.6-0.5,1.5,0.8-1.2
				c-0.5,1.1-1.4,3-2,4.1l0.7-1.3c-1.4,3.2-2.9,5.5-4.6,9.5l0.3-0.4c-1.3,2.9-1.7,3.1-2,4.2c0.7-1.3,2.6-5.2,3.1-6.4
				c0.5-0.7,3.1-6.4,3.2-6.1c-0.7,1.6-0.3,0.3-1.3,2.5c-0.9,2.2,0.8-1.1,0.5-0.3c0.4-1.1,1.8-3.7,2.1-4.2c-0.5,1.3-1.3,2.5-1.3,2.9
				c0.8-1.5,1.4-2.7,1.8-3.8c1.7-3.5-0.3,1,1.1-1.7c-1.1,2.5-2.9,5.7-3.3,7c1.1-2.4,1.7-3.2,3.3-6.7c-0.3,0.7-1.2,2.6-1.9,4
				c-0.6,1.5,2.3-4.3,0.1,0.5l1.2-2.4c-0.4,0.8-0.6,1.4-1.2,2.8c0.1,0.1,1.8-3.2,0.1,0.5c0.2-0.4,0.3-0.1,1.4-2.7
				c0.6-1.6-1,1.8,0.6-1.7c-1.3,2.8,0.3-0.3,0.8-1.2l-0.7,1.4c0.3-0.5,0.2-0.2,1-1.7c-0.4,0.8-0.9,1.8-1,2.1l1.1-2.2
				c0.7-1-1.8,3.8-1.3,3.3l-0.9,1.6c0.2-0.3-0.7,1.7-0.3,1.1c1-2,2.2-4.3,2.9-5.8c0.5-0.8-1,2.3,0,0.3l-1.2,2.3
				c-0.3,0.6-1.5,3.3-1.4,3.3c0.4-0.7,1.9-3.5,2.3-4.6c0.1,0-0.4,1.2-1.2,2.7c0.5-0.6,1-2.1,1.7-3.3c-0.6,1.3-1.4,3.3-2.2,5.2
				l-1.7,3.3l0.1,0.1c-1.4,2.6-0.9,2-2.3,4.8c-0.2,0.5,0.4-0.5,0.8-1.2c2-4.5,3.1-6,5-10.1c0.7-1-4.7,10-1.4,3.7
				c0.5-1.1,2.1-4.1,1.4-3c-0.1,0.5,2.1-4.1,1.4-2.3c-0.9,1.6-1.9,4.2-3.2,6.5c0.7-1.3,0.4-1.1,0.2-0.7c-0.7,1.6-2,4.1-1.9,4.2
				c0.3-0.4,0.4-0.4,1.4-2.5c1.1-2.3-0.2,0.2,1-2.1c0.5-0.7-1.1,2.8,0.9-1.3c-0.3,0.3,0.9-2.1,1.7-3.7l0.6-0.9l-0.8,1.5
				c-0.4,1.2,1.4-2.8,1.4-2.3l-1.4,3.1c-1.3,2.6,0.3-1.3-1.7,3c0,0.2,1.1-1.9,0.7-0.8c-0.2,0.4-0.3,0.5-0.5,0.8c0,0.2-2.8,5.9-1,2.6
				c0.7-1.3,0.8-1.5,1.5-3.1c0.4-0.4,1.3-2,1.5-2.2c-1.6,3.1,0.1,0.4-1.6,3.6c0.8-1.9,0.5-1.8-1,1.1c-1.7,3.8,0.1-0.6-1.8,3.2
				c0.1,0.2-1.7,3.8-2.8,6.2c0,0.2,0.5-0.8,0.7-1.2c1.1-2.3,1-2.2,2.2-4.6c-0.1,0.7,0.6-0.5,1.8-2.6c-0.5,1.1-1.6,3.4-1.8,3.6
				c0.5-0.6,0.6-0.2,0.4,0.6c1.7-3.7,0.6-0.8,2-3.9c0.3-0.9,1.5-3.5,2.4-5.2c-0.1,0.3-0.8,1.6-1.1,2.4c1.1-2-1.5,3.3,0.2,0.2
				c-0.8,1.1-2.2,4.5-3.7,7.3c0.9-1.6-1,2-0.9,2.1c0.9-1.5,1.7-2.7,2.1-3.3c-1.2,2.8,0.4,0.3,0.6,0.2c-0.6,1.5-2.3,4.7-2.5,5.3
				c0.1,0,1.7-3.6,1.1-2l-0.3,0.6c0.4-0.7-0.8,2.3,1.5-2.3l-1.8,3.5c-0.1,0.3,0.3-0.5,0.5-0.8c-0.6,1.1-1.1,2.2-1.5,2.9
				c-1.1,2.5,0.4-0.3,0.5-0.3l1-2.1c1-1.5,0.1,0.6,0.6-0.1l-1,2l0.7-1.2c-1,2-1.5,3.3-0.7,1.7l-2.7,4.9c0.5-1.2,1.3-2.4,2.3-4.5
				c0.8-1.8,0.4-1.3-0.6,0.7c-0.1,0.3,0.2-0.2,0.6-0.9c-1.4,2.8-1.4,2.7-2.4,4.6c0.1-0.1-0.3,0.8,0.2-0.1c-0.7,1.4-0.9,1.5-1.1,1.6
				c0.6-1.1,0.8-1.8,1.3-2.6c-1.2,2.5-1.7,3.2-1.5,2.5c1.3-2.9-1.2,1.7-0.9,0.9c1.3-2.5,2.4-4.5,3-5.5c0.5-1.3-0.1,0,0.4-1.3
				c-1,1.9-2.4,4.7-3.1,5.8l0.9-1.9c-0.6,0.9-1.9,3.7-1.8,3.1c0.2-1,0-1.2-0.1-1.5l0.9-1.9c-2.1,3.9-1.1,1.3-2.1,3
				c0.7-1.9-1.4,1.5,0.1-1.7c-1.1,1.2-2.1,2.5-2.2,1.6l1.4-2.7c-1,2,0.7-1.6,0.4-1.2c-1,2.2-1.5,2.8-2.3,4.4c0.8-2.2-0.5,0-1.6,1.8
				l0.9-1.9c-1.9,3.4-0.6,0.3-0.5-0.4c0.3-0.8,1.2-2.6,1-2.4c-1.6,3-1.5,2.7-2.6,4.6c-0.1-0.1,0-0.9,0.5-2.1
				c-2.5,4.1-1.6,1.1-3.3,3.4l1-2.2c-2.7,4.5-1.2,0-2.8,2.2l1.8-3.8c0.4-1.2-0.7,0.9-2,3.6c0.4-1.2-1.2,1.7,0.2-1.5
				c0.2-0.8-1,1.7-1.3,2.1c0.4-1.6,0.2-1.3-0.4-0.7l-0.1,0.3c0.4-0.8,1.2-2.4,1.2-2.7c-0.6,1,0.1-1.2-1.9,3.4c1-2.7-1.6,1.9-0.2-1.8
				c-0.5,1.2-0.7,1.5-1.1,2.3c-0.2,0,0.7-2.7-0.5-0.7c0.2-0.6,1-2.1,1-2.3c-0.3,0.4-0.7,1.6-1.1,2.3c-1.4,2.1,0.4-2.7-0.2-2.3
				c-1.7,2.1-1.7,0.6-2.5,0.8l0.4-0.9c-1.8,3.4,1.2-3.8-1.3,1.4c0.3-0.9,0-0.5,0.8-2.2c-1.3,2.4,0.6-2.5-1,0.5
				c0,0.1,0.1-0.1,0.3-0.5c0.7-2.1-0.7,0.6-0.2-1.4c0.2-0.4,0.4-0.6,0.8-1.6c0.7-1.8-1.9,3.8,0-0.7c-0.1,0-1,2.2-0.9,2.1
				c0.3-2-1.5,0.6-2.5,1.4c0.8-2.8,3.3-7.5,1.5-4.3c0.4-0.9-0.8,1.7-0.4,0.8c-0.7,1.2,2-5,0.9-2.7c-1.2,2.7-0.7,1.5-1.5,3.1
				c0.5-1.9,1.6-4.3,0.5-2.3l0.6-1.4c-2,3.9-1.3,1.7-3.5,6.3c-1.5,0.3-3.8,2.4-5.1,2.5c-0.7-1.4-2.7,0.3-2.8-2.7
				c1.3-3.9,1.2-3.8,0.3-2.4c0.3-0.6,0.3-0.7,0.6-1.3c-1.3,3.1-0.3,0.2-1.6,3.2c-0.2-0.7-0.9,0-1.4-0.2c0.2-0.3,1.3-2.8,1.1-2.7
				l-0.9,2l0.3-0.9c-0.2,0.4-0.9,2-1.3,3c-2.1,2.3-0.7-4.5-2.1-4.1c0.3-1.4-0.6-0.3-1.1,0.2c0.8-4.5,1.4-8.2-0.6-5.5
				C0,307.4,3.2,299.3,4.2,297.6L4.2,297.6z"/>
		</g>
	</g>
	<path fill="#F7941E" d="M40.6,315.9c0.7-1.5,1-2.4,2.1-4.4C42,313,41.3,314.6,40.6,315.9L40.6,315.9z"/>
	<path fill="#F7941E" d="M45.7,299.1c-0.2,0.4,0.3-0.6,0.4-0.9c0.1-0.1,0.7-1.4,0.4-0.6C46.4,297.8,46,298.5,45.7,299.1L45.7,299.1z
		"/>
	<path fill="#F7941E" d="M45.4,297.9c0.7-1.3,1.3-2.3,1.5-2.5L45.4,297.9L45.4,297.9z"/>
	<path fill="#F7941E" d="M47.5,292c0.5-1.2,0.8-1.8,0.9-1.7C48,291,47.8,291.4,47.5,292L47.5,292z"/>
	<path fill="#F7941E" d="M46,295.1c-0.1,0,0.3-0.8,0.6-1.6C46,294.7,47.1,292.8,46,295.1L46,295.1z"/>
	<path fill="#F7941E" d="M46.5,290.5c-0.1,0.1-0.7,1.2,0-0.3C46,291.2,47.4,288.5,46.5,290.5L46.5,290.5z"/>
	<path fill="#F7941E" d="M44.8,292.2C44.9,292.1,45,291.9,44.8,292.2c0.2-0.6,0.7-1.6,0.8-1.7L44.8,292.2L44.8,292.2z"/>
	<polygon fill="#F7941E" points="30.6,292.2 30.9,291.6 30.3,292.9 	"/>
	<path fill="#F7941E" d="M25.4,290c-0.4,0.8,0.5-1.3,0.6-1.5C26.1,288.4,25.2,290.2,25.4,290L25.4,290z"/>
	<polygon fill="#F7941E" points="19.6,295.7 19.7,295.6 18.4,298.5 	"/>
	<path fill="#F7941E" d="M60.5,385c-0.3-0.7-1.8-1.9-0.7-1C60.6,384.9,61.2,385.7,60.5,385L60.5,385z"/>
	<path fill="#F7941E" d="M4.4,392.9c-1.4-7.7,1.4-0.3,1-5.3c0-0.3,0.9,4.2,0.8,3.1c-0.6-6.1,1.4-2.8,2.9,1.8l0.1,1.2
		c0.3,0.8-0.2-3.2,0.1-2.6c0.1,0.8,0.1,1.1,0.3,2.2c-0.3-2.4,0.1-1.2-0.1-3c0.2,0.9,0.5,2.8,0.7,3.9l-0.3-2.7
		c-0.6-6.5,0.7,0.3,0.6-3c0.1,0.6,0.1,1.1,0.2,1.8c0.1-4,1-3.3,1.6-4.9c0.1,1,0.2,2.7,0.3,3.8c-0.2-2.9-0.1-3.6,0.1-4.2
		c0.3,3,0.1-2.7,0.5-1.1l0,0.7c0-3.1,0.4,1.8,0.3-2l0.2,2.3c-0.2-4.2,0.4,2.2,0.4,0L14,384c0.1-1,0.3,1.1,0.3,0.4l0,0.5
		c0.2-1.1,0.5,1.2,0.3-2.1c0.2,2.6-0.2,1.2,0.1,5c0.7-3.4,1.7-2.8,2.6-2.9c0.1,1.3,0.2,1.7,0.2,3c0.1-0.7,0.3-0.6,0.4-2.3
		c0,0.1,0.1,1.7,0.1,1.8c0.2,1.2,0.1-3.6,0.3-2.1c-0.1,0.9-0.1,1.9-0.1,3.2c0.1-2.6,0.3-2.2,0.5-3c0,0.6-0.1,0.9-0.1,1.9
		c0.2-2.9,0.4,0.6,0.5-1.2l-0.1,1.9c0.3,2.3,0.1-4,0.3-2.6c-0.1,0.6,0,1.3-0.1,2.1c0.2-3.4,0.6-2.3,0.8-3.5c0,0.3,0,0.8,0,0.8
		c0.2-0.4,0.5,0.6,0.8-0.9c0.1,0.8-0.1,4.6,0.2,3.9c0.1-3.8,0.5-1.6,0.4-5.9c0.2,0.6,0.5,2.1,0.7,0.8c-0.1,1.4,0,4.7-0.2,5l0.1,2.3
		c-0.1,1.6-0.1-0.5-0.1,1.4c0.1-0.2,0.4-1.7,0.4-1c0.2-2.3,0.5-6.7,0.8-7.2c-0.2,1.5,0,4.2-0.1,4.8l0.6-7.3c0.1-0.2-0.1,3,0.1,2
		c0-1,0.1-1.6,0.2-2.5c0,0.4,0.4-0.9,0.3,2.8c0,1.5-0.2,0.8-0.1,2.1c0.2,0,0.2-1.3,0.4-1.4l0,0.5c0.1,0.6,0.4-1.6,0.3-3.7
		c-0.1-0.1,0,2.3-0.1,1.2c0.2-2.2,0.4-2.8,0.5-2.8c-0.1,0.6-0.1,1.6-0.2,2.7c0.3-2.9,0.6-3.9,0.9-5.1c0.1-1.8-0.2,3.2-0.2,2.3
		c0.2,2.5,0.8-3.5,0.9,0.1c-0.1,0.3,0.1-2.5,0-2c0.1,0.2,0.1,2.8,0.2,1.9c0,1.5,0.1-0.5,0.3-0.9c0.1-1.1,0,0.7-0.1,0.9
		c0.2-1.3,0.8-3.6,1.1-1.4c0-1,0.3-3.7,0.4-3.6l-0.1,2.3c0,1.4,0.3-0.2,0.2,1.8c0.3-2.8-0.7,2.4-0.4,0.2c0,2,0.4-3.7,0.3-0.5
		c0.2-0.1,0.4-2.7,0.4-0.5c0-0.4-0.2,3.3-0.1,3.1c0.2-0.4,0.1-1.1,0.3-1.9l0.1-1c0.1-2.3,0.2,0.3,0.2-2.2c0,1.9,0.3-1.2,0.2,2.6
		l-0.1,3c0.1-0.2,0.2-3.1,0.3-4.4c0,0.3,0,0.9,0,1.4c0.1-4.6,0.2,0.4,0.4-3.1c0.1,1.6,0.5,0.2,0.5,3c0.2-1.4,0.3-3,0.5-2
		c0,0.4-0.1,0.6-0.1,1.5c0.1,1.3,0.1,0.1,0.2-0.6c0,0.7,0.2,2.7,0.2,4.3c0.2-1.4,0.2-3.8,0.2-5.3c0.1,4.5,0.4-2.9,0.5,1.2
		c-0.1,0.6-0.2,2.2-0.1,3.3c0.1,4.5,0.3-3.3,0.5-1.2l0-3.7c0.1,2.3,0.3-2.2,0.3,1.6c0.1-1.3,0.2,1.2,0.2-2.4c0.3,3.1,0.8-1.9,1,4.7
		c0-0.6,0.2,0,0.1-1.9c-0.1-2-0.1,1.5-0.1,0.1c0-0.1,0-1.1,0-1.6c0.1,0.8,0.2,1.1,0.1,4.1c0.3,2.3,0.2-6.2,0.5-4.8
		c0,1.5,0,2.1,0.1,1.8l0.1-2.6c0.2,0.6,0.2,3.4,0.2,6c0.1-0.4,0.2-0.3,0.2-2.2l0.2,3.2c-0.1-2.3,0-1.5,0.1-2.2l0,0.6
		c0,1.1,0.1,0.4,0.2,0.1c-0.1-1.6-0.2-2.2-0.3-2.7c0-1.1,0.1-0.9,0.1-2.2c0,2.5,0.2,1.8,0.3,2c0.1,0.5,0-2.2,0-2.2
		c0,1.3,0.1,0.2,0.1,2c0,0.4-0.1-1.3-0.1-0.1c0.1,1,0.2,3.2,0.2,1.6c0-1.2-0.2-4.9,0-3.4c0,0.6,0,1.6,0,2.5l0.2,1.3l-0.1-2.3
		c0,0.6,0,0.8,0.1,1.1c-0.1-2.4,0.2-0.7,0.1-3.5c0.1-0.2,0.2,1.6,0.3,1.8l0,0.2c0.2,1.3,0.2,0.5,0.2-1.1l0,0.5
		c0.1,0.2,0.2-0.2,0.1-1.5c0.2,1.7,0.6,8.6,0.5,5.7c0.1-0.1-0.1-4.2-0.2-5.6c0.3,1.5,0.2-2.2,0.7,1.3c0-0.9-0.1-1.5-0.1-2
		c0.4,0.9,0.3-2.7,1,1.7c0,1,0.2,2.3,0.4,3.6c-0.1-2,0.3,2.1,0-1.4c-0.2-2.1-0.3-3-0.5-3.9c0-1.1,0.3-1.1,0.6,0.8
		c-0.2-0.9-0.2-1.6-0.3-2.2c0.4,3.3,0.6,3.7,0.5,2.6l-0.3-2l0.3,2c-0.1-0.6-0.5-4.2-0.2-2.3c0.1,0.8,0.2,1.6,0.3,2.1
		c-0.1-1.6-0.5-4.4-0.1-2.8l0.5,2.9c0-0.3-0.2-2.1-0.4-2.9c0.4,1.7,0.6,1.9,1.1,4.4c-0.8-6.1-0.6-6.4-0.2-6l0.3,1.5
		c0.4,1.4-0.5-2.6-0.3-1.6c0.3,1.4,0.8,3,1.1,4.7c0.5,1.5-0.4-2.6-0.6-3.3c-0.5-1.9,0.2,1.2-0.3-1.2c-0.2-0.7,0.5,1.5-0.2-1.4
		c0.3,1.1,0.8,3.3,1.1,4.4l-0.3-1.4c1,3.3,1.3,6.1,2.4,10.2l0-0.5c0.9,3,0.6,3.5,1.1,4.5c-0.2-1.5-1.2-5.7-1.6-6.9
		c0-0.8-1.7-6.9-1.5-6.7c0.5,1.7,0,0.4,0.7,2.8c0.7,2.3-0.2-1.3,0.1-0.5c-0.4-1.1-1.1-4-1.2-4.5c0.4,1.3,0.7,2.7,0.9,3
		c-0.4-1.7-0.7-2.9-1.1-4.1c-1.1-3.8,0.4,1-0.4-1.9c0.8,2.6,1.7,6.1,2.2,7.4c-0.8-2.5-0.9-3.5-2.1-7.2c0.2,0.7,0.9,2.7,1.3,4.3
		c0.5,1.5-1.3-4.6,0.3,0.4l-0.8-2.6c0.3,0.8,0.5,1.5,1,2.8c0.1,0-1-3.5,0.3,0.4c-0.1-0.4,0.1-0.3-0.9-2.9c-0.6-1.6,0.6,2-0.7-1.6
		c1,2.9,0-0.4-0.4-1.4l0.5,1.5c-0.2-0.6,0-0.3-0.6-1.9c0.3,0.9,0.7,1.9,0.8,2.2l-0.8-2.3c-0.4-1.2,1.4,4,1.3,3.3l0.6,1.8
		c-0.1-0.4,0.7,1.7,0.5,1c-0.7-2.1-1.6-4.5-2.2-6.1c-0.3-0.9,0.9,2.3,0.1,0.2l0.9,2.5c0.2,0.7,1.3,3.4,1.4,3.3
		c-0.2-0.7-1.4-3.7-1.8-4.8c0,0,0.5,1.2,1.1,2.7c-0.2-0.7-0.9-2.2-1.4-3.5c0.6,1.4,1.4,3.3,2.3,5.2l1.3,3.4l0.1,0
		c1.1,2.8,0.9,2.1,2.1,4.9c0.2,0.4-0.1-0.6-0.4-1.3c-2.1-4.5-2.6-6.3-4.4-10.4c-0.4-1.2,4.6,10,1.8,3.5c-0.5-1.1-1.9-4.2-1.4-3
		c0.3,0.4-1.9-4.1-1-2.5c0.7,1.7,2,4.1,3.1,6.6c-0.6-1.4-0.5-1-0.4-0.6c0.8,1.6,1.9,4.2,2,4.1c-0.1-0.4-0.1-0.5-1.1-2.7
		c-1.1-2.3,0,0.3-1.1-2.1c-0.3-0.8,1.5,2.7-0.5-1.5c0.1,0.4-1.1-2.1-1.8-3.7l-0.4-1l0.8,1.5c0.6,1.1-1.4-2.8-1.1-2.4l1.6,3
		c1.3,2.6-0.7-1.1,1.5,3.2c0.1,0.1-0.9-2-0.3-1c0.2,0.4,0.2,0.5,0.4,0.9c0.1,0.1,3,5.7,1.4,2.4c-0.6-1.3-0.8-1.5-1.6-3.1
		c-0.2-0.5-1-2.1-1.1-2.4c1.7,3.1,0.2,0.2,1.9,3.4c-1-1.8-1-1.5,0.5,1.4c2,3.6-0.4-0.5,1.6,3.3c0.2,0,2.1,3.6,3.3,6
		c0.1,0.1-0.4-0.9-0.5-1.3c-1.2-2.2-1.2-2.2-2.4-4.4c0.5,0.5-0.1-0.8-1.2-2.9c0.6,1.1,1.9,3.2,1.9,3.5c-0.2-0.7,0.1-0.5,0.7,0
		c-2.2-3.4-0.3-0.9-2.2-3.8c-0.6-0.7-2.1-3.2-3-4.8c0.2,0.2,0.9,1.5,1.4,2.3c-1.1-1.9,2,3,0.1,0c0.6,1.2,2.6,4.2,4.3,7
		c-0.8-1.6,1.2,1.9,1.3,1.9c-0.8-1.6-1.5-2.8-1.7-3.5c1.9,2.4,0.4-0.2,0.4-0.4c1,1.3,3.1,4.2,3.6,4.7c0.1-0.1-2.4-3.1-1.3-1.9
		l0.4,0.6c-0.5-0.7,1.8,1.7-1.4-2.4l2.3,3.2c0.2,0.3-0.3-0.5-0.5-0.8c0.8,1,1.5,1.9,2,2.6c1.8,2.1,0-0.5,0-0.7l-1.5-1.8
		c-1-1.6,0.6,0.1,0.3-0.6l1.5,1.7l-0.8-1.1c1.4,1.7,2.4,2.7,1.3,1.3l3.3,4.5c-1-1-1.7-2.2-3.2-3.9c-1.3-1.5-1.1-0.9,0.3,0.9
		c0.2,0.1-0.1-0.3-0.6-0.9c2,2.4,1.9,2.4,3.1,4.1c0-0.1,0.6,0.6,0-0.2c0.9,1.3,1,1.5,0.9,1.7c-0.7-1-1.3-1.5-1.8-2.2
		c1.7,2.2,2.1,3,1.5,2.5c-2.1-2.5,0.9,1.9,0.1,1.4c-1.6-2.3-2.9-4.2-3.4-5.2c-1-1-0.1,0.2-1-0.9c1.2,1.7,3.1,4.4,3.7,5.5l-1.2-1.7
		c0.5,1,2.3,3.5,1.7,3.2c-0.9-0.5-1.3-0.3-1.8-0.4l-1.1-1.7c2.2,3.8,0.3,1.7,1.2,3.5c-1.4-1.5,0.1,2.2-1.8-0.8
		c0.1,1.8,0.2,3.6-1,3.2l-1.2-2.8c0.8,2.1-0.8-1.5-0.7-1.1c1.2,2.1,1.1,2.9,1.8,4.7c-1.3-2-0.7,0.5-0.2,2.6l-0.8-1.9
		c1.1,3.8-0.6,0.8-1.2,0.3c-0.3-0.8-1.1-2.6-1.1-2.3c0.9,3.2,0.7,3.1,1.1,5.2c-0.2,0.1-0.9-0.6-1.5-1.8c0.5,4.8-1.4,2.2-1.7,5.2
		l-0.6-2.4c0.2,5.3-2,0.9-2.3,3.7l-0.6-4.1c-0.5-1.2-0.4,1.2,0.2,4.1c-0.5-1.2-0.4,2.1-1-1.3c-0.4-0.7,0,2-0.2,2.6
		c-0.7-1.5-0.8-1.1-1.2-0.3l0.1,0.2c-0.1-0.9-0.3-2.7-0.4-2.9c0,1.2-0.8-1.1,0,3.9c-0.8-2.8-1,2.5-1.8-1.4c0.2,1.4,0,1.6,0.1,2.5
		c-0.5,0.1-1.1-2.6-1.3-0.3c-0.1-0.7,0-2.3-0.2-2.5c-0.1,0.5,0.1,1.8,0,2.5c-0.6,2.6-1.5-2.6-2.1-1.9c-1,2.7-2.2,1.4-3.1,1.8l0-1
		c-0.3,3.8-0.7-3.9-1,1.8c-0.1-1-0.3-0.5-0.2-2.4c-0.3,2.7-0.7-2.5-1.1,0.9c0,0.1,0.1-0.1,0.1-0.5c-0.3-2.2-0.7,0.8-1-1.2
		c0-0.4,0.1-0.7,0.2-1.7c-0.1-1.9-0.4,4.2-0.4-0.6c-0.1,0-0.1,2.4-0.1,2.3c-0.8-1.9-1.7,1.2-2.6,2.2c-0.5-2.9,0.2-8.1-0.3-4.5
		c0-0.9-0.1,1.8-0.1,0.8c-0.2,1.3-0.1-5.4-0.3-2.9c-0.1,3-0.1,1.7-0.2,3.5c-0.3-1.9-0.3-4.6-0.6-2.4l0.1-1.6c-0.5,4.4-0.8,2-1.2,7.1
		c-1.8,0.9-3.4,3.6-4.9,4.2c-1.4-1-2.7,1.3-4-1.3c-0.5-4.1-0.5-4-0.8-2.3c0-0.7,0-0.8-0.1-1.4c0.1,3.4-0.2,0.3-0.1,3.5
		c-0.5-0.6-0.8,0.4-1.3,0.4c0-0.4-0.1-3.1-0.2-2.9l0.1,2.1l-0.1-0.9c0,0.5,0.1,2.2,0.2,3.2c-0.8,2.9-2.5-3.6-3.5-2.6
		c-0.5-1.3-0.6,0-0.7,0.7c-1.5-4.2-3.3-7.5-3.4-4.3C6.8,403.3,4.5,394.9,4.4,392.9L4.4,392.9z"/>
	<path fill="#F7941E" d="M60.5,385.4c-1.2-1.2-1.9-1.8-3.2-3.6C58.3,383,59.5,384.3,60.5,385.4L60.5,385.4z"/>
	<path fill="#F7941E" d="M47.4,373.6c0.3,0.4-0.4-0.6-0.5-0.8c0-0.1-0.8-1.3-0.3-0.6C46.6,372.4,47.1,373,47.4,373.6L47.4,373.6z"/>
	<path fill="#F7941E" d="M46.5,373c-0.7-1.3-1.3-2.4-1.3-2.5L46.5,373L46.5,373z"/>
	<path fill="#F7941E" d="M43.2,367.8c-0.6-1.1-0.9-1.7-0.9-1.7C42.7,366.8,42.8,367.2,43.2,367.8L43.2,367.8z"/>
	<path fill="#F7941E" d="M44.8,370.8c0,0.1-0.4-0.7-0.8-1.5C44.5,370.5,43.6,368.6,44.8,370.8L44.8,370.8z"/>
	<path fill="#F7941E" d="M42.3,367.2c0,0.1,0.5,1.3-0.2-0.3C42.6,368,41.5,365.1,42.3,367.2L42.3,367.2z"/>
	<path fill="#F7941E" d="M42.9,369.4C42.9,369.3,42.8,369,42.9,369.4c-0.3-0.6-0.6-1.6-0.7-1.7L42.9,369.4L42.9,369.4z"/>
	<polygon fill="#F7941E" points="32.8,376.4 32.9,375.7 32.9,377.2 	"/>
	<path fill="#F7941E" d="M25.7,376.3c-0.1,0.9,0-1.4,0-1.6C25.8,374.5,25.6,376.5,25.7,376.3L25.7,376.3z"/>
	<polygon fill="#F7941E" points="21.4,383.7 21.5,383.6 21.4,386.7 	"/>
	<path fill="#026CB6" d="M783.6,369h1.4l2.8,6.3l2.8-6.3h1.4v7.7h-1v-6.4h0l-2.8,6.4h-0.8l-2.8-6.4h0v6.4h-1L783.6,369L783.6,369z
		 M779.8,369.8H778V369h4.6v0.8h-1.8v6.9h-1L779.8,369.8L779.8,369.8z"/>
	<path fill="#F38B00" d="M210.7,281.3c0,1.8-0.3,3.4-0.8,4.6c-1.5,3.4-4.6,5.2-8.2,5.2c-4.2,0-8.2-2.8-9-7.1h4.9
		c1,2.6,3,2.8,4.1,2.8c1.6,0,3.2-0.8,3.8-2.8c0.2-0.7,0.4-1.5,0.4-2.4v-23.7h4.8L210.7,281.3L210.7,281.3z"/>
	<path fill="#F38B00" d="M232.8,261.7c-8.4,0-12.2,7.4-12.2,12.6c0,5.3,3.8,12.6,12.2,12.6c8.4,0,12.2-7.3,12.2-12.4
		C245,268.6,240.9,261.7,232.8,261.7L232.8,261.7z M232.8,291.1c-9.7,0-17-8-17-16.9c0-8.9,7-16.9,17-16.9c9.7,0,17,7.7,17,17
		C249.8,283.2,242.5,291.1,232.8,291.1L232.8,291.1z"/>
	<path fill="#F38B00" d="M259,273.3h4.7c5.4,0,6.7-3.1,6.7-5.5s-1.3-5.5-6.7-5.5H259V273.3L259,273.3z M259,290.5h-4.8v-32.6h9.4
		c7.8,0,11.5,4.1,11.5,9.9c0,5.8-3.7,9.9-11.5,9.9H259L259,290.5L259,290.5z"/>
	<polygon fill="#F38B00" points="279.5,290.5 279.5,257.9 284.3,257.9 284.3,286.2 295.6,286.2 295.6,290.5 	"/>
	<polygon fill="#F38B00" points="298.9,290.5 298.9,257.9 303.7,257.9 303.7,290.5 	"/>
	<polygon fill="#F38B00" points="331.2,290.5 315.1,265.3 315,265.3 315,290.5 310.2,290.5 310.2,257.9 315.4,257.9 331.3,282.7 
		331.4,282.7 331.4,257.9 336.1,257.9 336.1,290.5 	"/>
</g>
</svg>
