<?xml version="1.0" encoding="utf-8"?>
<!-- Generator: Adobe Illustrator 18.1.0, SVG Export Plug-In . SVG Version: 6.00 Build 0)  -->
<!DOCTYPE svg PUBLIC "-//W3C//DTD SVG 1.1//EN" "http://www.w3.org/Graphics/SVG/1.1/DTD/svg11.dtd">
<svg version="1.1" id="Layer_1" xmlns="http://www.w3.org/2000/svg" xmlns:xlink="http://www.w3.org/1999/xlink" x="0px" y="0px"
	 viewBox="46.3 0 699.4 612" enable-background="new 46.3 0 699.4 612" xml:space="preserve">
<g>
	<path fill="#FFFFFF" d="M702,0c12.1,0,22.4,4.3,30.9,12.8c8.5,8.5,12.8,18.8,12.8,30.9v437.1c0,12.1-4.3,22.4-12.8,30.9
		c-8.5,8.6-18.8,12.8-30.9,12.8H509.7l35.5,53.6c2.5,3.6,3.8,7.6,3.8,12c0,5.9-2.2,11-6.5,15.4c-4.3,4.3-9.4,6.5-15.4,6.5H264.9
		c-5.9,0-11-2.2-15.4-6.5c-4.3-4.3-6.5-9.4-6.5-15.4c0-4.3,1.3-8.3,3.8-12l35.5-53.6H90c-12.1,0-22.4-4.3-30.9-12.8
		c-8.5-8.5-12.8-18.8-12.8-30.9V43.7c0-12.1,4.3-22.4,12.8-30.9C67.6,4.3,77.9,0,90,0H702z M658.3,437.1V87.4H133.7v349.7H658.3z"/>
</g>
</svg>
