<?xml version="1.0" encoding="utf-8"?>
<!-- Generator: Adobe Illustrator 18.1.0, SVG Export Plug-In . SVG Version: 6.00 Build 0)  -->
<!DOCTYPE svg PUBLIC "-//W3C//DTD SVG 1.1//EN" "http://www.w3.org/Graphics/SVG/1.1/DTD/svg11.dtd">
<svg version="1.1" id="Layer_1" xmlns="http://www.w3.org/2000/svg" xmlns:xlink="http://www.w3.org/1999/xlink" x="0px" y="0px"
	 viewBox="0 9 792 594" enable-background="new 0 9 792 594" xml:space="preserve">
<g>
	<path fill="#FFFFFF" d="M396,326.5L0,79V58.5c0-13.7,4.8-25.3,14.5-35C24.2,13.8,35.8,9,49.5,9h693c13.7,0,25.3,4.8,35,14.5
		c9.7,9.6,14.5,21.3,14.5,35V79L396,326.5z M409.1,376.4L792,137v416.5c0,13.7-4.8,25.3-14.5,35c-9.7,9.7-21.3,14.5-35,14.5h-693
		c-13.7,0-25.3-4.8-35-14.5C4.8,578.8,0,567.2,0,553.5V137l382.9,239.4c3.6,2.6,8,3.9,13.1,3.9C401.1,380.3,405.5,379,409.1,376.4z"
		/>
</g>
</svg>
