<?xml version="1.0" encoding="utf-8"?>
<!-- Generator: Adobe Illustrator 18.1.0, SVG Export Plug-In . SVG Version: 6.00 Build 0)  -->
<!DOCTYPE svg PUBLIC "-//W3C//DTD SVG 1.1//EN" "http://www.w3.org/Graphics/SVG/1.1/DTD/svg11.dtd">
<svg version="1.1" id="Layer_1" xmlns="http://www.w3.org/2000/svg" xmlns:xlink="http://www.w3.org/1999/xlink" x="0px" y="0px"
	 viewBox="189.8 0 412.5 612" enable-background="new 189.8 0 412.5 612" xml:space="preserve">
<polygon fill="#0F6CB5" points="602.2,612 396,517 189.8,612 189.8,0 602.2,0 "/>
<g>
	<path fill="#FFFFFF" d="M357.9,219.8c12.1-5.2,24.8-7.8,38.1-7.8c13.3,0,26,2.6,38.1,7.8c12.1,5.2,22.5,12.1,31.2,20.9
		c8.7,8.7,15.7,19.2,20.9,31.2c5.2,12.1,7.8,24.8,7.8,38.1c0,13.3-2.6,26-7.8,38.1c-5.2,12.1-12.1,22.5-20.9,31.2
		c-8.7,8.7-19.2,15.7-31.2,20.9c-12.1,5.2-24.8,7.8-38.1,7.8c-13.3,0-26-2.6-38.1-7.8s-22.5-12.1-31.2-20.9
		c-8.7-8.7-15.7-19.2-20.9-31.2c-5.2-12.1-7.8-24.8-7.8-38.1c0-13.3,2.6-26,7.8-38.1c5.2-12.1,12.1-22.5,20.9-31.2
		C335.4,231.9,345.8,224.9,357.9,219.8z M380.8,282.8c4.2,4.2,9.2,6.3,15.2,6.3s11-2.1,15.2-6.3c4.2-4.2,6.3-9.2,6.3-15.2
		c0-5.9-2.1-10.9-6.3-15.1s-9.2-6.3-15.2-6.3s-11,2.1-15.2,6.3s-6.3,9.3-6.3,15.1C374.6,273.5,376.7,278.6,380.8,282.8z
		 M414.4,365.6v-61.3c0-1.7-0.6-3.1-1.8-4.3c-1.2-1.2-2.6-1.8-4.3-1.8h-24.5c-1.7,0-3.1,0.6-4.3,1.8c-1.2,1.2-1.8,2.6-1.8,4.3v61.3
		c0,1.7,0.6,3.2,1.8,4.4c1.2,1.2,2.6,1.8,4.3,1.8h24.5c1.7,0,3.1-0.6,4.3-1.8C413.8,368.8,414.4,367.3,414.4,365.6z"/>
</g>
</svg>
