<?xml version="1.0" encoding="utf-8"?>
<!-- Generator: Adobe Illustrator 18.1.0, SVG Export Plug-In . SVG Version: 6.00 Build 0)  -->
<!DOCTYPE svg PUBLIC "-//W3C//DTD SVG 1.1//EN" "http://www.w3.org/Graphics/SVG/1.1/DTD/svg11.dtd">
<svg version="1.1" id="Layer_1" xmlns="http://www.w3.org/2000/svg" xmlns:xlink="http://www.w3.org/1999/xlink" x="0px" y="0px"
	 viewBox="189.8 0 412.5 612" enable-background="new 189.8 0 412.5 612" xml:space="preserve">
<polygon fill="#FFFFFE" points="189.8,0 396,95 602.2,0 602.2,612 189.8,612 "/>
<g>
	<path fill="#FF8A00" d="M452.7,208.2c1.4-1.4,3.1-2.2,5.1-2.2c2,0,3.7,0.7,5.1,2.2l30.9,30.9c1.4,1.4,2.2,3.2,2.2,5.1
		c0,2-0.7,3.7-2.2,5.1L437.2,306l56.7,56.7c1.4,1.4,2.2,3.1,2.2,5.1c0,2-0.7,3.7-2.2,5.1l-30.9,30.9c-1.4,1.4-3.2,2.2-5.1,2.2
		c-2,0-3.7-0.7-5.1-2.2L396,347.2l-56.7,56.7c-1.4,1.4-3.1,2.2-5.1,2.2c-2,0-3.7-0.7-5.1-2.2l-30.9-30.9c-1.4-1.4-2.2-3.1-2.2-5.1
		c0-2,0.7-3.7,2.2-5.1l56.7-56.7l-56.7-56.7c-1.4-1.4-2.2-3.1-2.2-5.1c0-2,0.7-3.7,2.2-5.1l30.9-30.9c1.4-1.4,3.1-2.2,5.1-2.2
		c2,0,3.7,0.7,5.1,2.2l56.7,56.7L452.7,208.2z"/>
</g>
</svg>
