<?xml version="1.0" encoding="utf-8"?>
<!-- Generator: Adobe Illustrator 18.1.0, SVG Export Plug-In . SVG Version: 6.00 Build 0)  -->
<!DOCTYPE svg PUBLIC "-//W3C//DTD SVG 1.1//EN" "http://www.w3.org/Graphics/SVG/1.1/DTD/svg11.dtd">
<svg version="1.1" id="Layer_1" xmlns="http://www.w3.org/2000/svg" xmlns:xlink="http://www.w3.org/1999/xlink" x="0px" y="0px"
	 viewBox="0 240 792 132" enable-background="new 0 240 792 132" xml:space="preserve">
<g id="IO_1_">
	<rect x="111.8" y="266.4" fill="#B2B2B2" width="12.1" height="49.4"/>
	<path fill="#B2B2B2" d="M131.3,266.4h12.2l13.7,23.1c1.9,3.2,4.1,8.4,4.1,8.4h0.1c0,0-0.6-5.3-0.6-8.4v-23.1H173v49.4h-12.2
		l-13.7-23c-1.9-3.2-4.1-8.4-4.1-8.4h-0.1c0,0,0.6,5.3,0.6,8.4v23h-12.1L131.3,266.4L131.3,266.4z"/>
	<path fill="#B2B2B2" d="M180.5,266.4h12.2l13.7,23.1c1.9,3.2,4.1,8.4,4.1,8.4h0.1c0,0-0.6-5.3-0.6-8.4v-23.1h12.1v49.4H210
		l-13.7-23c-1.9-3.2-4.1-8.4-4.1-8.4H192c0,0,0.6,5.3,0.6,8.4v23h-12.1L180.5,266.4L180.5,266.4z"/>
	<path fill="#B2B2B2" d="M253.5,265.6c14.9,0,25.8,11,25.8,25.2c0,14.5-10.9,25.8-25.8,25.8s-25.8-11.3-25.8-25.8
		C227.6,276.6,238.5,265.6,253.5,265.6 M253.5,305.6c7.4,0,13.3-6.4,13.3-14.8c0-8.1-5.9-14.2-13.3-14.2c-7.4,0-13.3,6.1-13.3,14.2
		C240.1,299.2,246.1,305.6,253.5,305.6"/>
	<path fill="#B2B2B2" d="M276.9,266.4H290l8.7,28.1c1,3.1,1.9,7.9,1.9,7.9h0.1c0,0,0.9-4.8,1.9-7.9l8.8-28.1h12.9l-17.4,49.4h-12.6
		L276.9,266.4z"/>
	<path fill="#B2B2B2" d="M347.1,305.4h-15.4l-3,10.4h-12.4l16.8-49.4h12.7l16.8,49.4h-12.4L347.1,305.4z M339.4,277.7
		c0,0-1.1,5.4-2,8.5l-2.8,9.6h9.7l-2.8-9.6c-0.9-3.1-2-8.5-2-8.5H339.4z"/>
	<polygon fill="#B2B2B2" points="372.2,276.8 357.2,276.8 357.2,266.4 399.3,266.4 399.3,276.8 384.3,276.8 384.3,315.8 
		372.2,315.8 	"/>
	<rect x="404" y="266.4" fill="#B2B2B2" width="12.1" height="49.4"/>
	<path fill="#B2B2B2" d="M418.7,266.4h13.1l8.7,28.1c1,3.1,1.9,7.9,1.9,7.9h0.1c0,0,0.9-4.8,1.9-7.9l8.8-28.1h12.9l-17.4,49.4h-12.6
		L418.7,266.4z"/>
	<polygon fill="#B2B2B2" points="470.1,266.4 501,266.4 501,276.8 482.2,276.8 482.2,285.7 497.2,285.7 497.2,296.1 482.2,296.1 
		482.2,305.4 502,305.4 502,315.8 470.1,315.8 	"/>
	<path fill="#B2B2B2" d="M536.3,266.2c14.1,0,25,10.8,25,24.9c0,14.4-10.9,25.6-25,25.6c-14.1,0-25.1-11.2-25.1-25.6
		C511.2,277,522.2,266.2,536.3,266.2 M536.3,310.3c9.9,0,18-8.3,18-19.3c0-10.6-8-18.6-18-18.6c-9.9,0-18,8-18,18.6
		C518.3,302,526.3,310.3,536.3,310.3"/>
	<path fill="#B2B2B2" d="M567.1,267h17.1c8.2,0,14.2,4.6,14.2,12.4c0,4.8-2.3,8.6-6.1,10.5v0.1c5.1,1.5,8,6.4,8,11.8
		c0,9.2-7.1,13.9-15.7,13.9h-17.5L567.1,267L567.1,267z M584.1,287.5c4.4,0,7.2-3.1,7.2-7.4c0-4.3-2.6-7.2-7.3-7.2h-10.1v14.6H584.1
		z M584.9,309.8c5.2,0,8.4-3.3,8.4-8.3c0-5-3.3-8.4-8.4-8.4h-10.9v16.6L584.9,309.8L584.9,309.8z"/>
	<path fill="#B2B2B2" d="M603.5,299.3h6.8v2.1c0,6.6,3.9,8.9,7.7,8.9c3.8,0,7.6-2.2,7.6-8.6V273h-12.3V267h19.1v34.7
		c0,10.6-7.4,14.8-14.5,14.8c-7.1,0-14.4-4.4-14.4-14.8V299.3z"/>
	<polygon fill="#B2B2B2" points="639.6,267 667.9,267 667.9,273 646.5,273 646.5,288.2 663.9,288.2 663.9,294.2 646.5,294.2 
		646.5,309.8 669.1,309.8 669.1,315.8 639.6,315.8 	"/>
	<path fill="#B2B2B2" d="M696.2,266.2c11.7,0,17.7,6.4,17.7,6.4l-3.4,5.1c0,0-5.7-5.3-14.1-5.3c-10.9,0-18,8.3-18,18.6
		c0,10.4,7.3,19.3,18.1,19.3c9.2,0,15-6.4,15-6.4l3.7,4.9c0,0-6.7,7.7-18.9,7.7c-14.6,0-24.9-11.2-24.9-25.5
		C671.4,277,682,266.2,696.2,266.2"/>
	<polygon fill="#B2B2B2" points="735,273 718.3,273 718.3,267 758.5,267 758.5,273 741.8,273 741.8,315.8 735,315.8 	"/>
	<path fill="#B2B2B2" d="M764.2,305c0,0,5.2,5.2,12.4,5.2c4.6,0,8.4-2.6,8.4-7.2c0-10.6-23.6-8.3-23.6-23.3
		c0-7.6,6.6-13.6,15.7-13.6c9,0,13.8,4.9,13.8,4.9l-3.1,5.7c0,0-4.5-4.2-10.7-4.2c-5.2,0-8.8,3.2-8.8,7.1c0,10.1,23.6,7.4,23.6,23.2
		c0,7.5-5.8,13.7-15.5,13.7c-10.4,0-16.2-6.4-16.2-6.4L764.2,305z"/>
	<path fill="#B2B2B2" d="M110.7,335h6.3c3.1,0,5.3,1.7,5.3,4.6c0,1.8-0.9,3.2-2.3,3.9v0.1c1.9,0.6,3,2.4,3,4.4
		c0,3.4-2.6,5.2-5.8,5.2h-6.5L110.7,335L110.7,335z M117.1,342.7c1.6,0,2.7-1.2,2.7-2.7s-1-2.7-2.7-2.7h-3.7v5.4H117.1z
		 M117.3,350.9c2,0,3.1-1.2,3.1-3.1c0-1.8-1.2-3.1-3.1-3.1h-4.1v6.2H117.3z"/>
	<path fill="#B2B2B2" d="M128,340.2h2.4v2.3c0,0.5-0.1,1-0.1,1h0.1c0.6-1.9,2.1-3.4,4.1-3.4c0.3,0,0.6,0,0.6,0v2.5
		c0,0-0.3-0.1-0.7-0.1c-1.6,0-3.1,1.1-3.6,3.1c-0.2,0.7-0.3,1.5-0.3,2.3v5.3H128L128,340.2L128,340.2z"/>
	<path fill="#B2B2B2" d="M139.1,335h2.5v2.5h-2.5V335z M139.2,340.2h2.5v13h-2.5V340.2z"/>
	<path fill="#B2B2B2" d="M147.1,340.2h2.4v1.7c0,0.5-0.1,1-0.1,1h0.1c0.5-1.1,2.1-3,4.9-3c3.1,0,4.5,1.7,4.5,5v8.3h-2.5v-7.8
		c0-1.8-0.4-3.3-2.5-3.3c-2,0-3.6,1.3-4.1,3.2c-0.2,0.5-0.2,1.1-0.2,1.7v6.1h-2.5V340.2z"/>
	<path fill="#B2B2B2" d="M168.8,356.4c2.3,0,4.1-1,4.1-3.6v-0.9c0-0.4,0-0.8,0-0.8h-0.1c-0.8,1.3-2,2-3.9,2c-3.6,0-5.8-2.9-5.8-6.6
		c0-3.7,2.1-6.5,5.7-6.5c3.1,0,4.1,1.9,4.1,1.9h0c0,0,0-0.2,0-0.4v-1.2h2.4v12.5c0,4.3-3.3,5.9-6.5,5.9c-1.6,0-3.2-0.4-4.4-1.1
		l0.8-2C165.3,355.5,166.9,356.4,168.8,356.4 M173,346.4c0-3.4-1.6-4.4-3.7-4.4c-2.3,0-3.5,1.6-3.5,4.3c0,2.7,1.4,4.5,3.8,4.5
		C171.4,350.8,173,349.8,173,346.4"/>
	<path fill="#B2B2B2" d="M180.8,335h2.5v2.5h-2.5V335z M180.9,340.2h2.5v13h-2.5V340.2z"/>
	<path fill="#B2B2B2" d="M188.8,340.2h2.4v1.7c0,0.5-0.1,1-0.1,1h0.1c0.5-1.1,2.1-3,4.9-3c3.1,0,4.5,1.7,4.5,5v8.3h-2.5v-7.8
		c0-1.8-0.4-3.3-2.5-3.3c-2,0-3.6,1.3-4.1,3.2c-0.2,0.5-0.2,1.1-0.2,1.7v6.1h-2.5V340.2z"/>
	<path fill="#B2B2B2" d="M210.5,356.4c2.3,0,4.1-1,4.1-3.6v-0.9c0-0.4,0-0.8,0-0.8h0c-0.8,1.3-2,2-3.9,2c-3.6,0-5.8-2.9-5.8-6.6
		c0-3.7,2.1-6.5,5.7-6.5c3.1,0,4.1,1.9,4.1,1.9h0.1c0,0,0-0.2,0-0.4v-1.2h2.4v12.5c0,4.3-3.3,5.9-6.5,5.9c-1.6,0-3.2-0.4-4.4-1.1
		l0.8-2C207,355.5,208.6,356.4,210.5,356.4 M214.7,346.4c0-3.4-1.6-4.4-3.7-4.4c-2.3,0-3.5,1.6-3.5,4.3c0,2.7,1.4,4.5,3.8,4.5
		C213,350.8,214.7,349.8,214.7,346.4"/>
	<polygon fill="#B2B2B2" points="235.1,337.2 228.9,337.2 228.9,335 243.8,335 243.8,337.2 237.6,337.2 237.6,353.2 235.1,353.2 	
		"/>
	<path fill="#B2B2B2" d="M250.8,339.9c3.7,0,5.6,2.7,5.6,6.1c0,0.3-0.1,1.1-0.1,1.1h-9.5c0.1,2.8,2.2,4.3,4.5,4.3
		c2.2,0,3.9-1.5,3.9-1.5l1,1.8c0,0-1.9,1.8-5,1.8c-4.1,0-6.9-3-6.9-6.8C244.3,342.5,247.1,339.9,250.8,339.9 M253.9,345.1
		c-0.1-2.2-1.5-3.3-3.1-3.3c-1.9,0-3.4,1.2-3.8,3.3H253.9z"/>
	<path fill="#B2B2B2" d="M267,339.9c3.3,0,4.9,1.9,4.9,1.9l-1.2,1.7c0,0-1.4-1.5-3.6-1.5c-2.6,0-4.5,2-4.5,4.6
		c0,2.6,1.9,4.7,4.6,4.7c2.4,0,4-1.7,4-1.7l1,1.8c0,0-1.8,2.1-5.2,2.1c-4.1,0-7-2.9-7-6.8C260.1,342.8,262.9,339.9,267,339.9"/>
	<path fill="#B2B2B2" d="M276.6,335h2.5v6.6c0,0.6-0.1,1.1-0.1,1.1h0.1c0.6-1.3,2.2-2.9,4.8-2.9c3.1,0,4.5,1.7,4.5,5v8.3h-2.5v-7.8
		c0-1.8-0.4-3.3-2.5-3.3c-2,0-3.6,1.3-4.1,3.2c-0.2,0.5-0.2,1.1-0.2,1.7v6.1h-2.5V335z"/>
	<path fill="#B2B2B2" d="M293.6,340.2h2.4v1.7c0,0.5-0.1,1-0.1,1h0.1c0.5-1.1,2.1-3,4.9-3c3.1,0,4.5,1.7,4.5,5v8.3h-2.5v-7.8
		c0-1.8-0.4-3.3-2.5-3.3c-2,0-3.6,1.3-4.1,3.2c-0.2,0.5-0.2,1.1-0.2,1.7v6.1h-2.5V340.2z"/>
	<path fill="#B2B2B2" d="M316.7,339.9c3.9,0,7,2.8,7,6.8c0,4-3.1,6.8-7,6.8s-7-2.9-7-6.8C309.6,342.7,312.8,339.9,316.7,339.9
		 M316.7,351.3c2.5,0,4.5-2,4.5-4.7c0-2.7-2-4.6-4.5-4.6c-2.4,0-4.5,1.9-4.5,4.6C312.2,349.4,314.2,351.3,316.7,351.3"/>
	<path fill="#B2B2B2" d="M328,335h2.5v14.1c0,1.6,0.6,1.8,1.4,1.8c0.2,0,0.4,0,0.4,0v2.2c0,0-0.4,0-0.8,0c-1.4,0-3.5-0.4-3.5-3.6
		L328,335L328,335z"/>
	<path fill="#B2B2B2" d="M342.5,339.9c3.9,0,7,2.8,7,6.8c0,4-3.1,6.8-7,6.8c-3.9,0-7-2.9-7-6.8C335.5,342.7,338.7,339.9,342.5,339.9
		 M342.5,351.3c2.5,0,4.5-2,4.5-4.7c0-2.7-2-4.6-4.5-4.6c-2.4,0-4.5,1.9-4.5,4.6C338.1,349.4,340.1,351.3,342.5,351.3"/>
	<path fill="#B2B2B2" d="M358.8,356.4c2.3,0,4.1-1,4.1-3.6v-0.9c0-0.4,0-0.8,0-0.8h-0.1c-0.8,1.3-2,2-3.9,2c-3.6,0-5.8-2.9-5.8-6.6
		c0-3.7,2.1-6.5,5.7-6.5c3.1,0,4.1,1.9,4.1,1.9h0c0,0,0-0.2,0-0.4v-1.2h2.4v12.5c0,4.3-3.3,5.9-6.5,5.9c-1.6,0-3.2-0.4-4.4-1.1
		l0.8-2C355.2,355.5,356.8,356.4,358.8,356.4 M362.9,346.4c0-3.4-1.6-4.4-3.7-4.4c-2.3,0-3.5,1.6-3.5,4.3c0,2.7,1.4,4.5,3.8,4.5
		C361.3,350.8,362.9,349.8,362.9,346.4"/>
	<path fill="#B2B2B2" d="M369.8,355.8c0,0,0.7,0.5,1.5,0.5c1,0,1.8-0.7,2.3-1.9l0.6-1.5l-5.4-12.8h2.8l3.3,8.5
		c0.3,0.7,0.5,1.6,0.5,1.6h0.1c0,0,0.2-0.9,0.4-1.5l3.2-8.5h2.7l-6.1,15.3c-0.8,2-2.4,3.1-4.2,3.1c-1.5,0-2.5-0.8-2.5-0.8
		L369.8,355.8z"/>
	<path fill="#B2B2B2" d="M394.1,349.1c0,0,1.9,2,4.6,2c1.7,0,3.1-0.9,3.1-2.7c0-3.9-8.8-3.1-8.8-8.7c0-2.8,2.4-5.1,5.9-5.1
		c3.4,0,5.1,1.8,5.1,1.8l-1.2,2.1c0,0-1.7-1.6-4-1.6c-1.9,0-3.3,1.2-3.3,2.6c0,3.7,8.8,2.7,8.8,8.6c0,2.8-2.2,5.1-5.7,5.1
		c-3.9,0-6-2.4-6-2.4L394.1,349.1z"/>
	<path fill="#B2B2B2" d="M415.2,339.9c3.9,0,7,2.8,7,6.8c0,4-3.1,6.8-7,6.8c-3.9,0-7-2.9-7-6.8C408.1,342.7,411.3,339.9,415.2,339.9
		 M415.2,351.3c2.5,0,4.5-2,4.5-4.7c0-2.7-2-4.6-4.5-4.6c-2.4,0-4.5,1.9-4.5,4.6C410.7,349.4,412.7,351.3,415.2,351.3"/>
	<path fill="#B2B2B2" d="M426.5,335h2.5v14.1c0,1.6,0.6,1.8,1.4,1.8c0.2,0,0.4,0,0.4,0v2.2c0,0-0.4,0-0.8,0c-1.4,0-3.5-0.4-3.5-3.6
		L426.5,335L426.5,335z"/>
	<path fill="#B2B2B2" d="M434.8,340.2h2.5v7.8c0,1.8,0.4,3.2,2.4,3.2c2.6,0,4.2-2.3,4.2-4.9v-6.1h2.5v13H444v-1.7c0-0.5,0-0.9,0-0.9
		h0c-0.5,1.3-2.2,3-4.8,3c-2.9,0-4.4-1.5-4.4-5L434.8,340.2L434.8,340.2z"/>
	<path fill="#B2B2B2" d="M452.4,342.3h-1.7v-2h1.8v-3.7h2.4v3.7h3.1v2h-3.1v5.8c0,2.6,1.8,2.9,2.8,2.9c0.4,0,0.6-0.1,0.6-0.1v2.2
		c0,0-0.4,0.1-0.9,0.1c-1.7,0-5-0.5-5-4.9L452.4,342.3L452.4,342.3z"/>
	<path fill="#B2B2B2" d="M462.6,335h2.5v2.5h-2.5V335z M462.6,340.2h2.5v13h-2.5V340.2z"/>
	<path fill="#B2B2B2" d="M476.6,339.9c3.9,0,7,2.8,7,6.8c0,4-3.1,6.8-7,6.8c-3.9,0-7-2.9-7-6.8C469.6,342.7,472.7,339.9,476.6,339.9
		 M476.6,351.3c2.5,0,4.5-2,4.5-4.7c0-2.7-2-4.6-4.5-4.6c-2.4,0-4.5,1.9-4.5,4.6C472.1,349.4,474.1,351.3,476.6,351.3"/>
	<path fill="#B2B2B2" d="M488.1,340.2h2.4v1.7c0,0.5,0,1,0,1h0c0.5-1.1,2.1-3,4.9-3c3.1,0,4.5,1.7,4.5,5v8.3h-2.5v-7.8
		c0-1.8-0.4-3.3-2.5-3.3c-2,0-3.6,1.3-4.1,3.2c-0.2,0.5-0.2,1.1-0.2,1.7v6.1h-2.5L488.1,340.2L488.1,340.2z"/>
	<path fill="#B2B2B2" d="M505.2,349.8c0,0,1.5,1.5,3.7,1.5c1.1,0,2.2-0.6,2.2-1.6c0-2.4-6.7-1.9-6.7-6.1c0-2.4,2.1-3.7,4.7-3.7
		c2.8,0,4.2,1.4,4.2,1.4l-1,1.9c0,0-1.2-1.2-3.2-1.2c-1.1,0-2.1,0.5-2.1,1.6c0,2.3,6.7,1.8,6.7,6.1c0,2.2-1.8,3.8-4.7,3.8
		c-3.2,0-4.9-1.9-4.9-1.9L505.2,349.8z"/>
	<path fill="#B2B2B2" d="M526.8,342.3h-1.7v-2h1.8v-3.7h2.4v3.7h3.1v2h-3.1v5.8c0,2.6,1.8,2.9,2.8,2.9c0.4,0,0.6-0.1,0.6-0.1v2.2
		c0,0-0.4,0.1-0.9,0.1c-1.7,0-5-0.5-5-4.9V342.3z"/>
	<path fill="#B2B2B2" d="M543,339.9c3.9,0,7,2.8,7,6.8c0,4-3.1,6.8-7,6.8c-3.9,0-7-2.9-7-6.8C536,342.7,539.2,339.9,543,339.9
		 M543,351.3c2.5,0,4.5-2,4.5-4.7c0-2.7-2-4.6-4.5-4.6c-2.4,0-4.5,1.9-4.5,4.6C538.6,349.4,540.6,351.3,543,351.3"/>
	<polygon fill="#B2B2B2" points="563.2,335 565.7,335 565.7,350.9 573.8,350.9 573.8,353.2 563.2,353.2 	"/>
	<path fill="#B2B2B2" d="M577.7,335h2.5v2.5h-2.5V335z M577.8,340.2h2.5v13h-2.5V340.2z"/>
	<path fill="#B2B2B2" d="M590.4,356.4c2.3,0,4.1-1,4.1-3.6v-0.9c0-0.4,0-0.8,0-0.8h-0.1c-0.8,1.3-2,2-3.9,2c-3.6,0-5.8-2.9-5.8-6.6
		c0-3.7,2.1-6.5,5.7-6.5c3.1,0,4.1,1.9,4.1,1.9h0.1c0,0,0-0.2,0-0.4v-1.2h2.4v12.5c0,4.3-3.3,5.9-6.5,5.9c-1.6,0-3.2-0.4-4.4-1.1
		l0.8-2C586.9,355.5,588.5,356.4,590.4,356.4 M594.6,346.4c0-3.4-1.6-4.4-3.7-4.4c-2.3,0-3.5,1.6-3.5,4.3c0,2.7,1.4,4.5,3.8,4.5
		C592.9,350.8,594.6,349.8,594.6,346.4"/>
	<path fill="#B2B2B2" d="M602.5,335h2.5v6.6c0,0.6,0,1.1,0,1.1h0c0.6-1.3,2.2-2.9,4.8-2.9c3.1,0,4.5,1.7,4.5,5v8.3h-2.5v-7.8
		c0-1.8-0.4-3.3-2.5-3.3c-1.9,0-3.6,1.3-4.1,3.2c-0.2,0.5-0.2,1.1-0.2,1.7v6.1h-2.5L602.5,335L602.5,335z"/>
	<path fill="#B2B2B2" d="M620,342.3h-1.7v-2h1.8v-3.7h2.4v3.7h3.1v2h-3.1v5.8c0,2.6,1.8,2.9,2.8,2.9c0.4,0,0.6-0.1,0.6-0.1v2.2
		c0,0-0.4,0.1-0.9,0.1c-1.7,0-5-0.5-5-4.9L620,342.3L620,342.3z"/>
	<path fill="#B2B2B2" d="M36.2,305.8c-0.8-1.6-1.9-3.9-2.8-5.7h11.7c-1.4-1-2.7-2.2-3.7-3.7h-8.7v-17.8h8.7c1-1.4,2.3-2.7,3.7-3.7
		H22.7v3.7h6.4v17.8h-6.4v3.7h6.8c0.8,1.8,2.4,5.2,3.5,7.4c3,5.8,4.6,9.8,4.8,11.8c0.3,3.1,0.8,19.9,0.8,21.6v1h3.6v-1
		c0-1.6-0.4-18.7-0.8-22C41,315.5,38.3,309.8,36.2,305.8"/>
	<path fill="#B2B2B2" d="M66.5,287.5c0-6.9-5.6-12.6-12.6-12.6c-6.9,0-12.6,5.6-12.6,12.6c0,6.8,5.4,12.3,12.1,12.6
		c-0.8,1.8-1.9,4.1-2.8,5.7c-2,4-4.8,9.7-5.2,13.1c-0.4,3.3-0.8,20.4-0.8,22v1h3.6v-1c0-1.7,0.4-18.5,0.7-21.6c0.2-2,1.8-6,4.8-11.8
		c1.2-2.3,2.8-5.9,3.8-7.9C62.8,297.9,66.5,293.1,66.5,287.5 M53.9,296.5c-5,0-9-4-9-9c0-5,4-9,9-9c5,0,9,4,9,9
		C62.9,292.5,58.9,296.5,53.9,296.5"/>
	<path fill="#B2B2B2" d="M43.2,240C19.4,240,0,258.2,0,280.6c0,5.6,1.2,11,3.5,16.1l0.2,0.5h0c1.1,2.3,2.5,4.6,4,6.7
		c6.8,11.5,14.4,32.4,14.4,36.6c0,2.9,2.9,5.1,6.6,5.1h28.8c3.7,0,6.6-2.2,6.6-5.1c0-4.2,7.6-25.1,14.4-36.5
		c1.7-2.2,3.1-4.7,4.3-7.2c2.3-5.1,3.5-10.5,3.5-16.1C86.4,258.2,67,240,43.2,240 M78,280.6c0,4.3-0.9,8.5-2.8,12.6
		c-0.9,2-2.1,3.9-3.4,5.7c-0.2,0.2-0.3,0.5-0.5,0.7c-3.3,5.5-7,13.6-10.3,22.1c-1.8,4.6-4,10.9-4.9,15.4H30.3
		c-0.9-4.5-3.1-10.8-4.9-15.4c-3.3-8.5-7-16.6-10.3-22.1c-0.1-0.2-0.3-0.5-0.5-0.7c-1.4-1.8-2.5-3.7-3.5-5.8l-0.1-0.2
		c-1.7-3.9-2.6-8-2.6-12.2c0-17.7,15.6-32.1,34.8-32.1C62.4,248.5,78,262.9,78,280.6"/>
	<path fill="#B2B2B2" d="M58.7,354.8h-31c-1.4,0-2.5-1.1-2.5-2.4c0-1.3,1.1-2.4,2.5-2.4h31c1.4,0,2.5,1.1,2.5,2.4
		C61.2,353.7,60.1,354.8,58.7,354.8"/>
	<path fill="#B2B2B2" d="M58.7,363.4h-31c-1.4,0-2.5-1.1-2.5-2.4c0-1.3,1.1-2.4,2.5-2.4h31c1.4,0,2.5,1.1,2.5,2.4
		C61.2,362.3,60.1,363.4,58.7,363.4"/>
	<path fill="#B2B2B2" d="M52.1,372H34.4c-1.4,0-2.5-1.1-2.5-2.4c0-1.3,1.1-2.4,2.5-2.4h17.7c1.4,0,2.5,1.1,2.5,2.4
		C54.5,370.9,53.4,372,52.1,372"/>
</g>
</svg>
