<?xml version="1.0" encoding="utf-8"?>
<!-- Generator: Adobe Illustrator 18.1.0, SVG Export Plug-In . SVG Version: 6.00 Build 0)  -->
<!DOCTYPE svg PUBLIC "-//W3C//DTD SVG 1.1//EN" "http://www.w3.org/Graphics/SVG/1.1/DTD/svg11.dtd">
<svg version="1.1" id="Layer_1" xmlns="http://www.w3.org/2000/svg" xmlns:xlink="http://www.w3.org/1999/xlink" x="0px" y="0px"
	 viewBox="0 58.3 792 495.4" enable-background="new 0 58.3 792 495.4" xml:space="preserve">
<g>
	<path fill="#FFFFFF" d="M781.6,425.6c7,3.4,10.4,8.9,10.4,16.6v18.6c0,5.2-1.8,9.5-5.4,13.2c-3.6,3.6-8,5.4-13.1,5.4H640.8
		c1.8,3.6,2.7,7.7,2.7,12.4v31c0,8.5-3,15.8-9.1,21.9c-6.1,6.1-13.3,9.1-21.9,9.1H179.4c-8.5,0-15.8-3-21.9-9.1
		c-6.1-6.1-9.1-13.4-9.1-21.9v-31c0-4.6,0.9-8.8,2.7-12.4H18.6c-5.2,0-9.5-1.8-13.1-5.4c-3.6-3.6-5.4-8-5.4-13.1v-18.6
		c0-7.7,3.5-13.3,10.4-16.6c6.4-3.3,14.7-7.2,24.7-11.6c10.1-4.4,27-10.1,50.9-17c23.8-7,44.7-10.5,62.5-10.5
		c35.3,0,77.7,11.4,127.2,34.1c46.1-14.4,86.2-21.7,120.3-21.7c34,0,74.1,7.2,120.3,21.7c49.5-22.7,91.9-34.1,127.2-34.1
		c17.8,0,38.6,3.5,62.5,10.5c23.8,7,40.8,12.6,50.9,17C766.9,418.4,775.1,422.2,781.6,425.6z M201.1,346.3
		c-14.4,14.4-32,21.7-52.6,21.7c-20.6,0-38.2-7.2-52.6-21.7c-14.4-14.4-21.7-32-21.7-52.6v-37.2c0-20.6,7.2-38.2,21.7-52.6
		c14.4-14.4,32-21.7,52.6-21.7c20.6,0,38.2,7.2,52.6,21.7c14.4,14.4,21.7,32,21.7,52.6v37.2C222.7,314.3,215.5,331.8,201.1,346.3z
		 M483.4,331.5c-24.2,24.3-53.4,36.4-87.4,36.4s-63.2-12.1-87.4-36.4c-24.2-24.3-36.4-53.4-36.4-87.5v-61.9
		c0-34.1,12.1-63.2,36.4-87.5C332.8,70.4,362,58.3,396,58.3c34,0,63.2,12.1,87.4,36.4c24.2,24.3,36.4,53.4,36.4,87.5v61.9
		C519.8,278.1,507.6,307.3,483.4,331.5z M696.1,346.3c-14.4,14.4-32,21.7-52.6,21.7c-20.6,0-38.2-7.2-52.6-21.7
		c-14.4-14.4-21.7-32-21.7-52.6v-37.2c0-20.6,7.2-38.2,21.7-52.6c14.4-14.4,32-21.7,52.6-21.7s38.2,7.2,52.6,21.7
		c14.4,14.4,21.6,32,21.6,52.6v37.2C717.7,314.3,710.5,331.8,696.1,346.3z"/>
</g>
</svg>
