<?xml version="1.0" encoding="utf-8"?>
<!-- Generator: Adobe Illustrator 18.1.0, SVG Export Plug-In . SVG Version: 6.00 Build 0)  -->
<!DOCTYPE svg PUBLIC "-//W3C//DTD SVG 1.1//EN" "http://www.w3.org/Graphics/SVG/1.1/DTD/svg11.dtd">
<svg version="1.1" id="Layer_1" xmlns="http://www.w3.org/2000/svg" xmlns:xlink="http://www.w3.org/1999/xlink" x="0px" y="0px"
	 viewBox="90 0 612 612" enable-background="new 90 0 612 612" xml:space="preserve">
<g>
	<path fill="#FFFFFF" d="M680.8,501.4c6.6,3.2,11.8,7.9,15.5,14c3.8,6.2,5.7,12.8,5.7,20v38.2c0,10.6-3.7,19.6-11.2,27
		c-7.5,7.5-16.5,11.2-27,11.2H128.3c-10.6,0-19.6-3.7-27-11.2c-7.5-7.5-11.2-16.5-11.2-27v-38.2c0-7.2,1.9-13.8,5.7-20
		c3.8-6.2,9-10.9,15.5-14c5.4-2.8,12.3-6.1,20.8-10c8.5-3.9,24-10.4,46.8-19.4s44.9-17.1,66.5-24.1c21.6-7,46.4-13.3,74.4-18.8
		c28-5.6,53.4-8.4,76.4-8.4c22.9,0,48.3,2.8,76.3,8.4c28,5.6,52.8,11.9,74.4,18.8c21.6,7,43.8,15,66.5,24.1
		c22.7,9.1,38.3,15.5,46.8,19.4C668.5,495.3,675.4,498.6,680.8,501.4z M455.3,370.4c-18.8,8.1-38.6,12.1-59.3,12.1
		c-20.7,0-40.5-4-59.3-12.1c-18.8-8.1-35.1-19-48.9-32.7c-13.7-13.7-24.6-30-32.7-48.9C247,270,243,250.2,243,229.5V153
		c0-20.7,4-40.5,12.1-59.3c8.1-18.8,19-35.1,32.7-48.9c13.7-13.7,30-24.6,48.9-32.7C355.5,4,375.3,0,396,0c20.7,0,40.5,4,59.3,12.1
		c18.8,8.1,35.1,19,48.9,32.7c13.7,13.7,24.6,30,32.7,48.9C545,112.5,549,132.3,549,153v76.5c0,20.7-4,40.5-12.1,59.3
		c-8.1,18.8-19,35.1-32.7,48.9C490.4,351.4,474.1,362.3,455.3,370.4z"/>
</g>
</svg>
