<?xml version="1.0" encoding="utf-8"?>
<!-- Generator: Adobe Illustrator 18.1.0, SVG Export Plug-In . SVG Version: 6.00 Build 0)  -->
<!DOCTYPE svg PUBLIC "-//W3C//DTD SVG 1.1//EN" "http://www.w3.org/Graphics/SVG/1.1/DTD/svg11.dtd">
<svg version="1.1" id="Layer_1" xmlns="http://www.w3.org/2000/svg" xmlns:xlink="http://www.w3.org/1999/xlink" x="0px" y="0px"
	 viewBox="46.5 0 699.1 612" enable-background="new 46.5 0 699.1 612" xml:space="preserve">
<g>
	<path fill="#FFFFFF" d="M739.4,546.1c4.1,6.8,6.1,14.2,6.1,22.2c0,7.7-1.9,14.9-5.8,21.5c-3.9,6.8-9.2,12.2-16.1,16.2
		c-6.8,4-14.1,6-21.9,6h-612c-7.7,0-15-2-21.9-6c-6.8-4-12.2-9.4-16.1-16.2c-3.6-6.6-5.5-13.9-5.5-21.9c0-8.2,1.9-15.5,5.8-21.9
		l306-524.2C361.9,15.3,367.1,10,374,6c6.8-4,14.1-6,21.9-6c7.7,0,15,2,21.9,6c6.8,4,12.1,9.3,15.7,15.9L739.4,546.1z M440.9,384.2
		l21.9-195.7c0-5.9-2.2-11.1-6.5-15.4c-4.3-4.3-9.5-6.5-15.4-6.5h-88.8c-5.9,0-11.1,2.2-15.4,6.5c-4.3,4.3-6.5,9.5-6.5,15.4
		l21.9,195.7c0,6.2,2.2,11.3,6.5,15.5s9.5,6.3,15.4,6.3h45.1c5.9,0,11-2.1,15.4-6.3C438.7,395.5,440.9,390.4,440.9,384.2z
		 M356.2,547.8c10.9,10.9,24.1,16.4,39.6,16.4c15.5,0,28.7-5.5,39.6-16.4c10.9-10.9,16.4-24.1,16.4-39.6c0-15.5-5.5-28.7-16.4-39.6
		c-10.9-10.9-24.1-16.4-39.6-16.4c-15.5,0-28.7,5.5-39.6,16.4c-10.9,10.9-16.4,24.1-16.4,39.6C339.8,523.7,345.3,536.9,356.2,547.8z
		"/>
</g>
</svg>
