<svg id="Layer_1" data-name="Layer 1" xmlns="http://www.w3.org/2000/svg" viewBox="0 0 213.92 177.66"><defs><style>.cls-1{fill:#fff;}</style></defs><title>mnc-logo</title><path class="cls-1" d="M-525.46,137.31a31.94,31.94,0,0,1-24.1,8.89,35.42,35.42,0,0,1-20.26-8.07c-4.12-3.36-7.87-6.63-9.55-8.25l-6.86-7.46h8.13a0.54,0.54,0,0,0,.52-0.55,0.56,0.56,0,0,0-.17-0.41,0.88,0.88,0,0,0-.73-0.18h-0.8c-1.65,0-2.12-.69-2.12-1.65a10.32,10.32,0,0,1,.8-3.24l2.87-7.59a0.46,0.46,0,0,1,.48-0.42h11.84a0.51,0.51,0,0,1,.53.37l4.25,11.26a0.87,0.87,0,0,1-.48,1.22c-0.52.05-.74,0.16-0.74,0.47a0.66,0.66,0,0,0,0,.17,0.54,0.54,0,0,0,.52.55h13.21a0.54,0.54,0,0,0,.52-0.55,0.55,0.55,0,0,0-.34-0.51,1.17,1.17,0,0,0-.51-0.07,11.8,11.8,0,0,1-2.23-.21c-1.12-.27-2.66-1-4.68-5.79-3.4-8.07-11.9-29.75-13.17-32.67-0.53-1.22-.85-1.7-1.33-1.7s-0.85.58-1.49,2.12l-13.33,33.36c-0.83,2.06-1.62,3.61-3.08,4.35l-15.78-17.18a12.32,12.32,0,0,0,8.48-12.14,9.24,9.24,0,0,0-2.65-6.32c-0.85-.8-3.42-3.1-10.06-3.1-2.45,0-5.35.23-7.53,0.23-1.49,0-4.83-.16-7.65-0.16-0.8,0-1.17.11-1.17,0.48s0.32,0.48.9,0.48a10.84,10.84,0,0,1,2.07.16c1.75,0.37,2.18,1.22,2.29,3s0.11,3.18.11,11.26v9.34c0,4.89,0,9.09-.26,11.32-0.21,1.54-.48,2.71-1.54,2.92a8.87,8.87,0,0,1-1.91.21,2.08,2.08,0,0,0-.44,0H-623a0.54,0.54,0,0,0-.52.55,0.54,0.54,0,0,0,.52.55h16.32a0.54,0.54,0,0,0,.52-0.55,0.54,0.54,0,0,0-.52-0.55h-0.06a1.93,1.93,0,0,0-.41,0,23,23,0,0,1-2.71-.21c-1.59-.22-1.91-1.38-2.07-2.87-0.27-2.28-.27-6.48-0.27-11.37V85.59a1,1,0,0,1,.43-1,7.5,7.5,0,0,1,2.07-.21,7.89,7.89,0,0,1,5.31,2.07,10.22,10.22,0,0,1,3.13,8c0,5.42-4.14,8.77-7.12,8.77-1.12,0-1.49.16-1.49,0.58a0.39,0.39,0,0,0,.25.37c1.2,1.38,17.55,20.1,22.87,25.6h0c6.71,7.33,18.82,18.4,29.91,20a32.92,32.92,0,0,0,4.45.53c11.05,0.57,21.73-4.62,27.48-12.47a0.47,0.47,0,0,0,0-.51,0.5,0.5,0,0,0-.55,0m-50.94-32,4.89-13.07a0.56,0.56,0,0,1,.32-0.48,0.53,0.53,0,0,1,.27.48l4.78,13.12c0.05,0.16,0,.32-0.27.32h-9.77c-0.21,0-.26-0.16-0.21-0.37m29.83-22.22h1.89a5.09,5.09,0,0,1,.57.12c1.17,0.27,1.7,1.17,1.81,3s0.11,3.18.11,11.26v9.34c0,5.15,0,9.35-.27,11.58-0.16,1.54-.48,2.44-1.54,2.66a8.9,8.9,0,0,1-1.91.21,2.08,2.08,0,0,0-.43,0h-0.14a0.54,0.54,0,0,0-.52.55,0.53,0.53,0,0,0,.52.55h16.32a0.53,0.53,0,0,0,.52-0.55,0.54,0.54,0,0,0-.49-0.55,2,2,0,0,0-.42,0,22.89,22.89,0,0,1-2.71-.21c-1.6-.22-2-1.17-2.13-2.61-0.21-2.28-.21-6.48-0.21-11.63V97.49c0-8.08,0-9.57.11-11.26,0.11-1.86.53-2.76,2-3l0.4-.06h1.81a0.54,0.54,0,0,0,.52-0.55,0.54,0.54,0,0,0-.52-0.55h-15.25a0.54,0.54,0,0,0-.52.55,0.54,0.54,0,0,0,.52.55m-90.2,20c-1.12,0-1.49.16-1.49,0.58a0.59,0.59,0,0,0,.64.48,7.76,7.76,0,0,0,1.12.05c7.54,0,13.07-5.31,13.07-12.85a9.22,9.22,0,0,0-2.66-6.32c-0.85-.8-3.48-3.1-10.12-3.1h-15.86a0.54,0.54,0,0,0-.52.55,0.54,0.54,0,0,0,.52.55h2.2l0.36,0.06c1.75,0.37,2.18,1.22,2.28,3s0.11,3.18.11,11.26v9.34c0,4.89,0,9.09-.26,11.32-0.21,1.54-.48,2.71-1.54,2.92a8.86,8.86,0,0,1-1.91.21,2.07,2.07,0,0,0-.44,0h-0.21a0.54,0.54,0,0,0-.52.55,0.53,0.53,0,0,0,.52.55h16.32a0.54,0.54,0,0,0,.53-0.55,0.57,0.57,0,0,0-.08-0.29,0.36,0.36,0,0,0-.14-0.16h0l0,0a0.5,0.5,0,0,0-.19-0.06,2,2,0,0,0-.44,0,23,23,0,0,1-2.71-.21c-1.59-.22-1.91-1.38-2.07-2.87-0.27-2.28-.27-6.48-0.27-11.37V85.59a1,1,0,0,1,.42-1,7.52,7.52,0,0,1,2.07-.21,7.89,7.89,0,0,1,5.31,2.07,10.21,10.21,0,0,1,3.13,8c0,5.42-4.14,8.77-7.12,8.77m160,18.15h-0.12a2,2,0,0,0-.41,0,23,23,0,0,1-2.71-.21c-1.59-.22-2-1.17-2.12-2.61-0.21-2.28-.21-6.48-0.21-11.63V97.49c0-8.08,0-9.57.11-11.26,0.11-1.86.53-2.76,2-3l0.4-.06h1.6a0.54,0.54,0,0,0,.52-0.55,0.54,0.54,0,0,0-.52-0.55h-15.25a0.54,0.54,0,0,0-.52.55,0.54,0.54,0,0,0,.52.55h2.1a5.21,5.21,0,0,1,.57.12c1.17,0.27,1.7,1.17,1.8,3s0.11,3.18.11,11.26v9.34c0,5.15,0,9.35-.27,11.58-0.14,1.42-.43,2.29-1.29,2.59a14,14,0,0,1-5.16-3.49c-2.26-2.26-9-10.78-11.66-14.14a12.32,12.32,0,0,0,7.94-11.95A9.24,9.24,0,0,0-502,85.11c-0.83-.78-3.2-3-9.53-3.06l-0.16,0H-528a0.54,0.54,0,0,0-.52.55,0.54,0.54,0,0,0,.52.55h2.25l0.36,0.06c1.75,0.37,2.18,1.22,2.28,3s0.11,3.18.11,11.26v9.34c0,4.89,0,9.09-.27,11.32-0.21,1.54-.48,2.71-1.54,2.92a8.83,8.83,0,0,1-1.91.21,2,2,0,0,0-.43,0h0a0.54,0.54,0,0,0-.52.55,0.53,0.53,0,0,0,.52.55h16.32a0.54,0.54,0,0,0,.52-0.55,0.54,0.54,0,0,0-.52-0.55H-511a1.89,1.89,0,0,0-.41,0,23,23,0,0,1-2.71-.21c-1.59-.22-1.91-1.38-2.07-2.87-0.27-2.28-.27-6.48-0.27-11.37V85.59a1,1,0,0,1,.42-1,7.53,7.53,0,0,1,2.07-.21,7.89,7.89,0,0,1,5.31,2.07,10.22,10.22,0,0,1,3.13,8c0,5.42-4.14,8.77-7.12,8.77-1.12,0-1.49.16-1.49,0.58a0.37,0.37,0,0,0,.13.3c0.81,1.06,9.13,11.92,11.64,14.86s4.44,3.47,6.35,3.5h19.3a0.54,0.54,0,0,0,.52-0.55,0.54,0.54,0,0,0-.52-0.55m29.37-6.2c0-.53,0-1-0.42-1s-0.48.21-.58,0.8c-0.37,2.18-1,3.29-2.39,3.93a13.5,13.5,0,0,1-5,.64c-5.42,0-6.27-.8-6.37-4.46-0.06-1.54,0-6.42,0-8.23v-4.2c0-.32.05-0.53,0.32-0.53,1.28,0,6.53.05,7.54,0.16,2,0.21,2.71,1,3,2.07a13.76,13.76,0,0,1,.21,1.91,0.42,0.42,0,0,0,.48.48c0.48,0,.48-0.59.48-1s0.16-2.5.21-3.56c0.21-2.71.42-3.56,0.42-3.87a0.36,0.36,0,0,0-.37-0.43,1.5,1.5,0,0,0-.85.69c-0.48.53-1.27,0.69-2.55,0.8s-7.33.11-8.5,0.11c-0.32,0-.37-0.21-0.37-0.58V85.43c0-.37.1-0.53,0.37-0.53,1.06,0,6.64.11,7.54,0.21,2.65,0.32,3.19,1,3.56,1.91a5.67,5.67,0,0,1,.32,1.91c0,0.48.1,0.75,0.48,0.75a0.58,0.58,0,0,0,.53-0.59c0.11-.64.21-3,0.27-3.51a34.55,34.55,0,0,1,.42-3.45c0-.26-0.05-0.48-0.32-0.48a5.17,5.17,0,0,0-.85.21,7.87,7.87,0,0,1-1.45.16h-22.38a0.51,0.51,0,0,0-.45.27,0.35,0.35,0,0,0-.11.26,0.4,0.4,0,0,0,.08.25,0.52,0.52,0,0,0,.48.32h2.07l0.35,0.06c1.76,0.37,2.18,1.22,2.29,3s0.11,3.18.11,11.26v9.34c0,4.89,0,9.09-.27,11.32-0.21,1.54-.48,2.71-1.54,2.92a8.84,8.84,0,0,1-1.91.21,2.21,2.21,0,0,0-.47,0h-0.09l0,0a0.37,0.37,0,0,0-.21.19,0.57,0.57,0,0,0-.1.31,0.54,0.54,0,0,0,.52.55h23.63a1.18,1.18,0,0,0,1.13-1h0c0-.12.08-0.23,0.12-0.37a41.83,41.83,0,0,0,.69-5.9" transform="translate(656.17 -3.97)"/><path class="cls-1" d="M-645.18,134.08v0a3.21,3.21,0,0,0-2.35-3.06l-0.88-.1a3.26,3.26,0,0,0-2.19.92,3.25,3.25,0,0,0-.95,2.29,3.26,3.26,0,0,0,1.78,2.68q1.61,0.9,3.48,1.71a4.84,4.84,0,0,1,2.51,2,4.92,4.92,0,0,1,.45,2.07,5.08,5.08,0,0,1-3,4.65,7.18,7.18,0,0,1-2,.39,5,5,0,0,1-4.32-2.46,5.43,5.43,0,0,1-.73-2.52v-0.08h1.77v0a3.21,3.21,0,0,0,2.34,3.07l0.88,0.1a3.18,3.18,0,0,0,3.06-2.35l0.1-.88a2.66,2.66,0,0,0-1.43-2.22,20.91,20.91,0,0,0-3.19-1.57,6.07,6.07,0,0,1-2.8-2.11,5.44,5.44,0,0,1-.73-2.51,5,5,0,0,1,2.64-4.43,4.92,4.92,0,0,1,2.46-.62,4.93,4.93,0,0,1,4.47,2.91,4.93,4.93,0,0,1,.45,2.07h-1.84Z" transform="translate(656.17 -3.97)"/><path class="cls-1" d="M-639.54,129v9.29q0,4.5,4.41,6.85a8.24,8.24,0,0,0,3,.67,7.7,7.7,0,0,0,6.44-3.55,8.35,8.35,0,0,0,1.08-4V129h1.8v9.24q0,5.37-5.24,8.38a10.45,10.45,0,0,1-4.09.87,9.37,9.37,0,0,1-6.3-2.49,9.74,9.74,0,0,1-2.95-6.76l0-9.24h1.79Z" transform="translate(656.17 -3.97)"/><polygon class="cls-1" points="35.3 124.99 44.52 138.17 44.52 124.99 46.27 124.99 46.25 143.51 37.05 130.58 37.05 143.51 35.3 143.51 35.3 124.99"/><polygon class="cls-1" points="148.4 142.93 148.4 142.98 141.07 130.97 141.07 142.98 139.34 142.98 139.35 124.27 148.4 139.03 157.46 124.27 157.46 142.98 155.73 142.98 155.73 130.97 148.4 142.93"/><path class="cls-1" d="M-488.4,128.55a9.39,9.39,0,0,1,7.95,4.4,9.88,9.88,0,0,1,1.33,4.81q0,5.33-5.21,8.33a10.42,10.42,0,0,1-4.07.86,9.32,9.32,0,0,1-6.26-2.47,9.69,9.69,0,0,1-2.93-6.72,9.91,9.91,0,0,1,3.53-7.28,9.59,9.59,0,0,1,5.67-1.93m-7.39,9.27q0,4.47,4.39,6.81a8.17,8.17,0,0,0,3,.67,7.66,7.66,0,0,0,6.41-3.53,8.33,8.33,0,0,0,1.07-3.95q0-4.24-4.14-6.67a8.49,8.49,0,0,0-3.34-.72,7.28,7.28,0,0,0-6.39,3.72,7.65,7.65,0,0,0-1,3.67" transform="translate(656.17 -3.97)"/><path class="cls-1" d="M-468.68,128.55a9.39,9.39,0,0,1,7.95,4.4,9.9,9.9,0,0,1,1.33,4.81q0,5.33-5.21,8.33a10.43,10.43,0,0,1-4.07.86,9.32,9.32,0,0,1-6.26-2.47,9.69,9.69,0,0,1-2.93-6.72,9.89,9.89,0,0,1,3.53-7.28,9.59,9.59,0,0,1,5.67-1.93m-7.39,9.27q0,4.47,4.39,6.81a8.17,8.17,0,0,0,3,.67,7.65,7.65,0,0,0,6.4-3.53,8.33,8.33,0,0,0,1.07-3.95q0-4.24-4.14-6.67a8.49,8.49,0,0,0-3.34-.72,7.29,7.29,0,0,0-6.39,3.72,7.63,7.63,0,0,0-1,3.67" transform="translate(656.17 -3.97)"/><polygon class="cls-1" points="198.01 124.58 207.18 137.68 207.18 124.58 208.92 124.58 208.9 142.98 199.75 130.13 199.75 142.98 198.01 142.98 198.01 124.58"/><path class="cls-1" d="M-602.83,141a4,4,0,0,1-.83.59,3.9,3.9,0,0,1-1.06.21,2.73,2.73,0,0,1-2.34-1.33,3,3,0,0,1-.39-1.36,2.7,2.7,0,0,1,1.42-2.39,2.68,2.68,0,0,1,1.33-.33,2.47,2.47,0,0,1,1.85.79v-0.79h0.77v5.42h-0.77V141Zm-3.79-1.92a1.89,1.89,0,0,0,1.38,1.82l0.52,0.06a1.88,1.88,0,0,0,1.82-1.39l0.06-.52a1.9,1.9,0,0,0-1.39-1.81l-0.52-.06a1.91,1.91,0,0,0-1.3.54,1.92,1.92,0,0,0-.57,1.36" transform="translate(656.17 -3.97)"/><path class="cls-1" d="M-596.27,139.09a2.1,2.1,0,0,0-.62-1.38,1.91,1.91,0,0,0-1.3-.54l-0.52.06a1.91,1.91,0,0,0-1.4,1.81v2.76h-0.83v-5.42h0.83v0.79a2.46,2.46,0,0,1,1.85-.79,2.66,2.66,0,0,1,1.33.33,2.85,2.85,0,0,1,1.49,2.42v2.67h-0.83v-2.71Z" transform="translate(656.17 -3.97)"/><path class="cls-1" d="M-590.11,141a3.7,3.7,0,0,1-.82.59,3.84,3.84,0,0,1-1.05.21,2.7,2.7,0,0,1-2.31-1.32,2.91,2.91,0,0,1-.39-1.35,2.68,2.68,0,0,1,1.42-2.37,2.63,2.63,0,0,1,1.32-.33,2.46,2.46,0,0,1,1.84.78v-3.73h0.76v8.32h-0.76V141Zm-0.62-3.26a1.91,1.91,0,0,0-1.29-.54l-0.51.05a1.89,1.89,0,0,0-1.39,1.8l0.06,0.51a1.87,1.87,0,0,0,1.8,1.38l0.51-.06a1.88,1.88,0,0,0,1.38-1.8,1.9,1.9,0,0,0-.57-1.35" transform="translate(656.17 -3.97)"/><polygon class="cls-1" points="117.37 9.73 115.3 11.76 113.24 9.72 115.33 2.8 117.37 9.73"/><polygon class="cls-1" points="119.66 12.25 117.65 14.21 115.66 12.23 117.67 10.27 119.66 12.25"/><polygon class="cls-1" points="114.9 12.21 112.9 14.17 110.91 12.2 112.91 10.24 114.9 12.21"/><polygon class="cls-1" points="117.29 14.58 115.28 16.54 113.3 14.56 115.3 12.61 117.29 14.58"/><polygon class="cls-1" points="103.18 13.78 103.15 16.68 100.24 16.68 96.8 10.32 103.18 13.78"/><polygon class="cls-1" points="106.58 13.96 106.56 16.75 103.75 16.76 103.77 13.96 106.58 13.96"/><polygon class="cls-1" points="103.2 17.28 103.18 20.07 100.37 20.07 100.39 17.28 103.2 17.28"/><polygon class="cls-1" points="106.57 17.27 106.54 20.07 103.73 20.07 103.75 17.27 106.57 17.27"/><polygon class="cls-1" points="96.02 26.63 98.06 28.7 96.01 30.74 89.05 28.66 96.02 26.63"/><polygon class="cls-1" points="98.56 24.36 100.53 26.35 98.54 28.33 96.57 26.34 98.56 24.36"/><polygon class="cls-1" points="98.52 29.09 100.49 31.08 98.51 33.05 96.53 31.06 98.52 29.09"/><polygon class="cls-1" points="100.9 26.71 102.87 28.71 100.88 30.68 98.91 28.69 100.9 26.71"/><polygon class="cls-1" points="100.1 40.75 103.01 40.77 103.01 43.66 96.62 47.09 100.1 40.75"/><polygon class="cls-1" points="100.28 37.36 103.09 37.38 103.09 40.17 100.28 40.15 100.28 37.36"/><polygon class="cls-1" points="103.61 40.73 106.42 40.75 106.43 43.54 103.61 43.52 103.61 40.73"/><polygon class="cls-1" points="103.6 37.38 106.42 37.4 106.42 40.19 103.61 40.17 103.6 37.38"/><polygon class="cls-1" points="113.02 47.86 115.1 45.83 117.15 47.88 115.06 54.79 113.02 47.86"/><polygon class="cls-1" points="110.73 45.34 112.74 43.38 114.73 45.36 112.72 47.32 110.73 45.34"/><polygon class="cls-1" points="115.49 45.38 117.49 43.42 119.48 45.39 117.48 47.35 115.49 45.38"/><polygon class="cls-1" points="113.1 43.01 115.11 41.05 117.09 43.03 115.09 44.99 113.1 43.01"/><polygon class="cls-1" points="127.21 43.81 127.23 40.91 130.15 40.91 133.59 47.27 127.21 43.81"/><polygon class="cls-1" points="123.81 43.63 123.83 40.84 126.64 40.84 126.62 43.63 123.81 43.63"/><polygon class="cls-1" points="127.19 40.31 127.21 37.52 130.02 37.52 130 40.31 127.19 40.31"/><polygon class="cls-1" points="123.82 40.32 123.85 37.52 126.66 37.52 126.64 40.32 123.82 40.32"/><polygon class="cls-1" points="134.37 30.96 132.32 28.89 134.38 26.85 141.34 28.93 134.37 30.96"/><polygon class="cls-1" points="131.84 33.23 129.87 31.24 131.85 29.26 133.82 31.25 131.84 33.23"/><polygon class="cls-1" points="131.87 28.5 129.9 26.51 131.88 24.54 133.85 26.53 131.87 28.5"/><polygon class="cls-1" points="129.49 30.88 127.52 28.88 129.51 26.91 131.48 28.9 129.49 30.88"/><polygon class="cls-1" points="130.29 16.84 127.38 16.82 127.38 13.93 133.77 10.51 130.29 16.84"/><polygon class="cls-1" points="130.12 20.23 127.31 20.21 127.3 17.41 130.11 17.44 130.12 20.23"/><polygon class="cls-1" points="126.78 16.86 123.97 16.84 123.97 14.05 126.78 14.07 126.78 16.86"/><polygon class="cls-1" points="126.78 20.21 123.97 20.19 123.97 17.4 126.78 17.42 126.78 20.21"/><path class="cls-1" d="M-540.82,18.37a14.39,14.39,0,0,0-14.43,14.35,14.39,14.39,0,0,0,14.43,14.35,14.39,14.39,0,0,0,14.43-14.35,14.39,14.39,0,0,0-14.43-14.35m0,25.54a11.21,11.21,0,0,1-11.24-11.18,11.21,11.21,0,0,1,11.24-11.18,11.21,11.21,0,0,1,11.24,11.18,11.21,11.21,0,0,1-11.24,11.18" transform="translate(656.17 -3.97)"/><path class="cls-1" d="M-540.82,5.89a26.91,26.91,0,0,0-27,26.83,26.91,26.91,0,0,0,27,26.83,26.9,26.9,0,0,0,27-26.83,26.9,26.9,0,0,0-27-26.83m0,50.28a23.5,23.5,0,0,1-23.56-23.43A23.5,23.5,0,0,1-540.82,9.31a23.5,23.5,0,0,1,23.57,23.43,23.5,23.5,0,0,1-23.57,23.43" transform="translate(656.17 -3.97)"/><path class="cls-1" d="M-518.43,54.71l-0.57.55h0.55v0.08l0,0.5,0.8,1.63-1.56-.83h-0.64V56.07a31.47,31.47,0,0,1-2.71,2.15l0.86,0.15-0.2.91,0.76,2.6-2.14-1.64-0.72-.12h0l-0.2,0,0.16-.78,0-.09a31.32,31.32,0,0,1-3.57,1.92l1.27,0.52-0.52,1.28,0.37,3.87-2.56-3-1.11-.44h0l-0.14-.05,0.47-1.16h0l0-.12a31.26,31.26,0,0,1-3.74,1.11l1.49,1-1,1.52-0.51,5.1-2.55-4.57-1.4-1,0,0-0.1-.06,0.94-1.41h0l0,0a31.81,31.81,0,0,1-3.79.26c-0.41,0-.81,0-1.21,0l1.52,1.84-1.9,1.54-2.66,6.21L-546.22,67l-1.47-1.77,0,0-0.06-.07,1.8-1.48h0l0,0a31.24,31.24,0,0,1-6.35-1.76l1,2.8-2.84.95-5.63,5.82,1.22-8-0.92-2.71,0-.08,2.75-.92h0a31.45,31.45,0,0,1-5.39-4l-0.15,3.16-3.17-.16-7.84,3.59,4.33-7.46,0.14-3V51.58l3.08,0.14h0.08a31.13,31.13,0,0,1-3.29-5.3l0,0.08h0l-1.16,2.65-0.07,0L-572.87,48l-8.14.53,6.31-5.08,1.19-2.73,2.77,1.21A30.89,30.89,0,0,1-572,35.41l-0.07.07h0l-1.64,1.66-0.06-.07,0,0-1.65-1.61-6.47-2,6.45-2.1,1.7-1.75,1.71,1.67a31,31,0,0,1,.65-4.93h0l-1.49.82L-573,27l0,0-0.84-1.48-4.36-2.92,5.16-.07,1.6-.88,0.88,1.54a30.84,30.84,0,0,1,1.41-3.57l-0.09,0h0l-1.2.37,0-.14v0l-0.35-1.14-2.74-2.79,3.85,0.7,1.33-.41,0.39,1.27a31.18,31.18,0,0,1,2.19-3.32h0l-0.8.09V14l-0.06-.73L-568.2,11l2.54,1,0.93-.12,0.07,0.8c0.52-.61,1-1.2,1.61-1.76,0.23-.23.49-0.45,0.73-0.67l-0.45,0h-0.09l0-.2h0l0-.43L-563.49,8l1.56,0.93,0.5,0h0.08l0,0.47A31.31,31.31,0,0,1-554,4.55,35.16,35.16,0,0,0-582.91,39.3a35.21,35.21,0,0,0,35.53,34.88,35.29,35.29,0,0,0,33.84-25.87A31.33,31.33,0,0,1-518.43,54.71Z" transform="translate(656.17 -3.97)"/><polygon class="cls-1" points="84.07 57.09 90.15 54.15 90.27 51.47 87.58 51.34 84.07 57.09"/><rect class="cls-1" x="-568.34" y="52.24" width="2.59" height="2.6" transform="translate(61.58 -519.33) rotate(-87.38)"/><rect class="cls-1" x="-565.39" y="55.47" width="2.59" height="2.61" transform="translate(61.77 -513.34) rotate(-87.32)"/><path class="cls-1" d="M-562.6,52.44l-2.58-.12A31.41,31.41,0,0,0-562.76,55l0,0h0Z" transform="translate(656.17 -3.97)"/><path class="cls-1" d="M-565.18,52.32h0l-0.12,2.59,2.59,0.12,0,0A31.41,31.41,0,0,1-565.18,52.32Z" transform="translate(656.17 -3.97)"/><polygon class="cls-1" points="97.04 66.01 101.35 61.36 100.54 58.97 98.13 59.78 97.04 66.01"/><polygon class="cls-1" points="98.11 59.24 100.43 58.45 99.65 56.15 97.33 56.93 98.11 59.24"/><polygon class="cls-1" points="104.13 60.29 103.34 57.98 101.02 58.76 101.81 61.07 104.13 60.29"/><path class="cls-1" d="M-553.78,59.18l-2.32.79v0A31.3,31.3,0,0,0-553,61.5h0Z" transform="translate(656.17 -3.97)"/><path class="cls-1" d="M-555.31,62.28l2.3-.78A31.3,31.3,0,0,1-556.09,60Z" transform="translate(656.17 -3.97)"/><polygon class="cls-1" points="111.52 68.06 113.41 63.35 112.12 61.79 110.55 63.08 111.52 68.06"/><polygon class="cls-1" points="110.37 62.68 111.89 61.43 110.64 59.93 109.12 61.17 110.37 62.68"/><polygon class="cls-1" points="115.19 61.76 113.93 60.25 112.42 61.5 113.67 63.01 115.19 61.76"/><path class="cls-1" d="M-543.74,62.42l-1.51,1.25c0.91,0.13,1.83.22,2.76,0.27h0Z" transform="translate(656.17 -3.97)"/><path class="cls-1" d="M-545.26,63.66l1.25,1.51,1.51-1.24c-0.93-.05-1.85-0.14-2.76-0.27h0Z" transform="translate(656.17 -3.97)"/><polygon class="cls-1" points="122.22 65.25 122.49 61.84 121.34 61.06 120.59 62.18 122.22 65.25"/><polygon class="cls-1" points="120.26 61.81 120.96 60.76 119.88 60.02 119.18 61.07 120.26 61.81"/><polygon class="cls-1" points="123.36 60.34 122.28 59.6 121.57 60.65 122.66 61.39 123.36 60.34"/><path class="cls-1" d="M-536.06,63.63h0c0.6-.09,1.2-0.19,1.78-0.31l-1.08-.74Z" transform="translate(656.17 -3.97)"/><path class="cls-1" d="M-535,64.37l0.7-1.05h0c-0.59.12-1.18,0.22-1.78,0.31Z" transform="translate(656.17 -3.97)"/><polygon class="cls-1" points="129.24 61.84 128.92 59.16 127.91 58.75 127.51 59.76 129.24 61.84"/><polygon class="cls-1" points="127.21 59.56 127.61 58.59 126.63 58.2 126.24 59.17 127.21 59.56"/><polygon class="cls-1" points="129.38 57.85 128.41 57.46 128.01 58.43 128.99 58.82 129.38 57.85"/><path class="cls-1" d="M-529,60.93l-0.39,1q0.69-.27,1.36-0.56h0Z" transform="translate(656.17 -3.97)"/><path class="cls-1" d="M-529.42,61.9l1,0.39,0.39-1q-0.67.3-1.36,0.56v0Z" transform="translate(656.17 -3.97)"/><polygon class="cls-1" points="133.95 55.55 133.3 55.44 133.17 56.08 134.44 57.09 133.95 55.55"/><polygon class="cls-1" points="133.03 55.36 132.42 55.26 132.3 55.85 132.9 55.96 133.03 55.36"/><polygon class="cls-1" points="134.07 54.65 133.47 54.54 133.35 55.14 133.95 55.24 134.07 54.65"/><path class="cls-1" d="M-523.58,58.37l-0.12.6h0l0.72-.47v0Z" transform="translate(656.17 -3.97)"/><path class="cls-1" d="M-523.1,59.07l0.12-.57-0.72.47Z" transform="translate(656.17 -3.97)"/><polygon class="cls-1" points="137.47 52.09 137.09 52.09 137.08 52.47 137.9 52.92 137.47 52.09"/><polygon class="cls-1" points="136.9 52.09 136.54 52.09 136.53 52.44 136.89 52.44 136.9 52.09"/><polygon class="cls-1" points="137.46 51.52 137.1 51.52 137.09 51.88 137.45 51.88 137.46 51.52"/><path class="cls-1" d="M-519.62,55.85l0.36-.34h-0.35v0.34Z" transform="translate(656.17 -3.97)"/><path class="cls-1" d="M-519.62,55.87h0.35V55.51h0l-0.36.34v0Z" transform="translate(656.17 -3.97)"/><polygon class="cls-1" points="81.63 40.07 76.6 43.95 82.94 43.4 83.96 41.08 81.63 40.07"/><polygon class="cls-1" points="83.48 43.46 85.72 44.44 86.71 42.21 84.46 41.23 83.48 43.46"/><polygon class="cls-1" points="84.21 40.62 85.19 38.39 82.94 37.41 81.96 39.65 84.21 40.62"/><path class="cls-1" d="M-570.52,42.57a30.83,30.83,0,0,0,1.25,3.17l1-2.2Z" transform="translate(656.17 -3.97)"/><path class="cls-1" d="M-570.54,42.56l-1,2.23,2.25,1v0a30.83,30.83,0,0,1-1.25-3.17h0Z" transform="translate(656.17 -3.97)"/><polygon class="cls-1" points="80.67 27.98 75.78 29.45 80.69 30.84 82.12 29.4 80.67 27.98"/><polygon class="cls-1" points="81.08 31.05 82.48 32.42 83.86 31.02 82.46 29.65 81.08 31.05"/><polygon class="cls-1" points="81.04 27.75 82.44 29.13 83.82 27.73 82.42 26.36 81.04 27.75"/><path class="cls-1" d="M-572.07,32c0,0.34,0,.68,0,1,0,0.57,0,1.14.06,1.7l1.36-1.37Z" transform="translate(656.17 -3.97)"/><path class="cls-1" d="M-572.07,32h0l-1.38,1.39,1.4,1.37,0,0c0-.56-0.06-1.13-0.06-1.7C-572.09,32.67-572.08,32.33-572.07,32Z" transform="translate(656.17 -3.97)"/><polygon class="cls-1" points="82.95 19.12 79.52 19.09 82.45 20.97 83.64 20.33 82.95 19.12"/><polygon class="cls-1" points="82.8 21.33 83.45 22.46 84.56 21.86 83.91 20.72 82.8 21.33"/><polygon class="cls-1" points="83.42 18.99 84.07 20.13 85.19 19.52 84.54 18.38 83.42 18.99"/><path class="cls-1" d="M-570.12,25l-0.65-1.13h0c-0.17.57-.32,1.14-0.46,1.72v0Z" transform="translate(656.17 -3.97)"/><path class="cls-1" d="M-571.88,24.5l0.64,1.12c0.14-.58.29-1.15,0.46-1.72Z" transform="translate(656.17 -3.97)"/><polygon class="cls-1" points="86.2 12.98 83.53 12.43 85.47 14.33 86.52 14.01 86.2 12.98"/><rect class="cls-1" x="-570.4" y="18.43" width="1.05" height="1.05" transform="translate(625.52 -170.39) rotate(-17.07)"/><polygon class="cls-1" points="86.55 12.94 86.85 13.94 87.86 13.63 87.55 12.63 86.55 12.94"/><path class="cls-1" d="M-567.92,18.89l-0.31-1h0q-0.34.62-.66,1.27v0Z" transform="translate(656.17 -3.97)"/><path class="cls-1" d="M-569.23,18.2l0.3,1q0.31-.64.66-1.27Z" transform="translate(656.17 -3.97)"/><polygon class="cls-1" points="90.25 8.3 88.74 7.69 89.65 9.03 90.3 8.95 90.25 8.3"/><polygon class="cls-1" points="89.75 9.3 89.8 9.91 90.41 9.84 90.36 9.23 89.75 9.3"/><polygon class="cls-1" points="90.55 8.33 90.6 8.93 91.21 8.86 91.16 8.26 90.55 8.33"/><path class="cls-1" d="M-564.89,13.72l-0.05-.61H-565l-0.47.6v0.07Z" transform="translate(656.17 -3.97)"/><path class="cls-1" d="M-565.55,13.18l0,0.54,0.47-.6Z" transform="translate(656.17 -3.97)"/><polygon class="cls-1" points="93.6 5.46 93.97 5.49 94.01 5.11 93.22 4.61 93.6 5.46"/><polygon class="cls-1" points="93.58 6.01 93.93 6.03 93.97 5.68 93.61 5.66 93.58 6.01"/><polygon class="cls-1" points="94.19 5.5 94.55 5.52 94.58 5.17 94.22 5.15 94.19 5.5"/><path class="cls-1" d="M-561.69,10l0-.35h0L-562,10v0Z" transform="translate(656.17 -3.97)"/><path class="cls-1" d="M-562,9.66l0,0.33,0.33-.31Z" transform="translate(656.17 -3.97)"/><path class="cls-1" d="M-512.32,38.17a28.67,28.67,0,0,1-28,23,28.62,28.62,0,0,1-28.88-28.36A28.6,28.6,0,0,1-543.42,4.22,35.55,35.55,0,0,0-547.83,4c-0.73,0-1.45,0-2.17.08a30.33,30.33,0,0,0-12.35,7.55A30,30,0,0,0-571.1,33a30,30,0,0,0,9,21.29A30.34,30.34,0,0,0-540.55,63a30.35,30.35,0,0,0,21.41-9,30.26,30.26,0,0,0,6.43-9.61,35.52,35.52,0,0,0,.41-5.56c0-.23,0-0.45,0-0.68" transform="translate(656.17 -3.97)"/><polygon class="cls-1" points="48.81 160.22 53.86 160.22 51.35 155.25 48.81 160.22"/><path class="cls-1" d="M-487.33,157.45a9.83,9.83,0,0,0-3.9-.86,8.51,8.51,0,0,0-7.5,4.41,9.14,9.14,0,0,0-1.18,4.34c0,3.53,1.71,6.21,5.15,8.06a9.59,9.59,0,0,0,3.53.78,8.94,8.94,0,0,0,7.5-4.17,9.88,9.88,0,0,0,1.27-4.67C-482.47,162-484.1,159.37-487.33,157.45Z" transform="translate(656.17 -3.97)"/><path class="cls-1" d="M-458.47,149.19H-639.95a16.23,16.23,0,0,0-16.23,16.23,16.23,16.23,0,0,0,16.22,16.23h181.47a16.23,16.23,0,0,0,16.22-16.23A16.23,16.23,0,0,0-458.47,149.19Zm-173.4,27a14.33,14.33,0,0,1-3.79-.54,12.26,12.26,0,0,1-4.09-2.67,11.1,11.1,0,0,1-3.15-7.34,11.45,11.45,0,0,1,3.15-8.06,11.3,11.3,0,0,1,8.26-3.16l0.71,0a11.14,11.14,0,0,1,6.28,3.11l-1.56,1.58a8,8,0,0,0-5.93-2.5,10.81,10.81,0,0,0-2.44.29,8.78,8.78,0,0,0-3.87,2.23,8.26,8.26,0,0,0-2.54,6,11.59,11.59,0,0,0,.54,3.36,9.75,9.75,0,0,0,1.94,3.06,8.52,8.52,0,0,0,6.3,2.58,12.88,12.88,0,0,0,1.95-.16,9.92,9.92,0,0,0,4.16-2.42l1.5,1.52A10.15,10.15,0,0,1-631.87,176.17Zm35.62,0v0l-5.11-10.07h-7l-5.12,10.07v0l-1.8-1.18,10.42-20.6v0.06l10.59,20.48Zm21.17-19.41-1-.11a3.82,3.82,0,0,0-2.55,1.09,3.88,3.88,0,0,0-1.12,2.7,3.85,3.85,0,0,0,2.09,3.16c1.25,0.7,2.61,1.37,4,2a5.6,5.6,0,0,1,2.93,2.4,5.69,5.69,0,0,1,.53,2.44,6,6,0,0,1-3.52,5.47,8.28,8.28,0,0,1-2.29.47,5.86,5.86,0,0,1-5-2.89,6.38,6.38,0,0,1-.85-3v-0.1h2.06v0a3.77,3.77,0,0,0,2.73,3.62l1,0.12c1.66,0,2.85-.92,3.57-2.76l0.11-1a3.11,3.11,0,0,0-1.66-2.62,23.76,23.76,0,0,0-3.72-1.84,7.05,7.05,0,0,1-3.26-2.48,6.4,6.4,0,0,1-.85-3,5.9,5.9,0,0,1,3.08-5.21,5.59,5.59,0,0,1,2.87-.72q3.33,0,5.2,3.42a5.66,5.66,0,0,1,.53,2.43h-2.15v0A3.77,3.77,0,0,0-575.08,156.75Zm26.92,19.41h-2V154.38h2v21.79Zm33.14,0-10.74-15.22v15.22h-2V154.38L-517,169.89V154.38h2v21.79Zm28.56-1a12.26,12.26,0,0,1-4.77,1,10.86,10.86,0,0,1-7.37-2.93,11.5,11.5,0,0,1-3.43-8,11.69,11.69,0,0,1,4.14-8.62,11.11,11.11,0,0,1,6.66-2.28q5.66,0,9.31,5.21a11.74,11.74,0,0,1,1.58,5.69C-480.35,169.49-482.4,172.78-486.47,175.16Zm24.74-18.4-1-.11a3.82,3.82,0,0,0-2.55,1.09,3.88,3.88,0,0,0-1.12,2.7,3.86,3.86,0,0,0,2.09,3.16c1.25,0.7,2.61,1.37,4,2a5.59,5.59,0,0,1,2.92,2.4,5.69,5.69,0,0,1,.53,2.44,6,6,0,0,1-3.52,5.47,8.29,8.29,0,0,1-2.29.47,5.87,5.87,0,0,1-5-2.89,6.38,6.38,0,0,1-.85-3v-0.1h2.06v0a3.77,3.77,0,0,0,2.72,3.62l1,0.12c1.66,0,2.85-.92,3.57-2.76l0.11-1a3.1,3.1,0,0,0-1.66-2.62,23.71,23.71,0,0,0-3.72-1.84,7.06,7.06,0,0,1-3.26-2.48,6.4,6.4,0,0,1-.85-3,5.9,5.9,0,0,1,3.08-5.21,5.6,5.6,0,0,1,2.87-.72q3.33,0,5.2,3.42a5.67,5.67,0,0,1,.53,2.43H-459v0A3.78,3.78,0,0,0-461.73,156.75Z" transform="translate(656.17 -3.97)"/></svg>