<?xml version="1.0" standalone="no"?>
<!DOCTYPE svg PUBLIC "-//W3C//DTD SVG 20010904//EN"
 "http://www.w3.org/TR/2001/REC-SVG-20010904/DTD/svg10.dtd">
<svg version="1.0" xmlns="http://www.w3.org/2000/svg"
 width="700.000000pt" height="700.000000pt" viewBox="0 0 700.000000 700.000000"
 preserveAspectRatio="xMidYMid meet">
<metadata>
Created by potrace 1.11, written by Peter Selinger 2001-2013
</metadata>
<g transform="translate(0.000000,700.000000) scale(0.100000,-0.100000)"
fill="#000000" stroke="none">
<path d="M3265 6994 c-422 -42 -656 -92 -965 -206 -358 -133 -687 -318 -985
-554 -141 -113 -436 -408 -549 -549 -375 -473 -626 -1036 -720 -1615 -34 -208
-41 -312 -41 -570 0 -331 25 -552 96 -835 329 -1324 1393 -2336 2729 -2599
239 -47 386 -60 665 -61 263 0 362 8 590 46 1459 245 2619 1405 2864 2864 38
228 46 327 46 590 -1 279 -14 426 -61 665 -139 705 -483 1338 -1000 1840 -553
537 -1239 866 -2014 966 -118 15 -562 27 -655 18z m583 -790 c606 -79 1143
-344 1578 -778 244 -245 422 -501 560 -805 281 -621 317 -1338 100 -1986 -295
-880 -1034 -1561 -1931 -1780 -773 -188 -1572 -39 -2220 414 -301 210 -578
507 -768 823 -380 631 -489 1392 -302 2105 221 844 849 1541 1670 1853 248 94
511 151 810 174 93 7 385 -4 503 -20z"/>
<path d="M1663 4714 c-71 -46 -78 -69 -77 -229 2 -212 56 -439 135 -571 49
-82 135 -181 209 -241 91 -74 311 -213 465 -294 116 -60 352 -165 413 -184
l22 -6 0 153 c1 431 116 771 348 1033 34 38 59 72 54 76 -53 48 -413 73 -679
47 -243 -24 -439 30 -628 171 -76 57 -109 71 -168 71 -40 0 -63 -6 -94 -26z"/>
<path d="M5165 4726 c-16 -7 -61 -36 -100 -65 -86 -65 -188 -114 -291 -143
-69 -19 -100 -21 -234 -18 -394 8 -563 5 -648 -13 -226 -48 -416 -168 -553
-349 -107 -143 -175 -303 -210 -497 -33 -179 -34 -312 -5 -679 29 -365 31
-472 16 -636 -22 -224 -70 -413 -156 -606 -25 -57 -43 -104 -40 -107 9 -10
156 -43 256 -58 268 -40 563 -24 817 44 l42 12 -43 92 c-79 171 -132 360 -156
557 -7 59 -10 215 -8 411 3 313 3 316 27 350 38 56 86 86 225 140 72 28 176
69 231 91 231 93 586 296 735 421 94 79 178 178 223 265 100 191 162 594 107
706 -28 58 -89 96 -155 96 -27 -1 -63 -7 -80 -14z"/>
</g>
</svg>
