<svg id="Layer_1" data-name="Layer 1" xmlns="http://www.w3.org/2000/svg" viewBox="0 0 398.48 127.29"><defs><style>.cls-1{fill:#fff;}.cls-2,.cls-3{fill:none;stroke-miterlimit:10;stroke-width:1.5px;}.cls-2{stroke:#fff;}.cls-3{stroke:#000;}</style></defs><title>axios-logo</title><path class="cls-1" d="M-166.17,310.13a18.48,18.48,0,0,0-5-5.81,28.66,28.66,0,0,0-7.16-3.88q-4-1.53-8.2-2.9t-8.19-2.87a29.71,29.71,0,0,1-7.16-3.76,18,18,0,0,1-5-5.57,16.17,16.17,0,0,1-1.93-8.26,19.51,19.51,0,0,1,1.44-7.4,18.19,18.19,0,0,1,4.19-6.24,20.42,20.42,0,0,1,6.82-4.31,25.05,25.05,0,0,1,9.33-1.62,25.17,25.17,0,0,1,8.56,1.25,26.07,26.07,0,0,1,5.6,2.72,18.34,18.34,0,0,1,3.3,2.72,3.16,3.16,0,0,0,1.68,1.25,0.87,0.87,0,0,0,.67-0.37l0.25-.37a27.13,27.13,0,0,0-9-6.42,28.28,28.28,0,0,0-11-2A26.61,26.61,0,0,0-197,258a21.61,21.61,0,0,0-7.25,4.59,19.45,19.45,0,0,0-4.46,6.64,20.67,20.67,0,0,0-1.53,7.86,19.37,19.37,0,0,0,1.25,7.31,16.6,16.6,0,0,0,3.39,5.32,20.48,20.48,0,0,0,5,3.79,47.45,47.45,0,0,0,6.08,2.78q3.24,1.22,6.6,2.23t6.61,2.2a50.44,50.44,0,0,1,6.08,2.69,21,21,0,0,1,5,3.61,15.61,15.61,0,0,1,3.39,5,17.69,17.69,0,0,1,1.25,7,24.69,24.69,0,0,1-1.68,9.11,21.69,21.69,0,0,1-4.89,7.49,23.57,23.57,0,0,1-7.83,5.11,27.58,27.58,0,0,1-10.55,1.9,30.55,30.55,0,0,1-7.19-.76,27.56,27.56,0,0,1-5.6-2,23.08,23.08,0,0,1-4.16-2.54,36.34,36.34,0,0,1-2.94-2.54q-1.22-1.19-1.93-2a2,2,0,0,0-1.07-.76,0.74,0.74,0,0,0-.43.09,2.94,2.94,0,0,0-.31.28l-0.24.24a39.91,39.91,0,0,0,4.59,4.68,25.9,25.9,0,0,0,5.23,3.49,26.74,26.74,0,0,0,6.27,2.2,35.83,35.83,0,0,0,7.77.76,29.78,29.78,0,0,0,11.13-2,24,24,0,0,0,8.26-5.35,23,23,0,0,0,5.14-8,26.81,26.81,0,0,0,1.77-9.82A17.59,17.59,0,0,0-166.17,310.13Z" transform="translate(562.72 -256.15)"/><circle class="cls-2" cx="288.14" cy="44.12" r="42.6"/><line class="cls-2" x1="189.42" y1="1.53" x2="110.85" y2="85.97"/><line class="cls-2" x1="79.22" y1="1.53" x2="0.65" y2="85.97"/><line class="cls-2" x1="110.85" y1="1.53" x2="227.39" y2="126.78"/><line class="cls-2" x1="216.78" y1="1.53" x2="216.78" y2="86"/><path class="cls-3" d="M-514.5,257.68" transform="translate(562.72 -256.15)"/><polyline class="cls-2" points="0.65 86 48.22 1.53 95.8 85.97 48.22 85.97"/><line class="cls-2" x1="290.85" y1="61.25" x2="252.79" y2="20.34"/></svg>