<svg id="Layer_1" data-name="Layer 1" xmlns="http://www.w3.org/2000/svg" viewBox="0 0 316 71.92"><defs><style>.cls-1{fill:#fff;}</style></defs><title>Venture-logo</title><path class="cls-1" d="M-180.48,62.34a2.8,2.8,0,0,1,2.28.85,3.38,3.38,0,0,1,.71,2.23l-1.54.27a2.49,2.49,0,0,0-.32-1.42,1.27,1.27,0,0,0-1.15-.52,1.25,1.25,0,0,0-.76.21,1.49,1.49,0,0,0-.46.53,2.3,2.3,0,0,0-.22.71A5.23,5.23,0,0,0-182,66v6.81a3.93,3.93,0,0,0,.06.63,1.83,1.83,0,0,0,.22.62,1.44,1.44,0,0,0,.45.47,1.27,1.27,0,0,0,.75.2,1.32,1.32,0,0,0,1.11-.47,2.48,2.48,0,0,0,.38-1.47l1.57,0.27a3.38,3.38,0,0,1-.79,2.27,2.9,2.9,0,0,1-2.24.81,2.89,2.89,0,0,1-2.29-.85,3.5,3.5,0,0,1-.76-2.41V66.16a7.82,7.82,0,0,1,.13-1.41,3.51,3.51,0,0,1,.46-1.22,2.45,2.45,0,0,1,.93-0.87A3.18,3.18,0,0,1-180.48,62.34Z" transform="translate(432.17 -46.55)"/><path class="cls-1" d="M-170.31,76V69.73h-3.14V76H-175V62.46h1.53V68.4h3.14V62.46h1.54V76h-1.54Z" transform="translate(432.17 -46.55)"/><path class="cls-1" d="M-160.84,76L-162.75,70h-1.45V76h-1.53V62.46h3a2.94,2.94,0,0,1,2.42,1,4.51,4.51,0,0,1,.78,2.89,5.61,5.61,0,0,1-.35,2.06,2.55,2.55,0,0,1-1.39,1.38l2,6.23h-1.56Zm-0.28-9.66a5.78,5.78,0,0,0-.08-1,1.84,1.84,0,0,0-.3-0.77,1.48,1.48,0,0,0-.59-0.5,2.23,2.23,0,0,0-1-.17h-1.16v4.75h1.3a2,2,0,0,0,.87-0.16,1.32,1.32,0,0,0,.55-0.48,2,2,0,0,0,.28-0.74A5.3,5.3,0,0,0-161.11,66.3Z" transform="translate(432.17 -46.55)"/><path class="cls-1" d="M-156.67,76V62.46h1.53V76h-1.53Z" transform="translate(432.17 -46.55)"/><path class="cls-1" d="M-146.05,72.28a6.92,6.92,0,0,1-.17,1.57,3.23,3.23,0,0,1-.54,1.2,2.44,2.44,0,0,1-1,.78,3.62,3.62,0,0,1-1.5.27,3.94,3.94,0,0,1-1.42-.23,2.65,2.65,0,0,1-1-.65,2.61,2.61,0,0,1-.57-1,3.84,3.84,0,0,1-.19-1.22l1.53-.31a3.15,3.15,0,0,0,.08.73,1.72,1.72,0,0,0,.26.61,1.25,1.25,0,0,0,.5.43,1.78,1.78,0,0,0,.79.15,2,2,0,0,0,.92-0.18,1.19,1.19,0,0,0,.5-0.51,2,2,0,0,0,.2-0.75c0-.28,0-0.58,0-0.89a6.65,6.65,0,0,0-.06-1,1.58,1.58,0,0,0-.25-0.66,1.73,1.73,0,0,0-.55-0.49,8.12,8.12,0,0,0-1-.47,7.85,7.85,0,0,1-1.52-.82,3.65,3.65,0,0,1-.88-0.87,2.5,2.5,0,0,1-.41-1,6,6,0,0,1-.1-1.13,5,5,0,0,1,.19-1.42,3.17,3.17,0,0,1,.59-1.13,2.65,2.65,0,0,1,1-.74,3.48,3.48,0,0,1,1.4-.26,3.53,3.53,0,0,1,1.47.27,2.64,2.64,0,0,1,1,.71,2.62,2.62,0,0,1,.5,1,3.79,3.79,0,0,1,.15,1l-1.54.39a2.31,2.31,0,0,0-.37-1.41,1.46,1.46,0,0,0-1.26-.49A1.47,1.47,0,0,0-150,64a1.45,1.45,0,0,0-.47.49,1.89,1.89,0,0,0-.23.67,4.57,4.57,0,0,0-.06.72,5,5,0,0,0,0,.75,1.29,1.29,0,0,0,.26.6,2.46,2.46,0,0,0,.63.55,6.4,6.4,0,0,0,1.18.56,6.41,6.41,0,0,1,1.39.73,2.82,2.82,0,0,1,.79.85,2.8,2.8,0,0,1,.35,1A10.08,10.08,0,0,1-146.05,72.28Z" transform="translate(432.17 -46.55)"/><path class="cls-1" d="M-140.58,63.87V76h-1.53V63.87h-2.29V62.46h6.11v1.42h-2.29Z" transform="translate(432.17 -46.55)"/><path class="cls-1" d="M-136.18,76V62.46h1.53V76h-1.53Z" transform="translate(432.17 -46.55)"/><path class="cls-1" d="M-126.61,76l-0.62-3h-3l-0.6,3h-1.48l2.87-13.51H-128L-125.1,76h-1.51Zm-2.17-10.73-0.56,3.14L-130,71.54h2.49l-0.66-3.2-0.54-3.1h-0.08Z" transform="translate(432.17 -46.55)"/><path class="cls-1" d="M-121.43,66.73V76H-123V62.46h1.46l2.79,6.85,0.93,2.47,0.08,0v-9.3h1.53V76h-1.44l-2.8-6.79-1-2.44h-0.06Z" transform="translate(432.17 -46.55)"/><path class="cls-1" d="M-180.48,82.69a2.79,2.79,0,0,1,2.28.85,3.38,3.38,0,0,1,.71,2.23l-1.54.27a2.49,2.49,0,0,0-.32-1.42,1.27,1.27,0,0,0-1.15-.52,1.25,1.25,0,0,0-.76.21,1.51,1.51,0,0,0-.46.53,2.31,2.31,0,0,0-.22.71,5.25,5.25,0,0,0-.06.74v6.81a3.9,3.9,0,0,0,.06.63,1.84,1.84,0,0,0,.22.62,1.5,1.5,0,0,0,.45.48,1.28,1.28,0,0,0,.75.19,1.31,1.31,0,0,0,1.11-.47A2.48,2.48,0,0,0-179,93.1l1.57,0.27a3.39,3.39,0,0,1-.79,2.27,2.9,2.9,0,0,1-2.24.81,2.9,2.9,0,0,1-2.29-.85,3.5,3.5,0,0,1-.76-2.41V86.52a7.8,7.8,0,0,1,.13-1.41,3.53,3.53,0,0,1,.46-1.23A2.48,2.48,0,0,1-182,83,3.19,3.19,0,0,1-180.48,82.69Z" transform="translate(432.17 -46.55)"/><path class="cls-1" d="M-170.31,96.32V90.09h-3.14v6.23H-175V82.81h1.53v5.94h3.14V82.81h1.54v13.5h-1.54Z" transform="translate(432.17 -46.55)"/><path class="cls-1" d="M-159.58,82.83v9.86a4.75,4.75,0,0,1-.7,2.78,2.75,2.75,0,0,1-2.41,1,2.86,2.86,0,0,1-2.39-.91,3.79,3.79,0,0,1-.72-2.41V82.83h1.53V93.14a3.51,3.51,0,0,0,.06.62,1.83,1.83,0,0,0,.23.62,1.41,1.41,0,0,0,.47.47,1.49,1.49,0,0,0,.79.19,1.47,1.47,0,0,0,.79-0.19,1.43,1.43,0,0,0,.49-0.49,2.1,2.1,0,0,0,.24-0.69,4.45,4.45,0,0,0,.07-0.8v-10h1.53Z" transform="translate(432.17 -46.55)"/><path class="cls-1" d="M-151.72,96.32l-1.91-5.92h-1.45v5.92h-1.53V82.81h3a2.94,2.94,0,0,1,2.42,1,4.52,4.52,0,0,1,.77,2.89,5.62,5.62,0,0,1-.35,2.06,2.54,2.54,0,0,1-1.39,1.38l2,6.23h-1.56ZM-152,86.65a5.9,5.9,0,0,0-.08-1,1.92,1.92,0,0,0-.3-0.77A1.46,1.46,0,0,0-153,84.4a2.18,2.18,0,0,0-1-.18h-1.16V89h1.3a2,2,0,0,0,.87-0.16,1.33,1.33,0,0,0,.56-0.48,2,2,0,0,0,.28-0.74A5.43,5.43,0,0,0-152,86.65Z" transform="translate(432.17 -46.55)"/><path class="cls-1" d="M-144.68,82.69a2.79,2.79,0,0,1,2.28.85,3.38,3.38,0,0,1,.71,2.23l-1.53.27a2.47,2.47,0,0,0-.32-1.42,1.26,1.26,0,0,0-1.15-.52,1.25,1.25,0,0,0-.76.21,1.52,1.52,0,0,0-.46.53,2.33,2.33,0,0,0-.22.71,5.25,5.25,0,0,0-.06.74v6.81a3.9,3.9,0,0,0,.06.63,1.86,1.86,0,0,0,.22.62,1.55,1.55,0,0,0,.45.48,1.29,1.29,0,0,0,.75.19,1.31,1.31,0,0,0,1.11-.47,2.51,2.51,0,0,0,.38-1.47l1.57,0.27a3.38,3.38,0,0,1-.79,2.27,2.89,2.89,0,0,1-2.24.81A2.9,2.9,0,0,1-147,95.6a3.5,3.5,0,0,1-.76-2.41V86.52a7.71,7.71,0,0,1,.13-1.41,3.5,3.5,0,0,1,.46-1.23,2.51,2.51,0,0,1,.93-0.86A3.2,3.2,0,0,1-144.68,82.69Z" transform="translate(432.17 -46.55)"/><path class="cls-1" d="M-134.51,96.32V90.09h-3.15v6.23h-1.53V82.81h1.53v5.94h3.15V82.81H-133v13.5h-1.53Z" transform="translate(432.17 -46.55)"/><rect class="cls-1" x="233.58" width="2.04" height="71.92"/><path class="cls-1" d="M-340.13,96h2.75V62.48h-8.38v17l-0.43-.42L-363.3,62.34h-2.8V96h8.48V78.92l0.43,0.42Z" transform="translate(432.17 -46.55)"/><path class="cls-1" d="M-306.84,62.48h-24.74v7.26h8.35V96h8.09V69.75h8.3V62.48Z" transform="translate(432.17 -46.55)"/><path class="cls-1" d="M-215.17,82.28V75.06h-11.56V69.75h12.58V62.48h-20.71V96h21.15V88.75h-13V82.28h11.56Z" transform="translate(432.17 -46.55)"/><path class="cls-1" d="M-374.57,82.28V75.06h-11.56V69.75h12.58V62.48h-20.71V96h21.15V88.75h-13V82.28h11.56Z" transform="translate(432.17 -46.55)"/><path class="cls-1" d="M-246.39,84.11l0.2-.14a12,12,0,0,0,4.37-13.44c-1.53-5-5.8-8-11.42-8h-14.65V96h8.19V69.75h2.3c1.39,0,2.8,0,4.17,0,2.67,0,3.88,2.31,3.87,4.42s-1.35,4.48-3.88,4.48H-259l1.83,3.14,0.6,1,1.83,3.14,0,0.08L-249,96h9.31V95Z" transform="translate(432.17 -46.55)"/><path class="cls-1" d="M-274.89,62.48h-8.35V84.76c0,2.9-2.11,4.38-4.79,4.38s-4.79-1.48-4.79-4.38V62.48h-8.36V84.91c0,7.58,6.62,11.55,13.15,11.55s13.15-4,13.15-11.55V62.48Z" transform="translate(432.17 -46.55)"/><polygon class="cls-1" points="33.55 15.94 25.11 15.94 24.92 15.94 17.15 35.51 16.57 35.51 8.8 15.94 8.6 15.94 0.16 15.94 0 15.94 0 16.95 14.48 49.81 14.49 49.81 19.22 49.81 19.24 49.81 33.72 16.95 33.72 15.94 33.55 15.94"/></svg>