<svg id="Layer_1" data-name="Layer 1" xmlns="http://www.w3.org/2000/svg" xmlns:xlink="http://www.w3.org/1999/xlink" viewBox="0 0 727.59 347.93"><defs><style>.cls-1{fill:none;}.cls-2{clip-path:url(#clip-path);}.cls-3{fill:#fff;}.cls-4{clip-path:url(#clip-path-2);}.cls-5{opacity:0.7;}.cls-6{clip-path:url(#clip-path-3);}.cls-7{clip-path:url(#clip-path-4);}.cls-8{clip-path:url(#clip-path-5);}.cls-9{clip-path:url(#clip-path-6);}.cls-10{opacity:0.85;}.cls-11{clip-path:url(#clip-path-7);}.cls-12{opacity:0.4;}.cls-13{clip-path:url(#clip-path-8);}.cls-14{clip-path:url(#clip-path-9);}.cls-15{opacity:0.55;}.cls-16{clip-path:url(#clip-path-10);}</style><clipPath id="clip-path" transform="translate(1124 -347.83)"><rect class="cls-1" x="-1124" y="347.83" width="727.59" height="347.93"/></clipPath><clipPath id="clip-path-2" transform="translate(1124 -347.83)"><rect class="cls-1" x="-1124" y="347.84" width="727.58" height="347.93"/></clipPath><clipPath id="clip-path-3" transform="translate(1124 -347.83)"><rect class="cls-1" x="-725.43" y="599.47" width="166.16" height="102.07"/></clipPath><clipPath id="clip-path-4" transform="translate(1124 -347.83)"><rect class="cls-1" x="-647.68" y="599.47" width="157.02" height="102.07"/></clipPath><clipPath id="clip-path-5" transform="translate(1124 -347.83)"><rect class="cls-1" x="-581.73" y="598.61" width="169.04" height="103.8"/></clipPath><clipPath id="clip-path-6" transform="translate(1124 -347.83)"><rect class="cls-1" x="-501.38" y="599.47" width="164.72" height="102.07"/></clipPath><clipPath id="clip-path-7" transform="translate(1124 -347.83)"><rect class="cls-1" x="-819.71" y="429.72" width="223.25" height="162.14"/></clipPath><clipPath id="clip-path-8" transform="translate(1124 -347.83)"><rect class="cls-1" x="-857.94" y="351.73" width="195.99" height="111.77"/></clipPath><clipPath id="clip-path-9" transform="translate(1124 -347.83)"><rect class="cls-1" x="-923.45" y="301.36" width="223.25" height="162.14"/></clipPath><clipPath id="clip-path-10" transform="translate(1124 -347.83)"><rect class="cls-1" x="-819.71" y="301.36" width="223.24" height="162.14"/></clipPath></defs><title>Venado-logo</title><g class="cls-2"><polygon class="cls-3" points="43.34 298.12 28.22 333.11 13.03 298.12 0 298.12 21.67 347.07 34.63 347.07 56.38 298.12 43.34 298.12"/><polygon class="cls-3" points="85.1 298.12 85.1 347.07 122.61 347.07 122.61 336.13 96.9 336.13 96.9 327.7 118.36 327.7 118.36 317.48 96.9 317.48 96.9 309.06 122.61 309.06 122.61 298.12 85.1 298.12"/><polygon class="cls-3" points="188.27 298.12 188.27 327.99 163.5 298.12 151.63 298.12 151.63 347.07 163.5 347.07 163.5 317.12 188.27 347.07 200.15 347.07 200.15 298.12 188.27 298.12"/><path class="cls-3" d="M-870.07,659.34l7.63,18.29h-15.41Zm-6.7-13.39-20.95,49h12.53l3.23-7.64h23.62l3.17,7.64h12.6l-21-49h-13.17Z" transform="translate(1124 -347.83)"/><g class="cls-4"><path class="cls-3" d="M-804.05,684h9.87c8.21,0,13.89-5.4,13.89-13.6,0-8.78-5.54-13.46-13.89-13.46h-9.87V684Zm35.71-13.6c0,14.25-10.58,24.55-25.84,24.55h-21.67V646l21.67-.07c16.12-.07,25.84,10.29,25.84,24.4" transform="translate(1124 -347.83)"/><path class="cls-3" d="M-730.83,670.42a14.41,14.41,0,0,0,14.47,14.4A14.38,14.38,0,0,0-702,670.42a14.36,14.36,0,0,0-14.33-14.33,14.39,14.39,0,0,0-14.47,14.33m39.74,0a25.36,25.36,0,0,1-25.27,25.34,25.27,25.27,0,0,1-25.27-25.34,25.32,25.32,0,0,1,25.27-25.34,25.41,25.41,0,0,1,25.27,25.34" transform="translate(1124 -347.83)"/><g class="cls-5"><g class="cls-6"><polygon class="cls-3" points="504.98 298.12 458.33 298.12 458.33 309.06 475.68 309.06 475.68 347.07 487.63 347.07 487.63 309.06 504.98 309.06 504.98 298.12"/></g></g><g class="cls-5"><g class="cls-7"><polygon class="cls-3" points="573.59 298.12 536.08 298.12 536.08 347.07 573.59 347.07 573.59 336.13 547.89 336.13 547.89 327.7 569.34 327.7 569.34 317.48 547.89 317.48 547.89 309.06 573.59 309.06 573.59 298.12"/></g></g><g class="cls-5"><g class="cls-8"><path class="cls-3" d="M-495.48,645.08c-15.34,0-26.49,11.37-26.49,25,0,14.47,11.15,25.69,26.49,25.69A26.25,26.25,0,0,0-472.59,683l-10-5.76a14.23,14.23,0,0,1-12.89,7.42A14.42,14.42,0,0,1-510,670.07c0-8.07,6-14.33,14.54-14.33,6.19,0,10.73,2.95,13,7.42l10-5.83c-4.4-7.34-12.6-12.24-23-12.24" transform="translate(1124 -347.83)"/></g></g><g class="cls-5"><g class="cls-9"><polygon class="cls-3" points="727.59 298.12 715.71 298.12 715.71 317.12 694.18 317.12 694.18 298.12 682.38 298.12 682.38 347.07 694.18 347.07 694.18 328.06 715.71 328.06 715.71 347.07 727.59 347.07 727.59 298.12"/></g></g><g class="cls-10"><g class="cls-11"><path class="cls-3" d="M-656.22,476.19h-65.49L-760,534.85l32.83,50.37,65.48-100.45c1.95-2.78,3.74-5.65,5.42-8.56" transform="translate(1124 -347.83)"/></g></g><path class="cls-3" d="M-798.14,476.19l-65.5-.06c1.69,2.91,3.47,5.78,5.42,8.57l65.39,100.51,65.66,0.06L-760,534.88Z" transform="translate(1124 -347.83)"/><g class="cls-12"><g class="cls-13"><polygon class="cls-3" points="364.05 50.37 325.81 109.02 402.29 109.02 364.05 50.37"/></g></g><g class="cls-5"><g class="cls-14"><path class="cls-3" d="M-792.79,347.83l-65.48,100.46c-1.95,2.78-3.74,5.65-5.42,8.56h65.5L-760,398.2h0Z" transform="translate(1124 -347.83)"/></g></g><g class="cls-15"><g class="cls-16"><polygon class="cls-3" points="396.88 0 364.05 50.37 402.29 109.02 467.78 109.02 396.88 0"/></g></g></g></g></svg>