<svg id="Layer_1" data-name="Layer 1" xmlns="http://www.w3.org/2000/svg" viewBox="0 0 421.51 421.51"><defs><style>.cls-1{fill:#7c7c7c;}</style></defs><title>blu20-logo</title><path class="cls-1" d="M216.37,4.31C100.16,4.31,5.62,98.86,5.62,215.07a210.78,210.78,0,0,0,3.66,39q1.16,6.17,2.69,12.26c0.35,1.39.68,2.78,1.06,4.16,0.24,0.89.5,1.77,0.76,2.64l0.32,1.09c1.16,4,2.25,7.39,3.34,10.5,0.16,0.46.33,0.92,0.5,1.38L18.29,287a210.41,210.41,0,0,0,20.29,41.15c0.64,1,1.29,2,1.95,3,0.3,0.45.59,0.92,0.9,1.37q1.75,2.59,3.57,5.14c0.65,0.91,1.33,1.81,2,2.71l0.26,0.35,0.15,0.2a210.51,210.51,0,0,0,337.94,0l0.79-1.08c0.74-1,1.48-2,2.21-3q1.51-2.13,3-4.32c0.48-.71.94-1.44,1.41-2.16,0.66-1,1.32-2,2-3A210.54,210.54,0,0,0,414.46,287l0.26-.71c0.14-.36.27-0.73,0.4-1.09,1.16-3.28,2.31-6.86,3.5-10.95l0.33-1.09c0.21-.7.42-1.4,0.62-2.11,0.43-1.56.82-3.13,1.21-4.7q1.53-6.09,2.68-12.26a211,211,0,0,0,3.66-39C427.13,98.86,332.58,4.31,216.37,4.31Zm0,403.54a191,191,0,0,1-147.53-69,109.47,109.47,0,0,0,13.61-9.1,109.6,109.6,0,0,0,135.57,0,109.59,109.59,0,0,0,135.57,0A110,110,0,0,0,365,337.52C328.19,382.29,274.56,407.85,216.37,407.85ZM394.57,288.54a193.15,193.15,0,0,1-15.11,29.22q-1.45,2.29-3,4.54l-0.64.93q-1.05,1.55-2.13,3.08a97.08,97.08,0,0,1-11.76-8c-1.23-1-2.43-2-3.72-3.12a9.09,9.09,0,0,0-.8-0.69,1.64,1.64,0,0,0-.25-0.17,6.18,6.18,0,0,0-3.53-1.12A7.21,7.21,0,0,0,349.2,315c-1.3,1.15-2.61,2.27-4,3.35a95.35,95.35,0,0,1-118.83,0c-1.23-1-2.44-2-3.46-2.88a6.41,6.41,0,0,0-8-1.37,1.5,1.5,0,0,0-.69.34l-0.73.64-0.27.24c-1.18,1-2.39,2.05-3.62,3a95.36,95.36,0,0,1-118.83,0c-1.23-1-2.43-2-3.6-3a8.47,8.47,0,0,0-.91-0.79,1.34,1.34,0,0,0-.24-0.17,6.32,6.32,0,0,0-6.88-.17,1.48,1.48,0,0,0-.6.32l-0.9.79c-1.18,1-2.38,2.05-3.61,3A97.33,97.33,0,0,1,60,327.64c-0.75-1-1.46-2.1-2.19-3.15-0.51-.74-1-1.46-1.54-2.21-0.8-1.19-1.6-2.38-2.37-3.59a192.94,192.94,0,0,1-15.69-30.16l-0.17-.4a109.21,109.21,0,0,0,110.57-14.7,109.57,109.57,0,0,0,135.57,0,109.19,109.19,0,0,0,110.58,14.7Zm-200-50.85A57.47,57.47,0,0,0,185,233c-22.86-8.22-84.25-35.44-93.76-62.28,0-.14-0.1-0.29-0.15-0.4a106.16,106.16,0,0,1-5.8-45.38A75.67,75.67,0,0,0,141.42,149a89.25,89.25,0,0,0,14.38-1.19c1.34-.16,28.22-3.12,48.2,5-6.88,7.76-10.36,17.48-10.36,28.93Zm13.32-56c0-8.56,2.86-15.65,8.51-21.09,5.63,5.42,8.48,12.47,8.48,21l-1.65,100.91c-2.27.16-4.55,0.28-6.85,0.28s-4.58-.12-6.85-0.28Zm20.88-28.82c19.61-8,46-5.27,48.11-5A89.53,89.53,0,0,0,291.33,149a75.67,75.67,0,0,0,56.15-24.1,106,106,0,0,1-5.8,45.38l-0.15.37c-9.51,26.84-71,54.11-93.9,62.36a56.25,56.25,0,0,0-9.45,4.61l0.91-56C239.11,170.3,235.63,160.62,228.76,152.87ZM402.88,263.78q-0.66,2.55-1.39,5.08a95.31,95.31,0,0,1-109-6.86c-1.23-1-2.43-2-3.45-2.88a6.41,6.41,0,0,0-8-1.37,1.53,1.53,0,0,0-.69.35l-0.74.65-0.26.22c-1.18,1-2.39,2.06-3.61,3a94.77,94.77,0,0,1-38.29,18.36l0.4-24.25a37.83,37.83,0,0,1,14.69-9.7c3.61-1.3,88.47-32.25,102.3-70.74,1.12-2.73,10.78-27.58,5.92-59a6.29,6.29,0,0,0-.15-0.72c-1.33-5.1-4.94-10.55-11.08-10.55-4.4,0-8.22,2.87-11.24,8.34-1.71,2.16-17.57,21.05-47,21.05a76.91,76.91,0,0,1-12.56-1.08,133.05,133.05,0,0,0-15-.76c-19.58,0-35.52,3.39-47.41,10.08C204.49,136.36,188.54,133,169,133a134.64,134.64,0,0,0-15,.75l-0.31,0a74.86,74.86,0,0,1-12.27,1c-29.61,0-45.3-18.89-46.87-20.84-3.15-5.67-7-8.55-11.37-8.55-6.14,0-9.75,5.45-11.09,10.55a6,6,0,0,0-.15.72c-4.86,31.41,4.81,56.25,5.9,58.92,13.89,38.68,98.62,69.47,102.2,70.76a38.08,38.08,0,0,1,14.81,9.78l0.4,24.22A94.76,94.76,0,0,1,157,262c-1.23-1-2.43-2-3.6-3a8.58,8.58,0,0,0-.88-0.77,1.45,1.45,0,0,0-.3-0.2,6.87,6.87,0,0,0-6.46-.36,1.51,1.51,0,0,0-.8.36l-0.66.58c-0.13.11-.25,0.21-0.43,0.38-1.18,1-2.38,2-3.61,3a95.29,95.29,0,0,1-109,6.86q-0.72-2.53-1.38-5.08a192.33,192.33,0,0,1-6.28-48.71c0-106.3,86.48-192.78,192.78-192.78s192.79,86.48,192.79,192.78A192.38,192.38,0,0,1,402.88,263.78Z" transform="translate(-5.62 -4.31)"/></svg>