<?xml version="1.0" encoding="utf-8"?>
<!-- Generator: Adobe Illustrator 17.1.0, SVG Export Plug-In . SVG Version: 6.00 Build 0)  -->
<!DOCTYPE svg PUBLIC "-//W3C//DTD SVG 1.1//EN" "http://www.w3.org/Graphics/SVG/1.1/DTD/svg11.dtd">
<svg version="1.1" id="Layer_1" xmlns="http://www.w3.org/2000/svg" xmlns:xlink="http://www.w3.org/1999/xlink" x="0px" y="0px"
	 viewBox="15.7 104 1575.7 582.9" enable-background="new 15.7 104 1575.7 582.9" xml:space="preserve">
<title>blu20-logo</title>
<g>
	<path fill="#00ADEE" d="M307.1,104C146.4,104,15.7,234.7,15.7,395.4s130.7,291.4,291.4,291.4s291.4-130.7,291.4-291.4
		S467.8,104,307.1,104z M307.1,622.6C181.9,622.6,80,520.7,80,395.4s101.9-227.2,227.2-227.2s227.2,101.9,227.2,227.2
		S432.4,622.6,307.1,622.6z"/>
</g>
<g>
	<path fill="none" d="M1292.8,340.1c0-2.5-0.3-4.9-0.8-7.2c0,0.1,0.7,3.3,0.8,8.2C1292.8,340.8,1292.8,340.4,1292.8,340.1z"/>
	<path fill="#FFF21F" d="M1292,332.9L1292,332.9C1292,332.9,1292,332.9,1292,332.9C1292,332.9,1292,332.9,1292,332.9z"/>
	<g>
		<path fill="#00ADEE" d="M864.4,371.7c-20.3-21.9-45.3-33-74.3-33c-13.4,0-26.1,2.6-37.9,7.6c-7.8,3.4-15.3,7.8-22.3,13.4V263
			h-64.5v303.1h64.5v-15c7.5,5.8,15.1,10.3,22.6,13.4c11.1,4.6,23.3,6.9,36.1,6.9c28.8,0,53.9-11.3,74.9-33.5
			c20.8-22.1,31.4-49.9,31.4-82.6C894.8,421.7,884.6,393.5,864.4,371.7z M830.1,454.9c0,16.7-4.9,29.9-14.8,40.6
			c-9.9,10.5-21.7,15.6-36.2,15.6c-15,0-27-5-36.9-15.4c-9.9-10.4-14.7-23.8-14.7-41c0-16.8,4.8-29.9,14.7-40.1
			c9.8-10.2,21.9-15.1,36.9-15.1c14.8,0,26.8,5,36.4,15.3C825.4,425.3,830.1,438.4,830.1,454.9z"/>
		<rect x="916.1" y="263" fill="#00ADEE" width="64.9" height="303.1"/>
		<path fill="#5E5E5E" d="M1150.3,339.3c0,0.5-0.1,0.9-0.2,1.4l0.2,0.1V339.3z"/>
		<polygon fill="none" points="1216.9,345.6 1198.5,335.8 1216.9,345.6 1216.9,345.6 		"/>
		<path fill="none" d="M1241.5,308.7c0.6-0.2,1.3-0.5,1.9-0.7C1242.8,308.2,1242.1,308.5,1241.5,308.7z"/>
		<path fill="#00ADEE" d="M1243.4,308c0.1,0,0.1,0,0.2-0.1l0,0C1243.6,307.9,1243.5,308,1243.4,308z"/>
		<path fill="none" d="M1219.2,415.2h-11.5V427C1211.4,423.2,1215.2,419.2,1219.2,415.2z"/>
		<path fill="#00ADEE" d="M1155.6,345.4l-14.5-7.7v1.6v6.7v20v49v0.2v29.4c0,24.3-1.6,33.9-3,37.7c-2.6,7.1-6.4,12.3-11.7,15.9
			c-5.3,3.6-11.6,5.3-19.4,5.3c-7.7,0-14-1.8-19.1-5.4c-5.1-3.6-8.8-8.6-11.1-15.3c-2.5-7.2-3.8-20.6-3.8-40V332.7h-67.3v96.1
			c0,35.5,2.2,59.4,6.6,73.2c6.3,20.1,17.5,36.1,33.1,47.4c15.6,11.3,36.2,17.1,61.1,17.1c8.7,0,16.8-0.8,24.4-2.3l0.2-4.7
			c1-25.2,7.5-49.4,19.5-71.9c9.4-17.6,25.7-38.5,49.8-63.8c2.4-2.5,4.8-5,7.3-7.6v-1V415v-20.7v-19.6v-1.6L1155.6,345.4z"/>
	</g>
</g>
<path fill="#3C80C2" d="M286,316.4C286,316.4,286,316.4,286,316.4l-3-1c-0.5-0.2-14.9-5.1-40-4.1l-2.8,0.1c-3.3,0.2-5.7,0.4-7.2,0.6
	c-10.7,1.8-20.9,1.5-30.5-0.8c-1.7-0.4-3.4-0.9-5-1.4c-5.3-1.7-10.4-4-15-6.9c-3.1-1.9-6.1-4-9-6.5c-0.8-0.7-3-2.4-6-3.5
	c-3.6-1.3-7.7-1.2-10.1-0.2c-3.7,0.9-10.5,5.4-10.1,16.2c0,4.7,0.3,9.5,0.8,14.3c0.5,4.1,1.1,8.1,2,12.3c2,9.5,4.4,15.7,4.7,16.3
	c0.1,0.3,1.8,6.3,7.7,14.4c2.2,3.1,4.9,6.2,7.8,9.2c1.5,1.5,3,3,4.8,4.5c5.4,4.7,11.6,9.1,18.2,12.8c27.4,18.3,57.1,28.3,58.2,28.7
	l0.1,0c-0.1-1.5-0.2-3-0.3-4.8C249.8,391,253.5,347.2,286,316.4z"/>
<path fill="#00ADEE" d="M457.5,292.9c-3.4-1.3-7.1-1.3-10.7,0.1c-1.5,0.6-2.7,1.2-3.8,1.9l-0.1-0.1l-2.3,2c-2.5,2.1-5.5,4.2-8.6,6.1
	c-4.8,2.9-9.9,5.2-15.2,6.9c-1.5,0.5-3.1,0.9-4.8,1.3c-9.6,2.3-19,2.7-31.2,0.8c-0.9-0.1-3.3-0.3-6.7-0.5l-2.8-0.1
	c-25.3-1-39.5,3.9-40,4.1l-3.1,1c-3.3,1.2-6.5,2.7-9.8,4.6c-0.5,0.3-0.9,0.5-1.4,0.8l-1,0.6c-39,23.6-43,68.5-41.9,93.1
	c0.2,4.5,0.6,8.1,0.8,10.4l3,39.7v17.8c-0.1,3.2-0.3,8.4-1.1,15.1c-0.8,6.4-2,13.2-3.7,20.2c-0.3,1.5-0.7,2.9-1.1,4.4
	c-2.5,9.1-5.9,17.8-10,25.8l-1.9,3.7l4,1.1c14,3.7,28.5,5.6,43,5.6c14.4,0,28.7-1.9,42.6-5.5l4-1.1l-1.9-3.7
	c-4.2-8.1-7.6-16.8-10.1-25.9c-0.3-1.1-0.6-2.2-0.8-3.2l-0.4-1.5c-1.1-4.5-1.9-8.5-2.5-12c-1.7-10.4-2.1-18.8-2.2-22.9v-36.1
	c0-2.3,0.4-7.8,1.7-10.7l0.5-0.8c1.5-2.4,3.7-4.6,6.4-6.5c2.4-1.5,5.1-2.8,7.8-3.8c0.2-0.1,4.4-1.6,10.7-4.2
	c1.2-0.4,31-10.4,58.1-28.6c6.8-3.8,13-8.2,18.4-12.9c1.6-1.4,3.2-2.9,4.6-4.3c3-3,5.7-6.2,8-9.4c5.9-8.2,7.6-14.2,7.7-14.4
	c0.3-0.7,2.7-6.8,4.7-16.3c0.8-4,1.5-7.9,1.9-11.9c0.6-5.1,0.9-9.9,0.9-14.6C467.5,298.2,460.7,293.6,457.5,292.9z"/>
<path fill="#3C80C2" d="M1578.2,312.3c-9-23.2-21.9-40.7-38.5-52c-16.6-11.4-36.6-17.1-59.3-17.1c-35.3,0-63.2,14.6-83,43.4
	c-17.5,25.7-26.3,67.2-26.3,123.5c0,40.2,4.5,71.7,13.4,93.7c9,22.4,21.8,39.3,37.9,50.4c16.1,11.1,36.2,16.7,59.7,16.7
	c23.5,0,43.3-5.6,58.9-16.7c15.6-11,28.1-28.4,37.1-51.6c8.9-22.8,13.5-55,13.5-95.5C1591.4,366.9,1587,335,1578.2,312.3z
	 M1523.9,407.7c0,37.9-4.7,65.2-14,80.9c-7.1,12.2-16.4,18.1-28.2,18.1c-12.5,0-22.4-6.3-30.4-19.3c-8.4-13.6-12.7-39.3-12.7-76.2
	c0-28.7,1.9-50.6,5.7-65.3c3.6-14,8.7-23.9,15.3-29.3c6.5-5.4,13.7-8.1,22.1-8.1c12.1,0,21.9,6.5,29.7,19.9
	C1519.7,342.5,1523.9,369.2,1523.9,407.7z"/>
<path fill="#3C80C2" d="M1254.7,502.1c2-3.1,4.2-6.2,6.8-9.4c4.5-5.4,15.4-16.7,32.6-33.6c11.4-11.2,20.6-20.8,27.4-28.6
	c3.6-4.1,6.6-7.8,8.8-11c2.2-3.1,4.2-6.1,6.1-9.1c6.8-10.7,11.9-21.2,15.2-31.2c4.2-12.9,5.9-26.7,4.9-41
	c-1.8-25.4-12.4-46.9-31.7-63.9c-19.2-17-44.8-25.6-76-25.6c-16.2,0-30.8,2.5-43.7,7.3c-9.7,3.6-18.6,8.5-26.3,14.7
	c-4.6,3.7-8.6,8.1-12.1,13.1v-0.1c-9.2,12.8-13.8,22.2-15.5,26.3l61.5,32.6c0.4-5.2,1.9-16.7,8.4-24.2c0.1-0.1,0.2-0.2,0.3-0.3
	c0.2-0.3,0.5-0.5,0.7-0.8c7.1-7.3,17.6-12,29.3-12c18.7,0,34.3,11.8,38,27.6l0,0c0,0,0,0,0,0c0.5,2.3,0.8,4.7,0.8,7.2
	c0,0.4,0,0.7-0.1,1c0.1,4-0.2,9.1-1.7,15c0,0,0,0,0,0c-1.4,6.6-4,13.3-8,20c-0.7,1.1-1.5,2.3-2.5,3.7c-3.5,4.8-9.1,11.3-16.5,19.3
	c-6.9,7.5-15.4,16.3-25.7,26.5c-5.7,5.7-11.1,11.1-16.1,16.4c-22.1,23.3-37.4,42.8-45.6,58c-10.1,18.9-15.6,39.3-16.4,60.4l-0.1,2.9
	l-0.1,1.7h205.2v-63H1254.7z"/>
</svg>
