<?xml version="1.0" encoding="utf-8"?>
<!-- Generator: Adobe Illustrator 17.1.0, SVG Export Plug-In . SVG Version: 6.00 Build 0)  -->
<!DOCTYPE svg PUBLIC "-//W3C//DTD SVG 1.1//EN" "http://www.w3.org/Graphics/SVG/1.1/DTD/svg11.dtd">
<svg version="1.1" id="Layer_1" xmlns="http://www.w3.org/2000/svg" xmlns:xlink="http://www.w3.org/1999/xlink" x="0px" y="0px"
	 viewBox="15.7 104 582.9 582.9" enable-background="new 15.7 104 582.9 582.9" xml:space="preserve">
<title>blu20-logo</title>
<g>
	<path fill="#00ADEE" d="M307.1,104C146.4,104,15.7,234.7,15.7,395.4s130.7,291.4,291.4,291.4s291.4-130.7,291.4-291.4
		S467.8,104,307.1,104z M307.1,622.6C181.9,622.6,80,520.7,80,395.4s101.9-227.2,227.2-227.2s227.2,101.9,227.2,227.2
		S432.4,622.6,307.1,622.6z"/>
</g>
<path fill="#3C80C2" d="M286,316.4C286,316.4,286,316.4,286,316.4l-3-1c-0.5-0.2-14.9-5.1-40-4.1l-2.8,0.1c-3.3,0.2-5.7,0.4-7.2,0.6
	c-10.7,1.8-20.9,1.5-30.5-0.8c-1.7-0.4-3.4-0.9-5-1.4c-5.3-1.7-10.4-4-15-6.9c-3.1-1.9-6.1-4-9-6.5c-0.8-0.7-3-2.4-6-3.5
	c-3.6-1.3-7.7-1.2-10.1-0.2c-3.7,0.9-10.5,5.4-10.1,16.2c0,4.7,0.3,9.5,0.8,14.3c0.5,4.1,1.1,8.1,2,12.3c2,9.5,4.4,15.7,4.7,16.3
	c0.1,0.3,1.8,6.3,7.7,14.4c2.2,3.1,4.9,6.2,7.8,9.2c1.5,1.5,3,3,4.8,4.5c5.4,4.7,11.6,9.1,18.2,12.8c27.4,18.3,57.1,28.3,58.2,28.7
	l0.1,0c-0.1-1.5-0.2-3-0.3-4.8C249.8,391,253.5,347.2,286,316.4z"/>
<path fill="#00ADEE" d="M457.5,292.9c-3.4-1.3-7.1-1.3-10.7,0.1c-1.5,0.6-2.7,1.2-3.8,1.9l-0.1-0.1l-2.3,2c-2.5,2.1-5.5,4.2-8.6,6.1
	c-4.8,2.9-9.9,5.2-15.2,6.9c-1.5,0.5-3.1,0.9-4.8,1.3c-9.6,2.3-19,2.7-31.2,0.8c-0.9-0.1-3.3-0.3-6.7-0.5l-2.8-0.1
	c-25.3-1-39.5,3.9-40,4.1l-3.1,1c-3.3,1.2-6.5,2.7-9.8,4.6c-0.5,0.3-0.9,0.5-1.4,0.8l-1,0.6c-39,23.6-43,68.5-41.9,93.1
	c0.2,4.5,0.6,8.1,0.8,10.4l3,39.7v17.8c-0.1,3.2-0.3,8.4-1.1,15.1c-0.8,6.4-2,13.2-3.7,20.2c-0.3,1.5-0.7,2.9-1.1,4.4
	c-2.5,9.1-5.9,17.8-10,25.8l-1.9,3.7l4,1.1c14,3.7,28.5,5.6,43,5.6c14.4,0,28.7-1.9,42.6-5.5l4-1.1l-1.9-3.7
	c-4.2-8.1-7.6-16.8-10.1-25.9c-0.3-1.1-0.6-2.2-0.8-3.2l-0.4-1.5c-1.1-4.5-1.9-8.5-2.5-12c-1.7-10.4-2.1-18.8-2.2-22.9v-36.1
	c0-2.3,0.4-7.8,1.7-10.7l0.5-0.8c1.5-2.4,3.7-4.6,6.4-6.5c2.4-1.5,5.1-2.8,7.8-3.8c0.2-0.1,4.4-1.6,10.7-4.2
	c1.2-0.4,31-10.4,58.1-28.6c6.8-3.8,13-8.2,18.4-12.9c1.6-1.4,3.2-2.9,4.6-4.3c3-3,5.7-6.2,8-9.4c5.9-8.2,7.6-14.2,7.7-14.4
	c0.3-0.7,2.7-6.8,4.7-16.3c0.8-4,1.5-7.9,1.9-11.9c0.6-5.1,0.9-9.9,0.9-14.6C467.5,298.2,460.7,293.6,457.5,292.9z"/>
</svg>
