<?xml version="1.0" encoding="utf-8"?>
<!-- Generator: Adobe Illustrator 19.2.0, SVG Export Plug-In . SVG Version: 6.00 Build 0)  -->
<svg version="1.1" id="Layer_1" xmlns="http://www.w3.org/2000/svg" xmlns:xlink="http://www.w3.org/1999/xlink" x="0px" y="0px"
	 viewBox="0 0 84 84" style="enable-background:new 0 0 84 84;" xml:space="preserve">
<style type="text/css">
	.st0{fill:#FFFFFF;}
</style>
<path class="st0" d="M42,84C18.9,84,0,65.2,0,42S18.9,0,42,0s42,18.9,42,42S65.2,84,42,84z M42,5C21.6,5,5,21.6,5,42s16.6,37,37,37
	s37-16.6,37-37S62.4,5,42,5z"/>
<g>
	<path class="st0" d="M34,33.3c0-1.9,1.3-2.6,3-1.7l15.4,8.9c1.6,0.9,1.6,2.5,0,3.4L37,52.9c-1.6,0.9-3,0.2-3-1.7V33.3z"/>
</g>
</svg>
