<?xml version="1.0" encoding="utf-8"?>
<!-- Generator: Adobe Illustrator 20.1.0, SVG Export Plug-In . SVG Version: 6.00 Build 0)  -->
<svg version="1.1" id="Layer_1" xmlns="http://www.w3.org/2000/svg" xmlns:xlink="http://www.w3.org/1999/xlink" x="0px" y="0px"
	 viewBox="0 0 84.1 84.1" style="enable-background:new 0 0 84.1 84.1;" xml:space="preserve">
<style type="text/css">
	.st0{fill:#7C7C7C;}
</style>
<title>pause-btn</title>
<path class="st0" d="M42,84C18.8,84,0,65.2,0,42S18.8,0,42,0s42,18.8,42,42C84,65.2,65.2,84,42,84z M42,5C21.6,5,5,21.6,5,42
	s16.6,37,37,37s37-16.6,37-37C79,21.6,62.4,5,42,5z"/>
<circle class="st0" cx="35.3" cy="50.1" r="3.1"/>
<circle class="st0" cx="35.3" cy="33.9" r="3.1"/>
<rect x="32.2" y="33.9" class="st0" width="6.2" height="16.2"/>
<circle class="st0" cx="48.7" cy="50.1" r="3.1"/>
<circle class="st0" cx="48.7" cy="33.9" r="3.1"/>
<rect x="45.6" y="33.9" class="st0" width="6.2" height="16.2"/>
</svg>
