<svg id="Layer_1" data-name="Layer 1" xmlns="http://www.w3.org/2000/svg" viewBox="0 0 286.37 286.36"><defs><style>.cls-1{fill:#fff;}</style></defs><title>purelove-logo</title><path class="cls-1" d="M-249.55,59.48h133c1.17,0,2.33,0,3.5,0,5.9,0.06,6.21.35,6.21,6.23q0,67.5,0,135,0,68,0,136c0,1.17,0,2.33,0,3.5-0.11,5.19-.48,5.62-5.83,5.62q-39.25,0-78.5,0l-193.5,0c-8.47,0-8.48,0-8.48-8.51q0-135,0-270c0-.17,0-0.33,0-0.5,0-7.29,0-7.3,7.16-7.3h136.5v0Zm134.4,7.83H-385c0,3.28,0,6.24,0,9.2,0,36.79,0,73.57-.76,110.35-0.41,19.32.24,38.63,0.66,57.94,0.22,10.13-.49,20.24-0.12,30.41,0.69,19.31.2,38.65,0.22,58,0,1.28-.53,2.67.48,3.8,1.26,0.8,2.63.53,3.93,0.54,41.64,0.46,83.29-.82,124.91,1.14,7.2,0.34,14.26-1,21.42-1q56.49,0,113-.11c2,0,4,.47,6.15-0.74V67.31Z" transform="translate(393.2 -59.48)"/><path class="cls-1" d="M-212.48,162.45c-1.89,7.64-1.09,15.71-2.17,23.62-0.57,4.11.82,5.26,5.13,5.39,6.15,0.18,12.2,1.77,18.41,1.07,1.76-.2,3.58.34,3.56,2.52,0,2-1.63,2.64-3.47,2.85a53.46,53.46,0,0,1-13.42-.52c-3.61-.48-7.12-1-10.72.76-2.9,1.44-8.25-1.16-9.91-4.21-3.91-7.16-6.94-14.78-11.33-21.69a15.91,15.91,0,0,0-3.23-4.43c-0.17,6-.49,11.37.31,16.77a23.9,23.9,0,0,1,.09,8,3,3,0,0,1-3.11,2.71c-1.64,0-2.12-1.43-2.44-2.75a9.56,9.56,0,0,1-.27-2.48c0.42-18.16-1.86-36.26-1.05-54.43,0.23-5.11,1.44-10.14.1-15.39-0.76-3,2.12-4.32,4.71-4.68,4.14-.57,7.45,1,10,4.42,8.6,11.53,6.18,31.75-5.18,37.92a12,12,0,0,0-1.76,1.55,213.12,213.12,0,0,1,17.89,32.28c1-17.64,2-34.8,2.92-52,0.3-5.82.09-11.66,0.23-17.49,0.16-6.72,1.66-7.68,7.77-5.21,4.55,1.84,9.51,1.38,14.19,2.54,1.65,0.41,3.4.82,3.73,2.8,0.29,1.72-1,2.71-2.28,3.57s-2.16.07-3.28-.29a87.49,87.49,0,0,0-14.67-3c0.35,11.12-.85,21.82-1.32,32.52,4.55,2.06,9.06.65,13.77,1.83C-201.59,165-208.11,160.19-212.48,162.45Zm-28.17-9c7.73-2.37,9.6-11.93,9.07-18.2-0.45-5.41-1.47-11-7.57-13.93C-239.41,132-241.46,142.46-240.64,153.45Z" transform="translate(393.2 -59.48)"/><path class="cls-1" d="M-270.82,219.27c2.92-2.88,4.29-6.49,6.18-9.76s3.56-6.63,8.23-5.85a10.35,10.35,0,0,1,8.8,7.83,38.92,38.92,0,0,1-.47,23.74c-3.66-2.21-5.69-4.47-4.34-8.7a42.31,42.31,0,0,0,1.13-7.39,10.23,10.23,0,0,0-.41-5.42c-0.84-2-1.39-4.32-4-4.72-2.32-.36-3.63,1.44-4.89,3-3.79,4.59-4.63,10.23-5.33,15.87-0.59,4.79-1,9.61-2.69,14.19-0.68,1.88-1.31,3.79-3.59,5.06-2.75-3.24-2.7-7.28-2.9-11.09a61.53,61.53,0,0,0-1.28-11.89,11.81,11.81,0,0,0-4-6.73c-2.31-1.81-4.11-1.76-5.55,1.16a33.18,33.18,0,0,0-3.87,13.34c-0.71,17.52,6.27,33.08,12.37,49.78,12.48-12.57,17.86-27.95,22.79-43.44,5.31,1.73,5.52,2,4.38,6.28a59.38,59.38,0,0,1-5.65,13.85,180.08,180.08,0,0,1-17.35,26.13c-1.83,2.24-3.87,5-7.45,4-3.79-1-4.93-4.4-5.43-7.73-2.09-13.88-6.26-27.25-9.71-40.79a60,60,0,0,1-1.39-16.37c0.12-5,2-9.4,4.14-13.75,1.48-3,3.62-3.5,6.59-2.06a37.81,37.81,0,0,1,10.27,7C-274.6,216.39-273.17,218.29-270.82,219.27Z" transform="translate(393.2 -59.48)"/><path class="cls-1" d="M-255,156.73c-2.24-9.71-.17-19.53-1-29.27a4.5,4.5,0,0,1,1.37-4.07,2.57,2.57,0,0,1,4.34,1.13A3.76,3.76,0,0,1-250,126c-1.12,14.57,1.23,29.2-.77,43.75a59.25,59.25,0,0,1-7,20.67,13.21,13.21,0,0,1-12.63,7.35c-5.2-.07-7.91-3.47-10.43-7.4-3.6-5.62-3.78-12-4.22-18.24-0.47-6.79-.25-13.61-0.92-20.43-0.76-7.83,1.76-15.48,2.19-23.28,0.17-3.15.44-6.3,0.87-9.42,0.2-1.46.78-3.21,2.6-3.18,2.15,0,2.44,1.9,2.55,3.63,0.42,6.19-.41,12.31-1.31,18.38-1.76,12-.69,23.9-0.36,35.85,0.06,2,.43,4,0.55,6a16.45,16.45,0,0,0,3.76,9.61c3.58,4.38,8.26,4.28,11.68-.14,4-5.16,5.8-11.27,6.91-17.48A74.27,74.27,0,0,0-255,156.73Z" transform="translate(393.2 -59.48)"/><path class="cls-1" d="M-230.59,261.06a42.35,42.35,0,0,0,1.17-5.66c1-13.69,5.51-26.64,8.13-40,0.44-2.24.65-5.8,4.16-4.81,3.31,0.94,1.89,4,1.34,6.39-2.93,12.6-6.45,25-8.1,37.94-1.22,9.51-1.56,19.21-4.88,28.38-0.68,1.89-1,4.2-3.53,4.16s-2.86-2.43-3.18-4.37c-0.62-3.77-1.68-7.58-1.53-11.34,0.53-13.51-3.44-26.3-5.67-39.37q-1.59-9.34-3.18-18.68a5.86,5.86,0,0,1,.23-3.43,2.52,2.52,0,0,1,1.72-1.66,2.09,2.09,0,0,1,2.37,1.4,20.06,20.06,0,0,1,1.69,5.71q4,21.81,8.1,43.61A1.85,1.85,0,0,0-230.59,261.06Z" transform="translate(393.2 -59.48)"/><path class="cls-1" d="M-206.68,215c-1.81,2.08-1.67,4.23-1.79,6.12-0.44,7.13-.61,14.26-1.3,21.38-0.44,4.52.2,4.73,4.66,5,2.75,0.14,5.63-.68,8.41.89,0.18,3.35-1.69,4.32-4.57,4.53-2.6.19-5.71-1.14-7.67,0.89s-0.58,5.12-1.07,7.7c-1,5.11-.73,10.28-0.9,15.43-0.1,3.07.95,4.75,4.26,4.59,6.28-.3,12.3,3.26,18.75,1.26,1.37-.42,2.56.65,2.86,2.15a2.6,2.6,0,0,1-1.88,3.1,12,12,0,0,1-6.88.66c-4.27-1-8.64-.48-12.89-1.33a5.16,5.16,0,0,0-4.22.84c-2.64,1.8-3.92.31-4.62-2.22a24.65,24.65,0,0,1-.75-7.43c0.47-14.61.79-29.23,1.94-43.81,0.58-7.29-.32-14.64.91-21.92,0.84-4.94,1.43-5.52,6.08-3.81s9.81,1.8,14.59,3.25c2,0.6,4.34,1,3.45,3.71-0.76,2.35-2.47,2.93-5.17,2C-198.48,216.59-202.75,215.95-206.68,215Z" transform="translate(393.2 -59.48)"/><path class="cls-1" d="M-308.2,172.38c-0.49-14.14,1.1-28.23,1.06-42.37,0-3.47.59-6.94,0.88-10.42,0.24-2.84,1.9-4,4.6-4.22a13.54,13.54,0,0,1,14.88,12.72,49.41,49.41,0,0,1-1.45,13.84c-1.37,6-4.51,10.72-10.38,13.12-2.55,1-3.16,2.74-3.41,5.36-1,10.11-.87,20.25-1,30.38,0,2.43.37,6-2.77,6-3.58,0-2.29-3.78-2.36-6C-308.33,184.69-308.2,178.53-308.2,172.38Zm6.55-22c3.24-1.71,5.49-3.13,6.57-5.67a36.18,36.18,0,0,0,2.73-17c-0.22-3-2.3-4.69-4.7-6-2.14-1.15-3.54-.51-3.74,2-0.22,2.81-.31,5.62-0.67,8.43C-302.2,137.89-302,143.68-301.65,150.35Z" transform="translate(393.2 -59.48)"/><path class="cls-1" d="M-303.89,216.72c-1.17,12.57-2.29,25.15-3.55,37.72-0.79,7.95.16,16-1.26,23.9-0.37,2,.82,3.12,2.93,3a30.61,30.61,0,0,1,7,.05c2.1,0.37,3.49,1.41,3.12,3.67a2.8,2.8,0,0,1-3.74,2.34c-3.69-.91-7.21-0.28-10.85.36-4.46.78-5.67-.78-4.84-5.25a91.44,91.44,0,0,0,1.82-19.82c-0.37-10.2,1-20.26,2.34-30.31a68.25,68.25,0,0,0,.7-9.94,43.88,43.88,0,0,1,1-8.92c0.41-2.1.73-5.14,3.16-5,3.23,0.22,2,3.52,2.24,5.67a17.21,17.21,0,0,1-.1,2.49h0.1Z" transform="translate(393.2 -59.48)"/></svg>