<svg id="Layer_1" data-name="Layer 1" xmlns="http://www.w3.org/2000/svg" viewBox="0 0 549.52 142.72"><defs><style>.cls-1,.cls-2{fill:#fff;}.cls-2{fill-rule:evenodd;}</style></defs><title>marv-logo</title><g id="_Group_" data-name="&lt;Group&gt;"><path id="_Path_" data-name="&lt;Path&gt;" class="cls-1" d="M-780.56,447.68a8.09,8.09,0,0,0,5.56,2.05,8,8,0,0,0,5.5-2.05,7.3,7.3,0,0,0,1.44-1.8l0.09-.17a6.31,6.31,0,0,0,.32-0.73l0.07-.19a6.37,6.37,0,0,0,.22-0.89c0-.08,0-0.16,0-0.24a7,7,0,0,0,.08-1,7.08,7.08,0,0,0-.08-1l0-.2a6.29,6.29,0,0,0-.23-0.93l0-.09a6.13,6.13,0,0,0-.37-0.82l-0.07-.14a6.56,6.56,0,0,0-.56-0.83l0,0,0,0a7.66,7.66,0,0,0-.83-0.88,7.87,7.87,0,0,0-5.5-2.05,8,8,0,0,0-5.56,2.05,6.38,6.38,0,0,0-2.29,5A6.52,6.52,0,0,0-780.56,447.68Z" transform="translate(966.01 -393.21)"/><path id="_Compound_Path_" data-name="&lt;Compound Path&gt;" class="cls-1" d="M-849.8,474.73h6a6.52,6.52,0,0,0,5.35-2.23l18.17-21.93-7.23,18.69a6.24,6.24,0,0,0-.55,2.46c0,2,1.13,3.1,3.36,3.36a8,8,0,0,0,1.13.09,6.9,6.9,0,0,0,5.15-2.6l14.61-16-4.89,12.73a7.28,7.28,0,0,0-.64,2.6q0,2.86,4.95,2.86h10.59c2.81,0,4.92-.58,6.31-1.74,0.61,1.16,1.88,1.74,3.85,1.74h11.63a8.93,8.93,0,0,0,.95-0.05l0.31,0c0.2,0,.4-0.06.6-0.1l0.35-.1,0.53-.16,0.33-.13,0.33-.13,0.35-.17a6,6,0,0,0,2-1.56,7,7,0,0,0,1.07,1.19,8.3,8.3,0,0,0,5.76,2c0.43,0,.84,0,1.25-0.05l0.44-.05,0.74-.1,0.52-.11,0.59-.14,0.56-.18,0.47-.17,0.59-.25,0.36-.18c0.22-.11.43-0.22,0.64-0.35l0.19-.13a10.44,10.44,0,0,0,1.76-1.42c0.2-.2.41-0.42,0.61-0.64-0.06,2.05,1.53,3.07,4.75,3.07h11.23c3.82,0,6.22-1.56,7.21-4.72h-12.15l11-30.82H-739.5l-5.5,15.54h-6.63c-0.37,0-.72,0-1.08,0h-0.07a18.29,18.29,0,0,0-9.56,3.07,11.54,11.54,0,0,0-5.18,10,8.38,8.38,0,0,0,.23,2.14h-9.84l5.44-15.28h-10.68l-5.12,14.32a6,6,0,0,0-.29,1H-798.9l7-18.55a8.38,8.38,0,0,0,.58-2.81,3.72,3.72,0,0,0-1.77-3.36,4,4,0,0,0-2.17-.75,8,8,0,0,0-4,.75,28.62,28.62,0,0,0-3.21,2.92l-11.31,11.37,5.7-14.82a7.86,7.86,0,0,0,.64-2.92,3.55,3.55,0,0,0-1.59-3.15,4,4,0,0,0-2.05-.67,10.39,10.39,0,0,0-5.56,1.36,19.73,19.73,0,0,0-3.7,3.59L-833,457.31l6.34-18.23a9,9,0,0,0,.58-2.78c0-2-1.36-3-4.08-3H-849.8l-4.46,7.44h16.35Zm103.19-15.31L-750.35,470c-1.3,0-2.27,0-3-.08l-0.33,0h-0.12l-0.35-.05c-1.68-.35-2.52-1.19-2.52-2.49a5.81,5.81,0,0,1,.29-1.59l2.26-6.34h7.47Z" transform="translate(966.01 -393.21)"/><path id="_Path_2" data-name="&lt;Path&gt;" class="cls-1" d="M-688.83,494.55a10.3,10.3,0,0,0,5,2.54l0.29,0.06,0.29,0c0.25,0,.5.07,0.75,0.09h0.06c0.32,0,.65,0,1,0h0a10.59,10.59,0,0,0,7.38-2.78,8.65,8.65,0,0,0,3.07-6.71,8.57,8.57,0,0,0-3.07-6.66,10.59,10.59,0,0,0-7.38-2.78h0a10.56,10.56,0,0,0-7.41,2.78,8.57,8.57,0,0,0-3.07,6.66A8.65,8.65,0,0,0-688.83,494.55Z" transform="translate(966.01 -393.21)"/><path id="_Path_3" data-name="&lt;Path&gt;" class="cls-1" d="M-431.79,477.65a10.61,10.61,0,0,0-7.41-2.78,10.75,10.75,0,0,0-7.38,2.75,8.75,8.75,0,0,0-3.07,6.66,8.51,8.51,0,0,0,2.43,6,10.8,10.8,0,0,0,6.11,3.27l-24,29.89,4.08-39.85a7.05,7.05,0,0,0,0-.78,6.43,6.43,0,0,0-2.17-5,7.59,7.59,0,0,0-5.32-1.94h-19l-5.87,9.87h18.17l-4,45.23h10q6.38,0,11.46-6.25l25.2-31a14.9,14.9,0,0,0,3.62-9.55A8.49,8.49,0,0,0-431.79,477.65Z" transform="translate(966.01 -393.21)"/><path id="_Compound_Path_2" data-name="&lt;Compound Path&gt;" class="cls-1" d="M-581.19,504h-22.57q-8.46,0-14.18,4.34a15.42,15.42,0,0,0-6.31,13.05,12.24,12.24,0,0,0,.38,3.15h-28.39c-3.67,0-5.5-1.19-5.5-3.5a6.27,6.27,0,0,1,.41-2l3.07-8.74h4.77v1a6.87,6.87,0,0,0,2.34,5.35,8.08,8.08,0,0,0,5.7,2.2,8.2,8.2,0,0,0,5.7-2.17,6.87,6.87,0,0,0,2.37-5.3,6.72,6.72,0,0,0-2.34-5.21,8.33,8.33,0,0,0-5.73-2.14h-10a25.47,25.47,0,0,0-13.66,3.53,14.36,14.36,0,0,0-7.35,11.05,9.8,9.8,0,0,0-.06,1.3,8.93,8.93,0,0,0,1.19,4.66h-12.93l7.32-20.54h-14.35l-6.89,19.24c-0.14.43-.26,0.87-0.38,1.3h-14.64L-706,504h-21.85l3.33-9.64h-6.39a16.47,16.47,0,0,0-8.39,2.05,7.77,7.77,0,0,0-4.22,7,6.9,6.9,0,0,0,1.53,4.4,6.81,6.81,0,0,0,4,2.46l-5.18,14.24h-27c-3.41,0-5.15-1.07-5.15-3.21a4.56,4.56,0,0,1,.29-1.5l0.35-1h7l0,0h13.11a12,12,0,0,0,1.56-1.24l0.25-.23,0.22-.25c0.18-.19.36-0.38,0.51-0.58l0.11-.16a6.93,6.93,0,0,0,.41-0.59l0-.07c0.11-.19.21-0.39,0.3-0.59s0.11-.2.15-0.3,0.14-.41.21-0.62,0.08-.24.11-0.36,0-.27.07-0.4a6.87,6.87,0,0,0,.11-1.64,6.72,6.72,0,0,0-.12-0.95c0-.08,0-0.15-0.06-0.23A5.93,5.93,0,0,0-751,510l-0.08-.2a5.54,5.54,0,0,0-.33-0.66l-0.11-.18-0.09-.16c-0.06-.09-0.14-0.16-0.2-0.25a6.45,6.45,0,0,0-.42-0.52l-0.34-.34c-0.17-.16-0.35-0.32-0.54-0.47l-0.41-.31c-0.21-.15-0.43-0.28-0.66-0.42l-0.46-.27a14.06,14.06,0,0,0-1.27-.6,23.53,23.53,0,0,0-8.8-1.53h-5.73a24.48,24.48,0,0,0-13.46,3.62q-6.55,4.25-6.57,11.66a10.3,10.3,0,0,0,1.3,5.27H-802l5.09-14.24a9,9,0,0,0,.64-3.15c0-2.81-1.65-4.22-5-4.22a14.44,14.44,0,0,0-9.55,3.67l-11.83,10,2.86-7.87a7.55,7.55,0,0,0,.43-2.26c0-2.37-1.56-3.59-4.69-3.59a15.53,15.53,0,0,0-10.19,3.76l-12.12,10,3.15-9a9.59,9.59,0,0,0,7-6.8h-35.77l11.78-33.19h-22l-27.63,33.19h-8.85a102.67,102.67,0,0,0-12.18.69c-1.73.21-3.42,0.48-5.07,0.78-2,.37-4,0.81-6,1.33-8.94,2.46-15.63,6.19-20,11.29-2.75,3.15-4.11,6.39-4.11,9.69,0,3.91,1.85,6.86,5.53,8.85a22.26,22.26,0,0,0,10.76,2.37c0.85,0,1.7,0,2.55-.1l0.89-.09c0.56-.05,1.12-0.12,1.68-0.2l1.06-.18c0.51-.09,1-0.19,1.52-0.3l1.1-.26c0.51-.13,1-0.27,1.53-0.42l1.06-.32c0.59-.19,1.18-0.4,1.77-0.62l0.8-.29q1.31-.51,2.62-1.12l0.27-.13c0.67-.32,1.34-0.64,2-1l0.43-.23,0.33-.18c0.83-.45,1.66-0.93,2.49-1.44l0.48-.31q1-.6,1.91-1.25l0.8-.54c0.67-.47,1.34-1,2-1.46l1-.8q1-.74,1.91-1.53l1.11-.95L-917,521q0.79-.71,1.58-1.45l1.33-1.27,1.09-1.06c0.66-.65,1.31-1.33,2-2l1-1q1.06-1.13,2.12-2.32l0.71-.82c0.81-.93,1.62-1.87,2.43-2.84h14l-8.59,23.73H-883l8.59-23.73h14.15a26.68,26.68,0,0,1-1,4.95c-2.29,6.42-3.5,14.5-4,17.42v0.32h7.73a7.48,7.48,0,0,0,5-1.71l15.71-13.11-3.15,8.51a7.63,7.63,0,0,0-.58,2.84c0,2.69,1.77,4,5.35,4,2.4,0,5.3-1.39,8.68-4.2l13.34-11.17c-1.16,3.73-2,6.54-2.6,8.51a4.41,4.41,0,0,0-.17,1.22,4.87,4.87,0,0,0,1.59,3.53,5,5,0,0,0,3.53,1.56h16c3.94,0,6.63-1.19,8-3.62q4.73,3.65,15.45,3.62h2.63l8.95,0,10.44,0c2.29,0,5.35,0,9.35,0,2.89,0.06,5.27-8.1,5.67-9.14l4.4-11.34h8.42l-4.49,12.85a8.1,8.1,0,0,0-.49,2.72c0,3.33,2,5,6,5h15.13a10.54,10.54,0,0,0,5.61-1.65,8,8,0,0,0,1.33-1c0.69,1.79,2.46,2.66,5.3,2.66h15.6a10.79,10.79,0,0,0,5.06-1.19,8.35,8.35,0,0,0,3.15-2.75,13.13,13.13,0,0,0,2.58,1.65,25.41,25.41,0,0,0,11.4,2.29h23.81a11.18,11.18,0,0,0,5.87-1.53,8.13,8.13,0,0,0,2.63-2.52,9.18,9.18,0,0,0,1.53,2,10.35,10.35,0,0,0,7.52,2.86,15,15,0,0,0,1.5-.08c0.37,0,.73-0.1,1.1-0.17l0.33-.05a13.23,13.23,0,0,0,6.2-3.17l0.11-.1c0.26-.24.52-0.49,0.77-0.76l0.29-.29a2.89,2.89,0,0,1,.29-0.32c0,2.75,2.14,4.11,6.39,4.11h15c5.21,0,8.42-2.11,9.69-6.31h-16.41Zm-190.66,6.31h8.33l-2.81,5.61h-7.44ZM-940,513.13a18.85,18.85,0,0,1,4.09-2.15l0,0q0.56-.22,1.16-0.42l0.22-.07,1-.32,0.51-.14,0.8-.21,1-.23,0.35-.08,1.35-.26,0.21,0,1.42-.23,0.23,0,1.44-.19,0.3,0,1.43-.14,0.39,0,1.4-.11,0.5,0,1.38-.07,0.6,0,1.42,0,0.63,0,2.12,0a52.15,52.15,0,0,1-11.46,11.17c-0.61.46-1.2,0.88-1.79,1.28-0.34.24-.67,0.45-1,0.67l-0.93.6-0.76.46L-933,523l-0.65.36c-0.44.23-.88,0.45-1.31,0.65l-0.33.16c-0.53.24-1,.44-1.54,0.62l-0.49.16c-0.35.12-.69,0.22-1,0.31l-0.52.13c-0.33.08-.65,0.14-1,0.19l-0.44.07a11.12,11.12,0,0,1-1.32.09c-2.75,0-4.11-1.3-4.11-3.91C-945.7,518.77-943.79,515.88-940,513.13Zm51.48-12.21h-10.19l20-25.61Zm285.8,23.67-0.84,0c-0.48,0-.93-0.05-1.35-0.1H-605c-0.39,0-.75-0.1-1.09-0.18l-0.18,0a8,8,0,0,1-.81-0.23l-0.27-.11a5.16,5.16,0,0,1-.56-0.26c-0.11-.06-0.21-0.14-0.31-0.2a3.47,3.47,0,0,1-.36-0.26,2.76,2.76,0,0,1-.29-0.32,2.64,2.64,0,0,1-.2-0.25,2.5,2.5,0,0,1-.21-0.46c0-.07-0.07-0.14-0.09-0.22a3,3,0,0,1-.1-0.78,5.52,5.52,0,0,1,.26-1.59l2.75-9.2h8.77Z" transform="translate(966.01 -393.21)"/><path id="_Path_4" data-name="&lt;Path&gt;" class="cls-1" d="M-518.71,509.54q22.14-8.59,22.14-20.05,0-13.54-21.27-13.54h-39.47l-6.11,9.87h40c6.6,0,9.9,2.31,9.9,7,0,4-2.6,7.41-7.81,10.1a64.15,64.15,0,0,1-6.39,2.58,51.62,51.62,0,0,1-6.68,2.23l7.7,17.1a17.42,17.42,0,0,0,2.66,4.6,6.32,6.32,0,0,0,4.72,1.65h15.1a9.6,9.6,0,0,0,5.44-1.56,5.79,5.79,0,0,0,2.72-4.69h-15.54Z" transform="translate(966.01 -393.21)"/><polygon id="_Path_5" data-name="&lt;Path&gt;" class="cls-1" points="422.9 97.64 422.87 97.64 408.69 137.83 422.82 137.83 437.11 97.64 422.9 97.64"/></g><path id="_Compound_Path_3" data-name="&lt;Compound Path&gt;" class="cls-2" d="M-681.08,409.51l9.46,29.11H-641l-24.8,18,9.49,29.14-24.8-18-24.8,18,9.49-29.14-24.8-18h30.64Zm-4.8,33.54h-15.6l12.62,9.17L-693.69,467l12.62-9.17,12.62,9.17-4.83-14.82,12.62-9.17h-15.57l-4.83-14.82Z" transform="translate(966.01 -393.21)"/><path id="_Path_6" data-name="&lt;Path&gt;" class="cls-2" d="M-561.34,396.2c72.54-9.58,137.33,4.63,144.25,31.63,2.92,11.46-5,23.41-20.66,34.12,8.85-8.48,12.88-17.45,10.65-26.1-6.92-27-71.7-41.21-144.25-31.63-41.78,5.5-77.26,17.77-98.53,32.32C-651.13,418.57-610.62,402.71-561.34,396.2Z" transform="translate(966.01 -393.21)"/></svg>