<svg id="Layer_1" data-name="Layer 1" xmlns="http://www.w3.org/2000/svg" viewBox="0 0 283.47 111.29"><defs><style>.cls-1{fill:#fff;}</style></defs><title>Strauss-logo</title><path class="cls-1" d="M-998.31,382.38h-3.9a0.78,0.78,0,0,0-.79.79v18.58a0.78,0.78,0,0,0,.79.79h3.9a4.7,4.7,0,0,0,4.69-4.69V387.07A4.7,4.7,0,0,0-998.31,382.38Zm0,18.58h-3.1V384h3.1a3.1,3.1,0,0,1,3.1,3.1v10.78A3.11,3.11,0,0,1-998.31,401Z" transform="translate(1011.61 -291.4)"/><path class="cls-1" d="M-956.85,393.32a4.64,4.64,0,0,0,3.13-4.43v-1.82a4.7,4.7,0,0,0-4.69-4.69h-3.9a0.8,0.8,0,0,0-.79.79v18.71a0.79,0.79,0,0,0,.79.79,0.78,0.78,0,0,0,.79-0.79v-8.3h3l3.21,8.59a0.8,0.8,0,0,0,.75.51,0.79,0.79,0,0,0,.3-0.06,0.8,0.8,0,0,0,.46-1Zm1.54-6.25v1.82a3.1,3.1,0,0,1-3.1,3.1h-3.1v-8h3.1A3.1,3.1,0,0,1-955.31,387.07Z" transform="translate(1011.61 -291.4)"/><path class="cls-1" d="M-919.58,382.84a0.77,0.77,0,0,0-.76-0.59,0.85,0.85,0,0,0-.79.58l-5.2,18.85a0.87,0.87,0,0,0,.59,1,0.81,0.81,0,0,0,1-.58s0.47-1.66,1.1-4H-917c0.63,2.3,1.07,4,1.07,4a0.86,0.86,0,0,0,.82.59l0.18,0a0.81,0.81,0,0,0,.47-0.39,0.78,0.78,0,0,0,.07-0.6Zm2.13,13.7h-5.77c0.65-2.33,1.38-5,2-7.22l0.9-3.27,1,3.61C-918.76,391.81-918.07,394.33-917.45,396.54Z" transform="translate(1011.61 -291.4)"/><path class="cls-1" d="M-882.13,382.38h-6.5a0.79,0.79,0,0,0-.79.79v18.58a0.79,0.79,0,0,0,.79.79,0.78,0.78,0,0,0,.79-0.79v-8.82h5.05a0.78,0.78,0,0,0,.8-0.79,0.78,0.78,0,0,0-.8-0.8h-5.05V384h5.7a0.78,0.78,0,0,0,.79-0.79A0.78,0.78,0,0,0-882.13,382.38Z" transform="translate(1011.61 -291.4)"/><path class="cls-1" d="M-845.74,382.38h-8.45a0.8,0.8,0,0,0-.79.79,0.8,0.8,0,0,0,.79.79h3.43v17.91a0.79,0.79,0,0,0,.79.79,0.8,0.8,0,0,0,.83-0.79V384h3.39a0.8,0.8,0,0,0,.83-0.79A0.8,0.8,0,0,0-845.74,382.38Z" transform="translate(1011.61 -291.4)"/><path class="cls-1" d="M-817.8,382.25a0.8,0.8,0,0,0-.8.79v18.84a0.8,0.8,0,0,0,.8.79,0.8,0.8,0,0,0,.83-0.79V383A0.8,0.8,0,0,0-817.8,382.25Z" transform="translate(1011.61 -291.4)"/><path class="cls-1" d="M-776.87,382.25a0.78,0.78,0,0,0-.79.79v15.33c-2.11-4.37-7.59-15.67-7.59-15.67a0.83,0.83,0,0,0-.72-0.47l-0.16,0a0.8,0.8,0,0,0-.63.79v18.84a0.78,0.78,0,0,0,.79.79,0.78,0.78,0,0,0,.79-0.79V386.54c2.11,4.38,7.59,15.67,7.59,15.67a0.83,0.83,0,0,0,.72.47l0.16,0a0.8,0.8,0,0,0,.63-0.79V383A0.78,0.78,0,0,0-776.87,382.25Z" transform="translate(1011.61 -291.4)"/><path class="cls-1" d="M-738,392h-3.25a0.79,0.79,0,0,0-.79.79,0.79,0.79,0,0,0,.79.79h2.45V398a3.1,3.1,0,0,1-3.1,3.1A3.1,3.1,0,0,1-745,398v-11a3.1,3.1,0,0,1,2.3-3,3.11,3.11,0,0,1,.82-0.11,3.1,3.1,0,0,1,2.68,1.55,0.81,0.81,0,0,0,1.1.29,0.85,0.85,0,0,0,.28-1.12,4.74,4.74,0,0,0-4.05-2.33,4.66,4.66,0,0,0-1.24.17,4.69,4.69,0,0,0-3.48,4.53v11a4.7,4.7,0,0,0,4.69,4.69,4.7,4.7,0,0,0,4.69-4.69v-5.2A0.78,0.78,0,0,0-738,392Z" transform="translate(1011.61 -291.4)"/><path class="cls-1" d="M-728.67,368.26h-7.51V355.35h2.83a0.53,0.53,0,0,0,.53-0.53,0.53,0.53,0,0,0-.53-0.53h-2.83V324.81h4a0.53,0.53,0,0,0,.53-0.53,0.53,0.53,0,0,0-.53-0.53h-4V310.36h7.51a0.53,0.53,0,0,0,.53-0.53,0.53,0.53,0,0,0-.53-0.53h-7.51v-2.76a0.53,0.53,0,0,0-.53-0.53,0.53,0.53,0,0,0-.53.53v2.76h-11.44v-2.05a0.53,0.53,0,0,0-.53-0.53,0.53,0.53,0,0,0-.53.53v2.05H-762.2v-7a0.53,0.53,0,0,0-.53-0.53,0.53,0.53,0,0,0-.53.53v7h-21.68v-2.05a0.53,0.53,0,0,0-.53-0.53,0.53,0.53,0,0,0-.53.53v2.05h-12.61v-2.76a0.53,0.53,0,0,0-.53-0.53,0.53,0.53,0,0,0-.53.53v2.76H-810v-7a0.53,0.53,0,0,0-.53-0.53,0.53,0.53,0,0,0-.53.53v7h-26.37v-5.13a0.53,0.53,0,0,0-.53-0.53,0.53,0.53,0,0,0-.53.53v5.13h-8.33v-8.91a0.53,0.53,0,0,0-.53-0.53,0.53,0.53,0,0,0-.53.53v8.91h-20.76V291.93a0.53,0.53,0,0,0-.53-0.53,0.53,0.53,0,0,0-.53.53V309.3h-21.17v-2.76a0.53,0.53,0,0,0-.53-0.53,0.53,0.53,0,0,0-.53.53v2.76h-7v-7a0.53,0.53,0,0,0-.53-0.53,0.53,0.53,0,0,0-.53.53v7h-12.76v-1.88a0.53,0.53,0,0,0-.53-0.53,0.53,0.53,0,0,0-.53.53v1.88h-12.55v-4.65a0.53,0.53,0,0,0-.53-0.53,0.53,0.53,0,0,0-.53.53v4.65h-11.24v-2.76a0.53,0.53,0,0,0-.53-0.53,0.53,0.53,0,0,0-.53.53v2.76h-28.2v-8.91a0.53,0.53,0,0,0-.53-0.53,0.53,0.53,0,0,0-.53.53v8.91h-7.52v-2.76A0.53,0.53,0,0,0-977,306a0.53,0.53,0,0,0-.53.53v2.76h-11v-2.05a0.53,0.53,0,0,0-.53-0.53,0.53,0.53,0,0,0-.53.53v2.05H-1003v-4.18a0.53,0.53,0,0,0-.53-0.53,0.53,0.53,0,0,0-.53.53v4.18h-7a0.53,0.53,0,0,0-.53.53,0.53,0.53,0,0,0,.53.53h7v13.38h-2a0.53,0.53,0,0,0-.53.53,0.53,0.53,0,0,0,.53.53h2v29.48h-3.18a0.53,0.53,0,0,0-.53.53,0.53,0.53,0,0,0,.53.53h3.18v12.91h-7a0.53,0.53,0,0,0-.53.53,0.53,0.53,0,0,0,.53.53h7v5.8a0.53,0.53,0,0,0,.53.53,0.53,0.53,0,0,0,.53-0.53v-5.8h12.25v2.52a0.53,0.53,0,0,0,.53.53,0.53,0.53,0,0,0,.53-0.53v-2.52h12.14v3a0.53,0.53,0,0,0,.53.53,0.53,0.53,0,0,0,.53-0.53v-3H-969v0.13a0.53,0.53,0,0,0,.53.53,0.53,0.53,0,0,0,.53-0.53v-0.12h28.2v7.22a0.53,0.53,0,0,0,.53.53,0.53,0.53,0,0,0,.53-0.53v-7.22h11.24v7.22a0.53,0.53,0,0,0,.53.53,0.53,0.53,0,0,0,.53-0.53v-7.22H-900v3.91a0.53,0.53,0,0,0,.53.53,0.53,0.53,0,0,0,.53-0.53v-3.91h7v3a0.53,0.53,0,0,0,.53.53,0.53,0.53,0,0,0,.53-0.53v-3h21.17v3.5a0.53,0.53,0,0,0,.53.53,0.53,0.53,0,0,0,.53-0.53v-3.5h20.76v0.13a0.53,0.53,0,0,0,.53.53,0.53,0.53,0,0,0,.53-0.53v-0.12h8.33v6.75a0.53,0.53,0,0,0,.53.53,0.53,0.53,0,0,0,.53-0.53v-6.75h12.57v2.52a0.53,0.53,0,0,0,.53.53,0.53,0.53,0,0,0,.53-0.53v-2.52H-811v3.91a0.53,0.53,0,0,0,.53.53,0.53,0.53,0,0,0,.53-0.53v-3.91h10.29v3a0.53,0.53,0,0,0,.53.53,0.53,0.53,0,0,0,.53-0.53v-3h11.45v2.52a0.53,0.53,0,0,0,.53.53,0.53,0.53,0,0,0,.53-0.53v-2.52h22.84v7.22a0.53,0.53,0,0,0,.53.53,0.53,0.53,0,0,0,.53-0.53v-7.22h11.29v2.52a0.53,0.53,0,0,0,.53.53,0.53,0.53,0,0,0,.53-0.53v-2.52h12.6v7.22a0.53,0.53,0,0,0,.53.53,0.53,0.53,0,0,0,.53-0.53v-7.22h7.51a0.53,0.53,0,0,0,.53-0.53A0.53,0.53,0,0,0-728.67,368.26Zm-8.57-14h-4.89a8.24,8.24,0,0,0-7.71-8v-8.46a0.53,0.53,0,0,0-.53-0.53,0.53,0.53,0,0,0-.53.53v8.46a8.25,8.25,0,0,0-7.71,8h-3.58V324.81h5a8,8,0,0,0,7.41,7.19v9.31a0.53,0.53,0,0,0,.53.53,0.53,0.53,0,0,0,.53-0.53V332a8,8,0,0,0,7.41-7.19h4v29.48Zm-13.67,0h-6.63a7.16,7.16,0,0,1,6.63-7v7Zm0,1.06v6.25a7.15,7.15,0,0,1-6.56-6.25h6.56Zm1.06,0h6.56a7.15,7.15,0,0,1-6.56,6.25v-6.25Zm0-1.06v-7a7.16,7.16,0,0,1,6.63,7h-6.63Zm1.16-29.48h6.31a6.88,6.88,0,0,1-6.31,6.1v-6.1Zm0-1.06v-6.57a6.89,6.89,0,0,1,6.36,6.57h-6.36Zm-1.06,0h-6.36a6.89,6.89,0,0,1,6.36-6.57v6.57Zm0,1.06v6.1a6.88,6.88,0,0,1-6.31-6.1h6.31Zm12.51-14.44v13.38h-4a8,8,0,0,0-7.44-7.66v-5.72h11.44Zm-12.51,0v5.72a8,8,0,0,0-7.44,7.66h-5V310.36h12.45Zm-36.26,0v5.72a8,8,0,0,0-7.44,7.66h-5.18V310.36H-786Zm0,14.44v6.1a6.88,6.88,0,0,1-6.31-6.1H-786Zm-6.36-1.06a6.89,6.89,0,0,1,6.36-6.57v6.57h-6.36Zm7.42,1.06h6.31a6.88,6.88,0,0,1-6.31,6.1v-6.1Zm0-1.06v-6.57a6.89,6.89,0,0,1,6.36,6.57h-6.36ZM-811,310.36v43.92h-5a8.25,8.25,0,0,0-7.71-8v-8.46a0.53,0.53,0,0,0-.53-0.53,0.53,0.53,0,0,0-.53.53v8.46a8.24,8.24,0,0,0-7.71,8h-4.86V310.36H-811Zm-13.8,43.92h-6.63a7.16,7.16,0,0,1,6.63-7v7Zm0,1.06v6.25a7.15,7.15,0,0,1-6.56-6.25h6.56Zm1.06,0h6.56a7.15,7.15,0,0,1-6.56,6.25v-6.25Zm0-1.06v-7a7.16,7.16,0,0,1,6.63,7h-6.63Zm-24.09-43.92v26.36h-20.76V310.36h20.76Zm-21.83,0v26.36h-21.17V310.36h21.17Zm-30.28,0v13.56h-5.32a8,8,0,0,0-7.43-7.66v-5.9H-900Zm-13.82,13.56h-6.36a6.89,6.89,0,0,1,6.36-6.57v6.57Zm0,1.06v6.1a6.88,6.88,0,0,1-6.31-6.1h6.31Zm1.06,0h6.31a6.88,6.88,0,0,1-6.31,6.1V325Zm0-1.06v-6.57a6.89,6.89,0,0,1,6.36,6.57h-6.36Zm-1.06-13.56v5.9a8,8,0,0,0-7.43,7.66h-5.12V310.36h12.55Zm-63.76,0v13.38h-3.54a8,8,0,0,0-7.43-7.66v-5.72h11Zm-12,13.38h-6.36a6.89,6.89,0,0,1,6.36-6.57v6.57Zm0,1.06v6.1a6.88,6.88,0,0,1-6.31-6.1h6.31Zm1.06,0h6.31a6.88,6.88,0,0,1-6.31,6.1v-6.1Zm0-1.06v-6.57a6.89,6.89,0,0,1,6.36,6.57h-6.36ZM-1003,310.36h13.41v5.72a8,8,0,0,0-7.43,7.66h-6V310.36Zm0,14.44h6a8,8,0,0,0,7.41,7.19v9.31a0.53,0.53,0,0,0,.53.53,0.53,0.53,0,0,0,.53-0.53V332a8,8,0,0,0,7.41-7.19h3.56v29.48H-982a8.24,8.24,0,0,0-7.71-8v-8.46a0.53,0.53,0,0,0-.53-0.53,0.53,0.53,0,0,0-.53.53v8.46a8.24,8.24,0,0,0-7.71,8H-1003V324.81Zm12.25,29.48h-6.63a7.16,7.16,0,0,1,6.63-7v7Zm0,1.06v6.25a7.15,7.15,0,0,1-6.56-6.25h6.56Zm1.06,0h6.56a7.15,7.15,0,0,1-6.56,6.25v-6.25Zm0-1.06v-7a7.16,7.16,0,0,1,6.63,7h-6.63Zm-13.32,14V355.35h4.58a8.25,8.25,0,0,0,7.67,7.34v5.58H-1003Zm13.32,0v-5.58a8.25,8.25,0,0,0,7.67-7.34h4.47v12.91h-12.14Zm13.2,0V355.35h3.3a0.53,0.53,0,0,0,.53-0.53,0.53,0.53,0,0,0-.53-0.53h-3.3V324.81H-972a0.53,0.53,0,0,0,.53-0.53,0.53,0.53,0,0,0-.53-0.53h-4.46V310.36H-969v57.9h-7.52Zm8.58,0v-57.9h28.2v57.9h-28.2Zm29.26,0v-57.9h11.24v13.56h-2.88a0.53,0.53,0,0,0-.53.53,0.53,0.53,0,0,0,.53.53h2.88v43.28h-11.24Zm12.3,0V325h5.14a8,8,0,0,0,7.41,7.19v9.31a0.53,0.53,0,0,0,.53.53,0.53,0.53,0,0,0,.53-0.53v-9.31a8,8,0,0,0,7.41-7.19H-900v43.28h-26.37Zm27.44,0V325h2.68a0.53,0.53,0,0,0,.53-0.53,0.53,0.53,0,0,0-.53-0.53h-2.68V310.36h7v26.36h-2.54a0.53,0.53,0,0,0-.53.53,0.53,0.53,0,0,0,.53.53h2.54v30.48h-7Zm8,0V337.79h21.17v30.48h-21.17Zm22.24,0V337.79h20.76v30.48h-20.76Zm21.83,0V337.79h2.71a0.53,0.53,0,0,0,.53-0.53,0.53,0.53,0,0,0-.53-0.53h-2.71V310.36h8.33v43.92h-2.86a0.53,0.53,0,0,0-.53.53,0.53,0.53,0,0,0,.53.53h2.86v12.91h-8.33Zm9.39,0V355.35h4.9a8.25,8.25,0,0,0,7.67,7.34v5.58h-12.57Zm13.63,0v-5.58a8.25,8.25,0,0,0,7.67-7.34H-811v12.91h-12.74Zm13.8,0V355.35h2.7a0.53,0.53,0,0,0,.53-0.53,0.53,0.53,0,0,0-.53-0.53H-810V310.36h10.29v13.38h-2.82a0.53,0.53,0,0,0-.53.53,0.53,0.53,0,0,0,.53.53h2.82v29.48h-4a0.53,0.53,0,0,0-.53.53,0.53,0.53,0,0,0,.53.53h4v12.91H-810Zm11.35,0V355.35h3.79a8.25,8.25,0,0,0,7.67,7.34v5.58h-11.45Zm12.52-12.91h6.56a7.15,7.15,0,0,1-6.56,6.25v-6.25Zm0-1.06v-7a7.16,7.16,0,0,1,6.63,7h-6.63Zm-1.06,0h-6.63a7.16,7.16,0,0,1,6.63-7v7Zm0,1.06v6.25a7.15,7.15,0,0,1-6.56-6.25h6.56Zm1.06,12.91v-5.58a8.25,8.25,0,0,0,7.67-7.34h8.83a0.53,0.53,0,0,0,.53-0.53,0.53,0.53,0,0,0-.53-0.53h-8.79a8.25,8.25,0,0,0-7.71-8v-8.46a0.53,0.53,0,0,0-.53-0.53,0.53,0.53,0,0,0-.53.53v8.46a8.25,8.25,0,0,0-7.71,8h-3.74V324.81h5.2A8,8,0,0,0-786,332v9.31a0.53,0.53,0,0,0,.53.53,0.53,0.53,0,0,0,.53-0.53V332a8,8,0,0,0,7.41-7.19h9.09a0.53,0.53,0,0,0,.53-0.53,0.53,0.53,0,0,0-.53-0.53h-9.06a8,8,0,0,0-7.43-7.66v-5.72h21.68v13.38h-3a0.53,0.53,0,0,0-.53.53,0.53,0.53,0,0,0,.53.53h3v29.48h-4.15a0.53,0.53,0,0,0-.53.53,0.53,0.53,0,0,0,.53.53h4.15v12.91h-22.84Zm23.91,0V355.35h3.62a8.25,8.25,0,0,0,7.67,7.34v5.58H-762.2Zm12.35,0v-5.58a8.25,8.25,0,0,0,7.67-7.34h4.93v12.91h-12.6Z" transform="translate(1011.61 -291.4)"/><path class="cls-1" d="M-994.64,329.48a8,8,0,0,1-2.19-6.14,7.85,7.85,0,0,1,3.17-5.67,7.7,7.7,0,0,1,4.79-1.62,8.61,8.61,0,0,1,1.48.13A8.15,8.15,0,0,1-982,320a2.84,2.84,0,0,0,4,1,3,3,0,0,0,1-3.95,13.79,13.79,0,0,0-9.12-6.48,13.93,13.93,0,0,0-11,2.46,14,14,0,0,0-5.3,9.81,13.78,13.78,0,0,0,3.83,10.59l14.3,14.75a8.66,8.66,0,0,1,2.39,6.52,8.36,8.36,0,0,1-3.35,6,8.34,8.34,0,0,1-6.72,1.58,8.56,8.56,0,0,1-5.58-4.11,3,3,0,0,0-2.46-1.35,2.77,2.77,0,0,0-1.33.34,2.78,2.78,0,0,0-1.44,1.68,2.88,2.88,0,0,0,.24,2.25,14.11,14.11,0,0,0,9.46,6.74,13.12,13.12,0,0,0,2.89.32,14,14,0,0,0,8.39-2.86,14.08,14.08,0,0,0,5.58-10.18,13.88,13.88,0,0,0-3.92-10.86Z" transform="translate(1011.61 -291.4)"/><path class="cls-1" d="M-942,310.7h-23.4a2.85,2.85,0,0,0-2.85,2.85,2.85,2.85,0,0,0,2.85,2.84h8.85v49a2.85,2.85,0,0,0,2.85,2.85,2.86,2.86,0,0,0,2.94-2.85v-49H-942a2.86,2.86,0,0,0,2.94-2.84A2.86,2.86,0,0,0-942,310.7Z" transform="translate(1011.61 -291.4)"/><path class="cls-1" d="M-908,342a13.5,13.5,0,0,0,8.49-12.66v-5a13.66,13.66,0,0,0-13.65-13.64H-924a2.85,2.85,0,0,0-2.84,2.85v51.84a2.85,2.85,0,0,0,2.84,2.85,2.78,2.78,0,0,0,2.85-2.85V343h7.34l8.73,23.4a2.87,2.87,0,0,0,2.67,1.83,2.85,2.85,0,0,0,1.06-.21,2.87,2.87,0,0,0,1.63-3.7Zm-13.11-4.71V316.39h8a8,8,0,0,1,8,8v5a8,8,0,0,1-8,8h-8Z" transform="translate(1011.61 -291.4)"/><path class="cls-1" d="M-813.46,310.34a2.86,2.86,0,0,0-2.93,2.84v41.4a7.92,7.92,0,0,1-7.86,8,8,8,0,0,1-8-8v-41.4a2.85,2.85,0,0,0-2.85-2.84,2.86,2.86,0,0,0-2.94,2.84v41.4a13.71,13.71,0,0,0,13.74,13.65,13.66,13.66,0,0,0,13.64-13.65v-41.4A2.85,2.85,0,0,0-813.46,310.34Z" transform="translate(1011.61 -291.4)"/><path class="cls-1" d="M-791.06,329.48a8,8,0,0,1-2.19-6.14,7.84,7.84,0,0,1,3.17-5.67,7.7,7.7,0,0,1,4.79-1.62,8.62,8.62,0,0,1,1.48.13,8.15,8.15,0,0,1,5.36,3.85,2.84,2.84,0,0,0,4,1,3,3,0,0,0,1-3.95,13.78,13.78,0,0,0-9.12-6.48,13.93,13.93,0,0,0-11,2.46,14,14,0,0,0-5.3,9.81,13.77,13.77,0,0,0,3.83,10.59l14.3,14.75a8.66,8.66,0,0,1,2.39,6.52,8.36,8.36,0,0,1-3.35,6,8.34,8.34,0,0,1-6.72,1.58,8.56,8.56,0,0,1-5.58-4.11,3,3,0,0,0-2.46-1.35,2.78,2.78,0,0,0-1.33.34,2.78,2.78,0,0,0-1.44,1.68,2.88,2.88,0,0,0,.24,2.25,14.1,14.1,0,0,0,9.46,6.74,13.12,13.12,0,0,0,2.89.32,14,14,0,0,0,8.39-2.86,14.08,14.08,0,0,0,5.58-10.18,13.88,13.88,0,0,0-3.92-10.86Z" transform="translate(1011.61 -291.4)"/><path class="cls-1" d="M-740.47,344.34l-14.41-14.86a8,8,0,0,1-2.19-6.14,7.85,7.85,0,0,1,3.17-5.67,7.7,7.7,0,0,1,4.79-1.62,8.59,8.59,0,0,1,1.48.13,8.15,8.15,0,0,1,5.36,3.85,2.84,2.84,0,0,0,4,1,3,3,0,0,0,1-3.95,13.79,13.79,0,0,0-9.12-6.48,13.93,13.93,0,0,0-11,2.46,14,14,0,0,0-5.3,9.81,13.78,13.78,0,0,0,3.83,10.59l14.3,14.75a8.66,8.66,0,0,1,2.39,6.52,8.36,8.36,0,0,1-3.35,6,8.33,8.33,0,0,1-6.71,1.58,8.56,8.56,0,0,1-5.59-4.11,3,3,0,0,0-2.46-1.35,2.78,2.78,0,0,0-1.33.34,2.78,2.78,0,0,0-1.44,1.68,2.88,2.88,0,0,0,.24,2.25,14.11,14.11,0,0,0,9.46,6.74,13.11,13.11,0,0,0,2.89.32,14,14,0,0,0,8.39-2.86,14.1,14.1,0,0,0,5.58-10.18A13.89,13.89,0,0,0-740.47,344.34Z" transform="translate(1011.61 -291.4)"/><path class="cls-1" d="M-853.41,350.17l1.62-.88,0.42,1.44,1.67-.49-1.42-4.86-1.67.49,0.5,1.73-1.65.49-2.28-9.11h5.42v-3.17H-857l-1.34-5.35h0l-3.45-13.8a9.88,9.88,0,0,0,2.59-6.67,9.93,9.93,0,0,0-7.08-9.5v-3.82a2.84,2.84,0,0,0-2.84-2.84,2.84,2.84,0,0,0-2.84,2.84v3.82a9.93,9.93,0,0,0-7.08,9.5,9.87,9.87,0,0,0,2.59,6.67l-3.45,13.8h0l-1.34,5.35h-6.21V339h5.42l-6.09,24.38h-2.65v4.43h2l1.13,7.57h0a1.11,1.11,0,0,0,1.11,1.11,1.11,1.11,0,0,0,1.11-1.11h0l1.36-7.57H-881v-4.43h-1.5l6.09-24.38h6.06v2.57a1,1,0,0,0,1.11.92,1,1,0,0,0,1.11-.92V339h6.29l6.1,24.38h-1.5v4.43h3.12l0.7,3.93h0l0.65,3.64h0a1.11,1.11,0,0,0,1.11,1.11,1.11,1.11,0,0,0,1.11-1.11h0l1.13-7.57h1.95v-4.43h-2.65Zm-15.75-45.12a5,5,0,0,1,4.95,5,5,5,0,0,1-.09.93c0,0.11-.06.21-0.08,0.31a5.14,5.14,0,0,1-.17.55c-0.05.13-.11,0.25-0.17,0.37s-0.14.28-.22,0.41-0.16.26-.25,0.38-0.16.19-.24,0.29a4.91,4.91,0,0,1-.37.39l-0.16.14a5,5,0,0,1-2,1,4.87,4.87,0,0,1-1.22.17,4.87,4.87,0,0,1-1.22-.17,5,5,0,0,1-2-1l-0.17-.14a4.9,4.9,0,0,1-.36-0.39c-0.08-.09-0.16-0.19-0.24-0.29s-0.17-.25-0.25-0.38-0.15-.27-0.22-0.41-0.12-.24-0.17-0.37a5.13,5.13,0,0,1-.17-0.55c0-.1-0.06-0.21-0.08-0.31a5,5,0,0,1-.09-0.93A5,5,0,0,1-869.16,305.05Zm1,30.76v-2.89a1,1,0,0,0-1.11-.92,1,1,0,0,0-1.11.92v2.89h-5.23l4.05-16.2a9.9,9.9,0,0,0,2.4.31,9.88,9.88,0,0,0,2.4-.31l4.05,16.2h-5.46Z" transform="translate(1011.61 -291.4)"/></svg>