<svg id="Layer_1" data-name="Layer 1" xmlns="http://www.w3.org/2000/svg" viewBox="0 0 91.81 127.76"><defs><style>.cls-1{fill:#fff;}</style></defs><title>mlp-logo</title><circle class="cls-1" cx="15.17" cy="58.41" r="5.64"/><ellipse class="cls-1" cx="949.02" cy="153.72" rx="4.59" ry="9.69" transform="translate(-99.4 1040.88) rotate(-89.92)"/><path class="cls-1" d="M922.19,78.4L906.4,65.33c-2.87-2.37-5.63-3.68-7.77-3.68-4.82,0-5.2,7.49-5.2,9.78V83h0V97.29c0.75-1,1.56-2,2.42-3C902.22,87,911.42,81.34,922.19,78.4Z" transform="translate(-893.43 -61.65)"/><path class="cls-1" d="M983.73,109.23c-4.31-12.5-17.47-22.27-34-25.2a59.32,59.32,0,0,0-8.92-.88l-1.44,0-1.44,0A59.32,59.32,0,0,0,929,84c-11.24,2-20.89,7.13-27.3,14.13l8.14,5.45,4.34-1.73h0l11.34-4.51c2.39-.95,3.77.3,3.07,2.77L924,116.38l3,3.6h0l3.9,4.7,3.9,4.7c1.64,2,.88,3.68-1.69,3.78l-6.1.24-10.77.42-9,14.26c-1.37,2.17-3.22,2-4.11-.44l-4.22-11.45h0l-1.61-4.38-3.81-1v28.81c0,1.17.78,28.33,42.41,29.78V174.8c-8.37-.69-15.52-3.8-19.57-8.17-9.87-10.21-6.07-16.36-3.58-18.78,0,0,3.49-4.89,24.16-6.19l0,0.08c0.65,0,1.31-.06,2-0.07h1.14c0.66,0,1.32,0,2,.07l0-.08C962.49,143,966,147.85,966,147.85c2.49,2.42,6.29,8.57-3.58,18.78-4.06,4.37-11.2,7.48-19.57,8.17v14.61c17.26-.61,30-5.84,36.92-15.19a27.72,27.72,0,0,0,5.49-14.59V118.11A27.23,27.23,0,0,0,983.73,109.23Zm-13.3,16.47a5.64,5.64,0,1,1,5.64-5.64A5.64,5.64,0,0,1,970.43,125.71Z" transform="translate(-893.43 -61.65)"/><path class="cls-1" d="M985.24,97.29V83h0V71.43c0-2.29-.38-9.78-5.2-9.78-2.14,0-4.9,1.31-7.77,3.68L956.48,78.39C968.69,81.73,978.9,88.52,985.24,97.29Z" transform="translate(-893.43 -61.65)"/></svg>