<svg id="Layer_1" data-name="Layer 1" xmlns="http://www.w3.org/2000/svg" viewBox="0 0 149.18 60.23"><defs><style>.cls-1,.cls-2{fill:#fff;}.cls-2{opacity:0.5;}</style></defs><title>ohio-logo</title><path class="cls-1" d="M643.05,612a0.19,0.19,0,0,1,0-.08l0.09-.08,0.11-.06,0.11,0h1.67a0.28,0.28,0,0,1,.19.07l0.12,0.12,0.16,0.37L649,621.1a0.19,0.19,0,0,1,0,.21,0.32,0.32,0,0,1-.25.08h-1.87a0.41,0.41,0,0,1-.23-0.06,0.35,0.35,0,0,1-.13-0.19l-0.25-.66-0.25-.66h-3.46l-0.25.66-0.25.66a0.33,0.33,0,0,1-.33.24h-1.92a0.32,0.32,0,0,1-.21-0.06,0.15,0.15,0,0,1,0-.2Zm1.19,2.79q-0.12.33-.25,0.72l-0.25.78-0.25.77q-0.13.38-.25,0.71h2Z" transform="translate(-631.72 -561.32)"/><path class="cls-1" d="M656.54,612a0.34,0.34,0,0,1,.09-0.2,0.29,0.29,0,0,1,.22-0.08h2.26a0.3,0.3,0,0,1,.31.25l1.77,5.92L663,612a0.33,0.33,0,0,1,.33-0.25h2.23a0.32,0.32,0,0,1,.21.08,0.3,0.3,0,0,1,.11.21q0.23,2.3.47,4.55t0.47,4.55v0a0.24,0.24,0,0,1-.29.25h-1.85a0.27,0.27,0,0,1-.31-0.29l-0.57-5-1.47,5.07a0.36,0.36,0,0,1-.09.16,0.22,0.22,0,0,1-.16.09h-1.71a0.25,0.25,0,0,1-.17-0.09,0.28,0.28,0,0,1-.09-0.16l-1.47-5.06-0.57,5a0.28,0.28,0,0,1-.32.29h-1.85a0.25,0.25,0,0,1-.28-0.29Z" transform="translate(-631.72 -561.32)"/><path class="cls-1" d="M674.26,612a0.31,0.31,0,0,1,.08-0.22,0.27,0.27,0,0,1,.21-0.08h4.33a2.72,2.72,0,0,1,1.08.22,2.82,2.82,0,0,1,.89.6,2.85,2.85,0,0,1,.6.89,2.74,2.74,0,0,1,.22,1.1,2.64,2.64,0,0,1-.15.91,2.47,2.47,0,0,1-.43.75,3.18,3.18,0,0,1,.74,1,3,3,0,0,1,.27,1.26,2.82,2.82,0,0,1-.23,1.12,3.08,3.08,0,0,1-.62.93,2.94,2.94,0,0,1-.91.64,2.62,2.62,0,0,1-1.09.23h-4.71a0.31,0.31,0,0,1-.21-0.07,0.27,0.27,0,0,1-.08-0.21V612Zm4.91,2.57a0.92,0.92,0,0,0-.07-0.37,0.94,0.94,0,0,0-.2-0.3,1,1,0,0,0-.31-0.21,1,1,0,0,0-.4-0.07h-1.4v1.89h1.38a1.17,1.17,0,0,0,.41-0.07,0.89,0.89,0,0,0,.32-0.2,0.93,0.93,0,0,0,.21-0.3A0.94,0.94,0,0,0,679.17,614.59Zm0.35,3.79a1.08,1.08,0,0,0-.08-0.39,1.16,1.16,0,0,0-.21-0.35,1.11,1.11,0,0,0-.32-0.25,0.85,0.85,0,0,0-.4-0.1h-1.73v2.18h1.73a0.88,0.88,0,0,0,.4-0.09,1.06,1.06,0,0,0,.32-0.24A1.13,1.13,0,0,0,679.51,618.37Z" transform="translate(-631.72 -561.32)"/><path class="cls-1" d="M691.69,617.54a2.21,2.21,0,0,0,.13.82,1.55,1.55,0,0,0,.35.55,1.33,1.33,0,0,0,.51.31,1.89,1.89,0,0,0,.6.1,1.67,1.67,0,0,0,.62-0.11,1.42,1.42,0,0,0,.51-0.34,1.61,1.61,0,0,0,.35-0.56,2.12,2.12,0,0,0,.13-0.76V612a0.28,0.28,0,0,1,.08-0.2,0.29,0.29,0,0,1,.22-0.08h1.9a0.31,0.31,0,0,1,.23.09,0.28,0.28,0,0,1,.08.2v5.5a4.83,4.83,0,0,1-.34,1.92,3.29,3.29,0,0,1-.9,1.25,3.45,3.45,0,0,1-1.31.68,5.88,5.88,0,0,1-1.57.21,5.75,5.75,0,0,1-1.57-.21,3.49,3.49,0,0,1-1.32-.69,3.36,3.36,0,0,1-.9-1.25,4.75,4.75,0,0,1-.34-1.89V612a0.3,0.3,0,0,1,.07-0.2,0.23,0.23,0,0,1,.19-0.09h2a0.34,0.34,0,0,1,.2.08,0.25,0.25,0,0,1,.11.21v5.53Z" transform="translate(-631.72 -561.32)"/><path class="cls-1" d="M704.81,612a0.29,0.29,0,0,1,.08-0.2,0.28,0.28,0,0,1,.22-0.08H707a0.3,0.3,0,0,1,.2.08,0.28,0.28,0,0,1,.1.21v7.09h3.59a0.29,0.29,0,0,1,.2.08,0.28,0.28,0,0,1,.08.22v1.71a0.31,0.31,0,0,1-.07.2,0.28,0.28,0,0,1-.21.1H705.1a0.25,0.25,0,0,1-.29-0.29V612Z" transform="translate(-631.72 -561.32)"/><path class="cls-1" d="M721.63,612a0.19,0.19,0,0,1,0-.08l0.09-.08,0.11-.06,0.11,0h1.67a0.28,0.28,0,0,1,.19.07L724,611.9l0.16,0.37,3.42,8.83a0.19,0.19,0,0,1,0,.21,0.32,0.32,0,0,1-.25.08H725.4a0.41,0.41,0,0,1-.23-0.06,0.35,0.35,0,0,1-.13-0.19l-0.25-.66-0.25-.66h-3.46l-0.25.66-0.25.66a0.33,0.33,0,0,1-.33.24h-1.92a0.32,0.32,0,0,1-.21-0.06,0.15,0.15,0,0,1,0-.2Zm1.19,2.79q-0.12.33-.25,0.72l-0.25.78-0.25.77q-0.13.38-.25,0.71h2Z" transform="translate(-631.72 -561.32)"/><path class="cls-1" d="M734.6,612a0.3,0.3,0,0,1,.07-0.2,0.27,0.27,0,0,1,.22-0.08H737a0.45,0.45,0,0,1,.19,0,0.41,0.41,0,0,1,.17.16l1.64,2.63,1.65,2.63V612a0.32,0.32,0,0,1,.1-0.18,0.28,0.28,0,0,1,.18-0.06h1.86a0.35,0.35,0,0,1,.23.07,0.26,0.26,0,0,1,.09.21v9.14a0.23,0.23,0,0,1-.08.19,0.34,0.34,0,0,1-.22.06h-2.08a0.22,0.22,0,0,1-.15-0.06,1,1,0,0,1-.14-0.16l-1.71-2.84L737,615.51v5.6a0.25,0.25,0,0,1-.3.29h-1.85a0.27,0.27,0,0,1-.22-0.08,0.3,0.3,0,0,1-.07-0.2V612Z" transform="translate(-631.72 -561.32)"/><path class="cls-1" d="M758.39,612.42a0.41,0.41,0,0,1,.16.17,0.27,0.27,0,0,1,0,.25l-1.1,1.56a0.26,0.26,0,0,1-.15.13,0.28,0.28,0,0,1-.2-0.06,2.49,2.49,0,0,0-.7-0.37,2.53,2.53,0,0,0-.82-0.13,2.36,2.36,0,0,0-1.76.76,2.56,2.56,0,0,0-.51.82,2.84,2.84,0,0,0,0,2,2.53,2.53,0,0,0,.51.82,2.38,2.38,0,0,0,1.76.75,2.53,2.53,0,0,0,1.53-.51,0.3,0.3,0,0,1,.2-0.06,0.27,0.27,0,0,1,.16.12l1.12,1.6a0.26,0.26,0,0,1,0,.24,0.42,0.42,0,0,1-.16.16,5.18,5.18,0,0,1-1.32.64,4.89,4.89,0,0,1-1.49.22,4.92,4.92,0,0,1-2.52-.68,5,5,0,0,1-1.79-1.78,4.87,4.87,0,0,1-.5-1.19,5,5,0,0,1,.5-3.85,5,5,0,0,1,.78-1,4.87,4.87,0,0,1,1-.78,5.11,5.11,0,0,1,1.19-.5,5,5,0,0,1,2.8,0A5.08,5.08,0,0,1,758.39,612.42Z" transform="translate(-631.72 -561.32)"/><path class="cls-1" d="M765.93,612a0.31,0.31,0,0,1,.07-0.22,0.27,0.27,0,0,1,.21-0.08h6.47a0.29,0.29,0,0,1,.22.08,0.32,0.32,0,0,1,.08.23v1.61a0.34,0.34,0,0,1-.08.21,0.27,0.27,0,0,1-.23.1h-4.22v1.62h3.26a0.34,0.34,0,0,1,.21.06,0.22,0.22,0,0,1,.08.2v1.41a0.27,0.27,0,0,1-.07.18,0.26,0.26,0,0,1-.21.08h-3.27v1.67h4.38a0.26,0.26,0,0,1,.29.3v1.64a0.16,0.16,0,0,1-.05.12,0.22,0.22,0,0,1-.27.18h-6.59a0.3,0.3,0,0,1-.21-0.07,0.27,0.27,0,0,1-.08-0.21V612Z" transform="translate(-631.72 -561.32)"/><polygon class="cls-1" points="68.71 31.15 68.23 30.46 68.13 30.56 68.71 31.15"/><polygon class="cls-1" points="68.13 11.18 68.23 11.28 68.71 10.6 68.13 11.18"/><path class="cls-1" d="M779.4,573.78a19.54,19.54,0,0,0-4.25-6.53,19.82,19.82,0,0,0-6.59-4.36,22.16,22.16,0,0,0-8.48-1.58,22.41,22.41,0,0,0-8.49,1.57,19.77,19.77,0,0,0-6.62,4.34c-0.21.21-.42,0.43-0.62,0.65l3.69,5.3,1.77,2.54-2.54,1.77-1.79,1.25-2.87,2-0.35.24-1.75,1.22,1.9,1.32,0.33,0.23L746,586l1.31,0.91,2.54,1.77-1.77,2.54-3.4,4.89,0.33,0.35a19.67,19.67,0,0,0,6.62,4.36,23.73,23.73,0,0,0,17,0,19.25,19.25,0,0,0,10.84-10.9A22.39,22.39,0,0,0,779.4,573.78Zm-10.91,12.61a9.18,9.18,0,0,1-1.77,3.24,7.27,7.27,0,0,1-2.76,2,10.12,10.12,0,0,1-3.88.7,10.29,10.29,0,0,1-3.92-.7,7.26,7.26,0,0,1-2.77-2,9.16,9.16,0,0,1-1.77-3.25,16.32,16.32,0,0,1,0-9.1A9.15,9.15,0,0,1,753.4,574a7.38,7.38,0,0,1,2.77-2,10.12,10.12,0,0,1,3.91-.71,10,10,0,0,1,3.87.71,7.41,7.41,0,0,1,2.76,2,9.17,9.17,0,0,1,1.77,3.24A16.32,16.32,0,0,1,768.49,586.39Z" transform="translate(-631.72 -561.32)"/><polygon class="cls-1" points="85.44 2.29 85.44 1.95 85.44 0.53 85.44 0.19 85.44 0.19 85.44 1.95 85.44 4.18 85.44 4.18 85.44 2.29"/><polygon class="cls-1" points="85.44 7.95 85.44 7.95 85.44 7.95 85.44 7.95"/><polygon class="cls-1" points="85.44 17.62 85.44 17.62 85.44 17.62 85.44 17.62"/><rect class="cls-1" x="85.44" y="7.95" height="5.9"/><polygon class="cls-1" points="85.44 18.52 85.44 22.79 85.44 24.12 85.44 24.12 85.44 23.13 85.44 22.79 85.44 18.85 85.44 18.52 85.44 17.62 85.44 17.62 85.44 18.52"/><rect class="cls-1" x="85.44" y="13.85" height="3.77"/><polygon class="cls-1" points="85.44 5.87 85.44 5.54 85.44 5.49 85.44 5.15 85.44 4.18 85.44 4.18 85.44 5.15 85.44 5.54 85.44 5.92 85.44 5.92 85.44 5.87"/><rect class="cls-1" x="85.44" y="5.92" height="2.03"/><polygon class="cls-1" points="85.44 24.12 85.44 24.12 85.44 24.12 85.44 24.12"/><polygon class="cls-1" points="98.72 4.61 98.72 0.77 85.44 0.77 85.44 11.63 85.44 11.63 85.44 13.85 85.44 17.62 85.44 17.62 85.44 18.52 85.44 18.85 85.44 22.79 85.44 23.13 85.44 24.12 85.44 24.12 85.44 27.89 85.44 31.05 85.44 33.79 85.44 35.29 85.44 35.68 85.44 35.82 85.44 37.56 85.44 38.88 85.44 40.88 85.44 40.97 98.72 40.97 98.72 37.13 98.72 36.4 98.72 36.02 98.72 33.37 98.72 31.05 98.72 31.05 98.72 29.67 98.72 28.32 98.72 24.55 98.72 22.02 98.72 18.81 98.72 17.19 98.72 17.19 98.72 17.19 98.72 17.19 98.72 13.42 98.72 12.48 98.72 12.48 98.72 11.63 98.72 8.38 98.72 8.38 98.72 8.38 98.72 5.95 98.72 5.58 98.72 4.61 98.72 4.61"/><path class="cls-1" d="M697.78,588.66" transform="translate(-631.72 -561.32)"/><path class="cls-1" d="M702.64,595.64l-4.86-7,2.54-1.77,1.79-1.25,2.87-2,0.35-.24,1.75-1.22-1.9-1.32-0.33-.23-3.21-2.24-1.31-.91-2.54-1.77,2-2.89,0.16-.23,0.48-.69h0l1.81-2.6,5-7.22H695.78v15.59H683.52V562.09h-11.6v12.18l-0.05-.14a19.52,19.52,0,0,0-4.24-6.52,19.81,19.81,0,0,0-6.58-4.35,22.14,22.14,0,0,0-8.47-1.58,22.4,22.4,0,0,0-8.48,1.57,19.76,19.76,0,0,0-6.61,4.34,19.42,19.42,0,0,0-4.26,6.52,22.44,22.44,0,0,0,0,16.13,19.25,19.25,0,0,0,10.87,10.89,23.72,23.72,0,0,0,17,0,19.23,19.23,0,0,0,10.83-10.89l0.05-.14v12.18h11.6V586.52h12.26v15.77h11.48l-0.13-.19Zm-41-8.91a9.17,9.17,0,0,1-1.77,3.24,7.27,7.27,0,0,1-2.75,2,10.11,10.11,0,0,1-3.87.7h-0.62a10.28,10.28,0,0,1-3.91-.7,7.25,7.25,0,0,1-2.76-2,9.15,9.15,0,0,1-1.77-3.24,16.31,16.31,0,0,1,0-9.09,9.15,9.15,0,0,1,1.77-3.24,7.38,7.38,0,0,1,2.77-2,10.11,10.11,0,0,1,3.91-.71h0.62a10,10,0,0,1,3.87.71,7.4,7.4,0,0,1,2.76,2,9.16,9.16,0,0,1,1.77,3.24A16.31,16.31,0,0,1,661.59,586.73Z" transform="translate(-631.72 -561.32)"/><polygon class="cls-2" points="109.27 24.96 109.16 24.88 108.94 24.73 107.75 23.9 106.1 22.76 105.46 22.31 103.39 20.87 103.39 20.87 105.9 19.13 106.1 18.99 107.65 17.91 108.79 17.11 109.14 16.87 112.01 14.88 113.8 13.63 112.09 11.17 110.68 9.15 106.21 2.73 105.11 3.5 104.15 4.17 101.9 5.74 101.81 5.79 101.81 6.06 101.81 6.45 101.81 16 101.81 18.95 101.81 19.77 101.81 19.77 101.81 21.97 101.81 23.23 101.81 25.74 101.81 35.95 103.9 37.4 104.64 37.91 105.09 38.23 106.21 39.01 108.68 35.46 110.92 32.24 113.8 28.11 112.48 27.2 109.27 24.96"/><polygon class="cls-2" points="80.79 4.71 80.27 4.35 79.53 3.83 79.38 3.73 79.07 3.51 77.95 2.73 77.95 2.73 75.48 6.28 73.27 9.45 72.41 10.7 72.01 11.27 70.45 13.51 70.37 13.63 71.05 14.11 71.47 14.4 71.68 14.54 74.89 16.78 75.01 16.86 75.23 17.01 78.06 18.99 78.71 19.44 80.77 20.87 80.77 20.87 78.27 22.62 78.06 22.76 75.37 24.63 75.03 24.87 72.16 26.87 71.05 27.64 70.45 28.24 72.01 30.48 72.08 30.57 72.41 31.05 72.41 31.05 77.95 39.01 79.05 38.24 79.38 38.02 80.02 37.57 82.26 36.01 82.35 35.95 82.35 35.68 82.35 35.29 82.35 25.74 82.35 22.79 82.35 21.97 82.35 21.97 82.35 19.77 82.35 18.52 82.35 16 82.35 5.79 82.35 5.79 80.79 4.71"/></svg>