<svg id="Layer_1" data-name="Layer 1" xmlns="http://www.w3.org/2000/svg" viewBox="0 0 464.05 96.17"><defs><style>.cls-1{fill:#fff;}</style></defs><title>hoffman-logo</title><path class="cls-1" d="M261.2,335.72h1.26v7.79l8.9-7.79h1.74l-9.23,8.11,10.64,9.58h-1.9l-10.16-9.18v9.18H261.2v-17.7Z" transform="translate(-163.53 -257.54)"/><path class="cls-1" d="M282.64,335.72h1.26v17.7h-1.26v-17.7Z" transform="translate(-163.53 -257.54)"/><path class="cls-1" d="M299,336.88h-6.32v-1.16h13.9v1.16h-6.32v16.53H299V336.88Z" transform="translate(-163.53 -257.54)"/><path class="cls-1" d="M313.11,344.57a8.81,8.81,0,0,1,8.92-9.15,9.09,9.09,0,0,1,5.06,1.39v1.34a9,9,0,0,0-5-1.52,8,8,0,0,0,0,15.9,8.44,8.44,0,0,0,5.41-1.85v1.39a8.92,8.92,0,0,1-5.46,1.64A8.82,8.82,0,0,1,313.11,344.57Z" transform="translate(-163.53 -257.54)"/><path class="cls-1" d="M336.45,335.72h1.26v7.58h11.4v-7.58h1.26v17.7h-1.26v-8.92h-11.4v8.92h-1.26v-17.7Z" transform="translate(-163.53 -257.54)"/><path class="cls-1" d="M360.73,335.72h11.88v1.16H362v6.42h8.77v1.19H362v7.76h11v1.16H360.73v-17.7Z" transform="translate(-163.53 -257.54)"/><path class="cls-1" d="M381.9,335.72H383l11.93,15.5v-15.5h1.26v17.7h-1.09l-12-15.52v15.52H381.9v-17.7Z" transform="translate(-163.53 -257.54)"/><path class="cls-1" d="M422.86,345.8H417.5v-1.14h5.36v-5.36H424v5.36h5.36v1.14H424v5.33h-1.14V345.8Z" transform="translate(-163.53 -257.54)"/><path class="cls-1" d="M450.63,335.72h7.46c3.16,0,5,1.64,5,4.27a3.75,3.75,0,0,1-2.43,3.79,4.46,4.46,0,0,1,4,4.73c0,2.93-2.07,4.9-5.71,4.9h-8.32v-17.7Zm7.31,7.71c2.48,0,3.89-1.16,3.89-3.26s-1.42-3.29-3.89-3.29h-6v6.55h6Zm0.81,8.82c2.91,0,4.55-1.39,4.55-3.87s-1.64-3.84-4.55-3.84h-6.85v7.71h6.85Z" transform="translate(-163.53 -257.54)"/><path class="cls-1" d="M480.12,335.62h1.16l8,17.8H488l-2.33-5.16h-9.88l-2.33,5.16H472.1Zm5.06,11.53-4.47-9.88-4.5,9.88h9Z" transform="translate(-163.53 -257.54)"/><path class="cls-1" d="M499.84,336.88h-6.32v-1.16h13.9v1.16H501.1v16.53h-1.26V336.88Z" transform="translate(-163.53 -257.54)"/><path class="cls-1" d="M516,335.72h1.26v7.58h11.4v-7.58h1.26v17.7h-1.26v-8.92h-11.4v8.92H516v-17.7Z" transform="translate(-163.53 -257.54)"/><path id="_Compound_Path_" data-name="&lt;Compound Path&gt;" class="cls-1" d="M232.84,284.44c0-14.92,11.3-26.89,26.82-26.89s26.82,12,26.82,26.89-11.3,26.89-26.82,26.89S232.84,299.28,232.84,284.44Zm42.78,0c0-9.75-6.87-16.92-16-16.92s-16,7.17-16,16.92,6.87,16.92,16,16.92S275.61,294.19,275.61,284.44Z" transform="translate(-163.53 -257.54)"/><path id="_Compound_Path_2" data-name="&lt;Compound Path&gt;" class="cls-1" d="M310.84,258.58h37.9v9.53H321.48V278.6h21.06V288H321.48v22.31H310.84V258.58Z" transform="translate(-163.53 -257.54)"/><path id="_Compound_Path_3" data-name="&lt;Compound Path&gt;" class="cls-1" d="M372,258.58h37.9v9.53H382.64V278.6H403.7V288H382.64v22.31H372V258.58Z" transform="translate(-163.53 -257.54)"/><path id="_Compound_Path_4" data-name="&lt;Compound Path&gt;" class="cls-1" d="M433.16,258.58h10.57l15,21.42,15-21.42h10.49v51.72H473.72V274.9l-11.89,16.62h-5.91L443.8,274.9v35.39H433.16V258.58Z" transform="translate(-163.53 -257.54)"/><path id="_Compound_Path_5" data-name="&lt;Compound Path&gt;" class="cls-1" d="M528.09,258.28h10.2l22.16,52h-11.3l-5.1-12H522.18l-5.1,12H505.92Zm12.56,31.25-7.54-18-7.61,18h15.14Z" transform="translate(-163.53 -257.54)"/><path id="_Compound_Path_6" data-name="&lt;Compound Path&gt;" class="cls-1" d="M582.08,258.58h9.09l26.08,33.1v-33.1h10.35v51.72H618.8L592.5,277v33.25H582.08V258.58Z" transform="translate(-163.53 -257.54)"/><path id="_Compound_Path_7" data-name="&lt;Compound Path&gt;" class="cls-1" d="M433.16,258.07h10.57l15,21.42,15-21.42h10.49v51.72H473.72l-0.32-34.94L458.69,296.1h0L443.8,274.39v35.39H433.16V258.07Z" transform="translate(-163.53 -257.54)"/><polygon class="cls-1" points="44.86 1.03 34.22 1.03 34.22 16.41 44.86 18.14 44.86 15.69 44.86 1.03"/><polygon class="cls-1" points="44.86 23.56 44.86 23.37 34.22 21.64 10.71 17.8 10.71 12.57 10.71 1.03 0 1.03 0 10.82 0 16.06 0 16.24 0 26.03 0 41.25 0 53.11 10.57 53.11 10.71 53.11 10.71 41.25 10.71 30.27 10.71 27.78 34.22 31.61 34.22 39.68 34.22 53.11 35.34 53.11 44.86 53.11 44.86 34.66 44.86 33.35 44.86 28.83 44.86 27.32 44.86 23.56"/></svg>